<svg width="21" height="21" viewBox="0 0 21 21" fill="none" xmlns="http://www.w3.org/2000/svg">
<path d="M19.3775 2.75146C19.0625 2.48434 18.5677 2.44612 18.0561 2.6515H18.0553C17.5173 2.86738 2.82568 9.16906 2.2276 9.42652C2.11882 9.46432 1.16878 9.8188 1.26664 10.6084C1.354 11.3203 2.11756 11.6151 2.2108 11.6492L5.94586 12.9281C6.19366 13.7529 7.10716 16.7963 7.30918 17.4464C7.43518 17.8517 7.64056 18.3843 8.0005 18.4939C8.31634 18.6157 8.6305 18.5044 8.83378 18.3448L11.1173 16.2267L14.8037 19.1016L14.8914 19.1541C15.1418 19.265 15.3816 19.3205 15.6105 19.3205C15.7873 19.3205 15.957 19.2873 16.1191 19.2209C16.6714 18.9941 16.8923 18.4679 16.9154 18.4082L19.6689 4.09588C19.8369 3.33148 19.6034 2.94256 19.3775 2.75146ZM9.23992 13.4396L7.97992 16.7996L6.71992 12.5996L16.3799 5.45962L9.23992 13.4396Z" fill="#828282"/>
</svg>
