<svg width="21" height="21" viewBox="0 0 21 21" fill="none" xmlns="http://www.w3.org/2000/svg">
<path d="M17.7538 5.82378C17.4675 4.80248 16.9012 3.99398 16.0703 3.42208C15.0217 2.69968 13.8156 2.44348 12.774 2.28808C11.3327 2.07318 10.0272 2.04308 8.78399 2.19498C7.61779 2.33778 6.73999 2.56598 5.93849 2.93418C4.36839 3.65518 3.42619 4.82278 3.13849 6.40338C2.99849 7.17058 2.90469 7.86428 2.85009 8.52578C2.72409 10.0553 2.83819 11.4091 3.19939 12.6635C3.55079 13.8864 4.16539 14.7607 5.07819 15.3347C5.31129 15.481 5.60809 15.5867 5.89649 15.6889C6.04069 15.74 6.17929 15.7904 6.30039 15.8436V18.3146C6.30039 18.638 6.56219 18.8998 6.88559 18.8998C7.03819 18.8998 7.18449 18.8403 7.29369 18.7339L9.57359 16.5163C9.67299 16.4029 9.67299 16.4029 9.77519 16.4008C10.5543 16.3854 11.3502 16.3553 12.1412 16.3126C13.0995 16.2601 14.2097 16.1677 15.2555 15.7316C16.2124 15.3319 16.911 14.6977 17.3303 13.8472C17.7678 12.9596 18.0282 11.9978 18.1255 10.9079C18.2963 8.99128 18.1745 7.32808 17.7538 5.82378ZM13.7841 13.1178C13.5552 13.4923 13.2122 13.7513 12.809 13.9193C12.5143 14.0425 12.2133 14.0166 11.9228 13.8934C9.48399 12.8616 7.57229 11.2348 6.30809 8.89748C6.04769 8.41588 5.86639 7.89158 5.65849 7.38268C5.61579 7.27768 5.61929 7.15518 5.60039 7.04108C5.61859 6.21858 6.24929 5.75588 6.88629 5.61588C7.12989 5.56198 7.34549 5.64808 7.52609 5.82098C8.02589 6.29838 8.42139 6.85138 8.71889 7.47158C8.84909 7.74388 8.79029 7.98468 8.56839 8.18698C8.52289 8.22898 8.47459 8.26818 8.42489 8.30528C7.91879 8.68608 7.84459 8.97378 8.11409 9.54708C8.57329 10.5222 9.33559 11.1767 10.3219 11.5827C10.5816 11.6898 10.8266 11.6366 11.0254 11.4259C11.052 11.3979 11.0821 11.3706 11.1017 11.3384C11.4909 10.6895 12.0544 10.7539 12.5752 11.1242C12.9175 11.3671 13.2493 11.6233 13.5881 11.8711C14.1019 12.2498 14.0977 12.6054 13.7841 13.1178ZM10.8581 6.39988C10.7272 6.39988 10.5956 6.41038 10.4668 6.43208C10.2484 6.46918 10.0426 6.32148 10.0062 6.10308C9.96979 5.88538 10.1168 5.67888 10.3352 5.64248C10.5067 5.61448 10.6831 5.59978 10.8581 5.59978C12.5906 5.59978 14.0004 7.00958 14.0004 8.74208C14.0004 8.91778 13.9857 9.09418 13.957 9.26568C13.9241 9.46098 13.7547 9.59958 13.5629 9.59958C13.5412 9.59958 13.5188 9.59818 13.4964 9.59398C13.2787 9.55688 13.1317 9.35108 13.1681 9.13338C13.1898 9.00598 13.2003 8.87438 13.2003 8.74278C13.2003 7.45058 12.1496 6.39988 10.8581 6.39988ZM12.6004 8.99968C12.6004 9.22018 12.4212 9.39938 12.2007 9.39938C11.9802 9.39938 11.801 9.22018 11.801 8.99968C11.801 8.33818 11.2627 7.79988 10.6012 7.79988C10.3807 7.79988 10.2015 7.62068 10.2015 7.40018C10.2015 7.17968 10.3807 7.00048 10.6012 7.00048C11.703 6.99978 12.6004 7.89718 12.6004 8.99968ZM15.2926 9.48758C15.2506 9.67378 15.0861 9.79908 14.9027 9.79908C14.8733 9.79908 14.8432 9.79558 14.8138 9.78928C14.5982 9.74028 14.4631 9.52608 14.5121 9.31118C14.5702 9.05568 14.5996 8.79178 14.5996 8.52718C14.5996 6.58258 13.0176 4.99988 11.0723 4.99988C10.807 4.99988 10.5438 5.02928 10.2883 5.08738C10.0741 5.13708 9.85849 5.00128 9.81019 4.78568C9.76119 4.57008 9.89629 4.35588 10.1119 4.30758C10.4255 4.23548 10.7489 4.19978 11.0737 4.19978C13.4593 4.19978 15.4004 6.14088 15.4004 8.52648C15.4004 8.85128 15.364 9.17468 15.2926 9.48758Z" fill="#828282"/>
</svg>
