<svg width="21" height="21" viewBox="0 0 21 21" fill="none" xmlns="http://www.w3.org/2000/svg">
<path d="M16.692 4.31171C14.8703 2.48909 12.3853 1.56946 9.77601 1.77946C6.26813 2.06121 3.19338 4.50071 2.16438 7.86596C1.42938 10.2705 1.73826 12.7808 2.93526 14.8546L1.80126 18.6197C1.69276 18.9811 2.02263 19.3215 2.38751 19.2243L6.32851 18.1682C7.60513 18.8647 9.04188 19.2313 10.5049 19.2322H10.5084C14.179 19.2322 17.5705 16.987 18.7439 13.5088C19.8866 10.1173 19.0414 6.66371 16.692 4.31171ZM14.7854 13.6095C14.6034 14.1196 13.7118 14.6113 13.311 14.6472C12.9103 14.684 12.5349 14.8283 10.6904 14.1012C8.47051 13.2262 7.06876 10.9503 6.96026 10.8051C6.85088 10.659 6.06863 9.62121 6.06863 8.54671C6.06863 7.47221 6.63301 6.94371 6.83338 6.72584C7.03376 6.50709 7.27001 6.45284 7.41613 6.45284C7.56138 6.45284 7.70751 6.45284 7.83438 6.45809C7.99013 6.46421 8.16251 6.47209 8.32613 6.83521C8.52038 7.26746 8.94476 8.34721 8.99901 8.45659C9.05326 8.56596 9.09001 8.69371 9.01738 8.83896C8.94476 8.98421 8.90801 9.07521 8.79951 9.20296C8.69013 9.33071 8.57026 9.48734 8.47226 9.58534C8.36288 9.69384 8.24913 9.81284 8.37601 10.0307C8.50376 10.2495 8.94126 10.9643 9.59051 11.5427C10.4253 12.2865 11.1279 12.5166 11.3466 12.6268C11.5654 12.7362 11.6923 12.7178 11.82 12.5717C11.9478 12.4265 12.366 11.9347 12.5113 11.716C12.6565 11.4972 12.8026 11.534 13.003 11.6066C13.2034 11.6792 14.277 12.2077 14.4949 12.3171C14.7136 12.4265 14.8589 12.4807 14.9131 12.5717C14.9674 12.6618 14.9674 13.0993 14.7854 13.6095Z" fill="#828282"/>
</svg>
