<svg width="32" height="32" viewBox="0 0 32 32" fill="none" xmlns="http://www.w3.org/2000/svg">
<path d="M13.6694 20.9934L9.25 16.574L10.7231 15.1008L13.6694 18.0471L19.562 12.1545L21.0351 13.6277L13.6694 20.9934Z" fill="#DC143C"/>
<path fill-rule="evenodd" clip-rule="evenodd" d="M4.04167 9.20829C4.04167 6.90711 5.90715 5.04163 8.20834 5.04163H22.7917C25.0929 5.04163 26.9583 6.90711 26.9583 9.20829V23.7916C26.9583 26.0928 25.0929 27.9583 22.7917 27.9583H8.20834C5.90715 27.9583 4.04167 26.0928 4.04167 23.7916V9.20829ZM8.20834 7.12496H22.7917C23.9423 7.12496 24.875 8.0577 24.875 9.20829V23.7916C24.875 24.9422 23.9423 25.875 22.7917 25.875H8.20834C7.05775 25.875 6.12501 24.9422 6.12501 23.7916V9.20829C6.12501 8.0577 7.05775 7.12496 8.20834 7.12496Z" fill="#DC143C"/>
</svg>
