<svg width="175" height="40" viewBox="0 0 175 40" fill="none" xmlns="http://www.w3.org/2000/svg">
<path d="M45.6179 34.9812L44.6975 32.632H41.7378L40.8271 34.9812H39.9585L42.8808 27.5652H43.6032L46.5075 34.9812H45.6179ZM44.4247 31.8593L43.5707 29.5734C43.4603 29.2845 43.3451 28.924 43.2282 28.5068C43.1408 28.8683 43.0323 29.2245 42.9035 29.5734L42.0333 31.8625L44.4247 31.8593Z" fill="#D9AA5E"/>
<path d="M50.9047 30.1612H48.4095V34.9812H47.5703V29.4436H50.9047V30.1612Z" fill="#D9AA5E"/>
<path d="M54.5178 35.0818C53.6998 35.0818 53.0542 34.8328 52.581 34.335C52.1082 33.8371 51.871 33.145 51.8702 32.2586C51.8702 31.3656 52.0898 30.6567 52.5294 30.1318C52.7442 29.8732 53.0158 29.6676 53.323 29.5308C53.6298 29.394 53.9646 29.3296 54.3006 29.3428C54.609 29.3278 54.9174 29.3814 55.203 29.4999C55.4886 29.6184 55.7442 29.7987 55.9514 30.0279C56.3562 30.4846 56.5582 31.0864 56.557 31.8332V32.3641H52.7402C52.7566 33.0135 52.919 33.507 53.2274 33.8447C53.5358 34.1824 53.9746 34.3507 54.5438 34.3496C55.1526 34.3466 55.7542 34.2196 56.3118 33.9762V34.723C56.0414 34.843 55.7598 34.9354 55.471 34.999C55.157 35.0584 54.8378 35.0862 54.5178 35.0818ZM54.2906 30.049C54.0926 30.04 53.895 30.0742 53.7114 30.149C53.5278 30.2238 53.3626 30.3376 53.2274 30.4825C52.9434 30.821 52.779 31.2439 52.7598 31.6855H55.6546C55.6546 31.1562 55.5374 30.752 55.3006 30.4711C55.1762 30.3275 55.0202 30.2145 54.845 30.1407C54.6702 30.067 54.4802 30.0345 54.2906 30.0458V30.049Z" fill="#D9AA5E"/>
<path d="M59.0001 29.4436V31.7635H62.1025V29.4436H62.9337V34.9812H62.0961V32.486H59.0001V34.9812H58.1605V29.4436H59.0001Z" fill="#D9AA5E"/>
<path d="M68.6251 30.1612H66.8263V34.9812H65.9871V30.1612H64.2091V29.4436H68.6251V30.1612Z" fill="#D9AA5E"/>
<path d="M72.1134 35.0817C71.3114 35.0817 70.6906 34.835 70.2514 34.3414C69.8118 33.8479 69.591 33.1503 69.589 32.2488C69.589 31.3223 69.8118 30.6064 70.2578 30.1009C70.7038 29.5955 71.3394 29.3428 72.1654 29.3428C72.4338 29.3433 72.7014 29.3721 72.9642 29.4288C73.1806 29.4699 73.391 29.5375 73.5906 29.6301L73.3326 30.3428C73.1354 30.2659 72.9322 30.2045 72.7254 30.1594C72.5354 30.1142 72.341 30.0897 72.1458 30.0863C71.0214 30.0863 70.4586 30.8033 70.4574 32.2374C70.4574 32.9171 70.595 33.4393 70.8698 33.8041C71.1446 34.1688 71.551 34.3506 72.089 34.3495C72.5774 34.344 73.0598 34.2431 73.5094 34.0525V34.7944C73.0738 34.9997 72.595 35.0982 72.1134 35.0817Z" fill="#D9AA5E"/>
<path d="M78.7349 30.1612H76.9361V34.9812H76.0985V30.1612H74.3125V29.4436H78.7285L78.7349 30.1612Z" fill="#D9AA5E"/>
<path d="M84.4049 30.8026C84.4153 30.9539 84.3929 31.1057 84.3393 31.2475C84.2853 31.3894 84.2013 31.5178 84.0933 31.6241C83.8465 31.8327 83.5449 31.9661 83.2245 32.0088V32.0543C83.6953 32.1176 84.0365 32.2572 84.2573 32.4683C84.3689 32.5847 84.4557 32.7229 84.5113 32.8743C84.5673 33.0257 84.5913 33.1871 84.5817 33.3482C84.5929 33.5783 84.5469 33.8075 84.4477 34.0155C84.3485 34.2234 84.1993 34.4036 84.0137 34.5398C83.6337 34.8191 83.0817 34.9587 82.3529 34.9587H79.9177V29.4113H82.3529C83.7221 29.4113 84.4061 29.8751 84.4049 30.8026ZM83.5933 30.8837C83.6021 30.7683 83.5773 30.6528 83.5221 30.5511C83.4669 30.4493 83.3833 30.3659 83.2813 30.3107C82.9849 30.1829 82.6621 30.1272 82.3397 30.1483H80.7585V31.7085H82.1777C82.6969 31.7085 83.0629 31.6446 83.2749 31.5169C83.3801 31.4503 83.4649 31.3559 83.5197 31.2442C83.5749 31.1325 83.5981 31.0077 83.5865 30.8837H83.5933ZM83.7557 33.2833C83.7633 33.1542 83.7357 33.0255 83.6753 32.9111C83.6153 32.7966 83.5253 32.7008 83.4145 32.6339C83.1873 32.4975 82.8113 32.4293 82.2861 32.4293H80.7653V34.2492H82.3057C83.2625 34.2492 83.7413 33.9272 83.7425 33.2833H83.7557Z" fill="#D9AA5E"/>
<path d="M90.857 32.2084C90.857 33.111 90.6298 33.8146 90.1754 34.3189C89.7206 34.8233 89.0922 35.0765 88.2902 35.0787C87.8274 35.0876 87.3706 34.9673 86.9722 34.7313C86.5822 34.4936 86.2726 34.1447 86.0826 33.7296C85.8638 33.2518 85.7566 32.7305 85.769 32.2052C85.769 31.3025 85.995 30.599 86.4462 30.0946C86.8974 29.5903 87.5242 29.3386 88.3262 29.3397C89.0998 29.3397 89.7154 29.5973 90.1722 30.1125C90.6286 30.6277 90.857 31.3263 90.857 32.2084ZM86.6362 32.2084C86.6362 32.9152 86.7778 33.4563 87.0614 33.8319C87.345 34.2074 87.7606 34.393 88.3082 34.3887C88.857 34.3887 89.2742 34.2042 89.5598 33.8351C89.8458 33.466 89.9874 32.9249 89.9854 32.2116C89.9854 31.5071 89.8434 30.9724 89.5598 30.6077C89.2742 30.2408 88.8538 30.0589 88.2986 30.0589C87.7434 30.0589 87.3358 30.2391 87.055 30.5996C86.7742 30.96 86.6362 31.4941 86.6362 32.2084Z" fill="#D9AA5E"/>
<path d="M96.1974 29.4436V31.7635H99.2982V29.4436H100.137V34.9812H99.2982V32.486H96.1974V34.9812H95.3594V29.4436H96.1974Z" fill="#D9AA5E"/>
<path d="M104.431 35.0819C103.613 35.0819 102.967 34.833 102.494 34.3352C102.021 33.8373 101.785 33.1451 101.785 32.2587C101.785 31.3658 102.004 30.6569 102.444 30.132C102.659 29.8732 102.93 29.6675 103.237 29.5306C103.544 29.3938 103.879 29.3296 104.215 29.343C104.523 29.3285 104.83 29.3825 105.115 29.5009C105.4 29.6194 105.654 29.7994 105.861 30.0281C106.266 30.4848 106.468 31.0866 106.468 31.8334V32.3643H102.653C102.67 33.0136 102.835 33.5088 103.14 33.8449C103.446 34.1809 103.892 34.3498 104.457 34.3498C105.066 34.3468 105.667 34.2197 106.225 33.9763V34.7232C105.955 34.8434 105.673 34.9358 105.384 34.9992C105.07 35.0587 104.751 35.0864 104.431 35.0819ZM104.204 30.0492C104.006 30.0404 103.808 30.0746 103.624 30.1495C103.441 30.2243 103.276 30.3379 103.14 30.4827C102.856 30.8212 102.692 31.2441 102.673 31.6856H105.569C105.569 31.1564 105.451 30.7516 105.215 30.4713C105.09 30.3277 104.934 30.2146 104.759 30.1409C104.584 30.0671 104.394 30.0346 104.204 30.0459V30.0492Z" fill="#D9AA5E"/>
<path d="M112.884 36.8969H112.072V34.9812H108.202V36.8969H107.39V34.2588H107.823C108.296 33.6042 108.655 32.8749 108.885 32.1012C109.146 31.2392 109.28 30.3441 109.284 29.4436H112.092V34.2588H112.884V36.8969ZM111.283 34.2588V30.106H110.039C109.992 30.8788 109.846 31.6424 109.608 32.3788C109.41 33.0519 109.102 33.6876 108.697 34.2604L111.283 34.2588Z" fill="#D9AA5E"/>
<path d="M118.658 30.8333C118.668 30.9844 118.646 31.1361 118.592 31.2779C118.539 31.4196 118.455 31.5482 118.348 31.6548C118.098 31.8598 117.796 31.9904 117.476 32.0314V32.0768C117.946 32.1407 118.291 32.2787 118.508 32.4908C118.62 32.607 118.706 32.745 118.762 32.8961C118.818 33.0472 118.842 33.2083 118.833 33.3692C118.844 33.5995 118.798 33.8291 118.699 34.0374C118.6 34.2456 118.451 34.426 118.265 34.5624C117.885 34.8416 117.333 34.9812 116.604 34.9812H114.169V29.4436H116.604C117.974 29.4436 118.659 29.9068 118.658 30.8333ZM117.846 30.9144C117.855 30.799 117.83 30.6834 117.775 30.5816C117.72 30.4799 117.636 30.3964 117.534 30.3414C117.238 30.2127 116.915 30.157 116.592 30.179H115.011V31.7408H116.43C116.95 31.7408 117.316 31.677 117.528 31.5492C117.633 31.4823 117.718 31.3876 117.773 31.2756C117.828 31.1637 117.851 31.0387 117.84 30.9144H117.846ZM118.008 33.314C118.016 33.1848 117.989 33.056 117.929 32.9415C117.868 32.827 117.778 32.7312 117.667 32.6646C117.44 32.5282 117.061 32.46 116.531 32.46H115.01V34.2815H116.551C117.515 34.2815 117.997 33.9568 117.995 33.3074L118.008 33.314Z" fill="#D9AA5E"/>
<path d="M121.016 29.4436V32.9552L120.98 33.8757L120.965 34.163L123.961 29.4436H125.006V34.9812H124.224V31.5963L124.238 30.9291L124.264 30.2797L121.272 34.9877H120.227V29.4436H121.016Z" fill="#D9AA5E"/>
<path d="M129.495 29.455H130.267V32.1369L132.557 29.455H133.475L131.162 32.1369L133.673 34.9813H132.699L130.264 32.1775V34.9813H129.495V32.171L127.059 34.9748H126.095L128.6 32.1304L126.291 29.4485H127.212L129.485 32.1304L129.495 29.455Z" fill="#D9AA5E"/>
<path d="M135.539 29.4436V32.9552L135.501 33.8757L135.486 34.163L138.481 29.4436H139.527V34.9812H138.747V31.5963L138.762 30.9291L138.788 30.2797L135.798 34.9877H134.751V29.4436H135.539Z" fill="#D9AA5E"/>
<path d="M144.36 34.1728L144.522 33.7036L144.738 33.1078L146.24 29.455H147.305V34.9748H146.563V30.4096L146.462 30.7018L146.169 31.4746L144.738 34.9812H144.037L142.607 31.4648C142.465 31.1201 142.341 30.7678 142.238 30.4096V34.9812H141.49V29.4614H142.516L143.965 32.9714C144.107 33.3394 144.239 33.7398 144.36 34.1728Z" fill="#D9AA5E"/>
<path d="M154.044 32.2084C154.044 33.111 153.817 33.8146 153.362 34.3189C152.908 34.8233 152.28 35.0765 151.478 35.0787C151.014 35.0873 150.558 34.967 150.159 34.7313C149.77 34.4926 149.461 34.144 149.27 33.7296C149.052 33.2515 148.945 32.7304 148.956 32.2052C148.956 31.3025 149.182 30.599 149.633 30.0946C150.085 29.5903 150.711 29.3386 151.513 29.3397C152.287 29.3397 152.903 29.5973 153.361 30.1125C153.819 30.6277 154.046 31.3263 154.044 32.2084ZM149.823 32.2084C149.823 32.9152 149.964 33.4563 150.247 33.8319C150.53 34.2036 150.947 34.3887 151.496 34.3887C152.044 34.3887 152.47 34.2036 152.746 33.8351C153.022 33.4666 153.172 32.926 153.172 32.2116C153.172 31.4973 153.03 30.973 152.746 30.6076C152.461 30.2424 152.044 30.0606 151.489 30.0606C150.934 30.0606 150.524 30.2408 150.245 30.6012C149.966 30.9616 149.826 31.4941 149.826 32.2084H149.823Z" fill="#D9AA5E"/>
<path d="M157.904 35.0817C157.104 35.0817 156.482 34.835 156.044 34.3414C155.605 33.8479 155.383 33.1514 155.383 32.2488C155.383 31.3461 155.607 30.6058 156.053 30.1009C156.5 29.596 157.134 29.3428 157.961 29.3428C158.229 29.3433 158.496 29.3721 158.758 29.4288C158.974 29.4697 159.185 29.5373 159.385 29.6301L159.128 30.3428C158.931 30.2661 158.728 30.2048 158.521 30.1594C158.33 30.1141 158.136 30.0896 157.94 30.0863C156.814 30.0863 156.252 30.8033 156.253 32.2374C156.253 32.9171 156.39 33.4393 156.664 33.8041C156.94 34.1677 157.346 34.3495 157.884 34.3495C158.372 34.3441 158.854 34.2432 159.304 34.0525V34.7944C158.866 35.0004 158.387 35.0989 157.904 35.0817Z" fill="#D9AA5E"/>
<path d="M164.528 30.1612H162.729V34.9812H161.89V30.1612H160.112V29.4436H164.528V30.1612Z" fill="#D9AA5E"/>
<path d="M166.587 29.4436V32.9552L166.551 33.8757L166.537 34.163L169.532 29.4436H170.579V34.9812H169.795V31.5963L169.811 30.9291L169.836 30.2797L166.845 34.9877H165.798V29.4436H166.587Z" fill="#D9AA5E"/>
<path d="M17.3137 15.4898C17.7049 15.4898 18.0312 15.519 18.2666 15.5434C18.6288 15.5616 18.9859 15.6361 19.3251 15.7642C19.606 15.8811 19.8235 15.9704 19.8479 16.1311C19.8771 16.3194 19.6157 16.4428 19.1027 16.8616C18.304 17.511 18.0345 17.9607 17.9533 18.1036C17.8518 18.2758 17.7727 18.4602 17.7179 18.6523C17.6887 18.7611 17.4922 19.542 17.8364 19.8147C17.9484 19.904 18.0166 19.857 18.2147 19.9771C18.3554 20.0693 18.4754 20.1898 18.567 20.331C18.8202 20.6752 19.5897 20.8375 20.1904 20.7612C21.1288 20.6427 21.9389 19.8959 22.072 19.1556C22.1096 18.8212 22.1096 18.4835 22.072 18.149C22.0282 17.6149 21.9389 17.4152 22.0591 17.1555C22.1792 16.8958 22.4048 16.8064 22.6987 16.6328C23.4552 16.1895 23.801 15.9038 23.9277 15.6148C23.9829 15.485 23.9861 15.2187 23.9926 14.6878C23.9926 14.019 24.0007 13.6845 23.8481 13.6163C23.6695 13.5352 23.3416 13.7917 23.1695 14.0466C22.9552 14.3631 23.0721 14.5336 22.8562 14.8583C22.6403 15.183 22.2815 15.3453 22.2149 15.2901C22.1483 15.2349 22.452 14.9167 22.6078 14.4005C22.7912 13.7949 22.4568 13.6001 22.6467 13.2251C22.7133 13.0952 23.0396 12.8825 23.6923 12.4556C23.9585 12.2802 24.1517 12.1617 24.241 11.9198C24.2962 11.7672 24.2686 11.6796 24.3319 11.488C24.4163 11.2298 24.5835 10.9571 24.6566 10.9782C24.7297 10.9993 24.6712 11.3873 24.6696 11.6454C24.6696 12.7332 25.8888 13.7332 26.7476 14.1927C27.9928 14.8583 29.113 14.73 29.1114 14.8843C29.1114 15.1132 26.6535 15.0142 24.4878 16.1522C23.4812 16.6798 23.051 17.2042 22.8545 17.6929C22.7572 17.9348 22.6321 18.3796 22.5802 18.5679C22.3902 19.2449 22.3983 19.391 22.2928 19.7709C22.1435 20.305 21.8188 21.4658 21.0379 21.6915C20.8366 21.7483 20.6434 21.7126 20.2537 21.6379C19.5216 21.4999 19.2699 21.2402 18.6611 21.0567C18.2204 20.9307 17.7616 20.8796 17.3039 20.9057C16.8409 20.8797 16.3768 20.9307 15.9305 21.0567C15.3217 21.2402 15.07 21.4999 14.3362 21.6379C13.9482 21.7126 13.7534 21.7483 13.5521 21.6915C12.7728 21.4658 12.4481 20.305 12.2987 19.7709C12.1932 19.391 12.1997 19.2449 12.0114 18.5679C11.9578 18.3796 11.8345 17.9348 11.737 17.6929C11.5406 17.2058 11.1087 16.6798 10.1038 16.1522C7.93812 15.0158 5.48182 15.1132 5.48019 14.8843C5.48019 14.7219 6.59714 14.8583 7.84396 14.1927C8.70279 13.7332 9.92527 12.7316 9.92039 11.6454C9.92039 11.3873 9.85059 10.9961 9.93499 10.9782C10.0194 10.9604 10.1753 11.2298 10.2597 11.488C10.3214 11.6796 10.2954 11.7672 10.3506 11.9198C10.4383 12.1617 10.6331 12.2802 10.8993 12.4556C11.5487 12.8825 11.8734 13.0952 11.9448 13.2251C12.1348 13.6001 11.8003 13.7949 11.9838 14.4005C12.1461 14.9167 12.4465 15.2236 12.3751 15.2901C12.3036 15.3567 11.9513 15.1732 11.7354 14.8583C11.5195 14.5433 11.6347 14.3712 11.4221 14.0466C11.2484 13.7917 10.9221 13.5352 10.7419 13.6163C10.5909 13.6845 10.5909 14.019 10.599 14.6878C10.599 15.2187 10.6071 15.485 10.6639 15.6148C10.7905 15.9038 11.1363 16.1895 11.8929 16.6328C12.1867 16.8064 12.4108 16.8958 12.5325 17.1555C12.6543 17.4152 12.5634 17.6149 12.5195 18.149C12.482 18.4835 12.482 18.8212 12.5195 19.1556C12.6527 19.8959 13.4611 20.6427 14.4011 20.7612C14.9986 20.8375 15.7665 20.6752 16.0246 20.331C16.1175 20.1903 16.2379 20.0699 16.3785 19.9771C16.5766 19.8504 16.6448 19.8975 16.7568 19.8147C17.101 19.542 16.9029 18.7611 16.8737 18.6523C16.8206 18.4598 16.7419 18.2753 16.6399 18.1036C16.5571 17.9607 16.2876 17.5159 15.4889 16.8616C14.9775 16.4428 14.7161 16.3194 14.7453 16.1311C14.7697 15.9688 14.9872 15.8811 15.2681 15.7642C15.6067 15.636 15.9633 15.5616 16.3249 15.5434C16.562 15.519 16.8883 15.4947 17.2795 15.4898" fill="#D9AA5E"/>
<path d="M25.3354 9.22007C25.1925 9.28011 25.363 9.97171 25.5967 10.9182C25.8224 11.8338 25.9393 12.2981 26.1455 12.5417C26.5741 13.0433 27.2072 13.2089 28.0514 13.4297C28.8632 13.6424 28.9265 13.5157 29.2025 13.6911C30.2334 14.3518 29.8973 16.4737 30.0905 16.4867C30.2107 16.4867 30.4753 15.6749 30.5077 14.7106C30.6246 11.553 28.2057 8.90023 28.0514 8.98463C28.0027 9.01223 28.1911 9.30935 28.3924 10.212C28.5937 11.1146 28.7171 11.652 28.4963 11.8062C28.1716 12.0433 27.1845 11.2526 26.7202 10.8143C25.8127 9.95711 25.4929 9.15187 25.3354 9.22007Z" fill="#D9AA5E"/>
<path d="M9.2571 9.33708C9.39994 9.39876 9.2295 10.0904 8.99734 11.0352C8.77006 11.9525 8.65318 12.4152 8.44862 12.6587C8.01838 13.1604 7.38523 13.3259 6.54102 13.5467C5.72929 13.761 5.66598 13.6328 5.39161 13.8081C4.35908 14.4656 4.69514 16.5859 4.50195 16.6005C4.38181 16.6005 4.11719 15.7888 4.08472 14.8244C3.97595 11.6635 6.3868 9.01888 6.54102 9.10328C6.58973 9.12928 6.40141 9.428 6.20172 10.3306C6.00203 11.2333 5.87702 11.769 6.0962 11.9249C6.4355 12.1603 7.40958 11.3696 7.87227 10.9313C8.77978 10.0758 9.09962 9.27052 9.2571 9.33708Z" fill="#D9AA5E"/>
<path d="M17.079 9.60483L14.3613 8.43591C14.3768 8.28775 14.368 8.13803 14.3353 7.99271C14.2693 7.65275 14.0722 7.35243 13.7866 7.15663C13.0917 6.77187 11.8904 7.84171 11.7231 7.99271C10.7978 8.81743 10.5526 9.69899 10.3903 9.63727C10.2279 9.57559 10.2782 8.73303 10.6776 7.99271C11.0234 7.34331 11.439 7.15499 11.3578 6.94719C11.2328 6.62251 10.1565 6.77347 9.63212 6.84167C8.76192 6.95695 7.96156 7.06407 7.12386 7.46995C5.0653 8.46839 4.33474 10.5253 4.06686 10.3954C3.85581 10.2916 4.17564 9.13239 4.58962 8.12259C5.13944 6.78799 5.91059 5.55579 6.87059 4.47791C7.03294 4.56395 7.2651 4.68409 7.5557 4.8026C7.78136 4.90163 7.95832 4.96495 7.98754 4.97956C8.6824 5.23607 9.69868 4.74253 10.8286 4.65487C11.2873 4.61759 11.7489 4.64381 12.2004 4.73279C13.4765 4.99092 14.311 5.77507 14.9425 6.37899C15.8811 7.28579 16.6103 8.38675 17.079 9.60483Z" fill="#D9AA5E"/>
<path d="M17.509 9.60476L20.2267 8.43588C20.2112 8.28772 20.22 8.138 20.2527 7.99268C20.3194 7.653 20.5163 7.35288 20.8014 7.15656C21.4979 6.7718 22.6976 7.84168 22.8665 7.99268C23.7902 8.8174 24.037 9.69892 24.1978 9.63724C24.3585 9.57556 24.3114 8.73296 23.9104 7.99268C23.5662 7.34328 23.1506 7.15496 23.2318 6.94716C23.3552 6.62244 24.4315 6.77344 24.9559 6.84164C25.8277 6.95688 26.6264 7.06404 27.4642 7.46992C29.5227 8.46836 30.2549 10.5253 30.5212 10.3922C30.7338 10.2882 30.4124 9.12908 29.9984 8.11928C29.4505 6.78556 28.6821 5.55348 27.7255 4.47461C27.5632 4.56065 27.3294 4.68079 27.0388 4.79931C26.8132 4.89834 26.6378 4.96165 26.6086 4.97626C25.9121 5.23276 24.8958 4.73924 23.7675 4.65157C23.3088 4.61429 22.8472 4.64052 22.3957 4.72949C21.118 4.98763 20.2852 5.77176 19.652 6.37568C18.7112 7.28324 17.9798 8.38524 17.509 9.60476Z" fill="#D9AA5E"/>
<path d="M17.2857 7.65665C17.5763 7.07057 18.5163 5.32209 20.2551 4.48113C20.8072 4.22774 21.3861 4.03715 21.9808 3.91292C22.5942 3.79814 23.2173 3.74377 23.8413 3.75057C24.4501 3.75057 24.8154 3.822 25.507 3.73109C25.7849 3.71432 26.0586 3.65519 26.3187 3.55575C27.1483 3.18723 27.6175 2.23587 27.4551 2.06541C27.3642 1.968 27.1077 2.16769 26.6125 2.32029C25.856 2.55407 25.2164 2.45829 24.653 2.37874C22.9938 2.13684 22.4646 1.24718 21.4126 1.04425C20.583 0.883525 19.0975 1.29426 17.125 3.39016" fill="#D9AA5E"/>
<path d="M17.2857 7.6566C16.9934 7.07052 16.0746 5.3188 14.3358 4.47785C13.7842 4.22435 13.2059 4.03374 12.6117 3.90964C11.9978 3.7948 11.3741 3.74042 10.7496 3.74729C10.1424 3.75541 9.77553 3.81872 9.08393 3.72781C8.80924 3.71024 8.53884 3.65112 8.28192 3.55247C7.45232 3.18395 6.98314 2.2326 7.14549 2.06213C7.2364 1.96472 7.49291 2.16441 7.98807 2.31702C8.7446 2.55079 9.38424 2.45501 9.94761 2.37546C11.6068 2.13681 12.1263 1.2439 13.1799 1.04097C14.0095 0.878622 15.3213 1.12052 17.2954 3.21479" fill="#D9AA5E"/>
<path d="M19.3996 13.7852C19.3396 13.7852 19.3607 13.1196 19.312 12.1617C19.2844 11.613 19.2568 11.4312 19.3607 11.1535C19.4969 10.8106 19.7415 10.5216 20.0571 10.3305C20.4241 10.1162 20.7958 10.1048 21.4095 10.0853C21.6774 10.093 21.9455 10.0799 22.2115 10.0463C22.4425 10.0102 22.6693 9.95086 22.8885 9.86938C22.9221 9.96366 22.9386 10.0632 22.9372 10.1633C22.9225 10.8305 22.0069 11.2493 21.9631 11.2705C21.714 11.3737 21.4543 11.4494 21.1887 11.4961C20.9477 11.5149 20.7135 11.5852 20.502 11.7023C20.3753 11.7819 20.2114 11.9198 20.2373 11.9767C20.2633 12.0335 20.3689 12.0026 20.4241 11.9961C20.5864 11.9767 21.5329 11.8549 21.5605 11.9377C21.5767 11.9815 21.3251 12.1309 21.0605 12.2218C20.8267 12.3013 20.7244 12.2851 20.2974 12.3841C20.1841 12.4066 20.0724 12.4364 19.963 12.4734C19.4224 12.7267 19.4776 13.7885 19.3996 13.7852Z" fill="#D9AA5E"/>
<path d="M15.1836 13.8436C15.2453 13.8436 15.2242 13.178 15.2713 12.2202C15.2989 11.6698 15.3265 11.488 15.2226 11.2104C15.0873 10.8673 14.8433 10.5781 14.5277 10.3873C14.1608 10.173 13.7891 10.1616 13.1754 10.1421C12.9069 10.1498 12.6383 10.1368 12.3718 10.1032C12.1414 10.068 11.9151 10.0098 11.6964 9.92944C11.6617 10.024 11.6446 10.1242 11.6461 10.2249C11.6623 10.8922 12.5779 11.3094 12.6202 11.3305C12.8715 11.4331 13.1334 11.5077 13.4011 11.5529C13.6415 11.5718 13.8752 11.6421 14.0861 11.7591C14.2144 11.8403 14.3767 11.9766 14.3508 12.0335C14.3248 12.0903 14.2193 12.0594 14.1641 12.053C14.0017 12.0335 13.0569 11.9117 13.0277 11.9945C13.0131 12.04 13.2631 12.1877 13.5277 12.2786C13.7615 12.3582 13.8654 12.3436 14.2923 12.441C14.4023 12.4642 14.5107 12.494 14.617 12.5302C15.1577 12.7851 15.1057 13.8485 15.1836 13.8436Z" fill="#D9AA5E"/>
<path d="M22.0073 22.4464C22.4245 22.7987 25.0821 25.1154 24.9944 28.5847C24.9279 31.2066 23.3125 33.7327 20.9682 35.0916C21.1764 34.176 21.0485 33.2161 20.6078 32.3869C20.882 32.224 21.1369 32.0307 21.3676 31.8106C22.9602 30.5118 23.4781 28.0766 22.9115 26.1365C22.5806 25.0704 21.95 24.1219 21.0949 23.4043L13.4289 23.5049C12.9754 23.9291 12.5919 24.4222 12.2924 24.966C11.2404 26.8882 11.1138 29.7812 12.6918 31.4599C13.0018 31.7913 13.3545 32.0801 13.7406 32.3187C13.4183 32.9003 13.2506 33.5549 13.2535 34.2198C13.2539 34.4721 13.2783 34.7238 13.3266 34.9715C11.4482 33.7945 10.1186 31.8463 9.7306 29.8121C9.17212 26.8898 10.6803 24.4449 10.7924 24.2712C11.2073 23.6194 11.7223 23.037 12.3184 22.5454L22.0073 22.4464Z" fill="#D9AA5E"/>
<path d="M17.1504 38.9896C16.0462 38.9884 14.9765 38.6041 14.1241 37.902C13.2716 37.2 12.6893 36.2239 12.4765 35.1403C12.419 34.8396 12.3896 34.5341 12.3888 34.2279C12.4118 32.9805 12.9236 31.7919 13.8139 30.9179C14.7042 30.0439 15.902 29.5542 17.1496 29.5542C18.3973 29.5542 19.5951 30.0439 20.4854 30.9179C21.3757 31.7919 21.8874 32.9805 21.9105 34.2279C21.9107 34.8532 21.7877 35.4723 21.5486 36.05C21.3095 36.6277 20.9589 37.1526 20.5169 37.5948C20.0748 38.037 19.55 38.3878 18.9724 38.627C18.3948 38.8664 17.7757 38.9896 17.1504 38.9896ZM14.1406 34.8172C14.2917 35.5929 14.7356 36.2807 15.3802 36.7379C16.0248 37.1952 16.8206 37.3868 17.6026 37.2732C18.3847 37.1595 19.093 36.7493 19.5808 36.1275C20.0685 35.5057 20.2983 34.72 20.2225 33.9334C20.1466 33.1468 19.771 32.4195 19.1734 31.9024C18.5758 31.3852 17.8022 31.1179 17.0128 31.1558C16.2234 31.1936 15.4789 31.5338 14.9336 32.1058C14.3882 32.6778 14.0839 33.4376 14.0837 34.2279C14.084 34.4257 14.103 34.623 14.1406 34.8172Z" fill="#D9AA5E"/>
<path d="M23.9401 18.3716C23.9489 19.0785 23.7132 19.7667 23.2728 20.3197C23.5417 20.3731 23.7959 20.4839 24.018 20.6444C24.2905 20.8348 24.5015 21.1005 24.6252 21.4091C24.8038 21.8815 24.6999 22.3556 24.6252 22.7079C24.5505 23.0602 24.4823 23.1056 24.5083 23.2956C24.5651 23.7177 24.9759 23.9596 25.1577 24.1073C25.5441 24.4093 25.9158 25.0635 25.8428 26.6155C26.1236 26.4637 26.381 26.2723 26.6074 26.0473C26.8883 25.7681 27.2568 25.3979 27.3526 24.8135C27.3984 24.4588 27.342 24.0983 27.1903 23.7745C26.9922 23.3134 26.7552 23.2469 26.5409 22.8004C26.4001 22.5077 26.3327 22.1851 26.3444 21.8604C26.3915 21.0958 26.9938 20.5957 27.1481 20.4691C26.8782 20.1216 26.5694 19.8062 26.2276 19.5291C25.5589 18.9806 24.7781 18.5855 23.9401 18.3716Z" fill="#D9AA5E"/>
<path d="M24.8648 16.5094C24.7511 17.1588 24.8907 17.5371 25.0482 17.7643C25.4379 18.3293 26.097 18.1962 27.2155 18.9657C27.8649 19.4105 27.9299 19.6508 27.9477 19.7498C28.0159 20.1086 27.8033 20.5015 27.5029 21.0486C27.3406 21.3538 27.2935 21.3733 27.2415 21.4935C27.0792 21.862 27.1425 22.5162 28.1831 23.7663C28.5617 23.2905 28.8857 22.7737 29.1491 22.2256C29.8625 20.6932 30.1169 18.9869 29.8813 17.313C29.6199 17.4283 29.1929 17.4055 28.7124 17.3455C27.8081 17.2335 27.0483 16.6555 26.6944 15.6409L24.8648 16.5094Z" fill="#D9AA5E"/>
<path d="M10.8512 18.3196C10.847 18.6381 10.8931 18.9553 10.9876 19.2596C11.1006 19.6223 11.2801 19.9609 11.5168 20.258C11.2479 20.3151 10.9944 20.4291 10.7733 20.5925C10.5003 20.7816 10.2891 21.047 10.1661 21.3555C9.98751 21.8295 10.0898 22.3036 10.1661 22.6543C10.2424 23.0049 10.309 23.052 10.283 23.2419C10.2262 23.6641 9.81379 23.9059 9.63359 24.0456C9.24723 24.3475 8.87543 25.0018 8.94687 26.5538C8.66639 26.4015 8.40895 26.2102 8.18223 25.9856C7.90299 25.7064 7.53284 25.3362 7.43867 24.7518C7.39384 24.3971 7.45011 24.0369 7.60102 23.7127C7.80071 23.2517 8.03775 23.1835 8.25039 22.7387C8.39007 22.4456 8.45691 22.1231 8.44523 21.7987C8.39975 21.034 7.79584 20.534 7.63349 20.4074C7.90395 20.0599 8.21335 19.7445 8.55563 19.4674C9.22711 18.9207 10.0109 18.5287 10.8512 18.3196Z" fill="#D9AA5E"/>
<path d="M9.81859 16.4834C9.93223 17.1328 9.79259 17.5111 9.63675 17.7367C9.24547 18.3033 8.58635 18.1702 7.4678 18.9397C6.81841 19.3829 6.75509 19.6248 6.73561 19.7239C6.66905 20.081 6.88172 20.4755 7.18044 21.0226C7.34279 21.3279 7.38987 21.3473 7.44182 21.4675C7.60416 21.836 7.54085 22.4903 6.50021 23.7403C6.11901 23.2642 5.79228 22.7469 5.52613 22.198C4.81264 20.6662 4.55833 18.9604 4.79394 17.287C5.05532 17.4023 5.48229 17.3796 5.96284 17.3195C6.86711 17.2075 7.6269 16.6295 7.98243 15.6149L9.81859 16.4834Z" fill="#D9AA5E"/>
<path d="M17.3681 27.7877C17.3551 27.8087 17.3291 27.8023 17.3161 27.7877C16.9748 27.2771 16.4507 26.9169 15.8517 26.7811C15.3982 26.6952 14.9291 26.7519 14.5091 26.9435C14.1 25.9093 13.6584 24.656 13.8597 24.5083C14.212 24.2599 15.4735 24.6121 15.9361 24.6527C17.2349 24.7647 18.3097 24.7696 19.5743 24.5147C20.4169 24.3524 20.74 24.4855 20.7919 24.5147C21.0192 24.6138 20.5517 25.9109 20.1425 26.9499C19.6587 26.7199 19.1065 26.6782 18.5935 26.8331C18.0806 26.9879 17.6437 27.3282 17.3681 27.7877Z" fill="#D9AA5E"/>
<path d="M40.1318 18.542C40.2333 18.5422 40.3339 18.5223 40.4277 18.4834C40.5214 18.4445 40.6066 18.3874 40.6781 18.3153C40.7497 18.2433 40.8063 18.1578 40.8446 18.0638C40.8829 17.9698 40.9021 17.8691 40.9013 17.7676V8.12906C40.9021 8.02754 40.8829 7.92682 40.8446 7.83282C40.8063 7.73878 40.7497 7.6533 40.6781 7.5813C40.6066 7.50926 40.5214 7.45214 40.4277 7.41326C40.3339 7.37434 40.2333 7.35442 40.1318 7.35466H39.4483V6.92442H48.2587L48.3451 6.32214H48.6859V10.4522H48.3451L48.2587 9.67782C48.1227 8.4911 46.9763 7.35466 45.6063 7.35466H42.5215V18.542H44.0607V18.9738H39.4483V18.542H40.1318Z" fill="#D9AA5E"/>
<path d="M44.379 19.2644H39.14V18.2514H40.1336C40.1961 18.2505 40.2578 18.2372 40.3151 18.2121C40.3724 18.187 40.4241 18.1507 40.4671 18.1053C40.51 18.0599 40.5435 18.0063 40.5654 17.9477C40.5873 17.8892 40.5973 17.8268 40.5947 17.7643V8.12907C40.5973 8.06659 40.5873 8.00423 40.5654 7.94563C40.5435 7.88707 40.51 7.83351 40.4671 7.78811C40.4241 7.74267 40.3724 7.70635 40.3151 7.68127C40.2578 7.65619 40.1961 7.64283 40.1336 7.64203H39.14V6.63223H47.9978L48.0822 6.02991H49.0058V10.7412H48.0742L47.9602 9.70543C47.8354 8.71351 46.8614 7.64527 45.6078 7.64527H42.848V18.2514H44.387L44.379 19.2644ZM40.6921 18.6816H42.2214V7.21503H40.6921C40.851 7.30891 40.9829 7.44255 41.0745 7.60279C41.1662 7.76307 41.2146 7.94443 41.2148 8.12907V17.7676C41.2146 17.9522 41.1662 18.1336 41.0745 18.2938C40.9829 18.4541 40.851 18.5877 40.6921 18.6816ZM46.5254 7.21503C46.9366 7.36019 47.3134 7.58867 47.6326 7.88619C47.9514 8.18367 48.2058 8.54383 48.3794 8.94403V7.21503H46.5254Z" fill="#D9AA5E"/>
<path d="M50.857 18.9737V18.5419H51.5422C51.6438 18.5419 51.7442 18.5218 51.8378 18.4828C51.9314 18.4438 52.0166 18.3867 52.0882 18.3148C52.1598 18.2428 52.2162 18.1574 52.2546 18.0634C52.293 17.9695 52.3126 17.869 52.3118 17.7675V8.12896C52.3126 8.02748 52.293 7.92688 52.2546 7.83296C52.2162 7.73904 52.1598 7.65364 52.0882 7.58168C52.0166 7.50968 51.9314 7.45256 51.8378 7.4136C51.7442 7.3746 51.6438 7.35456 51.5422 7.35456H50.857V6.92432H55.9906C58.7278 6.92432 60.439 8.62736 60.439 10.8824C60.439 13.1374 58.7278 14.842 55.9906 14.842H53.937V18.5419H55.4774V18.9737H50.857ZM53.9418 14.4118H55.653C57.3642 14.4118 58.6466 13.1374 58.6466 10.8824C58.6466 8.62736 57.3642 7.35456 55.653 7.35456H53.937L53.9418 14.4118Z" fill="#D9AA5E"/>
<path d="M55.7891 19.2645H50.5487V18.2515H51.5439C51.6063 18.2504 51.6679 18.2369 51.7251 18.2118C51.7819 18.1866 51.8335 18.1502 51.8763 18.1048C51.9191 18.0594 51.9523 18.0059 51.9743 17.9475C51.9959 17.889 52.0059 17.8268 52.0035 17.7644V8.12916C52.0059 8.0668 51.9959 8.00456 51.9743 7.94612C51.9523 7.88764 51.9191 7.83416 51.8763 7.78876C51.8335 7.74336 51.7819 7.707 51.7251 7.68184C51.6679 7.65664 51.6063 7.64312 51.5439 7.64212H50.5487V6.63232H55.9923C58.7927 6.63232 60.7507 8.3808 60.7507 10.8826C60.7507 13.3843 58.7927 15.1328 55.9923 15.1328H54.2487V18.2515H55.7891V19.2645ZM52.0991 18.6817H53.6283V7.21512H52.0991C52.2583 7.30892 52.3903 7.44248 52.4823 7.60272C52.5743 7.763 52.6231 7.9444 52.6235 8.12916V17.7677C52.6231 17.9524 52.5743 18.1338 52.4823 18.2941C52.3903 18.4543 52.2583 18.5879 52.0991 18.6817ZM56.8575 7.28008C58.1483 7.77848 58.9535 9.10324 58.9535 10.8826C58.9535 12.6619 58.1415 13.9882 56.8575 14.4866C58.8463 14.1814 60.1303 12.8096 60.1303 10.8826C60.1303 8.95548 58.8463 7.58364 56.8575 7.28008ZM54.2487 14.1198H55.6495C57.2731 14.1198 58.3331 12.8502 58.3331 10.8826C58.3331 8.91492 57.2795 7.64536 55.6495 7.64536H54.2487V14.1198Z" fill="#D9AA5E"/>
<path d="M62.0132 18.542H62.5264C63.296 18.542 63.6384 18.1979 63.8948 17.5095L67.83 6.66638H68.5996L72.7056 17.5095C72.98 18.2498 73.2184 18.542 73.988 18.542H74.4164V18.9739H70.1388V18.542H71.3368L70.0204 15.1003H65.312L64.062 18.542H65.174V18.9739H62.0132V18.542ZM69.8824 14.7561L67.658 8.64538L65.434 14.7561H69.8824Z" fill="#D9AA5E"/>
<path d="M74.7263 19.2643H69.8283V18.2513H70.8951L69.8007 15.3908H65.5295L64.4923 18.2513H65.4807V19.2643H61.7031V18.2513H62.5263C63.1039 18.2513 63.3655 18.0484 63.6023 17.4136L67.6075 6.37402H68.8187L72.9975 17.4136C73.2555 18.1117 73.4227 18.2529 73.9879 18.2529H74.7263V19.2643ZM71.7199 18.6815H73.1939C72.8139 18.4948 72.6079 18.1344 72.4131 17.6052L68.3803 6.95686H68.0555L67.7163 7.89198L70.3139 15.0011L71.7199 18.6815ZM63.3135 18.6815H63.6887L63.8395 18.2643C63.7011 18.4445 63.5203 18.5878 63.3135 18.6815ZM65.8687 14.4605H69.4487L67.6627 9.54302L65.8687 14.4605Z" fill="#D9AA5E"/>
<path d="M75.735 7.35456V6.92432H80.1834V7.35456H78.8146V12.2607H85.2306V8.12896C85.2314 8.02736 85.2118 7.92664 85.1734 7.8326C85.135 7.73856 85.0782 7.65308 85.0066 7.58108C84.9346 7.50908 84.8494 7.452 84.7558 7.41312C84.6618 7.37424 84.561 7.35432 84.4594 7.35456H83.7762V6.92432H88.2242V7.35456H86.8558V18.5419H88.2242V18.9737H83.7762V18.5419H84.4594C84.561 18.5421 84.6618 18.5222 84.7558 18.4833C84.8494 18.4444 84.9346 18.3873 85.0066 18.3153C85.0782 18.2434 85.135 18.1579 85.1734 18.0638C85.2118 17.9698 85.2314 17.8691 85.2306 17.7675V12.6048H78.8146V18.5419H80.1834V18.9737H75.735V18.5419H76.4186C76.5202 18.5421 76.6206 18.5222 76.7146 18.4833C76.8086 18.4444 76.8938 18.3873 76.9654 18.3153C77.037 18.2434 77.0938 18.1579 77.1322 18.0638C77.1706 17.9698 77.1902 17.8691 77.1898 17.7675V8.12896C77.1902 8.02736 77.1706 7.92664 77.1322 7.8326C77.0938 7.73856 77.037 7.65308 76.9654 7.58108C76.8938 7.50908 76.8086 7.452 76.7146 7.41312C76.6206 7.37424 76.5202 7.35432 76.4186 7.35456H75.735Z" fill="#D9AA5E"/>
<path d="M88.5323 19.2645H83.4639V18.2515H84.4575C84.5199 18.2506 84.5819 18.2373 84.6391 18.2122C84.6963 18.1871 84.7479 18.1508 84.7911 18.1054C84.8339 18.06 84.8675 18.0064 84.8895 17.9478C84.9111 17.8893 84.9211 17.8269 84.9187 17.7644V12.894H79.1227V18.2515H80.4915V19.2645H75.4231V18.2515H76.4163C76.4791 18.2506 76.5407 18.2373 76.5979 18.2122C76.6555 18.1871 76.7071 18.1508 76.7499 18.1054C76.7931 18.06 76.8263 18.0064 76.8483 17.9478C76.8703 17.8893 76.8803 17.8269 76.8775 17.7644V8.12916C76.8803 8.06668 76.8703 8.00432 76.8483 7.94572C76.8263 7.88716 76.7931 7.8336 76.7499 7.7882C76.7071 7.74276 76.6555 7.70644 76.5979 7.68136C76.5407 7.65628 76.4791 7.64292 76.4163 7.64212H75.4231V6.63232H80.4915V7.64536H79.1227V11.9686H84.9187V8.12916C84.9211 8.06668 84.9111 8.00432 84.8895 7.94572C84.8675 7.88716 84.8339 7.8336 84.7911 7.7882C84.7479 7.74276 84.6963 7.70644 84.6391 7.68136C84.5819 7.65628 84.5199 7.64292 84.4575 7.64212H83.4639V6.63232H88.5323V7.64536H87.1639V18.2515H88.5323V19.2645ZM85.0111 18.6817H86.5403V7.21512H85.0111C85.1703 7.30892 85.3023 7.44248 85.3943 7.60272C85.4863 7.763 85.5351 7.9444 85.5355 8.12916V17.7677C85.5351 17.9524 85.4863 18.1338 85.3943 18.2941C85.3023 18.4543 85.1703 18.5879 85.0111 18.6817ZM76.9703 18.6817H78.4995V7.21512H76.9703C77.1291 7.30892 77.2615 7.44248 77.3531 7.60272C77.4451 7.763 77.4939 7.9444 77.4943 8.12916V17.7677C77.4943 17.9521 77.4459 18.1333 77.3547 18.2935C77.2635 18.4538 77.1319 18.5875 76.9735 18.6817H76.9703Z" fill="#D9AA5E"/>
<path d="M89.4532 22.2434V18.5419H90.992L94.5004 7.35456H93.1288V6.92432H100.571V7.35456H99.1096V18.5419H100.733V22.2434H100.402L100.317 21.469C100.163 19.9023 99.2216 18.9737 97.6648 18.9737H92.5328C90.976 18.9737 90.0344 19.9023 89.88 21.469L89.7956 22.2434H89.4532ZM91.5052 18.5419H96.7232C96.8244 18.5419 96.9248 18.5218 97.0188 18.4828C97.1124 18.4438 97.1972 18.3867 97.2688 18.3148C97.3404 18.2428 97.3968 18.1574 97.4352 18.0634C97.4736 17.9695 97.4932 17.869 97.4924 17.7675V8.12896C97.4932 8.02748 97.4736 7.92688 97.4352 7.83296C97.3968 7.73904 97.3404 7.65364 97.2688 7.58168C97.1972 7.50968 97.1124 7.45256 97.0188 7.4136C96.9248 7.3746 96.8244 7.35456 96.7232 7.35456H95.0136L91.5052 18.5419Z" fill="#D9AA5E"/>
<path d="M101.053 22.5342H100.121L100.007 21.4984C99.8661 20.0568 99.0333 19.2645 97.6629 19.2645H92.5313C91.1609 19.2645 90.3297 20.0568 90.1885 21.4952L90.0733 22.5342H89.1413V18.2515H90.7649L94.0881 7.64536H92.8253V6.63232H100.887V7.64536H99.4261V18.2515H101.05L101.053 22.5342ZM97.2781 18.6817H97.6629C99.0333 18.6817 100.02 19.3636 100.432 20.5487V18.8343H98.8093V7.21512H97.2801C97.4389 7.30892 97.5713 7.44248 97.6629 7.60272C97.7549 7.763 97.8037 7.9444 97.8041 8.12916V17.7677C97.8037 17.9526 97.7545 18.1341 97.6625 18.2944C97.5701 18.4546 97.4377 18.5881 97.2781 18.6817ZM89.7617 18.8343V20.547C89.8905 20.1438 90.1145 19.7776 90.4149 19.4794C90.7153 19.1812 91.0833 18.96 91.4873 18.8343H89.7617ZM91.9193 18.2515H96.7229C96.7853 18.2504 96.8469 18.2369 96.9041 18.2118C96.9613 18.1866 97.0125 18.1502 97.0553 18.1048C97.0981 18.0594 97.1317 18.0059 97.1533 17.9475C97.1753 17.889 97.1853 17.8268 97.1825 17.7644V8.12916C97.1853 8.0668 97.1753 8.00456 97.1533 7.94612C97.1317 7.88764 97.0981 7.83416 97.0553 7.78876C97.0125 7.74336 96.9613 7.707 96.9041 7.68184C96.8469 7.65664 96.7853 7.64312 96.7229 7.64212H95.2377L91.9193 18.2515Z" fill="#D9AA5E"/>
<path d="M108.852 18.9737V18.5419H109.535C109.637 18.5421 109.738 18.5222 109.831 18.4833C109.925 18.4444 110.01 18.3873 110.082 18.3152C110.153 18.2432 110.21 18.1577 110.248 18.0637C110.287 17.9697 110.306 17.869 110.305 17.7675V8.12896C110.306 8.02744 110.287 7.92672 110.248 7.83272C110.21 7.73868 110.153 7.6532 110.082 7.58116C110.01 7.50916 109.925 7.45204 109.831 7.41316C109.738 7.37424 109.637 7.35432 109.535 7.35456H108.852V6.92432H113.984C116.721 6.92432 118.432 8.62736 118.432 10.8824C118.432 13.1374 116.721 14.842 113.984 14.842H111.93V18.5419H113.471V18.9737H108.852ZM111.937 14.4118H113.648C115.359 14.4118 116.643 13.1374 116.643 10.8824C116.643 8.62736 115.359 7.35456 113.648 7.35456H111.93L111.937 14.4118Z" fill="#D9AA5E"/>
<path d="M113.784 19.2645H108.553V18.2515H109.546C109.609 18.2504 109.67 18.2369 109.727 18.2118C109.784 18.1866 109.836 18.1502 109.879 18.1048C109.922 18.0594 109.955 18.0059 109.977 17.9475C109.998 17.889 110.008 17.8268 110.006 17.7644V8.12916C110.008 8.0668 109.998 8.00456 109.977 7.94612C109.955 7.88764 109.922 7.83416 109.879 7.78876C109.836 7.74336 109.784 7.707 109.727 7.68184C109.67 7.65664 109.609 7.64312 109.546 7.64212H108.553V6.63232H113.995C116.797 6.63232 118.753 8.3808 118.753 10.8826C118.753 13.3843 116.805 15.1328 113.995 15.1328H112.243V18.2515H113.784V19.2645ZM110.094 18.6817H111.624V7.21512H110.094C110.253 7.30868 110.385 7.4422 110.477 7.60248C110.569 7.7628 110.618 7.94432 110.618 8.12916V17.7677C110.618 17.9525 110.569 18.134 110.477 18.2943C110.385 18.4546 110.253 18.5882 110.094 18.6817ZM114.852 7.28008C116.15 7.77848 116.949 9.10324 116.949 10.8826C116.949 12.6619 116.138 13.9882 114.852 14.4866C116.842 14.1814 118.131 12.8096 118.131 10.8826C118.131 8.95548 116.842 7.58364 114.852 7.28008ZM112.243 14.1198H113.644C115.268 14.1198 116.329 12.8502 116.329 10.8826C116.329 8.91492 115.276 7.64536 113.644 7.64536H112.243V14.1198Z" fill="#D9AA5E"/>
<path d="M120.95 7.35456V6.92432H125.466V7.35456H124.029V16.9103L130.523 8.39032V8.12896C130.524 8.02748 130.504 7.92688 130.466 7.83296C130.428 7.73904 130.371 7.65364 130.3 7.58168C130.228 7.50968 130.143 7.45256 130.049 7.4136C129.956 7.3746 129.855 7.35456 129.754 7.35456H129.069V6.92432H133.603V7.35456H132.142V18.5419H133.603V18.9737H129.075V18.5419H129.76C129.862 18.5419 129.962 18.5218 130.056 18.4828C130.15 18.4438 130.234 18.3867 130.306 18.3148C130.378 18.2428 130.434 18.1574 130.472 18.0634C130.511 17.9695 130.53 17.869 130.53 17.7675V9.07544L124.036 17.5954V18.5419H125.489V18.9737H120.95V18.5419H121.633C121.735 18.5421 121.835 18.5222 121.929 18.4833C122.023 18.4444 122.108 18.3873 122.18 18.3152C122.251 18.2432 122.308 18.1577 122.346 18.0637C122.384 17.9697 122.404 17.869 122.403 17.7675V8.12896C122.404 8.02744 122.384 7.92672 122.346 7.83272C122.308 7.73868 122.251 7.6532 122.18 7.58116C122.108 7.50916 122.023 7.45204 121.929 7.41316C121.835 7.37424 121.735 7.35432 121.633 7.35456H120.95Z" fill="#D9AA5E"/>
<path d="M133.918 19.2645H128.763V18.2515H129.758C129.82 18.2504 129.882 18.2369 129.939 18.2118C129.996 18.1866 130.048 18.1502 130.09 18.1048C130.133 18.0594 130.167 18.0059 130.188 17.9475C130.21 17.889 130.22 17.8268 130.218 17.7644V9.97176L124.337 17.6898V18.2515H125.798V19.2645H120.638V18.2515H121.631C121.694 18.2504 121.755 18.2369 121.812 18.2118C121.869 18.1866 121.921 18.1502 121.964 18.1048C122.006 18.0594 122.04 18.0059 122.061 17.9475C122.083 17.889 122.093 17.8268 122.09 17.7644V8.12916C122.093 8.0668 122.083 8.00456 122.061 7.94612C122.04 7.88764 122.006 7.83416 121.964 7.78876C121.921 7.74336 121.869 7.707 121.812 7.68184C121.755 7.65664 121.694 7.64312 121.631 7.64212H120.638V6.63232H125.774V7.64536H124.337V16.0014L130.218 8.29312V8.13076C130.22 8.06844 130.21 8.0062 130.188 7.94772C130.167 7.88928 130.133 7.83576 130.09 7.7904C130.048 7.745 129.996 7.70864 129.939 7.68344C129.882 7.65828 129.82 7.64476 129.758 7.64372H128.763V6.63232H133.918V7.64536H132.456V18.2515H133.918V19.2645ZM130.313 18.6817H131.843V7.21512H130.313C130.473 7.30868 130.605 7.4422 130.697 7.60248C130.789 7.7628 130.838 7.94432 130.838 8.12916V17.7677C130.838 17.9525 130.789 18.134 130.697 18.2943C130.605 18.4546 130.473 18.5882 130.313 18.6817ZM122.196 18.6817H123.725V7.21512H122.188C122.347 7.309 122.479 7.44264 122.57 7.60288C122.662 7.76316 122.71 7.94452 122.711 8.12916V17.7677C122.71 17.9523 122.662 18.1337 122.57 18.2939C122.479 18.4542 122.347 18.5878 122.188 18.6817H122.196Z" fill="#D9AA5E"/>
<path d="M136.636 6.75228H136.979V7.7848H137.063C137.386 7.5482 137.733 7.34632 138.097 7.18252C138.985 6.7854 139.947 6.58016 140.919 6.5802C144.341 6.5802 147.079 9.34008 147.079 12.949C147.079 16.558 144.375 19.3179 140.919 19.3179C138.438 19.3179 137.258 17.3373 136.471 17.3373C136.146 17.3373 136.026 17.5954 135.907 17.8536C135.847 18.0202 135.807 18.1936 135.787 18.3698H135.445V18.1474C135.445 16.2885 136.044 15.7024 136.643 15.7024C137.925 15.7024 138.713 18.8877 140.919 18.8877C143.229 18.8877 145.283 16.8048 145.283 12.949C145.281 12.4008 145.235 11.8535 145.145 11.3126H144.684C142.22 11.3126 141.843 15.1862 139.637 15.1862C138.969 15.1862 138.663 14.9102 138.5 14.5839C138.411 14.3946 138.359 14.1902 138.347 13.9816H138.688C138.688 14.3258 138.86 14.4978 139.203 14.4978C140.485 14.4978 140.913 10.7963 143.992 10.7963C144.359 10.7866 144.725 10.8449 145.07 10.9684C144.469 8.40496 142.794 7.00716 140.911 7.00716C138.791 7.00716 137.386 8.40172 137.148 9.8466L136.985 10.8791H136.636V6.75228Z" fill="#D9AA5E"/>
<path d="M140.914 19.6087C139.217 19.6087 138.073 18.7304 137.316 18.1476C136.992 17.8927 136.639 17.6281 136.466 17.6281C136.368 17.6281 136.318 17.6865 136.193 17.9527C136.142 18.0951 136.108 18.2427 136.09 18.3927L136.066 18.659H135.129V18.1443C135.129 15.675 136.184 15.4088 136.638 15.4088C137.35 15.4088 137.875 16.0841 138.423 16.8001C139.073 17.6411 139.813 18.5859 140.907 18.5859C143.692 18.5859 144.966 15.6637 144.966 12.9395C144.965 12.4897 144.932 12.0405 144.868 11.5953H144.677C143.578 11.5953 142.938 12.5109 142.26 13.4801C141.581 14.4493 140.87 15.4672 139.63 15.4672C138.935 15.4672 138.459 15.2075 138.217 14.6928C138.113 14.4733 138.052 14.2357 138.037 13.9931L138.013 13.6798H138.998V13.9883C138.998 14.2042 139.065 14.2123 139.203 14.2123C139.527 14.2123 139.888 13.6684 140.264 13.0905C140.976 12.0027 141.946 10.5124 143.998 10.5124C144.216 10.5119 144.433 10.5282 144.648 10.5611C144.028 8.5415 142.63 7.31418 140.914 7.31418C138.927 7.31418 137.667 8.61294 137.457 9.9117L137.245 11.191H136.328V6.48294H137.288V7.2947C137.477 7.18106 137.693 7.06578 137.949 6.94238C138.881 6.52362 139.891 6.30726 140.912 6.30762C144.54 6.30762 147.382 9.22986 147.382 12.9638C147.382 16.6978 144.542 19.6087 140.914 19.6087ZM136.466 17.0469C136.86 17.0469 137.235 17.3342 137.709 17.6963C138.183 18.0583 138.8 18.5356 139.587 18.8035C138.899 18.396 138.378 17.7255 137.928 17.1443C137.478 16.5631 137.035 15.9932 136.63 15.9932C136.181 15.9932 135.879 16.5144 135.779 17.4203C135.85 17.3028 135.951 17.2064 136.072 17.1408C136.192 17.0752 136.328 17.0428 136.466 17.0469ZM145.477 11.4735C145.549 11.9621 145.586 12.4553 145.588 12.9492C145.588 15.6783 144.523 17.7937 142.846 18.6995C145.149 17.8878 146.763 15.6507 146.763 12.9492C146.763 10.2478 145.132 7.98142 142.808 7.1843C144.037 7.8337 144.964 9.14382 145.377 10.9069L145.512 11.4881L145.477 11.4735ZM139.074 14.7821C139.247 14.8654 139.438 14.9044 139.63 14.8958C140.536 14.8958 141.122 14.0564 141.74 13.17C142.342 12.3079 143.013 11.3485 144.092 11.0903H143.99C142.292 11.0903 141.495 12.3112 140.792 13.3908C140.305 14.1409 139.878 14.7903 139.201 14.7903C139.159 14.7899 139.116 14.7872 139.074 14.7821ZM136.948 8.07558V9.37434C137.256 8.44722 137.913 7.67674 138.78 7.2265C138.594 7.28982 138.409 7.36286 138.222 7.44406C137.883 7.59926 137.561 7.78854 137.261 8.00902L137.176 8.07394L136.948 8.07558Z" fill="#D9AA5E"/>
<path d="M147.533 18.5419H148.218C149.09 18.5419 149.517 18.1116 149.841 17.0808L152.926 7.35616H151.557V6.92432H158.913V7.35456H157.453V18.5419H158.913V18.9737H154.376V18.5419H155.061C155.163 18.5419 155.263 18.5218 155.357 18.4828C155.45 18.4438 155.535 18.3867 155.607 18.3148C155.679 18.2428 155.735 18.1574 155.773 18.0634C155.812 17.9695 155.831 17.869 155.831 17.7675V8.12896C155.831 8.02748 155.812 7.92688 155.773 7.83296C155.735 7.73904 155.679 7.65364 155.607 7.58168C155.535 7.50968 155.45 7.45256 155.357 7.4136C155.263 7.3746 155.163 7.35456 155.061 7.35456H153.35L149.843 18.5419H151.467V18.9737H147.533V18.5419Z" fill="#D9AA5E"/>
<path d="M159.218 19.2645H154.066V18.2515H155.059C155.122 18.2504 155.183 18.2369 155.24 18.2118C155.297 18.1866 155.349 18.1502 155.392 18.1048C155.434 18.0594 155.468 18.0059 155.49 17.9475C155.511 17.889 155.521 17.8268 155.518 17.7644V8.12916C155.521 8.0668 155.511 8.00456 155.49 7.94612C155.468 7.88764 155.434 7.83416 155.392 7.78876C155.349 7.74336 155.297 7.707 155.24 7.68184C155.183 7.65664 155.122 7.64312 155.059 7.64212H153.58L150.255 18.2482H151.776V19.2613H147.221V18.2482H148.216C148.82 18.2482 149.212 18.0485 149.544 16.9933L152.506 7.64212H151.247V6.63232H159.218V7.64536H157.757V18.2515H159.218V19.2645ZM155.614 18.6817H157.144V7.21512H155.614C155.774 7.30868 155.906 7.4422 155.998 7.60248C156.09 7.7628 156.138 7.94432 156.139 8.12916V17.7677C156.138 17.9525 156.09 18.134 155.998 18.2943C155.906 18.4546 155.774 18.5882 155.614 18.6817ZM149.026 18.6817H149.474L149.616 18.2336C149.458 18.4277 149.256 18.5813 149.026 18.6817Z" fill="#D9AA5E"/>
<path d="M161.509 6.32214L161.595 6.92442H171.261L171.347 6.32214H171.69V10.4522H171.347L171.261 9.67782C171.193 9.02818 170.881 8.4283 170.39 7.99774C169.899 7.56714 169.263 7.33754 168.61 7.35466H167.241V18.542H168.61V18.9738H164.162V18.542H164.845C164.947 18.5422 165.047 18.5223 165.141 18.4834C165.235 18.4445 165.321 18.3874 165.392 18.3155C165.464 18.2435 165.521 18.158 165.559 18.0639C165.598 17.9699 165.617 17.8692 165.617 17.7676V8.12906C165.617 8.02746 165.598 7.92674 165.559 7.8327C165.521 7.73866 165.464 7.65318 165.392 7.58118C165.321 7.50918 165.235 7.4521 165.141 7.41322C165.047 7.37434 164.947 7.35442 164.845 7.35466H164.248C163.595 7.33714 162.959 7.56654 162.467 7.99714C161.975 8.42774 161.664 9.0279 161.595 9.67782L161.509 10.4522H161.168V6.32214H161.509Z" fill="#D9AA5E"/>
<path d="M168.92 19.2644H163.852V18.2514H164.845C164.908 18.2506 164.969 18.2372 165.027 18.2122C165.084 18.187 165.136 18.1507 165.179 18.1053C165.222 18.0599 165.255 18.0063 165.277 17.9478C165.299 17.8892 165.309 17.8268 165.306 17.7644V8.12908C165.309 8.0666 165.299 8.00424 165.277 7.94568C165.255 7.88712 165.222 7.83352 165.179 7.78812C165.136 7.74272 165.084 7.7064 165.027 7.68128C164.969 7.6562 164.908 7.64284 164.845 7.64204H164.248C163.669 7.62828 163.107 7.8328 162.673 8.21484C162.238 8.59688 161.964 9.12848 161.903 9.70384L161.79 10.7412H160.858V6.0332H161.782L161.866 6.63548H170.99L171.076 6.0332H172V10.7412H171.068L170.953 9.70548C170.893 9.12996 170.619 8.59796 170.185 8.21556C169.751 7.83316 169.189 7.62836 168.61 7.64204H167.551V18.2482H168.92V19.2644ZM165.402 18.6816H166.931V7.21508H165.402C165.561 7.30884 165.693 7.44244 165.785 7.60268C165.877 7.76292 165.926 7.94432 165.927 8.12908V17.7676C165.926 17.9524 165.877 18.1338 165.785 18.294C165.693 18.4543 165.561 18.5878 165.402 18.6816ZM169.594 7.21508C169.995 7.34332 170.363 7.55852 170.672 7.84528C170.981 8.13208 171.222 8.4834 171.38 8.87424V7.21508H169.594ZM161.477 7.21508V8.87424C161.634 8.48328 161.875 8.13184 162.184 7.84504C162.493 7.55824 162.861 7.34312 163.262 7.21508H161.477Z" fill="#D9AA5E"/>
</svg>
