<svg width="119" height="40" viewBox="0 0 119 40" fill="none" xmlns="http://www.w3.org/2000/svg">
<path d="M81.839 19.7955C81.1504 19.7955 80.5904 20.3568 80.5904 21.0455C80.5904 21.7396 81.1504 22.2982 81.839 22.2982C82.5276 22.2982 83.089 21.7396 83.089 21.0455C83.089 20.3568 82.5276 19.7955 81.839 19.7955ZM38.508 20.9832C38.508 20.9832 39.1316 18.8953 39.227 18.569C39.48 17.7186 39.8561 16.3801 39.8561 16.3801H39.9184C39.9184 16.3801 40.2654 17.767 40.4922 18.5565C40.5807 18.8635 41.1766 20.9832 41.1766 20.9832H38.508ZM42.3063 24.7761H44.563L41.1545 14.3557C40.795 14.2341 40.347 14.1594 39.8741 14.1594C39.357 14.1594 39.173 14.2271 38.7679 14.3557L35.152 24.7761H37.3146C37.3146 24.7761 37.605 23.8635 37.959 22.7296H41.6966C42.0339 23.8621 42.3063 24.7761 42.3063 24.7761ZM115.326 24.7761C115.326 24.7761 114.257 22.4946 113.996 21.9788C113.702 21.3939 113.429 20.9901 112.825 20.8463V20.8118C113.23 20.7357 113.552 20.491 113.898 19.7457C114.234 19.017 114.333 18.8607 114.53 18.6879C114.722 18.5136 114.985 18.58 114.985 18.58L115.083 17.2235C114.802 17.1862 114.492 17.1862 114.172 17.2028C113.643 17.236 113.366 17.3867 113.107 17.6508C112.905 17.8527 112.763 18.1528 112.591 18.5053C112.407 18.8828 112.263 19.187 112.078 19.5701C111.89 19.9628 111.799 20.1384 111.29 20.1384H110.962V17.3217H108.995V24.7761H110.962V21.7299L111.229 21.7258C111.788 21.7258 111.883 21.8654 112.182 22.4545C112.53 23.1597 113.191 24.7761 113.191 24.7761H115.326ZM107.286 24.7761V17.3217H105.326V20.1398H103.107V17.3217H101.152V24.7761H103.107V21.7327H105.326V24.7761H107.286ZM53.4443 17.254L53.436 24.3834C54.3652 24.7761 55.3857 24.9531 56.2914 24.9531C58.3724 24.9531 59.4855 23.8773 59.4855 22.1046C59.4855 20.5006 58.4996 19.5078 56.6578 19.5078C56.1905 19.5078 55.9167 19.5701 55.4023 19.6945V17.254H53.4443ZM57.4598 22.1959C57.4598 22.9315 57.2013 23.4348 56.2596 23.4348C55.943 23.4348 55.813 23.4348 55.4009 23.3201V21.1699C55.9112 21.0703 55.9568 21.0537 56.2596 21.0537C57.1584 21.0537 57.4598 21.4907 57.4598 22.1959ZM100.124 24.0612C99.6058 23.2744 99.4717 22.8098 99.4717 21.8212V19.8134C99.4717 18.728 99.3473 18.3311 99.0597 17.9329C98.6614 17.3743 97.9991 17.1337 96.7767 17.1337C95.9125 17.1337 95.0663 17.2277 94.2574 17.4337L94.5478 18.8718C95.0953 18.7943 95.6733 18.728 96.0868 18.728C97.3824 18.728 97.5317 18.9174 97.5317 19.8895V20.2531C97.2441 20.1757 96.9205 20.1204 96.5431 20.1204C94.5851 20.1204 93.5536 21.0759 93.5536 22.6522C93.5536 24.1345 94.6556 24.9448 96.0052 24.9448C96.5071 24.9448 97.0284 24.8508 97.4418 24.6834C97.6921 24.5728 97.8014 24.5106 98.1249 24.2977C98.3199 24.5853 98.7112 24.8756 98.8702 24.9268L100.124 24.0612ZM97.634 23.2011C97.204 23.3505 96.9205 23.3851 96.5804 23.3851C95.878 23.3851 95.4839 23.1085 95.4839 22.3895C95.4839 21.6414 95.9858 21.387 96.9565 21.387C97.1916 21.387 97.4239 21.4229 97.5317 21.4617V21.9982C97.5317 22.5761 97.5635 22.955 97.634 23.2011ZM78.5107 24.0612C77.9936 23.2744 77.8594 22.8098 77.8594 21.8212V19.8134C77.8594 18.728 77.7336 18.3311 77.446 17.9329C77.0505 17.3743 76.3868 17.1337 75.1645 17.1337C74.3016 17.1337 73.454 17.2277 72.6437 17.4337L72.9341 18.8718C73.4844 18.7943 74.0583 18.728 74.4731 18.728C75.7701 18.728 75.9208 18.9174 75.9208 19.8895V20.2531C75.6318 20.1757 75.3083 20.1204 74.9294 20.1204C72.9701 20.1204 71.9385 21.0759 71.9385 22.6522C71.9385 24.1345 73.0406 24.9448 74.3915 24.9448C74.8934 24.9448 75.4161 24.8508 75.8296 24.6834C76.0798 24.5728 76.1877 24.5106 76.5113 24.2977C76.7076 24.5853 77.0975 24.8756 77.2566 24.9268L78.5107 24.0612ZM76.0218 23.2011C75.5917 23.3505 75.3083 23.3851 74.9681 23.3851C74.2671 23.3851 73.8675 23.1085 73.8675 22.3895C73.8675 21.6414 74.3708 21.387 75.3415 21.387C75.5751 21.387 75.8102 21.4229 75.9208 21.4617V21.9982C75.9208 22.5761 75.9485 22.955 76.0218 23.2011ZM51.8915 24.7761V17.5941C50.8157 17.2733 49.9875 17.1337 48.9089 17.1337C47.8304 17.1337 47.0229 17.2733 45.9471 17.5941V21.2708C45.9471 22.2706 45.9305 22.5706 45.8213 22.8942C45.7134 23.1776 45.5682 23.5178 45.1728 23.7805L45.7065 24.9268C47.2801 24.483 47.8719 23.7985 47.8719 21.6234V18.9174C48.3918 18.8414 48.4941 18.8234 48.9089 18.8234C49.3251 18.8234 49.4123 18.8414 49.9308 18.9174V24.7761H51.8915ZM66.7145 27.218V24.5396C66.9634 24.6862 67.4571 24.9033 68.2922 24.9033C69.9515 24.9033 71.1739 23.5247 71.1739 21.0054C71.1739 18.291 69.9584 17.1281 67.9631 17.1281C67.4543 17.1281 67.1252 17.1807 66.7145 17.3756V14.1774H64.7635V17.3756C64.3542 17.1807 64.0209 17.1281 63.5149 17.1281C61.5196 17.1281 60.3041 18.338 60.3041 21.051C60.3041 23.5717 61.402 24.9033 63.183 24.9033C64.0196 24.9033 64.516 24.6862 64.7635 24.5396V27.218H66.7145ZM62.3146 21.051C62.3146 19.5549 62.7654 18.7639 63.6642 18.7639C64.0444 18.7639 64.2947 18.7612 64.7635 18.9852V23.1002C64.339 23.2399 64.1385 23.2592 63.7596 23.2592C62.735 23.2592 62.3146 22.4227 62.3146 21.051ZM69.162 21.0054C69.162 22.3756 68.6172 23.2592 67.7184 23.2592C67.3409 23.2592 67.1418 23.2399 66.7145 23.1002V18.9852C67.1833 18.7612 67.4349 18.7639 67.8124 18.7639C68.7112 18.7639 69.162 19.5078 69.162 21.0054ZM92.8055 21.5405C92.8055 19.6931 91.7242 18.421 89.451 18.421C88.8923 18.421 88.5024 18.4749 87.8995 18.6174L87.8954 15.9583C88.2715 15.9044 88.9117 15.8588 89.6197 15.8588C90.2875 15.8588 91.1338 15.8933 91.8763 15.986L91.9288 14.4442C91.084 14.2562 89.8589 14.14 88.9103 14.14C87.9728 14.14 86.5168 14.3737 85.824 14.5618L85.8213 24.3875C86.904 24.783 87.9576 24.9641 89.0417 24.9641C91.5196 24.9641 92.8055 23.6505 92.8055 21.5405ZM90.7217 21.6884C90.7217 22.684 90.17 23.3394 89.1551 23.3394C88.7527 23.3394 88.425 23.3422 87.8995 23.1984V20.184C88.1318 20.1453 88.6103 20.072 89.1551 20.0914C90.1866 20.1301 90.7217 20.6126 90.7217 21.6884ZM14.1426 8.77222L11.2098 17.5734H17.1197L14.1786 8.77222H14.1426ZM3.86886 32.207C3.68634 32.207 3.53976 32.3591 3.53976 32.5443V36.2874C3.53976 36.4741 3.68634 36.6234 3.86886 36.6234H24.451C24.6321 36.6234 24.7773 36.4741 24.7773 36.2874V32.5443C24.7773 32.3591 24.6321 32.207 24.451 32.207H3.86886ZM14.1592 3.53992C16.4117 3.53992 17.1197 5.15358 17.7115 6.76862C17.9632 7.4517 23.8135 23.4735 23.9892 23.9547C24.0375 24.0861 24.0057 24.3073 23.7983 24.3862C23.5923 24.465 20.5517 25.6486 20.383 25.7122C20.2156 25.7744 20.0248 25.6818 19.964 25.5145C19.9018 25.3485 18.6421 21.8557 18.4997 21.4644H9.83124C9.68744 21.8557 8.41532 25.3541 8.35586 25.5145C8.29778 25.6749 8.11526 25.7827 7.93827 25.7122C7.7599 25.6403 4.70542 24.4567 4.52566 24.3862C4.35005 24.3212 4.26985 24.1221 4.33208 23.9547C4.54778 23.3532 10.3083 7.58859 10.6042 6.76862C11.1739 5.17847 11.9081 3.53992 14.1592 3.53992Z" fill="#EE2922"/>
</svg>
