<svg width="185" height="36" viewBox="0 0 185 36" fill="none" xmlns="http://www.w3.org/2000/svg">
<g clip-path="url(#clip0)">
<path d="M15.898 24.9281L14.8805 23.175L14.135 21.8911C14.0011 21.6605 13.8199 21.4225 13.7195 21.1756C13.6738 21.0643 13.6922 20.9382 13.6922 20.8179V20.1828L13.377 20.498H15.2435L14.9399 20.2663L16.5043 25.0678C16.5095 25.0825 16.5216 25.1555 16.5358 25.1639C16.5999 25.2017 16.5815 24.8251 16.6629 24.8697C16.6456 24.8603 16.5615 24.8892 16.5353 24.8923C16.3781 24.9082 16.2197 24.9082 16.0625 24.8923C16.001 24.8871 15.9401 24.8708 15.8797 24.8655C15.8563 24.8617 15.8334 24.8554 15.8114 24.8466C15.8282 24.8519 15.8802 24.9049 15.8508 24.8682C15.5997 24.5498 15.1563 24.999 15.4053 25.3136C15.5708 25.5238 15.9768 25.5238 16.2148 25.5311C16.4707 25.5395 16.861 25.5569 17.0553 25.3562C17.2776 25.1287 17.0585 24.7326 16.9776 24.4852L15.8686 21.0821L15.5487 20.1003C15.529 20.0346 15.4889 19.9768 15.4342 19.9352C15.3796 19.8937 15.3132 19.8706 15.2445 19.8691H13.377C13.2938 19.8704 13.2143 19.904 13.1555 19.9628C13.0966 20.0217 13.063 20.1011 13.0618 20.1843C13.0618 20.5484 12.9804 21.0249 13.1143 21.3695C13.1979 21.5864 13.3439 21.7897 13.46 21.9878L14.9341 24.5272L15.3543 25.2501C15.5576 25.5994 16.1024 25.2821 15.898 24.9281Z" fill="#817653"/>
<path d="M19.2917 24.7809C19.3053 24.8229 19.3022 24.7987 19.2066 24.8035L18.966 24.815C18.7622 24.8234 18.5583 24.8308 18.3545 24.8339C18.2111 24.8339 18.0671 24.8371 17.9243 24.8297C17.8891 24.8297 17.7924 24.8297 17.8034 24.8197L17.7766 24.8134L17.9584 25.0824C17.9584 25.0824 17.9584 25.0745 17.9584 25.0724C17.9873 25.0398 17.9584 24.8502 17.9584 24.8098V21.2785C17.9584 21.0069 17.9311 20.7132 17.9584 20.4437L17.8659 20.6665L17.8686 20.6639L17.3737 20.5998L19.0837 24.3296L19.3258 24.8581C19.495 25.2258 20.0387 24.9064 19.8706 24.5397L18.1601 20.8099L17.918 20.2819C17.8313 20.0934 17.5555 20.087 17.4231 20.2179C17.2392 20.3975 17.3301 20.9355 17.3301 21.1981V24.5928C17.3301 24.9232 17.2461 25.3451 17.67 25.4359C18.0939 25.5268 18.5751 25.4654 19.0038 25.4465C19.2318 25.4359 19.4803 25.4528 19.6768 25.3167C19.7853 25.2395 19.8658 25.129 19.906 25.002C19.9462 24.875 19.9439 24.7384 19.8995 24.6128C19.7734 24.2298 19.1646 24.3942 19.2917 24.7809Z" fill="#817653"/>
<path d="M10.7167 21.1168L11.1669 20.3724C11.2872 20.1738 11.4653 19.7304 11.6859 19.6369C11.9743 19.5119 12.2554 19.7908 12.4739 19.9432L13.2172 20.4575C13.5513 20.6886 13.8671 20.1423 13.5351 19.9132L12.6767 19.3186C12.3189 19.0711 11.9501 18.8715 11.4999 19.0354C11.0881 19.1851 10.9221 19.5607 10.7119 19.909L10.1724 20.8021C9.9623 21.1504 10.5065 21.4672 10.7167 21.1205V21.1168Z" fill="#817653"/>
<path d="M17.866 20.6637L19.9988 18.5971C20.2909 18.3145 19.8449 17.869 19.5533 18.1511L17.4205 20.2177C17.1284 20.5009 17.5744 20.9464 17.866 20.6637Z" fill="#817653"/>
<path d="M9.24491 25.6632H12.9175C13.3824 25.6632 13.9571 25.7336 14.4105 25.6107C14.8922 25.4799 14.9573 25.0329 14.6831 24.6651C14.5508 24.5014 14.4083 24.3461 14.2565 24.2002L11.3988 21.2426C11.3137 21.1549 11.2301 21.0651 11.144 20.98C10.8219 20.6595 10.461 20.6416 10.0408 20.6416C9.72191 20.6416 9.30847 20.5791 9.00588 20.701C8.64341 20.8476 8.5063 21.1938 8.55568 21.5583L9.07733 25.4321C9.10044 25.6023 9.31635 25.6916 9.46502 25.6522C9.64784 25.6039 9.70772 25.4326 9.68513 25.2645L9.23335 21.9334C9.20971 21.7569 9.13564 21.5252 9.15455 21.3472C9.15455 21.3356 9.14615 21.3198 9.1493 21.3088C9.13039 21.3718 9.25437 21.2799 9.29219 21.271C9.38097 21.2494 9.49917 21.271 9.59005 21.271C9.86427 21.271 10.1805 21.2253 10.4521 21.2762C10.6165 21.3072 10.7295 21.458 10.8414 21.5736L13.5122 24.3373C13.6456 24.4755 13.778 24.6142 13.9125 24.7518C13.9445 24.7844 13.9776 24.8164 14.0096 24.8495C14.0758 24.9178 14.1326 25.0071 14.2003 25.0702C14.193 25.0633 14.2529 25.1405 14.2366 25.1453C14.1982 25.1589 14.2665 24.9877 14.2739 24.995C14.2487 24.9777 13.9062 25.0318 13.8689 25.0318H9.24596C8.84041 25.0318 8.83988 25.6622 9.24596 25.6622L9.24491 25.6632Z" fill="#817653"/>
<path d="M17.6453 25.6636C18.0509 25.6636 18.0514 25.0332 17.6453 25.0332C17.2392 25.0332 17.2387 25.6636 17.6453 25.6636Z" fill="#817653"/>
<path d="M3.03182 28.6079L4.58469 26.0249C4.61294 25.9766 4.62784 25.9217 4.62784 25.8657C4.62784 25.8098 4.61294 25.7548 4.58469 25.7066L2.98507 23.1235C2.77178 22.7789 2.22649 23.0952 2.44083 23.4413L4.0394 26.0249V25.7066L2.48758 28.2901C2.27745 28.6389 2.82327 28.9562 3.03182 28.6085V28.6079Z" fill="#817653"/>
<path d="M4.36503 28.6079L5.9179 26.0249C5.94615 25.9766 5.96105 25.9217 5.96105 25.8657C5.96105 25.8098 5.94615 25.7548 5.9179 25.7066L4.31775 23.1235C4.10762 22.7789 3.55918 23.0952 3.77351 23.4413L5.37314 26.0249V25.7066L3.82079 28.2901C3.61066 28.6389 4.15595 28.9562 4.36503 28.6085V28.6079Z" fill="#817653"/>
<path d="M27.2242 25.8362L22.7137 28.6162C22.6465 28.6577 22.4884 28.716 22.4432 28.7828C22.4248 28.8101 22.4358 28.8027 22.4369 28.8006C22.4295 28.8164 22.4558 28.8363 22.4689 28.8232C22.4821 28.8101 22.4879 28.7623 22.4968 28.7428C22.7001 28.2785 22.8325 27.7684 22.9974 27.2893C23.05 27.138 23.1135 26.9861 23.155 26.8312C23.2601 26.4367 22.9811 26.0915 22.584 26.0668C22.398 26.0558 22.2078 26.0668 22.0219 26.0668H15.9475C15.7127 26.0668 15.4269 26.0295 15.2173 26.154C14.7844 26.4109 14.9289 27.1705 14.9289 27.5903C14.9289 27.8041 14.9194 28.021 14.9289 28.2348C14.9436 28.5674 15.1243 28.7318 15.4127 28.8579C15.719 28.9908 16.0021 29.1494 16.2254 29.4032C16.5632 29.7872 16.7387 30.3178 16.7507 30.8216C16.7649 31.2349 16.6702 31.6447 16.4761 32.0098C16.282 32.375 15.9954 32.6828 15.6449 32.9024C15.387 33.0673 15.2105 33.2176 15.1952 33.5459C15.1842 33.7792 15.1952 34.0161 15.1952 34.2499V34.6533C15.1952 34.7148 15.2157 34.8204 15.1952 34.8792C15.2126 34.8267 15.2394 34.865 15.1532 34.8477C15.0481 34.8261 14.9131 34.8477 14.8039 34.8477C14.5486 34.8477 14.2822 34.8246 14.028 34.8477C13.9308 34.8566 13.9371 34.8198 13.9591 34.8866C13.9402 34.8288 13.9591 34.7337 13.9591 34.6733V33.8522C13.9591 33.6489 13.9896 33.403 13.8824 33.2218C13.7532 33.0001 13.4722 32.8987 13.2731 32.749C13.0336 32.5693 12.8364 32.3395 12.6952 32.0755C12.255 31.2655 12.2324 30.1276 12.8885 29.4242C13.1043 29.2038 13.3606 29.0273 13.6434 28.9041C13.9439 28.7628 14.2024 28.6457 14.2271 28.2658C14.256 27.8141 14.2271 27.3512 14.2271 26.9C14.2271 26.6846 14.2397 26.4766 14.0973 26.2953C13.9654 26.1283 13.779 26.0747 13.5767 26.0684C12.7808 26.0448 11.9802 26.0684 11.1844 26.0684H7.83854C7.5391 26.0684 7.23862 26.0616 6.93918 26.0684C6.54308 26.0779 6.3776 26.3232 6.18481 26.6216L5.31749 27.9622C5.27757 28.0171 5.2404 28.0739 5.20612 28.1324C5.17198 28.2002 5.24027 28.1324 5.21558 28.1324C5.0937 28.1324 4.97235 28.1324 4.85047 28.1324H1.72214C1.67486 28.1324 1.40695 28.0972 1.37385 28.1324C1.36334 28.144 1.40747 28.1954 1.41798 28.1939C1.43952 28.1907 1.50151 28.0778 1.51254 28.0631L2.43974 26.7813C2.67404 26.4598 3.11531 26.0427 2.90571 25.6108C2.73498 25.2589 2.42976 24.9379 2.20124 24.6222C1.94804 24.2728 1.70481 23.9124 1.44004 23.5715C1.43164 23.5605 1.37753 23.6041 1.4164 23.5994C1.46048 23.5965 1.50471 23.5965 1.54879 23.5994H5.11524C5.14806 23.5957 5.18118 23.5957 5.214 23.5994C5.20402 23.5967 5.18038 23.5579 5.22083 23.6198L5.55284 24.1341C5.8155 24.5397 6.06556 24.9552 6.34083 25.3529C6.63291 25.7763 7.19186 25.6655 7.64365 25.6655C7.85903 25.6655 8.07704 25.6754 8.29243 25.6655C8.67329 25.6481 8.86766 25.3503 8.79937 24.9852C8.74684 24.7078 8.64545 24.4336 8.5677 24.163L8.09805 22.5266L7.70091 21.1455C7.67088 21.0594 7.64562 20.9718 7.62526 20.8829C7.58691 20.6491 7.82436 20.4206 7.94571 20.2367C8.14428 19.9368 8.09438 19.5906 8.09438 19.2449V17.5597C8.09438 17.1861 8.06969 16.8032 8.09438 16.4302C8.10961 16.1922 8.25198 16.0767 8.42796 15.9422C8.63441 15.7846 8.84822 15.6296 9.04837 15.462C9.11411 15.4106 9.16833 15.346 9.20753 15.2723C9.24673 15.1987 9.27002 15.1176 9.27592 15.0344C9.28181 14.9511 9.27016 14.8676 9.24174 14.7891C9.21331 14.7107 9.16873 14.6391 9.11089 14.5789C8.98271 14.4366 8.83246 14.3089 8.69483 14.176C8.54826 14.0336 8.37333 13.8976 8.2441 13.7389C8.11486 13.5803 8.18631 13.4479 8.23254 13.2824L8.66278 11.7521C8.67592 11.7043 8.72687 11.6019 8.71899 11.5504C8.71899 11.5441 8.7295 11.5305 8.72635 11.5247C8.75577 11.583 8.67381 11.552 8.66699 11.5567C8.60657 11.5966 8.64545 11.489 8.6507 11.5404C8.65595 11.5919 8.75261 11.6886 8.77993 11.7285L9.02368 12.0826C9.38353 12.6079 9.77648 13.1059 9.85108 13.7636C9.8868 14.0788 9.78173 14.4781 10.0181 14.7313C10.1232 14.8442 10.2656 14.9062 10.4 14.9787L11.8447 15.7567C12.1399 15.9143 12.4184 16.1197 12.7661 16.0882C13.2799 16.0415 13.7926 15.9784 14.3053 15.9233C14.7471 15.876 15.2068 15.8765 15.346 15.3548C15.4731 14.8821 15.5735 14.3972 15.6875 13.9191C15.7374 13.709 15.7999 13.4952 15.6838 13.2887C15.4994 12.9636 15.0387 12.8763 14.7587 13.1311C14.7041 13.1831 14.6564 13.2419 14.6169 13.3061C14.6022 13.3333 14.5846 13.3589 14.5643 13.3822C14.5643 13.3822 14.6063 13.3549 14.5958 13.3539C14.5186 13.3378 14.4432 13.3137 14.371 13.2819L13.6045 13.0345C13.5697 13.0169 13.5323 13.0049 13.4937 12.9988C13.4039 13.0077 13.5384 12.9909 13.5016 13.0429C13.5203 13.004 13.5344 12.9631 13.5436 12.921L13.7758 12.2444L14.0542 11.4343C14.1026 11.293 14.1714 11.1454 14.1877 10.9957C14.2187 10.7078 14.0201 10.5108 13.8578 10.3012C13.7101 10.11 13.5394 9.924 13.4086 9.72018C13.3708 9.66187 13.4254 9.78742 13.4275 9.75012C13.4275 9.70179 13.4275 9.65241 13.4275 9.60355C13.4275 9.47327 13.4422 9.32881 13.4086 9.20115C13.3256 8.88228 13.0356 8.76355 12.7367 8.7583C12.4709 8.7541 12.2051 8.7583 11.9398 8.7583C11.8589 8.7583 11.7407 8.78036 11.6629 8.7583C11.6136 8.74464 11.6771 8.77196 11.6388 8.74832C11.5337 8.68423 11.4412 8.53819 11.3588 8.45203L10.8497 7.91462L9.68927 6.68851L9.30789 6.28558C9.29843 6.2756 9.2522 6.21151 9.23749 6.21098C9.26691 6.21098 9.23749 6.30554 9.21963 6.28926C9.22593 6.29556 9.2564 6.28558 9.26428 6.28926C9.32837 6.3171 9.46706 6.28926 9.53798 6.28926H9.97978C10.2251 6.28926 10.471 6.29293 10.7152 6.28926C11.416 6.27823 12.0144 5.69616 12.1699 5.02847C12.3716 4.16746 11.8741 3.3637 11.2343 2.82524C11.0592 2.67675 10.8819 2.52878 10.7026 2.38134C10.7026 2.38134 10.6554 2.34772 10.6548 2.34142C10.6611 2.40025 10.6853 2.33721 10.7215 2.31935C10.9317 2.21429 11.1287 2.02044 11.3357 1.89909C12.0774 1.45571 12.8785 1.23297 13.7285 1.1111L13.3293 0.806931V4.41016C13.3293 4.57669 13.3188 4.74689 13.3293 4.91342C13.3634 5.44243 14.0259 5.50284 14.2113 5.0332C14.4939 4.31402 14.4939 3.56648 14.4939 2.81158V0.808507L14.0211 1.08063C14.9835 1.50877 15.8556 2.02937 16.5795 2.80791C17.3701 3.65841 17.865 4.6807 18.1423 5.80228L18.446 5.40303H16.6126C16.1351 5.40303 15.6749 5.49128 15.2499 5.71823C14.8459 5.93361 14.4136 6.24355 14.3348 6.72318C14.2391 7.30787 14.6226 7.74652 15.1422 7.94299C15.4485 8.05909 15.7552 8.08483 16.0788 8.10059C16.313 8.1053 16.5361 8.20146 16.7003 8.36851C17.0785 8.74201 17.4358 9.13969 17.8035 9.52423L19.2828 11.0771C19.3354 11.1333 19.3879 11.1927 19.4446 11.2468C19.5014 11.3009 19.4635 11.2526 19.4651 11.2599C19.484 11.3718 19.4651 11.5037 19.4651 11.6166V17.836C19.4651 17.981 19.4599 18.1265 19.4651 18.2709C19.4735 18.5031 19.587 18.687 19.691 18.8887C19.795 19.0905 19.9736 19.32 19.9983 19.5422C20.0068 19.6997 20.0068 19.8576 19.9983 20.015V24.35C19.9983 24.7934 19.8754 25.5 20.4475 25.645C20.7002 25.7096 21.0101 25.6634 21.2659 25.6634H22.3586C22.7295 25.6634 23.1429 25.5483 23.154 25.0908C23.1592 24.8559 22.9874 24.5759 22.8971 24.3658L22.4243 23.2668C22.3801 23.1457 22.329 23.0271 22.2714 22.9117C22.2667 22.9033 22.2441 22.8282 22.2346 22.8266C22.1721 22.8177 22.1821 22.907 22.1958 22.938C22.2299 23.0126 22.4926 23.1129 22.5635 23.1539L23.3468 23.6162L27.0036 25.7732C27.0549 25.8125 27.1108 25.8455 27.1701 25.8714C27.186 25.8775 27.2007 25.8862 27.2137 25.8971C27.2058 25.8914 27.2762 25.7957 27.1638 25.8851C26.8486 26.1377 27.2957 26.5811 27.6098 26.3305C27.9681 26.0453 27.8583 25.563 27.5047 25.3382C27.3676 25.2499 27.2226 25.1717 27.0845 25.0887L25.271 24.0191L23.2995 22.8565L22.6849 22.4935C22.5141 22.3927 22.3586 22.2913 22.1459 22.3128C22.0105 22.3263 21.8842 22.3871 21.7893 22.4846C21.6943 22.582 21.6368 22.7098 21.6268 22.8455C21.6184 22.9858 21.6752 23.1055 21.7282 23.2295C21.8645 23.5472 22.0009 23.8648 22.1375 24.1825C22.263 24.474 22.376 24.7745 22.5146 25.0598C22.5787 25.1916 22.532 25.0282 22.5393 25.033C22.4842 24.9957 22.2767 25.033 22.2094 25.033H21.0248C20.9245 25.033 20.7506 25.0009 20.6571 25.033C20.6364 25.0369 20.6152 25.0369 20.5946 25.033C20.6135 25.0372 20.6319 25.1007 20.6271 25.0587C20.5772 24.6117 20.6271 24.131 20.6271 23.6818V19.6305C20.6279 19.4355 20.5814 19.2431 20.4916 19.07C20.4154 18.9171 20.334 18.7663 20.2573 18.615L20.1333 18.375C20.1176 18.344 20.0808 18.2305 20.0939 18.3103C20.0472 18.003 20.0939 17.6511 20.0939 17.3416V12.7928C20.0939 12.3111 20.1023 11.8283 20.0939 11.3466C20.0866 10.9374 19.8076 10.7162 19.5444 10.4415L17.9721 8.7914C17.6364 8.4389 17.306 7.995 16.8999 7.71815C16.6462 7.55365 16.3497 7.46742 16.0473 7.47019C15.7453 7.46442 15.3702 7.42659 15.1201 7.23642C15.0457 7.17931 14.9918 7.09953 14.9667 7.00912C14.9416 6.91871 14.9466 6.82259 14.9809 6.73526C15.0445 6.58239 15.2152 6.48783 15.3486 6.39905C16.0568 5.921 16.9246 6.03132 17.7352 6.03132H18.4475C18.4956 6.03022 18.5427 6.0183 18.5855 5.99643C18.6282 5.97456 18.6655 5.94332 18.6945 5.90503C18.7235 5.86675 18.7434 5.82241 18.7529 5.77533C18.7623 5.72824 18.761 5.67963 18.7491 5.63312C18.4518 4.43327 17.9086 3.33744 17.0759 2.41864C16.3079 1.57549 15.3691 0.996049 14.3363 0.536387C14.1262 0.442353 13.8635 0.54952 13.8635 0.808507V2.31515C13.8635 2.87515 13.9098 3.46667 13.8289 4.02299C13.8049 4.18734 13.7698 4.34987 13.7238 4.50945C13.7023 4.58457 13.6334 4.70539 13.6329 4.78945L13.6182 4.83252C13.5597 4.96596 13.6746 4.9952 13.9628 4.92025C13.9628 4.92025 13.9628 4.915 13.9628 4.91342C13.9686 4.89609 13.9602 4.87087 13.9628 4.85301C13.9912 4.66442 13.9628 4.44903 13.9628 4.25886V0.808507C13.9628 0.583141 13.7627 0.475974 13.5641 0.504867C12.6768 0.631997 11.8352 0.877851 11.0578 1.33384C10.8577 1.45146 10.6648 1.58074 10.4799 1.721C10.336 1.82922 10.1647 1.93691 10.0833 2.10344C9.91359 2.44385 10.1111 2.70652 10.3591 2.91665C10.8702 3.34374 11.5458 3.82494 11.5873 4.55147C11.5993 4.73706 11.5637 4.92263 11.484 5.09066C11.4043 5.2587 11.2831 5.40363 11.1318 5.51177C10.9217 5.65781 10.7536 5.65991 10.5146 5.65991H9.67404C9.49123 5.65991 9.2937 5.63838 9.11299 5.672C9.01539 5.68932 8.92377 5.73109 8.84668 5.79341C8.76959 5.85572 8.70954 5.93655 8.67214 6.02835C8.63474 6.12015 8.62121 6.21992 8.6328 6.31837C8.64439 6.41682 8.68073 6.51072 8.73843 6.59132C8.80288 6.67475 8.8731 6.75357 8.94856 6.82719L11.0499 9.04776C11.135 9.13759 11.219 9.2437 11.3272 9.30727C11.5237 9.42337 11.7864 9.38974 12.0054 9.38974H12.4063C12.5071 9.38974 12.6632 9.41916 12.7598 9.38974C12.7812 9.38633 12.803 9.38633 12.8244 9.38974C12.7572 9.37136 12.8155 9.31778 12.7934 9.41286C12.7714 9.50794 12.7877 9.65556 12.7934 9.75958C12.8197 10.2392 13.3634 10.5744 13.5814 10.9678C13.614 11.0272 13.5657 10.9248 13.5562 10.9379C13.5468 10.951 13.5504 10.9705 13.541 10.982C13.4969 11.0345 13.479 11.1622 13.4564 11.2284L13.1822 12.0269C13.053 12.4036 12.6894 13.0397 13.0004 13.4033C13.158 13.5876 13.4175 13.636 13.6387 13.7074C13.8803 13.7852 14.1209 13.8708 14.3647 13.9412C14.6605 14.0268 15.004 13.9527 15.1443 13.6439C15.1853 13.553 15.1595 13.6113 15.1595 13.6108C15.1543 13.5992 15.1396 13.5351 15.1233 13.5509C15.0933 13.5798 15.0865 13.7085 15.077 13.7468L14.8932 14.5206C14.8459 14.7182 14.7266 14.9882 14.7356 15.1925C14.7356 15.2419 14.7151 15.2629 14.7529 15.2403C14.7098 15.2661 14.6048 15.2561 14.5554 15.2613L13.7942 15.3428L12.9663 15.4315C12.8806 15.4405 12.7236 15.4841 12.6511 15.4694C12.5213 15.4457 12.3558 15.3118 12.2413 15.2487L11.4785 14.8416L10.7641 14.4565C10.6969 14.4203 10.6296 14.3756 10.5587 14.3462C10.5335 14.3357 10.4678 14.2774 10.4941 14.3289C10.4547 14.2511 10.4941 14.073 10.4941 13.9822C10.4891 13.7178 10.4496 13.4551 10.3764 13.201C10.2745 12.8707 10.1205 12.5588 9.92042 12.2769C9.66931 11.9092 9.43764 11.5168 9.15817 11.1738C8.90076 10.8586 8.38698 10.8512 8.17265 11.2263C8.09805 11.3582 8.06758 11.5294 8.02976 11.6733L7.60109 13.1994C7.53228 13.4453 7.50391 13.6885 7.62001 13.9296C7.72507 14.1398 7.91944 14.2974 8.08545 14.4586C8.26196 14.6299 8.48575 14.7954 8.63494 14.9908C8.67959 15.0496 8.66541 14.9724 8.62128 15.0024C8.52725 15.0659 8.43952 15.1426 8.34969 15.2125C7.91156 15.5513 7.47607 15.8297 7.46503 16.4502C7.45768 16.8531 7.46503 17.2565 7.46503 17.6584V19.361C7.46503 19.4965 7.49393 19.6688 7.46503 19.8018C7.43772 19.9242 7.29273 20.0765 7.21288 20.1931C7.03111 20.4584 6.94076 20.7274 7.01956 21.052C7.0432 21.1487 7.07209 21.2438 7.10203 21.3394L7.51862 22.7903L7.97986 24.4078L8.13168 24.9368C8.13883 24.9782 8.15045 25.0188 8.16635 25.0577C8.17055 25.065 8.16635 25.0782 8.17423 25.0845C8.18211 25.0908 8.12169 25.0603 8.17895 25.1081C8.20995 25.1338 8.37648 25.1128 8.30819 25.0335C8.29295 25.0162 8.14481 25.0335 8.12222 25.0335H7.71719C7.46819 25.0335 7.19449 25.0015 6.94759 25.0335C6.90241 25.0398 6.83884 25.0141 6.89505 25.055C6.85723 25.0277 6.82676 24.95 6.80154 24.91L6.38548 24.2655C6.15802 23.9135 5.95419 23.5095 5.68207 23.1885C5.42623 22.8881 4.95659 22.9674 4.60252 22.9674H1.54879C1.38751 22.9674 1.23359 22.9674 1.0886 23.0546C0.787059 23.2332 0.72402 23.6146 0.905784 23.9019C1.15059 24.2891 1.44897 24.6521 1.71794 25.0235L2.1797 25.6634C2.21017 25.7049 2.32837 25.832 2.32575 25.8735C2.32049 25.966 2.11824 26.1603 2.06571 26.2333L1.57085 26.9163C1.34023 27.2351 1.07704 27.5467 0.871637 27.8829C0.822931 27.9625 0.794258 28.0528 0.788073 28.146C0.781888 28.2392 0.798375 28.3325 0.836123 28.4179C0.87387 28.5033 0.931754 28.5783 1.00482 28.6364C1.07788 28.6946 1.16395 28.7342 1.25565 28.7518C1.36239 28.7658 1.47019 28.7698 1.57768 28.7639H4.69288C5.06638 28.7639 5.48087 28.8332 5.7304 28.4849C5.97993 28.1366 6.20635 27.7494 6.44274 27.3817L6.83569 26.7734C6.8525 26.7476 6.87509 26.6899 6.90188 26.6715C6.8525 26.7056 6.87194 26.6983 6.90188 26.6967C7.17558 26.6851 7.4519 26.6967 7.72507 26.6967H13.2148C13.3198 26.6967 13.4538 26.7188 13.5578 26.6967C13.5791 26.6938 13.6006 26.6938 13.6219 26.6967C13.5594 26.6888 13.6193 26.6263 13.5946 26.7061C13.573 26.775 13.5946 26.8869 13.5946 26.9573V28.1571C13.5985 28.1852 13.5985 28.2136 13.5946 28.2417C13.5662 28.2984 13.614 28.2165 13.5856 28.2417C13.5084 28.3152 13.334 28.3515 13.2379 28.3993C12.5255 28.7539 11.9976 29.3748 11.8195 30.1586C11.6167 31.0517 11.8436 32.0734 12.4168 32.791C12.6046 33.0194 12.8269 33.2172 13.0755 33.3773C13.1423 33.4214 13.2857 33.4745 13.3335 33.538C13.3293 33.5323 13.3146 33.4934 13.3282 33.5312C13.3337 33.5716 13.3337 33.6126 13.3282 33.6531V34.4542C13.3282 34.6386 13.2993 34.8561 13.3471 35.0378C13.5047 35.642 14.3652 35.4802 14.8275 35.4802C15.0219 35.4802 15.2478 35.508 15.4353 35.4413C15.7379 35.3326 15.8251 35.0531 15.8251 34.7631V33.6216C15.8206 33.5897 15.8206 33.5573 15.8251 33.5254C15.8393 33.4908 15.8078 33.5585 15.8572 33.5149C16.092 33.3085 16.3746 33.1766 16.5926 32.9423C16.9042 32.6046 17.1325 32.1988 17.2593 31.7572C17.5408 30.7969 17.3307 29.6753 16.6478 28.9309C16.4012 28.674 16.1046 28.4703 15.7763 28.3326C15.7358 28.3147 15.5519 28.2459 15.5603 28.2595C15.5367 28.2212 15.5603 28.0883 15.5603 28.0442V27.2089C15.5603 27.0513 15.5131 26.8086 15.5603 26.6583C15.5399 26.723 15.5404 26.6972 15.6386 26.6972H22.1364C22.2554 26.7051 22.3747 26.7051 22.4936 26.6972C22.5195 26.6959 22.5455 26.6959 22.5714 26.6972C22.6076 26.6972 22.5588 26.6389 22.5446 26.6715C22.3581 27.097 22.2367 27.5645 22.0854 28.0037C21.942 28.4203 21.6037 29.0386 22.1185 29.3449C22.471 29.555 22.7768 29.3175 23.0668 29.1389L25.7554 27.4815L27.5415 26.3783C27.8898 26.1682 27.5709 25.6224 27.2242 25.8362Z" fill="#817653"/>
<path d="M32.7515 25.8575C33.8857 25.8575 34.5187 26.4601 34.5187 27.4335V28.4474C34.5187 29.4208 33.8857 30.0234 32.7515 30.0234C31.6173 30.0234 30.9785 29.4208 30.9785 28.4474V27.4341C30.9785 26.4601 31.6115 25.8575 32.7515 25.8575ZM32.7515 26.8425C32.3486 26.8425 32.1211 27.0285 32.1211 27.3831V28.4999C32.1211 28.8545 32.3512 29.0405 32.7515 29.0405C33.1518 29.0405 33.3787 28.8524 33.3787 28.4999V27.3831C33.3787 27.029 33.1486 26.8425 32.7515 26.8425Z" fill="#1B1B1B"/>
<path d="M38.4485 26.1785V26.685C38.4485 26.8651 38.3854 26.9271 38.201 26.9271H37.351V29.7024C37.351 29.8774 37.2875 29.9388 37.1036 29.9388H36.4522C36.2683 29.9388 36.2106 29.8774 36.2106 29.7024V26.9271H35.3532C35.1694 26.9271 35.1116 26.8651 35.1116 26.685V26.1785C35.1116 26.0041 35.1694 25.9421 35.3532 25.9421H38.2026C38.387 25.9421 38.4485 26.0041 38.4485 26.1785Z" fill="#1B1B1B"/>
<path d="M42.3881 27.006C42.3881 27.3831 42.2673 27.6364 41.9736 27.8334V27.8559C42.3413 28.0135 42.5552 28.3345 42.5552 28.8246C42.5552 29.5506 41.9505 29.9389 41.1368 29.9389H39.4284C39.244 29.9389 39.181 29.8774 39.181 29.7025V26.1786C39.181 25.9984 39.244 25.9364 39.4284 25.9364H41.1147C41.9095 25.9364 42.3881 26.3194 42.3881 27.006ZM40.8799 26.8426H40.3204V27.4619H40.8788C41.1095 27.4619 41.2303 27.3779 41.2303 27.1583C41.2303 26.9387 41.1095 26.8426 40.8788 26.8426H40.8799ZM40.9891 28.3687H40.3204V29.0253H40.9881C41.2361 29.0253 41.3558 28.9297 41.3558 28.6933C41.3569 28.4695 41.2361 28.3687 40.9881 28.3687H40.9891Z" fill="#1B1B1B"/>
<path d="M46.2552 26.1785V26.685C46.2552 26.8651 46.1921 26.9271 46.0077 26.9271H44.4895V27.4283H45.7041C45.8885 27.4283 45.9515 27.4903 45.9515 27.6647V28.1711C45.9515 28.3513 45.8885 28.4133 45.7041 28.4133H44.4895V28.9538H46.0608C46.2394 28.9538 46.303 29.0101 46.303 29.1902V29.7024C46.303 29.8774 46.2394 29.9388 46.0608 29.9388H43.5965C43.4121 29.9388 43.3491 29.8774 43.3491 29.7024V26.1785C43.3491 26.0041 43.4121 25.9421 43.5965 25.9421H46.0077C46.1921 25.9421 46.2552 26.0041 46.2552 26.1785Z" fill="#1B1B1B"/>
<path d="M50.2325 26.1785V26.685C50.2325 26.8651 50.1695 26.9271 49.9851 26.9271H49.133V29.7024C49.133 29.8774 49.07 29.9388 48.8856 29.9388H48.2352C48.0508 29.9388 47.9936 29.8774 47.9936 29.7024V26.9271H47.1357C46.9513 26.9271 46.8941 26.8651 46.8941 26.685V26.1785C46.8941 26.0041 46.9513 25.9421 47.1357 25.9421H49.9851C50.1695 25.9421 50.2325 26.0041 50.2325 26.1785Z" fill="#1B1B1B"/>
<path d="M52.587 25.8575C53.4732 25.8575 54.0259 26.2121 54.2681 26.8425C54.3259 27.0059 54.2854 27.0905 54.1105 27.1467L53.4948 27.3605C53.3162 27.413 53.2474 27.3831 53.1838 27.2087C53.0787 26.9555 52.9075 26.841 52.5854 26.841C52.1305 26.841 51.9519 27.0327 51.9519 27.4267V28.4511C51.9519 28.8451 52.1305 29.0368 52.5854 29.0368C52.9075 29.0368 53.0919 28.9129 53.1838 28.6691C53.2531 28.4947 53.3219 28.4553 53.4948 28.5173L54.1105 28.7311C54.2833 28.7873 54.3238 28.8719 54.2681 29.0353C54.0264 29.6656 53.4738 30.0202 52.587 30.0202C51.4528 30.0202 50.814 29.4177 50.814 28.4443V27.4341C50.814 26.4601 51.4528 25.8575 52.587 25.8575Z" fill="#1B1B1B"/>
<path d="M58.1585 26.1785V26.685C58.1585 26.8651 58.095 26.9271 57.9111 26.9271H57.059V29.7024C57.059 29.8774 56.996 29.9388 56.8116 29.9388H56.1612C55.9768 29.9388 55.919 29.8774 55.919 29.7024V26.9271H55.0617C54.8773 26.9271 54.8201 26.8651 54.8201 26.685V26.1785C54.8201 26.0041 54.8773 25.9421 55.0617 25.9421H57.9111C58.0955 25.9421 58.1585 26.0041 58.1585 26.1785Z" fill="#1B1B1B"/>
<path d="M62.0955 27.006C62.0955 27.3831 61.9747 27.6364 61.6816 27.8334V27.8559C62.0493 28.0135 62.2626 28.3345 62.2626 28.8246C62.2626 29.5506 61.6585 29.9389 60.8442 29.9389H59.1343C58.9504 29.9389 58.8868 29.8774 58.8868 29.7025V26.1786C58.8868 25.9984 58.9504 25.9364 59.1343 25.9364H60.8211C61.618 25.9364 62.0955 26.3194 62.0955 27.006ZM60.5878 26.8426H60.0294V27.4619H60.5878C60.8179 27.4619 60.9388 27.3779 60.9388 27.1583C60.9388 26.9387 60.8179 26.8426 60.5878 26.8426ZM60.6971 28.3687H60.0294V29.0253H60.6971C60.9445 29.0253 61.0648 28.9297 61.0648 28.6933C61.0654 28.4695 60.9445 28.3687 60.6971 28.3687Z" fill="#1B1B1B"/>
<path d="M65.9633 26.1785V26.685C65.9633 26.8651 65.9002 26.9271 65.7159 26.9271H64.1961V27.4283H65.4106C65.595 27.4283 65.6586 27.4903 65.6586 27.6647V28.1711C65.6586 28.3513 65.595 28.4133 65.4106 28.4133H64.1961V28.9538H65.7679C65.9465 28.9538 66.0095 29.0101 66.0095 29.1902V29.7024C66.0095 29.8774 65.9465 29.9388 65.7679 29.9388H63.3041C63.1197 29.9388 63.0566 29.8774 63.0566 29.7024V26.1785C63.0566 26.0041 63.1197 25.9421 63.3041 25.9421H65.7159C65.9002 25.9421 65.9633 26.0041 65.9633 26.1785Z" fill="#1B1B1B"/>
<path d="M70.2175 26.1786V29.7025C70.2175 29.8774 70.1539 29.9389 69.9753 29.9389H69.3192C69.1411 29.9389 69.0775 29.8774 69.0775 29.7025V28.4081H67.9607V29.7025C67.9607 29.8774 67.9034 29.9389 67.719 29.9389H67.0687C66.8843 29.9389 66.8212 29.8774 66.8212 29.7025V26.1786C66.8212 25.9984 66.8843 25.9364 67.0687 25.9364H67.719C67.9034 25.9364 67.9607 25.9984 67.9607 26.1786V27.4225H69.0775V26.1786C69.0775 25.9984 69.1411 25.9364 69.3192 25.9364H69.9753C70.1539 25.9364 70.2175 25.9984 70.2175 26.1786Z" fill="#1B1B1B"/>
<path d="M74.5689 26.1786V29.7025C74.5689 29.8774 74.5053 29.9389 74.3273 29.9389H73.6711C73.4925 29.9389 73.4289 29.8774 73.4289 29.7025V28.4081H72.3126V29.7025C72.3126 29.8774 72.2548 29.9389 72.0705 29.9389H71.4201C71.2362 29.9389 71.1727 29.8774 71.1727 29.7025V26.1786C71.1727 25.9984 71.2362 25.9364 71.4201 25.9364H72.0694C72.2538 25.9364 72.3116 25.9984 72.3116 26.1786V27.4225H73.4279V26.1786C73.4279 25.9984 73.4915 25.9364 73.6701 25.9364H74.3283C74.5053 25.9364 74.5689 25.9984 74.5689 26.1786Z" fill="#1B1B1B"/>
<path d="M77.1992 25.8575C78.3334 25.8575 78.9664 26.4601 78.9664 27.4335V28.4474C78.9664 29.4208 78.336 30.0234 77.1992 30.0234C76.0624 30.0234 75.4262 29.4208 75.4262 28.4474V27.4341C75.4262 26.4601 76.0618 25.8575 77.1992 25.8575ZM77.1992 26.8425C76.7962 26.8425 76.5661 27.0285 76.5661 27.3831V28.4999C76.5661 28.8545 76.7962 29.0405 77.1992 29.0405C77.6021 29.0405 77.8264 28.8545 77.8264 28.4999V27.3831C77.8264 27.029 77.5963 26.8425 77.1992 26.8425Z" fill="#1B1B1B"/>
<path d="M82.7368 26.1785V26.685C82.7368 26.8651 82.6732 26.9271 82.4888 26.9271H80.9696V27.4283H82.1842C82.368 27.4283 82.4316 27.4903 82.4316 27.6647V28.1711C82.4316 28.3513 82.368 28.4133 82.1842 28.4133H80.9696V28.9538H82.5408C82.7195 28.9538 82.7825 29.0101 82.7825 29.1902V29.7024C82.7825 29.8774 82.7195 29.9388 82.5408 29.9388H80.0771C79.8932 29.9388 79.8296 29.8774 79.8296 29.7024V26.1785C79.8296 26.0041 79.8932 25.9421 80.0771 25.9421H82.4888C82.6732 25.9421 82.7368 26.0041 82.7368 26.1785Z" fill="#1B1B1B"/>
<path d="M86.6852 25.8575C87.5714 25.8575 88.1241 26.2121 88.3663 26.8425C88.4241 27.0059 88.3836 27.0905 88.2087 27.1467L87.5925 27.3605C87.4138 27.413 87.345 27.3831 87.2815 27.2087C87.1764 26.9555 87.0057 26.841 86.6831 26.841C86.2282 26.841 86.0527 27.0327 86.0527 27.4267V28.4511C86.0527 28.8451 86.2308 29.0368 86.6831 29.0368C87.0057 29.0368 87.1895 28.9129 87.2815 28.6691C87.3508 28.4947 87.4196 28.4553 87.5925 28.5173L88.2087 28.7311C88.381 28.7873 88.4188 28.8719 88.3663 29.0353C88.1246 29.6656 87.572 30.0202 86.6852 30.0202C85.551 30.0202 84.9122 29.4177 84.9122 28.4443V27.4341C84.9122 26.4601 85.551 25.8575 86.6852 25.8575Z" fill="#1B1B1B"/>
<path d="M92.2567 26.1785V26.685C92.2567 26.8651 92.1937 26.9271 92.0093 26.9271H91.1572V29.7024C91.1572 29.8774 91.0942 29.9388 90.9098 29.9388H90.2594C90.075 29.9388 90.0178 29.8774 90.0178 29.7024V26.9271H89.1599C88.9755 26.9271 88.9182 26.8651 88.9182 26.685V26.1785C88.9182 26.0041 88.9755 25.9421 89.1599 25.9421H92.0093C92.1937 25.9421 92.2567 26.0041 92.2567 26.1785Z" fill="#1B1B1B"/>
<path d="M96.3089 27.3495C96.3089 28.2389 95.7273 28.74 94.8354 28.74H94.1272V29.7024C94.1272 29.8774 94.0694 29.9388 93.8856 29.9388H93.2352C93.0508 29.9388 92.9873 29.8774 92.9873 29.7024V26.1785C92.9873 26.0041 93.0508 25.9421 93.2352 25.9421H94.8238C95.7216 25.9421 96.3089 26.4543 96.3089 27.3495ZM95.1311 27.3442C95.1311 27.0968 94.9698 26.9277 94.6993 26.9277H94.1293V27.755H94.6993C94.9677 27.7545 95.1311 27.5917 95.1311 27.3442Z" fill="#1B1B1B"/>
<path d="M98.7665 25.8575C99.9007 25.8575 100.534 26.4601 100.534 27.4335V28.4474C100.534 29.4208 99.9033 30.0234 98.7665 30.0234C97.6298 30.0234 96.9936 29.4208 96.9936 28.4474V27.4341C96.9936 26.4601 97.6271 25.8575 98.7665 25.8575ZM98.7665 26.8425C98.3636 26.8425 98.1362 27.0285 98.1362 27.3831V28.4999C98.1362 28.8545 98.3663 29.0405 98.7665 29.0405C99.1668 29.0405 99.3969 28.8545 99.3969 28.4999V27.3831C99.3943 27.029 99.1637 26.8425 98.7665 26.8425Z" fill="#1B1B1B"/>
<path d="M104.88 26.1787V29.7026C104.88 29.8776 104.816 29.939 104.632 29.939H103.987C103.803 29.939 103.74 29.8776 103.74 29.6974V28.7402C103.74 28.1098 103.803 27.9575 103.958 27.3439H103.912C103.699 27.9218 103.619 28.0925 103.371 28.5038L102.577 29.8266C102.531 29.9112 102.468 29.939 102.341 29.939H101.645C101.461 29.939 101.397 29.8776 101.397 29.7026V26.1787C101.397 26.0043 101.461 25.9423 101.645 25.9423H102.295C102.479 25.9423 102.537 26.0043 102.537 26.1787V27.1411C102.537 27.7547 102.508 27.9349 102.327 28.5317H102.367C102.598 27.9633 102.672 27.7721 102.92 27.3607L103.702 26.0474C103.755 25.9681 103.812 25.9344 103.945 25.9344H104.635C104.816 25.9365 104.88 25.9985 104.88 26.1787Z" fill="#1B1B1B"/>
<path d="M108.955 26.1785V26.685C108.955 26.8651 108.891 26.9271 108.707 26.9271H107.855V29.7024C107.855 29.8774 107.792 29.9388 107.608 29.9388H106.957C106.773 29.9388 106.716 29.8774 106.716 29.7024V26.9271H105.858C105.673 26.9271 105.616 26.8651 105.616 26.685V26.1785C105.616 26.0041 105.673 25.9421 105.858 25.9421H108.707C108.891 25.9421 108.955 26.0041 108.955 26.1785Z" fill="#1B1B1B"/>
<path d="M112.593 26.1785V26.685C112.593 26.8651 112.529 26.9271 112.345 26.9271H110.825V27.4283H112.04C112.224 27.4283 112.287 27.4903 112.287 27.6647V28.1711C112.287 28.3513 112.224 28.4133 112.04 28.4133H110.825V28.9538H112.397C112.575 28.9538 112.638 29.0101 112.638 29.1902V29.7024C112.638 29.8774 112.575 29.9388 112.397 29.9388H109.933C109.749 29.9388 109.685 29.8774 109.685 29.7024V26.1785C109.685 26.0041 109.749 25.9421 109.933 25.9421H112.345C112.529 25.9421 112.593 26.0041 112.593 26.1785Z" fill="#1B1B1B"/>
<path d="M116.893 26.1785V29.7024C116.893 29.8774 116.829 29.9388 116.645 29.9388H115.994C115.81 29.9388 115.753 29.8774 115.753 29.7024V26.9271H115.062V27.4567C115.062 29.0946 114.544 29.6462 113.859 29.9782C113.697 30.0628 113.617 30.0234 113.53 29.8658L113.203 29.2916C113.116 29.134 113.156 29.0552 113.318 28.9649C113.663 28.7679 113.939 28.5204 113.939 27.4619V26.1785C113.939 26.0041 114.003 25.9421 114.187 25.9421H116.645C116.827 25.9421 116.893 26.0041 116.893 26.1785Z" fill="#1B1B1B"/>
<path d="M117.847 29.7024V26.1785C117.847 26.0041 117.911 25.9421 118.095 25.9421H118.746C118.93 25.9421 118.987 26.0041 118.987 26.1785V27.1409H119.695C120.588 27.1409 121.169 27.6421 121.169 28.5315C121.169 29.4209 120.582 29.9388 119.684 29.9388H118.095C117.911 29.9388 117.847 29.8774 117.847 29.7024ZM118.987 28.9538H119.559C119.829 28.9538 119.991 28.7852 119.991 28.5373C119.991 28.2893 119.829 28.1265 119.559 28.1265H118.989L118.987 28.9538Z" fill="#1B1B1B"/>
<path d="M123.627 25.8575C124.513 25.8575 125.066 26.2121 125.308 26.8425C125.365 27.0059 125.325 27.0905 125.15 27.1467L124.534 27.3605C124.356 27.413 124.286 27.3831 124.223 27.2087C124.118 26.9555 123.947 26.841 123.625 26.841C123.17 26.841 122.994 27.0327 122.994 27.4267V28.4511C122.994 28.8451 123.172 29.0368 123.625 29.0368C123.947 29.0368 124.131 28.9129 124.223 28.6691C124.292 28.4947 124.361 28.4553 124.534 28.5173L125.15 28.7311C125.322 28.7873 125.363 28.8719 125.308 29.0353C125.066 29.6656 124.513 30.0202 123.627 30.0202C122.492 30.0202 121.854 29.4177 121.854 28.4443V27.4341C121.854 26.4601 122.492 25.8575 123.627 25.8575Z" fill="#1B1B1B"/>
<path d="M129.198 26.1785V26.685C129.198 26.8651 129.135 26.9271 128.951 26.9271H128.099V29.7024C128.099 29.8774 128.036 29.9388 127.851 29.9388H127.201C127.016 29.9388 126.959 29.8774 126.959 29.7024V26.9271H126.101C125.917 26.9271 125.86 26.8651 125.86 26.685V26.1785C125.86 26.0041 125.917 25.9421 126.101 25.9421H128.951C129.135 25.9421 129.198 26.0041 129.198 26.1785Z" fill="#1B1B1B"/>
<path d="M133.136 27.006C133.136 27.3831 133.015 27.6364 132.721 27.8334V27.8559C133.089 28.0135 133.302 28.3345 133.302 28.8246C133.302 29.5506 132.698 29.9389 131.884 29.9389H130.174C129.99 29.9389 129.927 29.8774 129.927 29.7025V26.1786C129.927 25.9984 129.99 25.9364 130.174 25.9364H131.861C132.658 25.9364 133.136 26.3194 133.136 27.006ZM131.627 26.8426H131.069V27.4619H131.627C131.857 27.4619 131.978 27.3779 131.978 27.1583C131.978 26.9387 131.857 26.8426 131.627 26.8426ZM131.737 28.3687H131.069V29.0253H131.737C131.984 29.0253 132.104 28.9297 132.104 28.6933C132.105 28.4695 131.984 28.3687 131.737 28.3687Z" fill="#1B1B1B"/>
<path d="M135.772 25.8575C136.905 25.8575 137.539 26.4601 137.539 27.4335V28.4474C137.539 29.4208 136.905 30.0234 135.772 30.0234C134.638 30.0234 133.999 29.4208 133.999 28.4474V27.4341C133.999 26.4601 134.632 25.8575 135.772 25.8575ZM135.772 26.8425C135.369 26.8425 135.141 27.0285 135.141 27.3831V28.4999C135.141 28.8545 135.371 29.0405 135.772 29.0405C136.172 29.0405 136.399 28.8545 136.399 28.4999V27.3831C136.399 27.029 136.169 26.8425 135.772 26.8425Z" fill="#1B1B1B"/>
<path d="M53.4478 7.82251V8.95039C53.4478 9.55819 53.2377 9.76728 52.6262 9.76728H46.7236V12.0409H51.6134C52.2249 12.0409 52.435 12.251 52.435 12.8389V14.355C52.435 14.9628 52.2249 15.1719 51.6134 15.1719H46.7236V17.4833H52.798C53.3906 17.4833 53.6007 17.6735 53.6007 18.2813V19.7191C53.6007 20.3085 53.3906 20.5176 52.798 20.5176H44.6197C44.0082 20.5176 43.7981 20.3075 43.7981 19.7191V7.82251C43.7981 7.23362 44.0082 7.02454 44.6197 7.02454H52.6262C53.2377 7.02454 53.4478 7.23362 53.4478 7.82251Z" fill="#1B1B1B"/>
<path d="M79.4564 7.82251V8.95039C79.4564 9.55819 79.242 9.76728 78.6195 9.76728H72.6098V12.0409H77.5883C78.2108 12.0409 78.4251 12.251 78.4251 12.8389V14.355C78.4251 14.9628 78.2108 15.1719 77.5883 15.1719H72.6098V17.4833H78.7934C79.3965 17.4833 79.6103 17.6735 79.6103 18.2813V19.7191C79.6103 20.3085 79.3965 20.5176 78.7934 20.5176H70.4675C69.8449 20.5176 69.6311 20.3075 69.6311 19.7191V7.82251C69.6311 7.23362 69.8449 7.02454 70.4675 7.02454H78.6195C79.242 7.02454 79.4564 7.23362 79.4564 7.82251Z" fill="#1B1B1B"/>
<path d="M65.4386 13.5456V13.4699C66.421 12.8112 66.825 11.9628 66.825 10.7009C66.825 8.40261 65.2275 7.12134 62.5698 7.12134H56.933C56.3174 7.12134 56.1057 7.33147 56.1057 7.93192V19.7271C56.1057 20.3102 56.3158 20.5183 56.933 20.5183H62.6486C65.3619 20.5183 67.3829 19.2186 67.3829 16.7884C67.3829 15.1462 66.6705 14.073 65.4386 13.5456ZM62.2951 17.7871H58.9388V9.7837H61.9069C62.9523 9.7837 63.5007 10.2187 63.5007 11.2163C63.5007 12.2139 62.9523 12.5974 61.9069 12.5974C61.8485 12.5974 61.7907 12.6089 61.7368 12.6312C61.6829 12.6535 61.6339 12.6863 61.5926 12.7275C61.5513 12.7688 61.5186 12.8178 61.4963 12.8717C61.4739 12.9256 61.4624 12.9834 61.4624 13.0418V14.4912C61.4624 14.609 61.5092 14.7221 61.5926 14.8054C61.6759 14.8888 61.789 14.9356 61.9069 14.9356H62.2951C63.3657 14.9356 63.8889 15.3742 63.8889 16.3498C63.8889 17.3726 63.3657 17.7871 62.2951 17.7871Z" fill="#1B1B1B"/>
<path d="M92.6175 11.7767C92.6175 14.78 90.824 16.4715 88.0724 16.4715H85.2088V19.7217C85.2088 20.3111 85.0312 20.5202 84.4634 20.5202H83.1364C82.5685 20.5202 82.3731 20.3101 82.3731 19.7217V7.82251C82.3731 7.23362 82.5685 7.02454 83.1364 7.02454H88.0393C90.8067 7.02454 92.6175 8.75392 92.6175 11.7767ZM89.6089 11.7614C89.6089 10.5831 88.9087 9.77988 87.7335 9.77988H85.2577V13.7156H87.7335C88.9087 13.7156 89.6089 12.9392 89.6089 11.7614Z" fill="#1B1B1B"/>
<path d="M105.422 7.87501V19.7206C105.422 20.3069 105.218 20.5155 104.644 20.5155H103.406C102.832 20.5155 102.628 20.3053 102.628 19.7206V15.1287H97.9682V19.7206C97.9682 20.3069 97.7827 20.5155 97.1902 20.5155H95.972C95.3794 20.5155 95.1761 20.3053 95.1761 19.7206V7.87501C95.1761 7.26931 95.3794 7.06128 95.972 7.06128H97.1912C97.7838 7.06128 97.9692 7.27141 97.9692 7.87501V12.0572H102.629V7.87554C102.629 7.26983 102.833 7.0618 103.407 7.0618H104.645C105.218 7.06128 105.422 7.26931 105.422 7.87501Z" fill="#1B1B1B"/>
<path d="M108.58 19.7217V7.82251C108.58 7.23362 108.783 7.02454 109.376 7.02454H110.692C111.284 7.02454 111.47 7.23467 111.47 7.82251L111.567 11.4615H114.621C117.491 11.4615 119.362 13.153 119.362 16.1563C119.362 19.1791 117.376 20.5202 114.487 20.5202H109.375C108.782 20.5202 108.58 20.3111 108.58 19.7217ZM111.55 17.7974H114.176C115.423 17.7974 116.165 16.9811 116.165 15.7833C116.165 14.5856 115.423 13.796 114.176 13.796H111.55V17.7974Z" fill="#1B1B1B"/>
<path d="M121.59 7.02454H123.293C123.725 7.02454 123.871 7.21313 123.871 7.77943V19.6687C123.871 20.2344 123.726 20.423 123.293 20.423H121.59C121.157 20.423 121.012 20.2344 121.012 19.6687V7.77943C121.013 7.21313 121.157 7.02454 121.59 7.02454Z" fill="#1B1B1B"/>
<path d="M137.458 7.77943V19.6681C137.458 20.235 137.313 20.423 136.88 20.423H135.178C134.745 20.423 134.6 20.235 134.6 19.6681V13.0254L129.859 19.9445C129.672 20.2171 129.513 20.3647 129.344 20.3978C129.269 20.416 129.193 20.4245 129.117 20.423H127.414C126.981 20.423 126.836 20.235 126.836 19.6681V7.77943C126.836 7.2126 126.98 7.02454 127.414 7.02454H129.117C129.55 7.02454 129.695 7.2126 129.695 7.77943V14.5472L134.445 7.61763C134.505 7.52653 134.573 7.44045 134.647 7.36022C134.718 7.11489 134.88 7.02454 135.18 7.02454H136.882C137.315 7.02454 137.458 7.2126 137.458 7.77943Z" fill="#1B1B1B"/>
<path d="M155.334 7.74322V17.4481H156.154C156.7 17.4481 156.871 17.6294 156.871 18.1904V21.5599C156.871 22.1215 156.7 22.3206 156.154 22.3206H154.761C154.214 22.3206 154.025 22.1215 154.025 21.5599V20.4667H146.902V21.5599C146.902 22.1215 146.714 22.3206 146.185 22.3206H144.678C144.149 22.3206 143.961 22.1215 143.961 21.5599V18.1904C143.961 17.6294 144.149 17.4481 144.678 17.4481H145.053C145.924 16.6691 146.419 14.7516 146.419 11.8723V7.74322C146.419 7.18164 146.607 6.98254 147.155 6.98254H154.598C155.145 6.98254 155.334 7.18164 155.334 7.74322ZM149.365 11.5319C149.365 13.8538 148.931 16.2493 148.231 17.4103H152.502V9.74209H149.365V11.5319Z" fill="#1B1B1B"/>
<path d="M163.866 7.00195C167.224 7.00195 169.099 8.93989 169.099 12.0729V15.3326C169.099 18.4662 167.224 20.4036 163.866 20.4036C160.491 20.4036 158.616 18.4662 158.616 15.3326V12.0729C158.616 8.93989 160.491 7.00195 163.866 7.00195ZM163.866 9.59025C162.476 9.59025 161.682 10.2863 161.682 11.6149V15.7907C161.682 17.1193 162.476 17.8153 163.866 17.8153C165.235 17.8153 166.029 17.1193 166.029 15.7907V11.6149C166.031 10.2863 165.237 9.58814 163.867 9.58814L163.866 9.59025Z" fill="#1B1B1B"/>
<path d="M135.582 3.09351C135.657 3.09307 135.732 3.11033 135.799 3.14391C135.867 3.17749 135.926 3.22646 135.971 3.28688C136.016 3.3473 136.047 3.4175 136.06 3.49184C136.073 3.56619 136.069 3.64261 136.048 3.71498C135.613 5.10289 134.424 5.92135 132.611 5.92135C130.788 5.92135 129.598 5.10447 129.163 3.71498C129.141 3.64261 129.137 3.56619 129.15 3.49184C129.163 3.4175 129.194 3.3473 129.239 3.28688C129.284 3.22646 129.343 3.17749 129.411 3.14391C129.478 3.11033 129.553 3.09307 129.629 3.09351H130.433C130.543 3.09452 130.65 3.1326 130.736 3.20161C130.822 3.27062 130.882 3.36653 130.906 3.47385C131.085 4.21351 131.683 4.59805 132.611 4.59805C133.525 4.59805 134.122 4.21351 134.3 3.47385C134.324 3.36653 134.384 3.27062 134.47 3.20161C134.556 3.1326 134.662 3.09452 134.773 3.09351H135.582Z" fill="#1B1B1B"/>
<path d="M38.9211 15.9534C38.8082 15.9524 38.6986 15.9911 38.6114 16.0629C38.5243 16.1347 38.4652 16.2348 38.4446 16.3458C38.2718 17.376 37.4853 17.9118 36.2382 17.9118C34.7972 17.9118 33.9741 17.2163 33.9741 15.8872V11.7119C33.9741 10.3834 34.7972 9.68729 36.2382 9.68729C37.3624 9.68729 38.1126 10.1233 38.3763 10.9649C38.4079 11.0615 38.4694 11.1456 38.5519 11.2049C38.6345 11.2642 38.7338 11.2957 38.8354 11.2948H41.0276C41.1014 11.2948 41.1743 11.278 41.2407 11.2457C41.307 11.2133 41.3652 11.1664 41.4107 11.1083C41.4563 11.0502 41.488 10.9825 41.5036 10.9103C41.5191 10.8382 41.518 10.7634 41.5004 10.6917C40.9651 8.43806 39.1338 7.099 36.2382 7.099C32.738 7.099 30.7943 9.03641 30.7943 12.17V15.427C30.7943 18.5611 32.738 20.4986 36.2382 20.4986C39.2951 20.4986 41.1668 19.005 41.5787 16.5187C41.5904 16.449 41.5869 16.3776 41.5683 16.3095C41.5496 16.2414 41.5164 16.1781 41.4709 16.1241C41.4253 16.0701 41.3686 16.0267 41.3045 15.9969C41.2405 15.967 41.1708 15.9515 41.1001 15.9513L38.9211 15.9534Z" fill="#1B1B1B"/>
<path d="M184.239 7.82211V19.1955C184.239 19.7576 184.052 19.9378 183.508 19.9378H182.14C181.596 19.9378 181.426 19.7576 181.426 19.1955V16.6061C181.426 16.5011 181.426 16.396 181.426 16.2857V12.1125C181.194 12.8332 180.68 14.1944 180.365 14.8494L179.413 16.8951C179.225 17.2581 179.056 17.4204 178.596 17.4204H177.458C176.999 17.4204 176.828 17.2933 176.642 16.8951L175.638 14.8494C175.355 14.3026 174.964 13.1379 174.729 12.3657V16.0645C174.726 16.2489 174.723 16.4323 174.723 16.6235V19.1976C174.723 19.7597 174.537 19.9399 173.992 19.9399H172.646C172.102 19.9399 171.915 19.7597 171.915 19.1976V7.82211C171.915 7.52846 171.964 7.33619 172.082 7.21851C172.2 7.10084 172.379 7.06091 172.646 7.06091H174.245C174.839 7.06091 175.009 7.16966 175.247 7.62196L178.053 13.4899L180.858 7.64035C181.095 7.15127 181.249 7.06249 181.81 7.06249H183.51C183.777 7.06249 183.959 7.10609 184.075 7.22009C184.19 7.33408 184.239 7.52846 184.239 7.82211Z" fill="#1B1B1B"/>
<path d="M184.239 7.21838V7.82199C184.239 7.52833 184.191 7.33606 184.072 7.21838H184.239Z" fill="#FFFF00"/>
<path d="M171.913 7.21838H172.08C171.962 7.33606 171.913 7.52833 171.913 7.82199V7.21838Z" fill="white"/>
<path d="M174.727 16.0645V17.1183H174.718V16.6234C174.718 16.4332 174.724 16.2488 174.727 16.0645Z" fill="#FFFF00"/>
<path d="M181.424 16.2857V14.5337C181.404 15.1967 181.419 15.7577 181.424 16.2857ZM174.727 16.0645C174.733 15.7493 174.737 15.4304 174.727 15.0774V16.0645Z" fill="white"/>
</g>
<defs>
<clipPath id="clip0">
<rect width="183.457" height="35" fill="white" transform="translate(0.782349 0.5)"/>
</clipPath>
</defs>
</svg>
