<svg width="175" height="40" viewBox="0 0 175 40" fill="none" xmlns="http://www.w3.org/2000/svg">
<path fill-rule="evenodd" clip-rule="evenodd" d="M50.2035 20.8251H51.6035V15.5584L54.4202 18.5917L57.2368 15.5584V20.8251H58.6368V12.1584L54.4202 16.6417L50.2035 12.1584V20.8251ZM66.5368 15.3584V20.8251H67.9368V12.1584L62.0868 17.7084V12.2417H60.6868V20.9084L66.5368 15.3584ZM69.9868 20.8251H71.3868V17.1417H75.6368V20.8251H77.0368V12.2417H75.6368V15.7917H71.3868V12.2417H69.9868V20.8251ZM82.9868 20.9084C84.2035 20.9084 85.2368 20.4917 86.0202 19.6751L85.1202 18.6751C84.5868 19.2417 83.8202 19.5917 82.9868 19.5917C81.3035 19.5917 80.0368 18.2417 80.0368 16.5251C80.0368 14.8251 81.3035 13.4751 82.9868 13.4751C83.8202 13.4751 84.5868 13.8251 85.1202 14.3917L86.0202 13.3917C85.2368 12.5751 84.2035 12.1584 82.9868 12.1584C80.5702 12.1584 78.6035 14.0584 78.6035 16.5251C78.6035 19.0084 80.5702 20.9084 82.9868 20.9084ZM87.4368 20.8251H88.8368V16.7751L92.6535 20.8251H94.4702L90.4702 16.5751L94.1035 12.2417H92.4368L88.8368 16.5584V12.2417H87.4368V20.8251ZM102.253 20.8251V12.2417H95.4868V20.8251H96.8868V13.6084H100.854V20.8251H102.253ZM104.304 20.8251H105.703V17.7084H106.854C108.637 17.7084 109.854 16.5751 109.854 14.9751C109.854 13.3751 108.637 12.2417 106.854 12.2417H104.304V20.8251ZM105.703 16.4084V13.5584H106.804C107.82 13.5584 108.437 14.1084 108.437 14.9751C108.437 15.8417 107.82 16.4084 106.804 16.4084H105.703ZM115.203 19.5917C113.504 19.5917 112.237 18.2417 112.237 16.5251C112.237 14.8251 113.504 13.4751 115.203 13.4751C116.887 13.4751 118.154 14.8251 118.154 16.5251C118.154 18.2417 116.887 19.5917 115.203 19.5917ZM115.203 20.9084C117.637 20.9084 119.587 19.0084 119.587 16.5251C119.587 14.0584 117.637 12.1584 115.203 12.1584C112.77 12.1584 110.82 14.0584 110.82 16.5251C110.82 19.0084 112.77 20.9084 115.203 20.9084ZM121.154 20.8251H122.554V15.5584L125.37 18.5917L128.17 15.5584V20.8251H129.57V12.1584L125.37 16.6417L121.154 12.1584V20.8251ZM135.52 20.9084C136.737 20.9084 137.77 20.4917 138.554 19.6751L137.654 18.6751C137.12 19.2417 136.354 19.5917 135.52 19.5917C133.837 19.5917 132.57 18.2417 132.57 16.5251C132.57 14.8251 133.837 13.4751 135.52 13.4751C136.354 13.4751 137.12 13.8251 137.654 14.3917L138.554 13.3917C137.77 12.5751 136.737 12.1584 135.52 12.1584C133.104 12.1584 131.137 14.0584 131.137 16.5251C131.137 19.0084 133.104 20.9084 135.52 20.9084ZM141.57 20.8251H142.97V13.6251H145.187V12.2417H139.37V13.6251H141.57V20.8251ZM146.454 20.8251H147.854V17.7084H149.02C150.787 17.7084 152.004 16.5751 152.004 14.9751C152.004 13.3751 150.787 12.2417 149.02 12.2417H146.454V20.8251ZM147.854 16.4084V13.5584H148.954C149.987 13.5584 150.587 14.1084 150.587 14.9751C150.587 15.8417 149.987 16.4084 148.954 16.4084H147.854ZM157.354 19.5917C155.67 19.5917 154.404 18.2417 154.404 16.5251C154.404 14.8251 155.67 13.4751 157.354 13.4751C159.054 13.4751 160.32 14.8251 160.32 16.5251C160.32 18.2417 159.054 19.5917 157.354 19.5917ZM157.354 20.9084C159.804 20.9084 161.737 19.0084 161.737 16.5251C161.737 14.0584 159.804 12.1584 157.354 12.1584C154.937 12.1584 152.97 14.0584 152.97 16.5251C152.97 19.0084 154.937 20.9084 157.354 20.9084ZM168.07 9.79175C168.054 10.4751 167.72 10.8417 167.137 10.8417C166.554 10.8417 166.22 10.4751 166.204 9.79175H165.104C165.137 11.0917 165.97 11.7584 167.137 11.7584C168.304 11.7584 169.12 11.0917 169.154 9.79175H168.07ZM169.154 15.3584V20.8251H170.554V12.1584L164.704 17.7084V12.2417H163.304V20.9084L169.154 15.3584Z" fill="#CF1304"/>
<path fill-rule="evenodd" clip-rule="evenodd" d="M52.1321 28.2323C52.6655 28.2323 53.0988 28.0156 53.4155 27.6823L52.9155 27.1656C52.7321 27.3656 52.4821 27.5156 52.1321 27.5156C51.5655 27.5156 51.1488 27.0823 51.1488 26.499C51.1488 25.9156 51.5655 25.499 52.1321 25.499C52.4821 25.499 52.7321 25.6323 52.9155 25.849L53.4155 25.3323C53.0988 24.9823 52.6655 24.7656 52.1321 24.7656C51.1321 24.7656 50.3988 25.5323 50.3988 26.499C50.3988 27.4823 51.1321 28.2323 52.1321 28.2323ZM57.8488 25.4823V24.8323H55.2488V25.4823H56.1488V28.1823H56.8821V25.4823H57.8488ZM60.6988 24.8323H59.9655V29.4156H60.6988V27.899C60.9488 28.1323 61.2655 28.2323 61.6488 28.2323C62.6321 28.2323 63.3155 27.449 63.3155 26.499C63.3155 25.5656 62.6321 24.7656 61.6488 24.7656C61.2655 24.7656 60.9488 24.8823 60.6988 25.1156V24.8323ZM60.6988 25.899C60.8655 25.6323 61.1655 25.4656 61.5655 25.4656C62.1655 25.4656 62.5655 25.9156 62.5655 26.499C62.5655 27.099 62.1655 27.549 61.5655 27.549C61.1655 27.549 60.8655 27.3823 60.6988 27.1156V25.899ZM67.0488 27.5323C66.4821 27.5323 66.0821 27.099 66.0821 26.499C66.0821 25.9156 66.4821 25.4823 67.0488 25.4823C67.6155 25.4823 68.0321 25.9156 68.0321 26.499C68.0321 27.099 67.6155 27.5323 67.0488 27.5323ZM67.0488 28.2323C68.0488 28.2323 68.7988 27.4823 68.7988 26.499C68.7988 25.5323 68.0488 24.7656 67.0488 24.7656C66.0488 24.7656 65.3155 25.5323 65.3155 26.499C65.3155 27.4823 66.0488 28.2323 67.0488 28.2323ZM74.1155 28.1823V24.7656L71.7488 26.8323V24.8323H71.0155V28.2323L73.3821 26.2156V28.1823H74.1155ZM78.8155 25.4823V24.8323H76.2155V25.4823H77.1321V28.1823H77.8655V25.4823H78.8155ZM82.3155 28.2323C82.9155 28.2323 83.3988 27.999 83.6821 27.649L83.1988 27.1156C83.0155 27.3156 82.7155 27.499 82.3155 27.499C81.8155 27.499 81.4321 27.199 81.3488 26.699H83.9155V26.499C83.8655 25.4323 83.2488 24.7656 82.2988 24.7656C81.3321 24.7656 80.5821 25.5323 80.5821 26.499C80.5821 27.4823 81.3321 28.2323 82.3155 28.2323ZM82.2488 25.449C82.6988 25.449 83.0155 25.6823 83.0988 26.1323H81.3655C81.4988 25.699 81.8488 25.449 82.2488 25.449ZM89.0821 28.1823L87.2321 24.7656L85.3988 28.1823H86.1988L87.2488 26.249L88.2655 28.1823H89.0821ZM91.7655 25.9656V24.8323H91.0321V28.1823H92.4155C93.3321 28.1823 93.6821 27.599 93.6821 27.0656C93.6821 26.5323 93.3321 25.9656 92.4155 25.9656H91.7655ZM91.7655 26.5656H92.4321C92.7821 26.5656 92.9821 26.749 92.9821 27.049C92.9821 27.3656 92.7821 27.5323 92.3988 27.5323H91.7655V26.5656ZM98.8988 28.1823V24.8323H98.1655V26.149H96.5821V24.8323H95.8488V28.1823H96.5821V26.8156H98.1655V28.1823H98.8988ZM103.749 28.1823H104.499V24.8323H103.749V25.0823C103.515 24.8823 103.215 24.7656 102.849 24.7656C101.865 24.7656 101.132 25.5323 101.132 26.499C101.132 27.4823 101.865 28.2323 102.849 28.2323C103.215 28.2323 103.515 28.1323 103.749 27.949V28.1823ZM102.865 27.5323C102.282 27.5323 101.882 27.099 101.882 26.499C101.882 25.9156 102.282 25.4823 102.865 25.4823C103.232 25.4823 103.565 25.6656 103.749 25.9323V27.0823C103.565 27.349 103.232 27.5323 102.865 27.5323ZM109.415 28.1823V24.8323H108.065C107.215 24.8323 106.815 25.2656 106.815 25.899C106.815 26.3823 107.049 26.749 107.499 26.9323L106.515 28.1823H107.382L108.299 27.0156H108.682V28.1823H109.415ZM108.682 25.4323V26.399H108.065C107.732 26.399 107.515 26.249 107.515 25.9323C107.515 25.599 107.699 25.4323 108.065 25.4323H108.682ZM116.465 27.5323C115.882 27.5323 115.482 27.099 115.482 26.499C115.482 25.9156 115.882 25.4823 116.465 25.4823C117.032 25.4823 117.449 25.9156 117.449 26.499C117.449 27.099 117.032 27.5323 116.465 27.5323ZM116.465 28.2323C117.465 28.2323 118.199 27.4823 118.199 26.499C118.199 25.5323 117.465 24.7656 116.465 24.7656C115.465 24.7656 114.732 25.5323 114.732 26.499C114.732 27.4823 115.465 28.2323 116.465 28.2323ZM121.165 24.8323H120.432V29.4156H121.165V27.899C121.415 28.1323 121.732 28.2323 122.115 28.2323C123.099 28.2323 123.799 27.449 123.799 26.499C123.799 25.5656 123.099 24.7656 122.115 24.7656C121.732 24.7656 121.415 24.8823 121.165 25.1156V24.8323ZM121.165 25.899C121.332 25.6323 121.632 25.4656 122.032 25.4656C122.632 25.4656 123.032 25.9156 123.032 26.499C123.032 27.099 122.632 27.549 122.032 27.549C121.632 27.549 121.332 27.3823 121.165 27.1156V25.899ZM128.099 25.4823V24.8323H126.015V28.1823H126.749V25.4823H128.099ZM132.465 28.1823H133.215V24.8323H132.465V25.0823C132.232 24.8823 131.932 24.7656 131.565 24.7656C130.582 24.7656 129.849 25.5323 129.849 26.499C129.849 27.4823 130.582 28.2323 131.565 28.2323C131.932 28.2323 132.232 28.1323 132.465 27.949V28.1823ZM131.582 27.5323C131.015 27.5323 130.599 27.099 130.599 26.499C130.599 25.9156 131.015 25.4823 131.582 25.4823C131.949 25.4823 132.299 25.6656 132.465 25.9323V27.0823C132.299 27.349 131.949 27.5323 131.582 27.5323ZM138.732 28.1823V24.8323H137.999V26.149H136.399V24.8323H135.665V28.1823H136.399V26.8156H137.999V28.1823H138.732ZM144.265 28.1823V24.7656L141.915 26.8323V24.8323H141.182V28.2323L143.532 26.2156V28.1823H144.265ZM146.932 25.749C147.099 25.499 147.332 25.3823 147.665 25.3823C147.982 25.3823 148.182 25.499 148.182 25.7656C148.182 26.049 147.899 26.1656 147.649 26.1656H147.199V26.7323H147.682C148.065 26.7323 148.249 26.9156 148.249 27.1656C148.249 27.4156 148.065 27.6156 147.665 27.6156C147.299 27.6156 147.049 27.4656 146.865 27.1823L146.332 27.549C146.649 28.0323 147.082 28.2323 147.682 28.2323C148.649 28.2323 148.999 27.699 148.999 27.2323C148.999 26.9156 148.849 26.599 148.515 26.4323C148.749 26.2656 148.899 26.049 148.899 25.749C148.899 25.2156 148.432 24.7656 147.699 24.7656C147.132 24.7656 146.782 24.9823 146.465 25.3823L146.932 25.749ZM153.532 28.1823H154.265V24.8323H153.532V25.0823C153.282 24.8823 152.982 24.7656 152.632 24.7656C151.632 24.7656 150.899 25.5323 150.899 26.499C150.899 27.4823 151.632 28.2323 152.632 28.2323C152.982 28.2323 153.282 28.1323 153.532 27.949V28.1823ZM152.632 27.5323C152.065 27.5323 151.649 27.099 151.649 26.499C151.649 25.9156 152.065 25.4823 152.632 25.4823C152.999 25.4823 153.349 25.6656 153.532 25.9323V27.0823C153.349 27.349 152.999 27.5323 152.632 27.5323ZM159.682 27.5323V24.8323H158.949V27.5323H157.449V24.8323H156.715V28.1823H159.565V29.0323H160.232V27.5323H159.682ZM165.449 28.1823V24.7656L163.082 26.8323V24.8323H162.349V28.2323L164.715 26.2156V28.1823H165.449ZM170.365 28.1823V24.8323H169.015C168.165 24.8323 167.765 25.2656 167.765 25.899C167.765 26.3823 167.999 26.749 168.465 26.9323L167.465 28.1823H168.332L169.249 27.0156H169.632V28.1823H170.365ZM169.632 25.4323V26.399H169.015C168.682 26.399 168.465 26.249 168.465 25.9323C168.465 25.599 168.649 25.4323 169.015 25.4323H169.632Z" fill="#CF1304"/>
<path fill-rule="evenodd" clip-rule="evenodd" d="M24.7723 6.66675L29.1056 9.33342L12.2056 19.3501L19.2556 23.7001L30.4556 17.0834L34.8056 19.7668L19.289 29.0501L3.58897 19.3501L24.7723 6.66675Z" fill="#CF1304"/>
<path fill-rule="evenodd" clip-rule="evenodd" d="M24.9504 32.4356L20.6171 29.7689L37.5004 19.7522L30.4504 15.4022L19.2504 22.0189L14.9171 19.3356L30.4171 10.0522L46.1338 19.7522L24.9504 32.4356Z" fill="#CF1304"/>
</svg>
