<svg width="175" height="40" viewBox="0 0 175 40" fill="none" xmlns="http://www.w3.org/2000/svg">
<path fill-rule="evenodd" clip-rule="evenodd" d="M6 29.5034H17.4404V28.7418H6V29.5034ZM6 28.3279L17.4404 28.361V28.1458L6 28.1789V28.3279Z" fill="#D3AD4A"/>
<path fill-rule="evenodd" clip-rule="evenodd" d="M9.62604 13.9404C9.62604 13.9404 9.59293 13.3609 10.1062 12.798C10.6194 12.2186 12.3247 12.2186 13.0697 12.0033C13.7982 11.7881 13.8313 11.2417 13.8313 11.2417V9.02319C13.8313 9.02319 13.8148 9.55299 13.0697 9.78478C12.3413 10 10.636 10 10.1062 10.5795C9.60949 11.1424 9.62604 11.7219 9.62604 11.7219V13.9404Z" fill="#AB8B2F"/>
<path fill-rule="evenodd" clip-rule="evenodd" d="M13.8143 11.2584C13.8143 11.2584 13.8475 10.6789 13.3508 10.116C12.8375 9.53651 11.1322 9.5365 10.4038 9.32127C9.67528 9.10604 9.62561 8.55968 9.62561 8.55968V6.32458C9.62561 6.32458 9.65872 6.85439 10.4038 7.08617C11.1322 7.30141 12.8375 7.30141 13.3508 7.88088C13.8475 8.44379 13.8143 9.02326 13.8143 9.02326V11.2584Z" fill="#D3AF4A"/>
<path fill-rule="evenodd" clip-rule="evenodd" d="M9.62604 19.3211C9.62604 19.3211 9.59293 18.7417 10.1062 18.1788C10.6194 17.5993 12.3247 17.5993 13.0697 17.3841C13.7982 17.1688 13.8313 16.6225 13.8313 16.6225V14.4039C13.8313 14.4039 13.8148 14.9337 13.0697 15.1655C12.3413 15.3808 10.636 15.3808 10.1062 15.9602C9.60949 16.5231 9.62604 17.1026 9.62604 17.1026V19.3211Z" fill="#AB8B2F"/>
<path fill-rule="evenodd" clip-rule="evenodd" d="M13.8143 16.6225C13.8143 16.6225 13.8475 16.0431 13.3508 15.4802C12.8375 14.9007 11.1322 14.9007 10.4038 14.6855C9.67528 14.4702 9.62561 13.9239 9.62561 13.9239V11.7053C9.62561 11.7053 9.65872 12.2351 10.4038 12.4669C11.1322 12.6821 12.8375 12.6821 13.3508 13.2616C13.8475 13.8245 13.8143 14.404 13.8143 14.404V16.6225Z" fill="#D3AF4A"/>
<path fill-rule="evenodd" clip-rule="evenodd" d="M9.62604 24.7019C9.62604 24.7019 9.59293 24.1224 10.1062 23.5595C10.6194 22.98 12.3247 22.98 13.0697 22.7648C13.7982 22.5496 13.8313 22.0032 13.8313 22.0032V19.7847C13.8313 19.7847 13.8148 20.3145 13.0697 20.5463C12.3413 20.7615 10.636 20.7615 10.1062 21.341C9.60949 21.9039 9.62604 22.4833 9.62604 22.4833V24.7019Z" fill="#AB8B2F"/>
<path fill-rule="evenodd" clip-rule="evenodd" d="M13.8161 22.0033C13.8161 22.0033 13.8492 21.4238 13.3525 20.8609C12.8392 20.2814 11.1339 20.2814 10.4055 20.0662C9.67699 19.851 9.62732 19.3046 9.62732 19.3046V17.0861C9.62732 17.0861 9.66043 17.6159 10.4055 17.8476C11.1339 18.0629 12.8392 18.0629 13.3525 18.6423C13.8492 19.2053 13.8161 19.7847 13.8161 19.7847V22.0033Z" fill="#D3AF4A"/>
<path fill-rule="evenodd" clip-rule="evenodd" d="M13.8161 27.3345C13.8161 27.3345 13.8492 26.755 13.3525 26.1921C12.8392 25.6126 11.1339 25.6126 10.4055 25.3974C9.67699 25.1821 9.62732 24.6358 9.62732 24.6358V22.4172C9.62732 22.4172 9.66043 22.947 10.4055 23.1788C11.1339 23.3941 12.8392 23.3941 13.3525 23.9735C13.8492 24.5364 13.8161 25.1159 13.8161 25.1159V27.3345Z" fill="#D3AF4A"/>
<path fill-rule="evenodd" clip-rule="evenodd" d="M11.6963 1.90406C11.597 1.97028 11.4811 2.16896 11.3817 2.30141C11.2824 2.43386 11.1499 2.5332 11.2327 2.69876C11.3321 2.89744 11.5804 3.46035 11.6963 3.60936C11.8122 3.47691 12.0605 2.91399 12.1599 2.69876C12.2427 2.51664 12.0936 2.40075 11.9943 2.2683C11.9115 2.16896 11.7956 1.97028 11.6963 1.90406ZM13.5506 4.27161L14.2294 2.88088L13.534 3.04644L13.5506 4.27161ZM9.90822 4.25505V3.02989L9.21286 2.88088L9.90822 4.25505ZM11.7294 0.165649C11.9778 0.778232 12.3585 1.58949 12.8884 2.18552C13.2857 2.63254 13.1036 2.51664 12.8056 3.17889C12.6566 3.51002 12.4413 3.9736 12.4744 4.37095C12.9711 4.32128 13.087 3.34446 13.1533 2.91399C13.2029 2.64909 13.236 2.58287 13.4844 2.50009C14.3784 2.21863 14.3453 2.46697 15.2062 1.60605C15.3221 1.49015 15.3552 1.45704 15.438 1.52327C15.5374 1.68883 15.1566 2.25174 15.0572 2.46697C14.5771 3.46035 14.0142 4.40406 13.8486 5.51333H9.69299C9.52743 4.43717 8.94796 3.4438 8.48438 2.48353C8.41816 2.36764 7.80557 1.40737 8.18637 1.50671L8.88173 2.11929C9.49431 2.58287 10.2393 2.21863 10.3552 2.86432C10.438 3.31134 10.5208 4.30472 11.034 4.35439C11.0672 3.95704 10.8519 3.51002 10.7029 3.17889C10.6201 2.99677 10.5374 2.84777 10.4546 2.69876C10.289 2.43386 10.4546 2.33452 10.587 2.18552C11.0837 1.6226 11.4645 0.712007 11.7294 0.165649Z" fill="#D3AF4A"/>
<path d="M42.6404 0.62904C42.6404 0.711821 42.5576 0.893941 42.3921 1.1754C42.2265 1.45685 41.9947 1.88732 41.7298 2.45023C41.5974 2.73169 41.4649 3.0297 41.3159 3.31116C41.1669 3.59262 41.0179 3.90719 40.8855 4.18864C40.7365 4.48666 40.604 4.76811 40.4881 5.03301C40.3722 5.29791 40.2563 5.56281 40.157 5.7946C40.0411 6.07606 39.9252 6.39063 39.7762 6.75487C39.6272 7.1191 39.4947 7.48334 39.3788 7.84758C39.2464 8.21182 39.1471 8.54295 39.0643 8.84096C38.9815 9.13897 38.9318 9.3542 38.9318 9.50321C38.9318 9.63566 38.9649 9.71844 39.0312 9.75155C39.0974 9.76811 39.1802 9.78467 39.2464 9.78467C39.3292 9.78467 39.4285 9.76811 39.5278 9.71844C39.6272 9.66877 39.7265 9.63566 39.8093 9.58599C39.9086 9.51977 40.008 9.45354 40.1073 9.38732L40.2398 9.70189C40.1239 9.80122 39.9583 9.93367 39.7762 10.0827C39.5775 10.2317 39.3788 10.3973 39.1471 10.5463C38.9153 10.6953 38.6835 10.8277 38.4351 10.9271C38.1868 11.0264 37.955 11.0926 37.7563 11.0926C37.6404 11.0926 37.5411 11.0761 37.4583 11.0264C37.3755 10.9767 37.3424 10.8939 37.3424 10.7449C37.3424 10.6456 37.3755 10.4635 37.4583 10.1655C37.5411 9.884 37.6735 9.48665 37.8557 8.98997C38.0047 8.5595 38.1868 8.09593 38.3855 7.59924C38.5841 7.10255 38.7828 6.62242 38.998 6.14228C39.1967 5.66215 39.3954 5.21513 39.561 4.80123C39.7431 4.38732 39.8755 4.03964 40.008 3.75818L39.9086 3.72507C39.6769 3.95685 39.4616 4.2052 39.2464 4.43699C39.0312 4.68533 38.7663 4.96679 38.4682 5.29791C38.1702 5.62904 37.7894 6.02639 37.3424 6.48997C36.8954 6.95354 36.3325 7.51646 35.6537 8.19526C35.3557 8.49328 35.0908 8.75818 34.859 8.98997C34.6272 9.22175 34.3954 9.45354 34.1636 9.66877C33.9318 9.884 33.7166 10.0827 33.4848 10.2814C33.253 10.48 33.0047 10.6787 32.7232 10.8774C32.6239 10.9602 32.4749 11.0429 32.2762 11.1257C32.0775 11.2085 31.8954 11.2582 31.6967 11.2582C31.5477 11.2582 31.4318 11.2085 31.3822 11.1257C31.3159 11.0429 31.2994 10.9105 31.2994 10.7284C31.2994 10.5794 31.349 10.3476 31.4484 10.033C31.5477 9.71844 31.6636 9.3542 31.8126 8.97341C31.9616 8.57606 32.1106 8.17871 32.2927 7.7648C32.4583 7.35089 32.6239 6.9701 32.7563 6.65553C33.2199 5.57937 33.6504 4.56944 34.0477 3.65884C34.4451 2.73169 34.8921 1.80454 35.3557 0.877384H35.2894C35.1404 1.02639 34.8921 1.30785 34.5444 1.7052C34.1967 2.11911 33.7663 2.58268 33.3027 3.1456C32.8225 3.69195 32.3093 4.28798 31.7464 4.91712C31.1835 5.54626 30.6371 6.15884 30.0908 6.73831C29.7928 7.05288 29.4782 7.40056 29.1305 7.7648C28.7828 8.12904 28.4351 8.49328 28.0543 8.87407C27.6901 9.23831 27.3093 9.60255 26.9285 9.95023C26.5477 10.2979 26.1669 10.6125 25.8192 10.8774C25.455 11.1423 25.1073 11.3575 24.7762 11.5231C24.4451 11.6886 24.1471 11.7714 23.8822 11.7714C23.551 11.7714 23.3689 11.6059 23.3689 11.2747C23.3689 10.9767 23.4682 10.6787 23.6835 10.3973C23.8987 10.0992 24.1471 9.85089 24.4451 9.66877H24.6272C24.6106 9.71844 24.6106 9.76811 24.6106 9.80122C24.6106 9.83434 24.6106 9.884 24.6106 9.91712C24.6106 9.96679 24.6106 10.0165 24.6272 10.0827C24.6437 10.1489 24.6603 10.1986 24.6934 10.2648C24.7265 10.331 24.7927 10.3807 24.859 10.4138C24.9252 10.4469 25.0245 10.48 25.1404 10.48C25.2232 10.48 25.306 10.4635 25.4219 10.4304C25.5378 10.3973 25.6702 10.331 25.8192 10.2317C25.9848 10.1323 26.1669 9.9999 26.3822 9.83434C26.5974 9.66877 26.8457 9.43699 27.1272 9.17208C27.8557 8.46016 28.5345 7.78136 29.1967 7.11911C29.859 6.45685 30.4881 5.77805 31.1007 5.11579C31.7133 4.43699 32.3093 3.75818 32.9053 3.06282C33.5014 2.36745 34.0808 1.63897 34.6769 0.877384C34.4285 0.827715 34.1967 0.794603 33.9649 0.778047C33.7331 0.761491 33.4351 0.744934 33.0543 0.744934C32.7232 0.744934 32.2596 0.761491 31.7133 0.778047C31.1504 0.794603 30.5212 0.893941 29.8259 1.04295C29.1305 1.19195 28.3524 1.42374 27.5245 1.73831C26.6967 2.05288 25.8524 2.4999 24.9749 3.07937C24.6437 3.31116 24.3457 3.54295 24.0643 3.77473C23.7828 4.02308 23.551 4.25487 23.3524 4.48666C23.1537 4.71844 23.0047 4.95023 22.8888 5.16546C22.7729 5.38069 22.7232 5.57937 22.7232 5.76149C22.7232 5.89394 22.7563 5.97672 22.8391 6.04295C22.9219 6.10917 23.0212 6.12573 23.1371 6.12573C23.2696 6.12573 23.3855 6.10917 23.5014 6.07606C23.6173 6.04295 23.7331 5.99328 23.8822 5.92705V6.12573C23.6835 6.37407 23.4351 6.55619 23.104 6.67209C22.7894 6.78798 22.4914 6.8542 22.21 6.8542C21.7464 6.8542 21.498 6.65553 21.498 6.25818C21.498 5.92705 21.6305 5.59593 21.8788 5.23169C22.1437 4.86745 22.4583 4.51977 22.8391 4.18864C23.2199 3.85752 23.6338 3.52639 24.0643 3.24493C24.4947 2.94692 24.8921 2.69858 25.2398 2.4999C26.1504 1.98666 27.0444 1.57275 27.955 1.27474C28.849 0.976722 29.6934 0.744934 30.4716 0.595928C31.2497 0.446921 31.9285 0.347583 32.5245 0.297914C33.1206 0.264802 33.5676 0.231689 33.8656 0.231689C34.3457 0.231689 34.7596 0.248246 35.1073 0.264802C35.455 0.281358 35.753 0.314471 36.0014 0.331027C36.2828 0.36414 36.5312 0.397252 36.7464 0.413808C36.6636 0.529702 36.5643 0.728378 36.4153 1.00984C36.2663 1.29129 36.1172 1.5893 35.9517 1.93699C35.7861 2.28467 35.604 2.66546 35.4219 3.06282C35.2398 3.46017 35.0742 3.84096 34.9086 4.22176C34.6106 4.90056 34.3457 5.5297 34.0974 6.12573C33.849 6.72176 33.6338 7.25156 33.4517 7.71513C33.2696 8.17871 33.1371 8.59261 33.0212 8.92374C32.9219 9.25487 32.8722 9.50321 32.8722 9.65222C32.8722 9.70189 32.8722 9.735 32.8888 9.78467C32.9053 9.81778 32.9384 9.83434 33.0212 9.83434C33.1206 9.83434 33.3524 9.68533 33.7331 9.38732C34.1139 9.0893 34.6106 8.62573 35.2563 7.99659C35.3722 7.88069 35.5543 7.68202 35.8358 7.40056C36.1007 7.11911 36.4318 6.78798 36.7961 6.40719C37.1603 6.02639 37.5742 5.59593 38.0047 5.11579C38.4351 4.65222 38.8656 4.15553 39.3126 3.65884C39.7265 3.19527 40.0576 2.7648 40.2729 2.40056C40.5047 2.03632 40.7033 1.72176 40.902 1.47341C41.0841 1.22507 41.2331 1.0595 41.3656 0.960166C41.4815 0.860828 41.6305 0.794603 41.8126 0.728378C41.9285 0.695266 42.0444 0.662153 42.1934 0.662153C42.3424 0.645596 42.4252 0.645597 42.4749 0.645597C42.5908 0.49659 42.6404 0.546259 42.6404 0.62904Z" fill="#D3AF4A"/>
<path d="M60.7696 0.298013C60.7696 0.44702 60.6371 0.678808 60.3722 0.960265C60.1073 1.24172 59.6437 1.60596 58.9649 2.06954C58.3689 2.46689 57.8722 2.79801 57.4583 3.06291C57.0444 3.32781 56.6636 3.5596 56.349 3.75828C56.0179 3.95695 55.7199 4.15563 55.4385 4.32119C55.157 4.48675 54.859 4.70199 54.561 4.91722C54.6769 5.14901 54.8259 5.46358 54.9749 5.91059C55.1239 6.34106 55.2729 6.80464 55.4385 7.30132C55.5543 7.64901 55.6537 8.01324 55.7696 8.36093C55.8855 8.70861 56.0014 9.02318 56.1338 9.30463C56.2663 9.58609 56.3987 9.80132 56.5643 9.96689C56.7133 10.1324 56.8954 10.2318 57.0941 10.2318C57.2762 10.2318 57.4583 10.1987 57.6404 10.1159C57.8391 10.0497 58.0047 9.93377 58.1537 9.81788L58.2861 9.98344C58.253 10.0331 58.1702 10.1159 58.0212 10.2483C57.8722 10.3808 57.7067 10.5132 57.5246 10.6457C57.3259 10.7781 57.1272 10.9106 56.912 11.0099C56.6967 11.1258 56.4981 11.1755 56.2994 11.1755C56.051 11.1755 55.8524 11.1093 55.7034 10.9603C55.5378 10.8113 55.4053 10.6126 55.2729 10.3642C55.1404 10.1159 55.0245 9.81788 54.9086 9.4702C54.7928 9.13907 54.6769 8.75828 54.5279 8.37748C54.4616 8.19536 54.3789 7.96357 54.2961 7.66556C54.2133 7.36755 54.114 7.06953 54.0146 6.75497C53.9153 6.4404 53.8159 6.15894 53.7 5.91059C53.5841 5.66225 53.4848 5.48013 53.3855 5.38079C53.1537 5.9106 52.9385 6.42384 52.7067 6.92053C52.5245 7.35099 52.3259 7.79801 52.0941 8.27814C51.8788 8.75828 51.6802 9.17218 51.5146 9.51987C51.4318 9.71854 51.3491 9.8841 51.2828 10.0166C51.2166 10.149 51.1504 10.2649 51.0842 10.3477C51.0179 10.447 50.9517 10.5132 50.902 10.5795C50.8358 10.6457 50.7696 10.6954 50.7034 10.745C50.5544 10.8444 50.3888 10.9272 50.1901 10.9768C49.9914 11.043 49.8424 11.0596 49.7265 11.0596C49.6438 11.0596 49.5775 11.043 49.561 11.0099C49.5444 10.9768 49.5279 10.9437 49.5279 10.894C49.5279 10.8444 49.561 10.745 49.6438 10.596C49.7265 10.447 49.8424 10.2152 50.008 9.90066C50.306 9.3543 50.5543 8.85761 50.7696 8.44371C50.9848 8.01324 51.1669 7.61589 51.349 7.21854C51.5312 6.82119 51.7133 6.42384 51.8789 6.02649C52.061 5.62914 52.2596 5.16556 52.4914 4.63576C52.6736 4.23841 52.8391 3.8245 53.0378 3.37748C53.2199 2.94702 53.3855 2.54967 53.551 2.18543C53.7 1.82119 53.8325 1.50662 53.9318 1.22517C54.0312 0.960265 54.0974 0.778146 54.1305 0.695364C53.9981 0.678808 53.8656 0.678808 53.7497 0.662252C53.6338 0.645695 53.5179 0.645695 53.402 0.629139C53.2861 0.612583 53.1702 0.612583 53.0709 0.612583C52.657 0.612583 52.1769 0.629139 51.614 0.662252C51.051 0.695364 50.4385 0.778146 49.7596 0.927153C49.0808 1.07616 48.3358 1.30795 47.5411 1.62252C46.7464 1.93709 45.9186 2.36755 45.0577 2.93046C44.7265 3.16225 44.412 3.39404 44.1305 3.62583C43.8491 3.87417 43.6173 4.10596 43.4186 4.33775C43.2199 4.56954 43.0709 4.80132 42.9716 5.01656C42.8722 5.23179 42.8226 5.43046 42.8226 5.61258C42.8226 5.69536 42.8557 5.77814 42.9053 5.86093C42.955 5.94371 43.0709 5.99338 43.253 5.99338C43.402 5.99338 43.5179 5.97682 43.6173 5.94371C43.7166 5.91059 43.8491 5.86093 43.9981 5.7947V5.99338C43.7497 6.24172 43.4517 6.42384 43.1371 6.53973C42.8226 6.65563 42.5411 6.72185 42.3259 6.72185C41.8623 6.72185 41.614 6.52318 41.614 6.12583C41.614 5.82781 41.7464 5.51324 41.9947 5.14901C42.2596 4.78477 42.5742 4.43709 42.955 4.0894C43.3358 3.74172 43.7497 3.42715 44.1802 3.11258C44.6106 2.79801 45.008 2.54967 45.3557 2.35099C46.2663 1.83775 47.1603 1.4404 48.0047 1.12583C48.8491 0.827814 49.6603 0.596026 50.4385 0.44702C51.2166 0.298013 51.9451 0.198676 52.6404 0.149007C53.3358 0.099338 53.9815 0.0827814 54.561 0.0827814C54.7596 0.0827814 54.9749 0.0993376 55.2067 0.13245C55.4385 0.165563 55.604 0.182119 55.7365 0.198676L53.4848 5.14901C53.8822 4.86755 54.2464 4.63576 54.561 4.42053C54.8755 4.2053 55.1901 4.00662 55.4881 3.80795C55.7861 3.60927 56.1007 3.4106 56.3987 3.19536C56.6967 2.98013 57.061 2.74834 57.4583 2.46689C57.6404 2.35099 57.806 2.21854 58.0047 2.06954C58.1868 1.92053 58.3524 1.78808 58.5179 1.63907C58.6669 1.49007 58.7994 1.35762 58.8987 1.20861C58.9981 1.07616 59.0477 0.943708 59.0477 0.827814C59.0477 0.71192 58.9981 0.645695 58.8987 0.612583C58.7994 0.57947 58.7166 0.546357 58.6504 0.546357V0.44702C58.9981 0.281457 59.3457 0.165563 59.6603 0.0993381C59.9914 0.033113 60.2232 0 60.3722 0C60.455 0 60.5543 0.0165562 60.6371 0.0496687C60.7199 0.0827813 60.7696 0.165563 60.7696 0.298013Z" fill="#D3AF4A"/>
<path d="M41.282 14.3543C41.282 14.5198 41.2157 14.6688 41.0999 14.8013C40.9674 14.9337 40.835 15.0331 40.6859 15.1159C40.5038 15.2152 40.3217 15.298 40.0899 15.3477L40.0071 15.2814C40.0237 15.2483 40.0237 15.1821 40.0237 15.1159C40.0237 14.9172 39.9244 14.7185 39.7091 14.5198C39.4939 14.3377 39.1959 14.1722 38.7985 14.0232C38.4012 13.8741 37.9045 13.7582 37.3085 13.6755C36.7124 13.5927 36.0171 13.543 35.2389 13.543C35.1727 13.6258 35.1065 13.7251 35.0568 13.8245C35.0071 13.9238 34.9409 14.0397 34.8912 14.1722C34.825 14.3046 34.7588 14.4536 34.6926 14.6357C34.6098 14.8013 34.527 15 34.4277 15.2318C34.3283 15.4635 34.1793 15.8112 33.9806 16.2914C33.782 16.7715 33.5502 17.3344 33.2687 17.9635C33.0038 18.6092 32.7058 19.2881 32.3912 20.0331C32.0767 20.7781 31.7455 21.5066 31.431 22.2516C31.282 22.5828 31.1164 22.8808 30.9177 23.1622C30.7356 23.4437 30.5369 23.6424 30.3383 23.7914C30.272 23.841 30.1893 23.8907 30.0734 23.9404C29.9575 23.99 29.8581 24.0397 29.7422 24.0728C29.6263 24.1225 29.527 24.1556 29.4277 24.1722C29.3283 24.1887 29.2455 24.2053 29.1959 24.2053L29.0965 24.0894C29.1131 24.0563 29.1628 23.9735 29.2124 23.8741C29.2787 23.7582 29.3449 23.6424 29.4277 23.4933C29.5105 23.3443 29.5932 23.1953 29.6926 23.0298C29.7919 22.8642 29.8747 22.6986 29.9575 22.5662C30.1561 22.2185 30.3714 21.8046 30.5866 21.3245C30.8184 20.8609 31.0502 20.3477 31.282 19.8179C31.5303 19.2881 31.7787 18.7251 32.027 18.1457C32.2919 17.5662 32.5403 16.9867 32.7886 16.4238C33.0038 15.9437 33.2025 15.5463 33.3515 15.2318C33.5171 14.9172 33.6495 14.6523 33.782 14.4371C33.9144 14.2218 34.0138 14.0563 34.1131 13.9238C34.2124 13.7914 34.3118 13.6589 34.4111 13.543H33.9972C33.4674 13.543 32.8548 13.5596 32.176 13.6092C31.4972 13.6589 30.7522 13.7583 29.974 13.9073C29.1959 14.0563 28.3681 14.2881 27.5237 14.6026C26.6628 14.9006 25.8184 15.3145 24.9409 15.8443C24.2455 16.2583 23.6992 16.7218 23.2853 17.202C22.8879 17.6821 22.6893 18.1291 22.6893 18.5265C22.6893 18.7748 22.8217 18.8907 23.1032 18.8907C23.2191 18.8907 23.335 18.8741 23.4508 18.841C23.5667 18.8079 23.6992 18.7583 23.8482 18.6755V18.8741C23.6164 19.1225 23.335 19.3046 23.0038 19.4205C22.6727 19.5364 22.3912 19.6026 22.176 19.6026C21.9111 19.6026 21.729 19.5364 21.6297 19.4205C21.5303 19.3046 21.4807 19.139 21.4807 18.9238C21.4807 18.6258 21.6131 18.3112 21.8614 17.9635C22.1263 17.6159 22.4409 17.2682 22.8052 16.9371C23.1859 16.6059 23.5833 16.2748 24.0303 15.9933C24.4608 15.6953 24.8747 15.447 25.2224 15.2649C26.0999 14.8013 26.9773 14.4205 27.8879 14.139C28.782 13.841 29.6595 13.6092 30.4873 13.4437C31.3151 13.2781 32.0932 13.1622 32.8051 13.096C33.5171 13.0298 34.1297 12.9967 34.6098 12.9967H34.825L35.6363 12.4006H35.9674C35.8846 12.5165 35.8184 12.5993 35.7522 12.6986L35.5204 12.9967C36.2157 13.0132 36.8946 13.0463 37.5734 13.1126C38.2522 13.1788 38.8648 13.2616 39.4111 13.3775C39.9575 13.4934 40.4045 13.6424 40.7356 13.8079C41.1164 13.9404 41.282 14.139 41.282 14.3543ZM38.3184 15.0165C38.2025 15.2318 38.0701 15.4801 37.921 15.7781C37.772 16.0761 37.6065 16.3741 37.4409 16.7053C37.2753 17.0198 37.1263 17.351 36.9773 17.6655C36.8283 17.9801 36.7124 18.2781 36.6131 18.5265C36.4641 18.9073 36.3151 19.2881 36.1661 19.6854C36.0171 20.0828 35.8184 20.5629 35.5866 21.1258C35.5038 21.341 35.4045 21.5894 35.2886 21.8708C35.1727 22.1523 35.123 22.3841 35.123 22.5828C35.123 22.7152 35.2058 22.7814 35.3548 22.7814C35.4542 22.7814 35.5535 22.7649 35.6694 22.7152C35.7853 22.6655 35.8846 22.6324 35.9674 22.5828C36.0833 22.5165 36.1826 22.4503 36.2654 22.3841L36.3979 22.6986C36.282 22.798 36.1164 22.9139 35.9343 23.0629C35.7356 23.2119 35.5369 23.3443 35.3217 23.4768C35.1065 23.6092 34.8747 23.7251 34.6429 23.8245C34.4111 23.9238 34.1959 23.9735 33.9806 23.9735C33.7654 23.9735 33.6661 23.841 33.6661 23.5596C33.6661 23.4768 33.6826 23.3443 33.7157 23.1788C33.7489 23.0132 33.7985 22.8311 33.8648 22.649C33.931 22.4503 34.0138 22.2516 34.0965 22.0364C34.1793 21.8212 34.2787 21.6059 34.3614 21.3907C34.4111 21.2582 34.5104 21.0265 34.6263 20.7284C34.7588 20.4304 34.8912 20.0828 35.0568 19.6854C35.2224 19.2881 35.3879 18.8741 35.5866 18.4437C35.7687 18.0132 35.9674 17.5993 36.1661 17.2185C36.3648 16.8377 36.5469 16.49 36.729 16.1755C36.9111 15.8609 37.0767 15.6457 37.2091 15.5132C37.4244 15.298 37.623 15.1655 37.7886 15.1159C37.9542 15.0662 38.0701 15.0496 38.1694 15.0496H38.2191H38.2522H38.3184V15.0165Z" fill="#D3AF4A"/>
<path d="M46.0019 18.2616C46.0019 18.7417 45.9191 19.2219 45.7701 19.7185C45.6046 20.1987 45.3562 20.6954 45.0085 21.1755C44.8264 21.4238 44.5946 21.7219 44.2966 22.053C44.0152 22.3841 43.684 22.6987 43.3198 22.9801C42.9556 23.2616 42.5417 23.5099 42.0946 23.7086C41.6476 23.9073 41.184 24.0066 40.6708 24.0066C40.5052 24.0066 40.3397 24.0066 40.1575 23.9901C39.9754 23.9735 39.843 23.9735 39.7271 23.9404C39.6112 24.1887 39.4953 24.5033 39.3628 24.851C39.2304 25.1987 39.0648 25.6126 38.8993 26.0762C38.5019 27.1026 38.237 27.8477 38.1046 28.2781C38.088 28.394 38.0714 28.5099 38.0549 28.6093C38.0383 28.7252 38.0383 28.7748 38.0383 28.8079C37.9556 29.0397 37.7569 29.2384 37.4589 29.4205C37.1443 29.6192 36.8628 29.7351 36.6145 29.7351C36.4489 29.7351 36.3661 29.6523 36.3661 29.4702C36.3661 29.3874 36.3993 29.2218 36.4655 29.0066C36.5317 28.7914 36.6476 28.4934 36.7966 28.1291L38.8165 23.5099C38.7006 23.245 38.6344 22.9967 38.6344 22.7483C38.6344 22.6656 38.6344 22.6159 38.6344 22.5662C38.6344 22.5166 38.6509 22.4834 38.6509 22.4338L39.0979 22.6159L40.4887 19.4868C40.7701 18.8411 40.9191 18.4271 40.9191 18.2285C40.9191 18.1457 40.8695 18.096 40.7867 18.096C40.7039 18.096 40.5715 18.1291 40.3562 18.2119C40.141 18.2947 39.8595 18.4271 39.4787 18.6424L39.3794 18.3609C39.5615 18.2616 39.7933 18.1457 40.0582 18.0132C40.3231 17.8808 40.6046 17.7483 40.886 17.6159C41.1675 17.5 41.4489 17.3841 41.6973 17.3013C41.9622 17.2185 42.1609 17.1689 42.3099 17.1689C42.4423 17.1689 42.5085 17.2351 42.5085 17.3675C42.5085 17.4338 42.4258 17.6656 42.2436 18.0629C42.0615 18.4768 41.8297 18.957 41.5317 19.5199L41.6145 19.5364C41.7966 19.3543 41.9787 19.1556 42.1774 18.9404C42.3761 18.7252 42.5913 18.5099 42.8231 18.2947C43.0549 18.0795 43.2867 17.8808 43.5516 17.6987C43.7999 17.5 44.0648 17.351 44.3628 17.2185C44.5946 17.1026 44.843 17.053 45.141 17.053C45.4059 17.053 45.6046 17.1358 45.7701 17.3179C45.9357 17.5497 46.0019 17.8477 46.0019 18.2616ZM44.5946 18.8576C44.5946 18.6093 44.5615 18.4106 44.5118 18.2947C44.4456 18.1788 44.3463 18.1126 44.1807 18.1126C43.9489 18.1126 43.684 18.2119 43.4026 18.4272C43.1046 18.6424 42.8231 18.9073 42.5251 19.2219C42.2271 19.553 41.9291 19.9007 41.6476 20.298C41.3496 20.6954 41.1013 21.0762 40.8695 21.4569C40.6708 21.7715 40.5218 22.0695 40.3893 22.3344C40.2734 22.5993 40.1741 22.8477 40.0913 23.0795C40.439 23.2947 40.8695 23.4106 41.3496 23.4106C41.7635 23.4106 42.1609 23.2781 42.5251 22.9967C42.8397 22.7649 43.1211 22.5 43.386 22.1689C43.6344 21.8377 43.8496 21.5066 44.0317 21.1258C44.2138 20.7616 44.3463 20.3808 44.4456 19.9834C44.545 19.6192 44.5946 19.2384 44.5946 18.8576Z" fill="#D3AF4A"/>
<path d="M53.8974 17.7152C53.7484 17.8476 53.616 17.9967 53.4835 18.1953C53.3511 18.394 53.2186 18.6092 53.0862 18.8576C53.0034 19.0397 52.9041 19.2384 52.7882 19.4867C52.6723 19.7351 52.5398 20.0165 52.4074 20.3311C52.2584 20.6457 52.1425 20.9106 52.0597 21.1258C51.9769 21.341 51.8941 21.5231 51.8445 21.6556C51.6623 22.1026 51.5796 22.3841 51.5796 22.5165C51.5796 22.6655 51.6623 22.7318 51.8279 22.7318C52.0431 22.7318 52.2584 22.6655 52.5067 22.5165C52.7551 22.3675 53.0034 22.2185 53.2517 22.0529L53.3842 22.3675C53.1359 22.5496 52.8875 22.7317 52.6392 22.9139C52.3743 23.096 52.1259 23.2781 51.861 23.4271C51.5961 23.5761 51.3478 23.7086 51.0994 23.8079C50.8511 23.9072 50.6358 23.9569 50.4372 23.9569C50.1888 23.9569 50.0564 23.841 50.0564 23.6092C50.0564 23.3609 50.1888 22.9304 50.4372 22.351L50.8676 21.341H50.7517C50.3213 21.8046 49.9239 22.2019 49.5763 22.5331C49.2286 22.8642 48.914 23.1457 48.616 23.3443C48.318 23.5596 48.0531 23.7086 47.8047 23.8079C47.5564 23.9072 47.308 23.9569 47.0431 23.9569C46.4637 23.9569 46.1656 23.6092 46.1656 22.9304C46.1656 22.5993 46.2153 22.2682 46.3312 21.9205C46.4471 21.5894 46.5961 21.2582 46.7782 20.9437C46.9604 20.6291 47.1756 20.3311 47.4405 20.0331C47.6888 19.7351 47.9703 19.4702 48.2683 19.2053C48.5663 18.9404 48.914 18.692 49.2617 18.4437C49.6259 18.1953 50.0067 17.9966 50.4041 17.8145C50.8014 17.6324 51.2319 17.4834 51.6458 17.3841C52.0763 17.2682 52.5067 17.2185 52.9372 17.2185C53.1359 17.2185 53.3345 17.2516 53.5498 17.3344C53.765 17.4006 53.8643 17.5165 53.8643 17.6821V17.7152H53.8974ZM52.7551 17.9635C52.6723 17.8973 52.5398 17.8476 52.3743 17.8311C52.2087 17.8145 52.0431 17.798 51.9107 17.798C51.563 17.798 51.2153 17.8808 50.8511 18.0629C50.5034 18.245 50.1557 18.4602 49.8411 18.7251C49.5266 18.99 49.2286 19.2715 48.9637 19.5861C48.6988 19.9006 48.4835 20.1986 48.318 20.4635C48.1027 20.8609 47.9206 21.2086 47.7882 21.5397C47.6557 21.8708 47.5895 22.1523 47.5895 22.3841C47.5895 22.5827 47.6226 22.7318 47.7054 22.8145C47.7882 22.8973 47.9041 22.9304 48.0696 22.9304C48.3014 22.9304 48.5663 22.8145 48.8809 22.5993C49.1789 22.3841 49.4935 22.1357 49.7915 21.8377C50.0895 21.5397 50.3709 21.2417 50.6358 20.9271C50.9007 20.6125 51.0829 20.3642 51.1988 20.1655C51.3147 19.9834 51.4471 19.7516 51.5961 19.4536C51.6789 19.2715 51.7617 19.0894 51.8445 18.9238C51.9272 18.7582 52.0431 18.5761 52.1921 18.4106C52.3743 18.2284 52.5729 18.0629 52.7551 17.9635Z" fill="#D3AF4A"/>
<path d="M63.0051 13.4603C63.0051 13.9073 62.7236 14.4867 62.1441 15.1821C61.962 15.3973 61.7302 15.6457 61.4322 15.9106C61.1508 16.1755 60.8362 16.4404 60.4885 16.7218C60.1408 17.0033 59.7766 17.2848 59.3958 17.5497C59.015 17.8311 58.6177 18.0795 58.2369 18.2947V18.3609C58.5018 18.2947 58.7501 18.2616 58.9819 18.2285C59.2137 18.2119 59.4124 18.1954 59.5945 18.1954C59.8925 18.1954 60.1574 18.2616 60.3726 18.394C60.5878 18.5265 60.6872 18.7748 60.6872 19.1391C60.6872 19.3874 60.6375 19.6523 60.5216 19.9338C60.4057 20.2152 60.2567 20.5132 60.0746 20.7947C59.8759 21.0927 59.6607 21.3742 59.4123 21.6722C59.164 21.9536 58.8991 22.2351 58.6011 22.5C58.0382 23.0132 57.4918 23.3775 56.962 23.5927C56.4322 23.8079 55.9521 23.9238 55.5382 23.9238C55.2898 23.9238 55.0912 23.8742 54.9422 23.7914C54.7931 23.7086 54.6938 23.5927 54.6276 23.4768C54.5614 23.3609 54.5117 23.2285 54.4951 23.0795C54.4786 22.9305 54.4786 22.8146 54.4786 22.6987C54.4786 22.2682 54.5614 21.8046 54.7269 21.3079C54.8925 20.8112 55.0912 20.298 55.3229 19.7682C55.5216 19.3212 55.77 18.8411 56.0845 18.3278C56.3826 17.8146 56.7302 17.2848 57.111 16.7715C57.4918 16.2583 57.9057 15.745 58.3196 15.2649C58.7501 14.7848 59.1806 14.3543 59.611 13.9901C60.0415 13.6093 60.4885 13.3112 60.9024 13.096C61.3329 12.8642 61.7302 12.7649 62.111 12.7649C62.3925 12.7649 62.6077 12.8146 62.7567 12.9139C62.9388 13.0298 63.0051 13.2119 63.0051 13.4603ZM61.6309 14.1722C61.6309 13.8742 61.4653 13.7086 61.1508 13.7086C60.8693 13.7086 60.5878 13.8079 60.3064 13.9901C60.0084 14.1722 59.7269 14.4205 59.4455 14.7185C59.164 15.0165 58.8825 15.3477 58.6176 15.7285C58.3527 16.1093 58.1044 16.4735 57.8892 16.8543C57.6574 17.2351 57.4587 17.5993 57.2766 17.9305C57.0945 18.2781 56.962 18.5596 56.8627 18.7914C56.7302 19.0728 56.5978 19.3709 56.4819 19.6854C56.366 20 56.2501 20.3146 56.1673 20.6126C56.068 20.9271 56.0018 21.2086 55.9355 21.4901C55.8693 21.7715 55.8527 22.0199 55.8527 22.2351C55.8527 22.4834 55.9024 22.6987 56.0018 22.8808C56.1011 23.0629 56.2832 23.1457 56.5812 23.1457C56.8296 23.1457 57.0614 23.0795 57.3263 22.947C57.5746 22.8146 57.8561 22.6159 58.1706 22.3179C58.5349 21.9702 58.8494 21.5397 59.0978 21.0596C59.3461 20.5629 59.462 20.0993 59.462 19.6523C59.462 19.553 59.462 19.4371 59.4455 19.3212C59.4289 19.2053 59.3958 19.0894 59.3461 18.9735C59.2799 18.8576 59.1971 18.7748 59.0647 18.7086C58.9322 18.6424 58.7501 18.6093 58.5018 18.6093C58.2203 18.6093 57.9885 18.6424 57.7733 18.7086C57.5581 18.7748 57.4256 18.8245 57.3759 18.8411V18.4437C57.6574 18.2781 58.0382 18.0298 58.5183 17.7152C58.9984 17.4007 59.4786 17.0364 59.9422 16.6391C60.4057 16.2417 60.8031 15.8278 61.1508 15.3973C61.4653 14.9834 61.6309 14.5695 61.6309 14.1722Z" fill="#D3AF4A"/>
<path d="M67.839 18.543C67.839 19.1391 67.7065 19.7185 67.4251 20.2815C67.1436 20.8609 66.7959 21.3907 66.382 21.8874C65.7529 22.6159 65.1403 23.1457 64.5443 23.4768C63.9317 23.8079 63.3026 23.9735 62.6569 23.9735C61.6304 23.9735 61.1171 23.4603 61.1171 22.4503C61.1171 22.0695 61.1834 21.6887 61.3324 21.2748C61.4814 20.8609 61.6635 20.4636 61.9118 20.0828C62.1602 19.702 62.4582 19.3212 62.7893 18.9735C63.1204 18.6258 63.5012 18.3113 63.882 18.0464C64.2794 17.7815 64.6933 17.5662 65.1238 17.4172C65.5542 17.2682 66.0012 17.1854 66.4483 17.1854C66.8953 17.1854 67.243 17.3013 67.4913 17.5497C67.7065 17.798 67.839 18.1291 67.839 18.543ZM66.4814 19.0894C66.4814 18.6424 66.4151 18.3444 66.2661 18.1622C66.1171 17.9967 65.8853 17.8973 65.5211 17.8973C64.7264 17.8973 64.031 18.3609 63.3853 19.3046C62.7396 20.2318 62.4251 21.2086 62.4251 22.2351C62.4251 22.5662 62.5079 22.8146 62.6569 23.0298C62.8059 23.2285 63.0542 23.3278 63.4185 23.3278C63.7165 23.3278 63.9979 23.245 64.2628 23.096C64.5277 22.947 64.7761 22.7483 65.0079 22.5C65.2396 22.2516 65.4383 21.9702 65.6204 21.6722C65.8026 21.3576 65.9516 21.0596 66.084 20.745C66.2165 20.4305 66.3158 20.1324 66.382 19.8344C66.4483 19.553 66.4814 19.3046 66.4814 19.0894Z" fill="#D3AF4A"/>
<path d="M76.8775 13.4603C76.8775 13.9073 76.596 14.4867 76.0166 15.1821C75.8345 15.3973 75.6027 15.6457 75.3047 15.9106C75.0232 16.1755 74.7086 16.4404 74.3609 16.7218C74.0133 17.0033 73.649 17.2848 73.2682 17.5497C72.8874 17.8311 72.4901 18.0795 72.1093 18.2947V18.3609C72.3742 18.2947 72.6225 18.2616 72.8543 18.2285C73.0861 18.2119 73.2848 18.1954 73.4669 18.1954C73.7649 18.1954 74.0298 18.2616 74.2451 18.394C74.4603 18.5265 74.5596 18.7748 74.5596 19.1391C74.5596 19.3874 74.51 19.6523 74.3941 19.9338C74.2782 20.2152 74.1292 20.5132 73.947 20.7947C73.7484 21.0927 73.5331 21.3742 73.2848 21.6722C73.0364 21.9536 72.7715 22.2351 72.4735 22.5C71.9106 23.0132 71.3643 23.3775 70.8345 23.5927C70.3047 23.8079 69.8245 23.9238 69.4106 23.9238C69.1623 23.9238 68.9636 23.8742 68.8146 23.7914C68.6656 23.7086 68.5662 23.5927 68.5 23.4768C68.4338 23.3609 68.3841 23.2285 68.3676 23.0795C68.351 22.9305 68.351 22.8146 68.351 22.6987C68.351 22.2682 68.4338 21.8046 68.5994 21.3079C68.7649 20.8112 68.9636 20.298 69.1954 19.7682C69.3941 19.3212 69.6424 18.8411 69.957 18.3278C70.255 17.8146 70.6027 17.2848 70.9835 16.7715C71.3643 16.2583 71.7782 15.745 72.1921 15.2649C72.6225 14.7848 73.053 14.3543 73.4835 13.9901C73.9139 13.6093 74.3609 13.3112 74.7749 13.096C75.2053 12.8642 75.6027 12.7649 75.9835 12.7649C76.2649 12.7649 76.4802 12.8146 76.6292 12.9139C76.7947 13.0298 76.8775 13.2119 76.8775 13.4603ZM75.4868 14.1722C75.4868 13.8742 75.3212 13.7086 75.0066 13.7086C74.7252 13.7086 74.4437 13.8079 74.1623 13.9901C73.8643 14.1722 73.5828 14.4205 73.3013 14.7185C73.0199 15.0165 72.7384 15.3477 72.4735 15.7285C72.2086 16.1093 71.9603 16.4735 71.7451 16.8543C71.5133 17.2351 71.3146 17.5993 71.1325 17.9305C70.9503 18.2781 70.8179 18.5596 70.7186 18.7914C70.5861 19.0728 70.4537 19.3709 70.3378 19.6854C70.2219 20 70.106 20.3146 70.0232 20.6126C69.9239 20.9271 69.8576 21.2086 69.7914 21.4901C69.7252 21.7715 69.7086 22.0199 69.7086 22.2351C69.7086 22.4834 69.7583 22.6987 69.8576 22.8808C69.957 23.0629 70.1391 23.1457 70.4371 23.1457C70.6855 23.1457 70.9172 23.0795 71.1821 22.947C71.4305 22.8146 71.7119 22.6159 72.0265 22.3179C72.3907 21.9702 72.7053 21.5397 72.9537 21.0596C73.202 20.5629 73.3179 20.0993 73.3179 19.6523C73.3179 19.553 73.3179 19.4371 73.3013 19.3212C73.2848 19.2053 73.2517 19.0894 73.202 18.9735C73.1358 18.8576 73.053 18.7748 72.9206 18.7086C72.7881 18.6424 72.606 18.6093 72.3576 18.6093C72.0762 18.6093 71.8444 18.6424 71.6292 18.7086C71.4139 18.7748 71.2815 18.8245 71.2318 18.8411V18.4437C71.5133 18.2781 71.8941 18.0298 72.3742 17.7152C72.8543 17.4007 73.3345 17.0364 73.798 16.6391C74.2616 16.2417 74.659 15.8278 75.0066 15.3973C75.3212 14.9834 75.4868 14.5695 75.4868 14.1722Z" fill="#D3AF4A"/>
<path d="M80.8677 20.2318C80.8677 20.4801 80.7849 20.7781 80.6359 21.1424C80.4869 21.5066 80.2385 21.8543 79.9074 22.202C79.7915 22.3344 79.6425 22.4669 79.4604 22.6159C79.2783 22.7649 79.0796 22.9139 78.8809 23.0464C78.6657 23.1954 78.4504 23.3113 78.2187 23.4437C77.9869 23.5762 77.7716 23.6424 77.5398 23.7086C77.1922 23.8245 76.8942 23.8907 76.6624 23.9073C76.4306 23.9238 76.2153 23.9404 75.9836 23.9404C75.7021 23.9404 75.52 23.8742 75.4041 23.7583C75.2882 23.6424 75.2385 23.4934 75.2385 23.3609C75.2385 23.1954 75.2716 22.9967 75.3544 22.7649C75.4372 22.5331 75.5531 22.2351 75.7187 21.8709C75.8014 21.6887 75.9008 21.4569 76.0167 21.1755C76.1491 20.894 76.265 20.596 76.3975 20.2815C76.5299 19.9669 76.6624 19.6689 76.7783 19.3874C76.8942 19.106 76.9935 18.8742 77.0597 18.6755C77.0928 18.5927 77.1259 18.5099 77.1425 18.4271C77.1756 18.3609 77.1756 18.2947 77.1756 18.2285C77.1756 18.1457 77.1259 18.096 77.0432 18.096C76.9604 18.096 76.8445 18.1291 76.6955 18.1788C76.5465 18.245 76.3975 18.2947 76.265 18.3775C76.0829 18.4603 75.9173 18.543 75.7352 18.6424L75.6359 18.3609C75.7683 18.2781 75.9339 18.1954 76.1491 18.0795C76.3644 17.9636 76.5796 17.8642 76.8114 17.7649C77.0432 17.6656 77.2584 17.5662 77.4571 17.4834C77.6557 17.4007 77.8213 17.3344 77.9372 17.3013C78.169 17.2185 78.3677 17.1854 78.5332 17.1854C78.5829 17.1854 78.6326 17.202 78.6657 17.2185C78.6988 17.2351 78.7153 17.3013 78.7153 17.4007C78.7153 17.4172 78.6988 17.4669 78.6657 17.5662C78.6326 17.6656 78.5829 17.7649 78.5332 17.8808C78.4836 17.9967 78.4173 18.1291 78.3677 18.2781C78.3014 18.4106 78.2518 18.543 78.2187 18.6589C78.1359 18.8245 78.0696 19.0066 77.9869 19.1887C77.9041 19.3709 77.8047 19.5861 77.7054 19.8179C78.0365 19.6523 78.3842 19.5199 78.7319 19.404C79.0796 19.2881 79.4107 19.2384 79.7253 19.2384C80.1392 19.2384 80.4206 19.3212 80.5862 19.4702C80.7849 19.6192 80.8677 19.8841 80.8677 20.2318ZM79.5763 20.596C79.5763 20.447 79.5597 20.3146 79.51 20.2152C79.4604 20.1159 79.4107 20.0497 79.3445 20.0165C79.2783 19.9669 79.1955 19.9503 79.1127 19.9338C79.0299 19.9172 78.9306 19.9172 78.8312 19.9172C78.6491 19.9172 78.4339 19.9503 78.2021 20.0331C77.9703 20.1159 77.7716 20.1987 77.573 20.298C77.4736 20.5298 77.3743 20.7616 77.2584 21.0099C77.1425 21.2583 77.0432 21.4901 76.9438 21.7384C76.8445 21.9867 76.7617 22.202 76.712 22.4007C76.6458 22.5993 76.6292 22.7814 76.6292 22.9139C76.6292 23.0464 76.6624 23.1457 76.7286 23.2119C76.7948 23.2781 76.9273 23.3113 77.1259 23.3113C77.3908 23.3113 77.6889 23.245 77.9703 23.096C78.2518 22.947 78.5332 22.7649 78.765 22.5165C79.0134 22.2682 79.1955 21.9867 79.361 21.6556C79.4935 21.3411 79.5763 20.9768 79.5763 20.596ZM84.3445 17.3344C84.3445 17.4007 84.1955 17.7318 83.8975 18.3278C83.5994 18.9404 83.2021 19.851 82.6889 21.0927C82.6226 21.2417 82.5564 21.3907 82.4902 21.5397C82.424 21.6887 82.3577 21.8377 82.3081 21.9702C82.2584 22.1026 82.2087 22.2185 82.1756 22.3344C82.1425 22.4503 82.1259 22.5331 82.1259 22.5993C82.1259 22.6987 82.1425 22.7483 82.1756 22.7814C82.2087 22.798 82.2584 22.8146 82.3412 22.8146C82.4239 22.8146 82.5564 22.7814 82.7054 22.6987C82.8544 22.6159 83.0034 22.5331 83.169 22.4338C83.3511 22.3179 83.5167 22.202 83.7153 22.053L83.8478 22.3675C83.7319 22.4669 83.5498 22.5993 83.318 22.7814C83.0862 22.9636 82.8379 23.1457 82.5564 23.3113C82.2915 23.4934 82.01 23.6424 81.7286 23.7748C81.4471 23.9073 81.1988 23.9735 81.0001 23.9735C80.8511 23.9735 80.7683 23.9404 80.7187 23.8742C80.669 23.8079 80.6524 23.7417 80.6524 23.6424C80.6524 23.543 80.6855 23.4106 80.7518 23.1954C80.818 22.9801 80.9008 22.7483 81.0167 22.4669C81.1326 22.1854 81.2485 21.904 81.3809 21.5894C81.5134 21.2748 81.6458 20.9768 81.7783 20.6622C81.9107 20.3642 82.0266 20.0828 82.1425 19.8179C82.2584 19.553 82.3412 19.3377 82.4239 19.1722C82.573 18.8245 82.7385 18.4768 82.9041 18.1622C83.0696 17.8311 83.2352 17.6159 83.4008 17.5166C83.5829 17.4007 83.7153 17.3344 83.8478 17.2848C83.9637 17.2351 84.0961 17.2185 84.212 17.2185C84.2451 17.2185 84.2783 17.2185 84.3114 17.2351C84.3279 17.2185 84.3445 17.2682 84.3445 17.3344Z" fill="#D3AF4A"/>
<path d="M90.8017 17.6986C90.8017 17.8973 90.7355 18.096 90.5865 18.3112C90.4375 18.5264 90.2719 18.7251 90.0567 18.9238C89.8414 19.1225 89.6262 19.3046 89.3944 19.4701C89.1626 19.6357 88.964 19.7847 88.7818 19.9006C88.401 20.149 88.0037 20.3807 87.5732 20.5794C87.1593 20.7781 86.6957 20.9437 86.1991 21.0596C86.1494 21.192 86.1163 21.341 86.0997 21.4735C86.0832 21.6225 86.0666 21.7052 86.0666 21.7549C86.0666 22.2682 86.1825 22.6324 86.4143 22.8642C86.6461 23.096 86.9938 23.1953 87.4408 23.1953C87.8381 23.1953 88.2355 23.096 88.6328 22.9139C89.0302 22.7152 89.3944 22.5331 89.709 22.3344L89.8414 22.5496C89.6593 22.6986 89.4275 22.8642 89.1792 23.0297C88.9143 23.1953 88.6494 23.3443 88.3514 23.4933C88.0534 23.6423 87.7553 23.7582 87.4573 23.841C87.1593 23.9238 86.8448 23.9735 86.5467 23.9735C85.9838 23.9735 85.5368 23.841 85.2057 23.5761C84.8745 23.3112 84.709 22.8973 84.709 22.3344C84.709 21.1423 85.2388 20.0496 86.3149 19.0231C86.5467 18.8079 86.8116 18.5927 87.1096 18.3609C87.4077 18.1291 87.7057 17.947 88.0368 17.7649C88.3514 17.5827 88.6991 17.4503 89.0302 17.3344C89.3779 17.2185 89.709 17.1688 90.0567 17.1688C90.5534 17.2019 90.8017 17.3675 90.8017 17.6986ZM89.411 18.2781C89.411 18.0463 89.262 17.947 88.9805 17.947C88.7653 17.947 88.5335 18.0298 88.2686 18.1788C88.0202 18.3278 87.7719 18.543 87.5401 18.7748C87.3083 19.0231 87.0931 19.288 86.8944 19.6026C86.6957 19.9006 86.5467 20.2152 86.4474 20.5132C86.7289 20.4635 87.0434 20.3642 87.3911 20.2317C87.7388 20.0827 88.0534 19.9172 88.3514 19.7019C88.6494 19.5033 88.8977 19.2715 89.0964 19.0231C89.3116 18.7748 89.411 18.5264 89.411 18.2781Z" fill="#D3AF4A"/>
<path d="M106.663 17.5662C106.663 17.6821 106.63 17.8311 106.58 18.0298C106.53 18.2119 106.464 18.4106 106.381 18.6258C106.299 18.8411 106.216 19.0563 106.133 19.2715C106.05 19.4867 105.967 19.6689 105.885 19.8344L105.338 21.0596C105.289 21.1589 105.239 21.2748 105.173 21.4238C105.107 21.5728 105.04 21.7218 104.991 21.8709C104.924 22.0199 104.875 22.1689 104.842 22.3013C104.792 22.4338 104.775 22.5331 104.775 22.5993C104.775 22.7318 104.842 22.798 104.991 22.798C105.073 22.798 105.173 22.7649 105.289 22.7152C105.421 22.6656 105.587 22.5662 105.802 22.4172L106.348 22.0364L106.481 22.351C105.785 22.9139 105.222 23.3278 104.759 23.5761C104.295 23.8411 103.931 23.9735 103.65 23.9735C103.418 23.9735 103.302 23.8576 103.302 23.6424C103.302 23.5596 103.318 23.4437 103.368 23.2947C103.418 23.1457 103.467 22.9801 103.517 22.8146C103.583 22.649 103.65 22.4669 103.716 22.2848C103.782 22.1026 103.848 21.9536 103.914 21.8046L104.494 20.4139C104.676 19.9669 104.825 19.5861 104.924 19.3046C105.024 19.0232 105.073 18.8245 105.073 18.7583C105.073 18.6258 105.007 18.5596 104.891 18.5596C104.693 18.5596 104.477 18.6258 104.229 18.7748C103.981 18.9238 103.749 19.106 103.501 19.3212C103.252 19.5364 103.004 19.7848 102.756 20.0662C102.507 20.3477 102.275 20.6126 102.077 20.8775C101.861 21.1424 101.696 21.3907 101.53 21.6225C101.381 21.8543 101.265 22.0364 101.199 22.1689L100.885 22.798C100.835 22.8808 100.818 22.947 100.802 22.9967C100.785 23.0463 100.752 23.096 100.719 23.1291L100.421 23.4271C100.239 23.6093 100.073 23.7252 99.941 23.8079C99.8085 23.8742 99.6761 23.9238 99.5767 23.9238C99.4443 23.9238 99.378 23.8576 99.378 23.7252C99.378 23.6093 99.4443 23.4271 99.5602 23.1622C99.6761 22.8973 99.8251 22.5993 99.9906 22.2516L100.405 21.3907C100.769 20.5795 101.05 19.9338 101.216 19.4536C101.381 18.9735 101.464 18.6755 101.464 18.5762C101.464 18.4934 101.431 18.4437 101.348 18.4437C101.166 18.4437 100.951 18.5099 100.703 18.6589C100.454 18.8079 100.189 18.9901 99.9244 19.2384C99.6429 19.4702 99.378 19.7351 99.1131 20.0331C98.8482 20.3146 98.5999 20.6126 98.3681 20.894C98.1363 21.1755 97.9377 21.4238 97.7721 21.6722C97.6065 21.904 97.4906 22.0861 97.4244 22.2351L97.143 22.8311C97.0933 22.9139 97.0767 22.9801 97.0602 23.0298C97.0436 23.0795 97.0105 23.1291 96.9774 23.1622L96.6794 23.4603C96.4973 23.6424 96.3317 23.7583 96.1992 23.8411C96.0668 23.9073 95.9343 23.9569 95.835 23.9569C95.7025 23.9569 95.6363 23.8907 95.6363 23.7583C95.6363 23.692 95.686 23.5596 95.7688 23.3609C95.8516 23.1622 95.9509 22.947 96.0668 22.7318L96.9112 20.9271C97.1761 20.3311 97.4078 19.8013 97.5734 19.3212C97.739 18.8411 97.8218 18.4934 97.8218 18.2947C97.8218 18.1788 97.7886 18.1291 97.7059 18.1291C97.6231 18.1291 97.4906 18.1622 97.3085 18.2285C97.1098 18.2947 96.8118 18.4437 96.3979 18.6755L96.2986 18.394C96.4476 18.3112 96.6628 18.1954 96.9112 18.0629C97.1761 17.9305 97.441 17.798 97.7224 17.6656C98.0039 17.5331 98.2853 17.4338 98.5502 17.3344C98.8317 17.2516 99.0469 17.202 99.2456 17.202C99.3781 17.202 99.4443 17.2682 99.4443 17.4007C99.4443 17.4503 99.4112 17.5828 99.3449 17.798C99.2787 18.0132 99.1628 18.2947 99.0138 18.6589L98.2688 20.3311L98.3847 20.3642C98.782 19.9338 99.1794 19.5199 99.5933 19.1391C100.007 18.7583 100.405 18.4271 100.785 18.1291C101.166 17.8477 101.53 17.6159 101.861 17.4503C102.193 17.2848 102.491 17.202 102.739 17.202C102.871 17.202 102.954 17.2351 103.004 17.3013C103.054 17.3675 103.07 17.4503 103.07 17.5662C103.07 17.8477 102.905 18.3775 102.557 19.2053L102.126 20.2483C102.623 19.7848 103.087 19.3212 103.55 18.9073C104.014 18.4768 104.511 18.0795 105.04 17.7152C105.504 17.3841 105.951 17.2185 106.381 17.2185C106.563 17.202 106.663 17.3179 106.663 17.5662ZM107.656 13.3278C107.458 13.7417 107.176 14.1225 106.812 14.4867C106.448 14.851 106.001 15.1159 105.471 15.3146C104.875 15.5464 104.295 15.6788 103.732 15.7119C103.186 15.7616 102.607 15.7781 102.01 15.7781C101.332 15.7781 100.769 15.7781 100.338 15.7947C99.9078 15.8112 99.527 15.8444 99.1959 15.894C98.8814 15.9437 98.5833 16.0265 98.335 16.1424C98.0867 16.2583 97.8052 16.4073 97.5072 16.606L97.441 16.4073C97.6893 16.2086 97.9045 16.0265 98.1198 15.894C98.335 15.7616 98.5337 15.6457 98.7158 15.5629C98.9145 15.4801 99.0966 15.3973 99.2953 15.3477C99.4939 15.298 99.7092 15.2318 99.941 15.1656C100.272 15.0828 100.62 15.0165 100.967 14.9834C101.315 14.9503 101.663 14.9338 102.01 14.9172C102.358 14.9007 102.722 14.9007 103.087 14.8841C103.451 14.8675 103.815 14.851 104.196 14.8013C104.891 14.7185 105.52 14.5695 106.05 14.3377C106.597 14.106 107.06 13.7417 107.441 13.2119L107.656 13.3278Z" fill="#D3AF4A"/>
<path d="M113.468 17.6986C113.468 17.8973 113.401 18.096 113.252 18.3112C113.103 18.5264 112.938 18.7251 112.723 18.9238C112.507 19.1225 112.292 19.3046 112.06 19.4701C111.829 19.6357 111.63 19.7847 111.448 19.9006C111.067 20.149 110.67 20.3807 110.239 20.5794C109.825 20.7781 109.362 20.9437 108.865 21.0596C108.815 21.192 108.782 21.341 108.766 21.4735C108.749 21.6225 108.732 21.7052 108.732 21.7549C108.732 22.2682 108.848 22.6324 109.08 22.8642C109.312 23.096 109.66 23.1953 110.107 23.1953C110.504 23.1953 110.901 23.096 111.299 22.9139C111.696 22.7152 112.06 22.5331 112.375 22.3344L112.507 22.5496C112.325 22.6986 112.093 22.8642 111.845 23.0297C111.58 23.1953 111.315 23.3443 111.017 23.4933C110.719 23.6423 110.421 23.7582 110.123 23.841C109.825 23.9238 109.511 23.9735 109.213 23.9735C108.65 23.9735 108.203 23.841 107.872 23.5761C107.54 23.3112 107.375 22.8973 107.375 22.3344C107.375 21.1423 107.905 20.0496 108.981 19.0231C109.213 18.8079 109.478 18.5927 109.776 18.3609C110.074 18.1291 110.372 17.947 110.703 17.7649C111.017 17.5827 111.365 17.4503 111.696 17.3344C112.044 17.2185 112.375 17.1688 112.723 17.1688C113.219 17.2019 113.468 17.3675 113.468 17.6986ZM112.077 18.2781C112.077 18.0463 111.928 17.947 111.646 17.947C111.431 17.947 111.199 18.0298 110.934 18.1788C110.686 18.3278 110.438 18.543 110.206 18.7748C109.974 19.0231 109.759 19.288 109.56 19.6026C109.362 19.9006 109.213 20.2152 109.113 20.5132C109.395 20.4635 109.709 20.3642 110.057 20.2317C110.405 20.0827 110.719 19.9172 111.017 19.7019C111.315 19.5033 111.564 19.2715 111.762 19.0231C111.978 18.7748 112.077 18.5264 112.077 18.2781Z" fill="#D3AF4A"/>
<path d="M120.654 17.2516C120.654 17.4006 120.538 17.6158 120.323 17.8973C120.107 18.1787 119.826 18.4933 119.495 18.8244C119.18 19.1556 118.833 19.5032 118.468 19.8675C118.104 20.2152 117.773 20.5463 117.492 20.8443L117.624 21.5066C117.674 21.7052 117.707 21.8874 117.74 22.0364C117.773 22.1854 117.806 22.3178 117.839 22.4337C117.905 22.6324 117.972 22.7648 118.021 22.8642C118.121 22.9966 118.253 23.0628 118.419 23.0628C118.667 23.0628 118.949 22.947 119.296 22.6986C119.561 22.5165 119.843 22.2847 120.157 21.9867L120.273 22.3013C119.213 23.4271 118.286 23.99 117.525 23.99C117.227 23.99 117.011 23.7085 116.846 23.1291C116.747 22.7648 116.631 22.235 116.498 21.5562C116.366 21.6887 116.233 21.8377 116.084 21.9867C115.935 22.1357 115.77 22.2847 115.604 22.4503C114.992 23.0132 114.528 23.4105 114.197 23.6423C113.866 23.8907 113.584 24.0066 113.319 24.0066C113.203 24.0066 113.121 23.9569 113.054 23.8741C112.988 23.7913 112.955 23.6423 112.955 23.4271C112.955 23.2946 112.972 23.1456 113.021 22.947C113.319 22.947 113.8 22.7979 114.429 22.4834C115.157 22.1191 115.819 21.6721 116.399 21.1092L116.084 19.1887C116.018 18.7748 115.935 18.5099 115.836 18.394C115.737 18.2781 115.571 18.2284 115.339 18.2284C115.091 18.2284 114.826 18.2781 114.545 18.3774C114.263 18.4768 113.998 18.5927 113.75 18.692L113.684 18.4105C113.816 18.3278 114.015 18.2284 114.28 18.096C114.545 17.9635 114.826 17.8311 115.124 17.6986C115.422 17.5662 115.703 17.4668 115.968 17.3675C116.233 17.2681 116.449 17.235 116.581 17.235C116.763 17.235 116.879 17.3344 116.929 17.5165C116.995 17.6986 117.045 18.0297 117.111 18.4933L117.392 20.4138C117.856 19.9668 118.303 19.5032 118.717 19.0066C119.131 18.5099 119.478 17.9304 119.793 17.3013C119.876 17.2681 119.958 17.235 120.074 17.1854C120.19 17.1357 120.339 17.1191 120.505 17.1191C120.554 17.1191 120.604 17.1357 120.621 17.1523C120.654 17.1191 120.654 17.1688 120.654 17.2516Z" fill="#D3AF4A"/>
<path d="M128.55 17.3344C128.5 17.4172 128.451 17.5166 128.401 17.6324C128.335 17.7483 128.285 17.8642 128.219 17.9801C128.153 18.096 128.103 18.2119 128.053 18.3113C128.004 18.4106 127.971 18.4768 127.954 18.5265C127.838 18.7748 127.689 19.1225 127.507 19.5364C127.325 19.9503 127.11 20.4636 126.845 21.0596C126.696 21.4073 126.563 21.7218 126.447 21.9867C126.332 22.2682 126.282 22.4669 126.282 22.5993C126.282 22.6987 126.298 22.7483 126.332 22.7814C126.365 22.798 126.414 22.8146 126.497 22.8146C126.58 22.8146 126.712 22.7814 126.861 22.6987C127.01 22.6159 127.159 22.5331 127.325 22.4338C127.507 22.3179 127.673 22.202 127.871 22.053L128.004 22.3675C127.888 22.4669 127.706 22.5993 127.474 22.7814C127.242 22.9636 126.994 23.1457 126.712 23.3113C126.447 23.4934 126.166 23.6424 125.885 23.7748C125.603 23.9073 125.355 23.9735 125.156 23.9735C125.007 23.9735 124.924 23.9404 124.875 23.8742C124.825 23.8079 124.808 23.7417 124.808 23.6424C124.808 23.543 124.825 23.4437 124.858 23.2947C124.891 23.1457 124.941 22.9967 125.007 22.8311C125.073 22.6656 125.139 22.5 125.206 22.3179C125.272 22.1358 125.338 21.9702 125.404 21.8212L126 20.4139C125.752 20.4967 125.537 20.5464 125.371 20.5795C125.206 20.6126 125.024 20.6457 124.792 20.6622C124.477 20.7119 124.196 20.745 123.947 20.745C123.699 20.7616 123.484 20.7616 123.252 20.7947L122.375 22.8808C122.325 23.0298 122.259 23.1457 122.192 23.2119C122.143 23.2616 122.027 23.3609 121.845 23.4934C121.663 23.6258 121.497 23.7417 121.332 23.8245C121.183 23.9073 121.067 23.9404 120.951 23.9404C120.851 23.9404 120.802 23.9238 120.785 23.8907C120.769 23.8576 120.769 23.8079 120.769 23.7583C120.769 23.7086 120.802 23.5927 120.885 23.4106C120.967 23.2285 121.083 22.9801 121.232 22.6821C121.381 22.351 121.514 22.0695 121.646 21.8212C121.762 21.5894 121.845 21.3907 121.928 21.192C122.01 20.9934 122.06 20.894 122.077 20.8609C121.961 20.8775 121.828 20.894 121.712 20.9106C121.58 20.9271 121.464 20.9437 121.332 20.9603L121.398 20.7285C121.712 20.596 122.01 20.4967 122.275 20.4305C122.341 20.2814 122.424 20.0828 122.507 19.8675C122.59 19.6523 122.673 19.4371 122.755 19.2218C122.838 19.0066 122.888 18.8245 122.938 18.6589C122.987 18.4934 123.004 18.3775 123.004 18.2947C123.004 18.1788 122.954 18.1291 122.855 18.1291C122.772 18.1291 122.656 18.1622 122.507 18.2119C122.358 18.2616 122.226 18.3278 122.077 18.394C121.911 18.4768 121.745 18.5596 121.547 18.6589L121.447 18.3775C121.63 18.2781 121.845 18.1622 122.126 18.0298C122.408 17.8973 122.673 17.7649 122.971 17.6324C123.252 17.5166 123.534 17.4007 123.782 17.3179C124.047 17.2351 124.245 17.1854 124.394 17.1854C124.444 17.1854 124.494 17.202 124.527 17.2185C124.56 17.2351 124.577 17.3013 124.577 17.3841C124.577 17.4172 124.56 17.4834 124.543 17.5828C124.51 17.6656 124.477 17.7814 124.444 17.8973C124.394 18.0132 124.345 18.1457 124.295 18.2781C124.245 18.4106 124.196 18.543 124.146 18.6589L123.5 20.1656C123.765 20.1324 124.03 20.0993 124.279 20.0828C124.543 20.0662 124.792 20.0497 125.04 20.0165C125.305 20 125.52 19.9834 125.702 19.9503C125.885 19.9338 126.034 19.9172 126.183 19.8841L126.646 18.7583C126.762 18.4603 126.878 18.2119 126.994 18.0132C127.11 17.8146 127.242 17.6656 127.408 17.5497C127.59 17.4338 127.755 17.351 127.938 17.2848C128.12 17.2185 128.252 17.1854 128.385 17.1854C128.418 17.1854 128.451 17.1854 128.484 17.202C128.517 17.2185 128.55 17.2682 128.55 17.3344Z" fill="#D3AF4A"/>
<path d="M135.704 18.543C135.704 19.1391 135.572 19.7185 135.29 20.2815C135.009 20.8609 134.661 21.3907 134.247 21.8874C133.618 22.6159 133.006 23.1457 132.41 23.4768C131.797 23.8079 131.168 23.9735 130.522 23.9735C129.496 23.9735 128.982 23.4603 128.982 22.4503C128.982 22.0695 129.049 21.6887 129.198 21.2748C129.347 20.8609 129.529 20.4636 129.777 20.0828C130.025 19.702 130.323 19.3212 130.655 18.9735C130.986 18.6258 131.366 18.3113 131.747 18.0464C132.145 17.7815 132.559 17.5662 132.989 17.4172C133.419 17.2682 133.866 17.1854 134.314 17.1854C134.761 17.1854 135.108 17.3013 135.357 17.5497C135.572 17.798 135.704 18.1291 135.704 18.543ZM134.363 19.0894C134.363 18.6424 134.297 18.3444 134.148 18.1622C133.999 17.9967 133.767 17.8973 133.403 17.8973C132.608 17.8973 131.913 18.3609 131.267 19.3046C130.621 20.2318 130.307 21.2086 130.307 22.2351C130.307 22.5662 130.39 22.8146 130.539 23.0298C130.688 23.2285 130.936 23.3278 131.3 23.3278C131.598 23.3278 131.88 23.245 132.145 23.096C132.41 22.947 132.658 22.7483 132.89 22.5C133.121 22.2516 133.32 21.9702 133.502 21.6722C133.684 21.3576 133.833 21.0596 133.966 20.745C134.098 20.4305 134.198 20.1324 134.264 19.8344C134.314 19.553 134.363 19.3046 134.363 19.0894Z" fill="#D3AF4A"/>
<path d="M142.855 17.4007C142.855 17.5 142.755 17.7153 142.573 18.0298C142.391 18.3444 142.193 18.7086 141.994 19.1226C141.895 19.3212 141.762 19.6027 141.596 19.9338C141.431 20.2649 141.265 20.6126 141.1 20.9769C140.934 21.3245 140.802 21.6557 140.686 21.9537C140.57 22.2517 140.504 22.4504 140.504 22.5663C140.504 22.6987 140.587 22.7649 140.736 22.7649C140.851 22.7649 140.951 22.7484 141.067 22.6987C141.183 22.649 141.282 22.6159 141.381 22.5663C141.497 22.5 141.596 22.4338 141.712 22.3676L141.845 22.6822C141.729 22.7815 141.563 22.8974 141.365 23.0464C141.166 23.1954 140.951 23.3444 140.702 23.4769C140.471 23.6259 140.222 23.7418 139.974 23.8411C139.726 23.9404 139.494 23.9901 139.295 23.9901C139.047 23.9901 138.914 23.8742 138.914 23.6259C138.914 23.51 138.947 23.3444 139.014 23.1292C139.08 22.9139 139.179 22.6656 139.279 22.4007C139.394 22.1358 139.51 21.8543 139.643 21.5563C139.775 21.2583 139.908 20.9769 140.04 20.712C140.173 20.4471 140.289 20.1987 140.404 19.9835C140.52 19.7683 140.603 19.6027 140.669 19.4702C140.851 19.0894 140.984 18.808 141.083 18.6259C141.166 18.4272 141.216 18.2947 141.216 18.2285C141.216 18.1623 141.166 18.1457 141.083 18.1457C140.802 18.1457 140.438 18.3113 139.957 18.659C139.477 19.0067 138.947 19.4868 138.368 20.0994C137.954 20.5464 137.59 21.01 137.275 21.4901C136.961 21.9868 136.812 22.5 136.812 23.0464C136.812 23.1623 136.812 23.2285 136.828 23.2616C136.679 23.4603 136.497 23.6424 136.282 23.7914C136.067 23.9404 135.885 24.0067 135.719 24.0067C135.587 24.0067 135.487 23.9735 135.404 23.9073C135.322 23.8411 135.289 23.7252 135.289 23.5265C135.289 23.1788 135.553 22.649 136.1 21.904C136.481 21.3908 136.944 20.8444 137.491 20.2815C138.037 19.7186 138.616 19.1888 139.246 18.6755C139.395 18.5596 139.56 18.4437 139.742 18.3113C139.941 18.1954 140.123 18.0795 140.322 17.9636C140.52 17.8477 140.702 17.7649 140.885 17.6656C141.067 17.5828 141.216 17.5166 141.348 17.4669C141.53 17.3841 141.762 17.3179 142.027 17.2683C142.292 17.2186 142.491 17.202 142.623 17.202C142.673 17.202 142.722 17.202 142.772 17.2186C142.822 17.2351 142.855 17.3014 142.855 17.4007Z" fill="#D3AF4A"/>
<path d="M149.676 18.543C149.676 19.1391 149.543 19.7185 149.262 20.2815C148.981 20.8609 148.633 21.3907 148.219 21.8874C147.59 22.6159 146.977 23.1457 146.381 23.4768C145.769 23.8079 145.139 23.9735 144.494 23.9735C143.467 23.9735 142.954 23.4603 142.954 22.4503C142.954 22.0695 143.02 21.6887 143.169 21.2748C143.318 20.8609 143.5 20.4636 143.749 20.0828C143.997 19.702 144.295 19.3212 144.626 18.9735C144.957 18.6258 145.338 18.3113 145.719 18.0464C146.116 17.7815 146.53 17.5662 146.961 17.4172C147.391 17.2682 147.838 17.1854 148.285 17.1854C148.732 17.1854 149.08 17.3013 149.328 17.5497C149.543 17.798 149.676 18.1291 149.676 18.543ZM148.335 19.0894C148.335 18.6424 148.269 18.3444 148.12 18.1622C147.971 17.9967 147.739 17.8973 147.375 17.8973C146.58 17.8973 145.884 18.3609 145.239 19.3046C144.593 20.2318 144.279 21.2086 144.279 22.2351C144.279 22.5662 144.361 22.8146 144.51 23.0298C144.659 23.2285 144.908 23.3278 145.272 23.3278C145.57 23.3278 145.851 23.245 146.116 23.096C146.381 22.947 146.63 22.7483 146.861 22.5C147.093 22.2516 147.292 21.9702 147.474 21.6722C147.656 21.3576 147.805 21.0596 147.937 20.745C148.07 20.4305 148.169 20.1324 148.236 19.8344C148.285 19.553 148.335 19.3046 148.335 19.0894Z" fill="#D3AF4A"/>
<path d="M154.377 17.6655C154.377 17.9967 154.228 18.3609 153.93 18.7914C153.632 19.2218 153.185 19.7847 152.606 20.4801C152.324 20.8112 152.109 21.0761 151.943 21.2914C151.778 21.5066 151.645 21.7053 151.563 21.8543C151.48 22.0033 151.413 22.1357 151.38 22.2516C151.347 22.3675 151.331 22.4503 151.331 22.5496C151.331 22.6986 151.38 22.8145 151.48 22.8642C151.579 22.9139 151.678 22.947 151.761 22.947C151.91 22.947 152.043 22.9304 152.192 22.8808C152.341 22.8311 152.473 22.7649 152.622 22.6821C152.771 22.5993 152.904 22.5165 153.019 22.4172C153.152 22.3178 153.268 22.2351 153.367 22.1523L153.533 22.351C153.301 22.5496 153.069 22.7649 152.837 22.9635C152.606 23.1622 152.374 23.3443 152.125 23.5099C151.877 23.6589 151.629 23.7914 151.38 23.8907C151.132 23.99 150.867 24.0397 150.586 24.0397C150.321 24.0397 150.139 23.99 150.039 23.8907C149.94 23.7914 149.89 23.6589 149.89 23.4933C149.89 23.3609 149.923 23.2119 150.006 23.0463C150.089 22.8808 150.205 22.6986 150.37 22.4668C150.536 22.2351 150.751 21.9702 151.016 21.6556C151.281 21.341 151.596 20.9768 151.96 20.5298C152.192 20.2483 152.374 20.0165 152.506 19.8013C152.639 19.6026 152.755 19.4039 152.821 19.2549C152.887 19.0894 152.937 18.9569 152.953 18.8245C152.97 18.7086 152.97 18.5761 152.97 18.4602C152.97 18.3278 152.92 18.2284 152.837 18.1788C152.755 18.1291 152.639 18.1125 152.523 18.1125C152.407 18.1125 152.291 18.1457 152.142 18.1953C151.993 18.245 151.861 18.3112 151.712 18.394C151.563 18.4768 151.413 18.5761 151.264 18.6755C151.115 18.7914 150.983 18.8907 150.851 19.0066L150.685 18.8079C150.9 18.6423 151.115 18.4602 151.364 18.2781C151.612 18.096 151.861 17.9139 152.142 17.7649C152.407 17.6159 152.688 17.4834 152.986 17.3675C153.268 17.2682 153.566 17.2185 153.847 17.2185C153.963 17.2185 154.079 17.2516 154.195 17.3013C154.327 17.3344 154.377 17.4668 154.377 17.6655Z" fill="#D3AF4A"/>
<path d="M162.705 17.3344C162.705 17.351 162.639 17.5 162.507 17.7649C162.374 18.0298 162.225 18.3609 162.06 18.7582L161.05 21.1092C161 21.2251 160.95 21.341 160.884 21.49C160.818 21.639 160.752 21.7715 160.702 21.9205C160.652 22.0695 160.603 22.2019 160.553 22.3178C160.503 22.4503 160.487 22.5496 160.487 22.6159C160.487 22.7483 160.553 22.8145 160.702 22.8145C160.785 22.8145 160.917 22.7649 161.132 22.649C161.348 22.5331 161.662 22.3344 162.06 22.0529L162.192 22.3675C161.497 22.9304 160.934 23.3443 160.47 23.5927C160.007 23.8576 159.642 23.99 159.361 23.99C159.129 23.99 159.013 23.8741 159.013 23.6589C159.013 23.543 159.03 23.4106 159.063 23.2616C159.096 23.1125 159.146 22.9635 159.212 22.798C159.278 22.6324 159.344 22.4668 159.411 22.3013C159.477 22.1357 159.543 21.9702 159.609 21.8212C159.808 21.3741 159.974 21.0099 160.106 20.7119C160.238 20.4139 160.354 20.1655 160.437 19.9834C160.52 19.7847 160.603 19.6357 160.652 19.5198C160.702 19.4039 160.752 19.288 160.801 19.2053H160.652L160.205 19.6854C159.891 20.0331 159.543 20.3973 159.179 20.7947C158.815 21.192 158.434 21.5728 158.07 21.937C157.705 22.3178 157.325 22.649 156.977 22.9801C156.613 23.2947 156.281 23.5596 156 23.7748C155.917 23.841 155.818 23.8907 155.702 23.9238C155.586 23.9569 155.47 23.99 155.371 23.99C155.255 23.99 155.156 23.9569 155.106 23.8907C155.04 23.8245 155.023 23.7417 155.023 23.6423C155.023 23.5596 155.04 23.4437 155.073 23.2947C155.106 23.1457 155.172 22.9635 155.255 22.7649C155.454 22.3013 155.652 21.8212 155.884 21.3245C156.099 20.8278 156.298 20.3808 156.48 19.9668C156.662 19.5529 156.811 19.1887 156.927 18.8907C157.043 18.5927 157.093 18.3774 157.093 18.2947C157.093 18.2119 157.043 18.1622 156.96 18.1622C156.811 18.1622 156.563 18.245 156.182 18.4271L155.636 18.7086L155.536 18.4271C155.719 18.3112 155.934 18.1953 156.182 18.0629C156.447 17.9304 156.695 17.798 156.977 17.6821C157.242 17.5662 157.507 17.4669 157.755 17.3841C158.003 17.3013 158.219 17.2516 158.417 17.2516C158.55 17.2516 158.616 17.3178 158.616 17.4503C158.616 17.5331 158.566 17.7152 158.45 18.0132C158.334 18.3112 158.202 18.6258 158.053 18.99C157.904 19.3543 157.755 19.7019 157.589 20.0496C157.424 20.3973 157.308 20.6457 157.242 20.8278C156.894 21.6225 156.712 22.0529 156.712 22.1357C156.712 22.2682 156.762 22.3344 156.844 22.3344C156.927 22.3344 157.076 22.2516 157.275 22.1026C157.474 21.9536 157.705 21.7384 157.954 21.5066C158.202 21.2582 158.467 20.9933 158.748 20.6953C159.03 20.3973 159.278 20.0993 159.543 19.8344C159.791 19.5529 160.023 19.3046 160.222 19.0728C160.421 18.841 160.553 18.6755 160.652 18.5596L161.116 18.0298C161.199 17.947 161.265 17.8808 161.348 17.8145C161.43 17.7483 161.497 17.6986 161.58 17.649C161.944 17.4006 162.291 17.2847 162.589 17.2847C162.656 17.2019 162.705 17.2516 162.705 17.3344Z" fill="#D3AF4A"/>
<path d="M170.869 17.3344C170.869 17.351 170.802 17.5 170.67 17.7649C170.538 18.0298 170.389 18.3609 170.223 18.7582L169.213 21.1092C169.163 21.2251 169.114 21.341 169.048 21.49C168.981 21.639 168.915 21.7715 168.865 21.9205C168.816 22.0695 168.766 22.2019 168.716 22.3178C168.667 22.4503 168.65 22.5496 168.65 22.6159C168.65 22.7483 168.716 22.8145 168.865 22.8145C168.948 22.8145 169.081 22.7649 169.296 22.649C169.511 22.5331 169.826 22.3344 170.223 22.0529L170.355 22.3675C169.66 22.9304 169.097 23.3443 168.634 23.5927C168.17 23.8576 167.806 23.99 167.524 23.99C167.293 23.99 167.177 23.8741 167.177 23.6589C167.177 23.543 167.193 23.4106 167.226 23.2616C167.259 23.1125 167.309 22.9635 167.375 22.798C167.442 22.6324 167.508 22.4668 167.574 22.3013C167.64 22.1357 167.706 21.9702 167.773 21.8212C167.971 21.3741 168.137 21.0099 168.269 20.7119C168.402 20.4139 168.518 20.1655 168.601 19.9834C168.683 19.7847 168.766 19.6357 168.816 19.5198C168.865 19.4039 168.915 19.288 168.965 19.2053H168.816L168.369 19.6854C168.054 20.0331 167.706 20.3973 167.342 20.7947C166.978 21.192 166.597 21.5728 166.233 21.937C165.869 22.3178 165.488 22.649 165.14 22.9801C164.776 23.2947 164.445 23.5596 164.163 23.7748C164.081 23.841 163.981 23.8907 163.865 23.9238C163.749 23.9569 163.634 23.99 163.534 23.99C163.418 23.99 163.319 23.9569 163.269 23.8907C163.203 23.8245 163.187 23.7417 163.187 23.6423C163.187 23.5596 163.203 23.4437 163.236 23.2947C163.269 23.1457 163.336 22.9635 163.418 22.7649C163.617 22.3013 163.816 21.8212 164.048 21.3245C164.263 20.8278 164.461 20.3808 164.644 19.9668C164.826 19.5529 164.975 19.1887 165.091 18.8907C165.206 18.5927 165.256 18.3774 165.256 18.2947C165.256 18.2119 165.206 18.1622 165.124 18.1622C164.975 18.1622 164.726 18.245 164.346 18.4271L163.799 18.7086L163.7 18.4271C163.882 18.3112 164.097 18.1953 164.346 18.0629C164.61 17.9304 164.859 17.798 165.14 17.6821C165.405 17.5662 165.67 17.4669 165.918 17.3841C166.167 17.3013 166.382 17.2516 166.581 17.2516C166.713 17.2516 166.779 17.3178 166.779 17.4503C166.779 17.5331 166.73 17.7152 166.614 18.0132C166.498 18.3112 166.365 18.6258 166.216 18.99C166.067 19.3543 165.918 19.7019 165.753 20.0496C165.587 20.3973 165.471 20.6457 165.405 20.8278C165.057 21.6225 164.875 22.0529 164.875 22.1357C164.875 22.2682 164.925 22.3344 165.008 22.3344C165.091 22.3344 165.24 22.2516 165.438 22.1026C165.637 21.9536 165.869 21.7384 166.117 21.5066C166.365 21.2582 166.63 20.9933 166.912 20.6953C167.193 20.3973 167.442 20.0993 167.706 19.8344C167.955 19.5529 168.187 19.3046 168.385 19.0728C168.584 18.841 168.716 18.6755 168.816 18.5596L169.279 18.0298C169.362 17.947 169.428 17.8808 169.511 17.8145C169.594 17.7483 169.66 17.6986 169.743 17.649C170.107 17.4006 170.455 17.2847 170.753 17.2847C170.819 17.2019 170.869 17.2516 170.869 17.3344Z" fill="#D3AF4A"/>
<path d="M46.8619 33.3279H47.5407V35.6458H48.5341C48.5837 34.9173 48.8321 34.3213 49.2625 33.8908C49.693 33.4603 50.2228 33.2451 50.8685 33.2451C51.5473 33.2451 52.0937 33.4769 52.5407 33.957C52.9877 34.4372 53.2029 35.0829 53.2029 35.8941C53.2029 36.7385 52.9877 37.4007 52.5407 37.8809C52.0937 38.361 51.5307 38.5928 50.8519 38.5928C50.2228 38.5928 49.7096 38.3941 49.2957 37.9802C48.8817 37.5663 48.6334 37.0034 48.5672 36.2749H47.5572V38.51H46.8784V33.3279H46.8619ZM49.2294 35.9272C49.2294 36.5729 49.3784 37.0862 49.6764 37.4504C49.9745 37.8147 50.3718 37.9968 50.8519 37.9968C51.3486 37.9968 51.746 37.8147 52.044 37.4504C52.342 37.0862 52.491 36.5729 52.491 35.8941C52.491 35.2484 52.342 34.7517 52.044 34.3709C51.746 33.9901 51.3486 33.8246 50.8519 33.8246C50.3387 33.8246 49.9413 34.0067 49.6433 34.3875C49.3619 34.7517 49.2294 35.265 49.2294 35.9272Z" fill="#D3AF4A"/>
<path d="M54.0469 39.9171V34.7516H54.6263V35.2317C54.7588 35.0496 54.9244 34.9006 55.0899 34.8012C55.2555 34.7019 55.4707 34.6522 55.7191 34.6522C56.0336 34.6522 56.3151 34.735 56.5634 34.9006C56.8118 35.0661 56.9939 35.2979 57.1098 35.5959C57.2422 35.8939 57.2919 36.2251 57.2919 36.5728C57.2919 36.9535 57.2257 37.3012 57.0932 37.5992C56.9608 37.9138 56.7621 38.1456 56.4972 38.3112C56.2323 38.4767 55.9674 38.5595 55.6694 38.5595C55.4542 38.5595 55.272 38.5098 55.1065 38.4271C54.9409 38.3443 54.8085 38.2284 54.6926 38.0959V39.9171H54.0469ZM54.6098 36.639C54.6098 37.1191 54.7091 37.4833 54.9078 37.6986C55.1065 37.9304 55.3383 38.0463 55.6197 38.0463C55.9012 38.0463 56.1495 37.9304 56.3482 37.682C56.5469 37.4502 56.6462 37.0694 56.6462 36.5728C56.6462 36.0926 56.5469 35.7449 56.3482 35.4966C56.1495 35.2648 55.9177 35.1489 55.6528 35.1489C55.3879 35.1489 55.1396 35.2814 54.9409 35.5297C54.7422 35.778 54.6098 36.1588 54.6098 36.639Z" fill="#D3AF4A"/>
<path d="M58.0537 34.7516H58.6829V37.5993L60.4378 34.7516H61.1166V38.4933H60.4875V35.6622L58.7325 38.4933H58.0537V34.7516Z" fill="#D3AF4A"/>
<path d="M62.5901 34.7516H65.1894V37.9635H65.5868V39.5529H65.0735V38.4933H62.1265V39.5529H61.6133V37.9635H61.9444C62.3914 37.3509 62.6066 36.2913 62.5901 34.7516ZM63.1033 35.2648C63.0536 36.4734 62.8715 37.384 62.5404 37.9635H64.5437V35.2648H63.1033Z" fill="#D3AF4A"/>
<path d="M66.2989 34.7516H66.9281V37.5993L68.683 34.7516H69.3618V38.4933H68.7327V35.6622L66.9777 38.4768H66.2989V34.7516Z" fill="#D3AF4A"/>
<path d="M70.0908 34.7516H70.7199V35.4635C70.7199 35.7615 70.7365 35.9933 70.7696 36.1258C70.8027 36.2582 70.8855 36.3907 71.0345 36.49C71.1669 36.5893 71.349 36.639 71.5477 36.639C71.7795 36.639 72.0941 36.5728 72.4749 36.4569V34.7681H73.104V38.5099H72.4749V37.0032C72.0775 37.1191 71.7133 37.1854 71.3822 37.1854C71.1007 37.1854 70.8524 37.1191 70.6371 36.9701C70.4219 36.8211 70.2729 36.6556 70.1901 36.4403C70.1073 36.2251 70.0742 35.9933 70.0742 35.745V34.7516H70.0908Z" fill="#D3AF4A"/>
<path d="M76.631 37.2848L77.2932 37.3676C77.1939 37.7484 76.9952 38.0464 76.7138 38.2617C76.4323 38.4769 76.0846 38.5762 75.6376 38.5762C75.0912 38.5762 74.6608 38.4107 74.3297 38.063C74.0151 37.7319 73.8495 37.2517 73.8495 36.6391C73.8495 36.01 74.0151 35.5299 74.3297 35.1822C74.6442 34.8345 75.0747 34.6689 75.5879 34.6689C76.0846 34.6689 76.4985 34.8345 76.8131 35.1822C77.1277 35.5299 77.2932 35.9934 77.2932 36.6226V36.7881H74.5118C74.5283 37.2021 74.6442 37.5166 74.8594 37.7319C75.0747 37.9471 75.323 38.063 75.6376 38.063C75.8694 38.063 76.0681 37.9968 76.2336 37.8809C76.4157 37.7484 76.5482 37.5497 76.631 37.2848ZM74.5614 36.2583H76.6475C76.6144 35.9438 76.5316 35.712 76.4157 35.5464C76.2171 35.2981 75.9522 35.1822 75.6376 35.1822C75.3396 35.1822 75.1078 35.2815 74.9091 35.4802C74.6939 35.6623 74.578 35.9272 74.5614 36.2583Z" fill="#D3AF4A"/>
<path d="M80.5375 37.1193L81.1667 37.2021C81.1005 37.6325 80.9183 37.9636 80.6369 38.212C80.3554 38.4603 80.0077 38.5762 79.6104 38.5762C79.0971 38.5762 78.6832 38.4107 78.3687 38.0795C78.0541 37.7484 77.9051 37.2683 77.9051 36.6391C77.9051 36.2418 77.9713 35.8776 78.1038 35.5795C78.2362 35.2815 78.4349 35.0497 78.7164 34.9007C78.9978 34.7517 79.2793 34.6689 79.6104 34.6689C80.0243 34.6689 80.3554 34.7683 80.6038 34.9835C80.8521 35.1987 81.0342 35.4802 81.1005 35.861L80.4879 35.9603C80.4216 35.712 80.3223 35.5133 80.1733 35.3974C80.0243 35.2815 79.8422 35.2153 79.6269 35.2153C79.3124 35.2153 79.0475 35.3312 78.8488 35.563C78.6501 35.7948 78.5508 36.159 78.5508 36.6557C78.5508 37.1524 78.6501 37.5166 78.8322 37.7484C79.0309 37.9802 79.2793 38.0961 79.5938 38.0961C79.8422 38.0961 80.0574 38.0133 80.223 37.8643C80.372 37.6656 80.4879 37.4338 80.5375 37.1193Z" fill="#D3AF4A"/>
<path d="M81.696 34.7516H82.3252V36.3741C82.5239 36.3741 82.6729 36.341 82.7556 36.2582C82.8384 36.1754 82.9543 35.9602 83.1199 35.5794C83.2523 35.2814 83.3517 35.0827 83.4179 34.9999C83.5007 34.9006 83.5835 34.8344 83.6828 34.8178C83.7821 34.7847 83.9477 34.7681 84.1629 34.7681H84.2954V35.2979H84.1133C83.9477 35.2979 83.8318 35.3145 83.7987 35.3642C83.749 35.4138 83.6662 35.5628 83.5669 35.8277C83.4676 36.0761 83.3848 36.2416 83.302 36.341C83.2192 36.4403 83.1033 36.5231 82.9378 36.6059C83.2027 36.6721 83.4841 36.937 83.7325 37.3675L84.4278 38.5264H83.7325L83.0537 37.3675C82.9212 37.1357 82.7888 36.9867 82.6894 36.9039C82.5901 36.8377 82.4576 36.788 82.3252 36.788V38.5099H81.696V34.7516Z" fill="#D3AF4A"/>
<path d="M84.8587 34.7516H85.4879V37.5993L87.2428 34.7516H87.9216V38.4933H87.2925V35.6622L85.5375 38.4933H84.8587V34.7516Z" fill="#D3AF4A"/>
<path d="M91.4311 37.2848L92.0934 37.3676C91.9941 37.7484 91.7954 38.0464 91.5139 38.2617C91.2325 38.4769 90.8848 38.5762 90.4378 38.5762C89.8914 38.5762 89.4609 38.4107 89.1298 38.063C88.8152 37.7319 88.6497 37.2517 88.6497 36.6391C88.6497 36.01 88.8152 35.5299 89.1298 35.1822C89.4444 34.8345 89.8749 34.6689 90.3881 34.6689C90.8848 34.6689 91.2987 34.8345 91.6133 35.1822C91.9278 35.5299 92.0934 35.9934 92.0934 36.6226V36.7881H89.3285C89.345 37.2021 89.4609 37.5166 89.6762 37.7319C89.8914 37.9471 90.1397 38.063 90.4543 38.063C90.6861 38.063 90.8848 37.9968 91.0504 37.8809C91.2159 37.7484 91.3484 37.5497 91.4311 37.2848ZM89.3616 36.2583H91.4477C91.4146 35.9438 91.3318 35.712 91.2159 35.5464C91.0172 35.2981 90.7523 35.1822 90.4378 35.1822C90.1398 35.1822 89.908 35.2815 89.7093 35.4802C89.4941 35.6623 89.3782 35.9272 89.3616 36.2583Z" fill="#D3AF4A"/>
<path d="M94.8587 39.9172L94.7925 39.3212C94.9249 39.3543 95.0574 39.3709 95.1567 39.3709C95.3057 39.3709 95.4051 39.3543 95.4879 39.3046C95.5706 39.255 95.6369 39.1887 95.7031 39.106C95.7362 39.0397 95.8024 38.8907 95.9018 38.6258C95.9183 38.5927 95.9349 38.5431 95.9514 38.4768L94.5276 34.7351H95.2064L95.9845 36.904C96.0839 37.1854 96.1832 37.4669 96.2494 37.7649C96.3157 37.4669 96.415 37.1854 96.5143 36.9205L97.309 34.7351H97.9382L96.5143 38.5431C96.3653 38.957 96.2494 39.2384 96.1667 39.3874C96.0508 39.6027 95.9183 39.7517 95.7859 39.851C95.6369 39.9503 95.4713 40 95.2726 40C95.1567 40 95.0243 39.9834 94.8587 39.9172Z" fill="#D3AF4A"/>
<path d="M100.852 37.1193L101.481 37.2021C101.415 37.6325 101.233 37.9636 100.951 38.212C100.67 38.4603 100.322 38.5762 99.9247 38.5762C99.4114 38.5762 98.9975 38.4107 98.683 38.0795C98.3684 37.7484 98.2194 37.2683 98.2194 36.6391C98.2194 36.2418 98.2856 35.8776 98.4181 35.5795C98.5505 35.2815 98.7492 35.0497 99.0306 34.9007C99.3121 34.7517 99.5936 34.6689 99.9247 34.6689C100.339 34.6689 100.67 34.7683 100.918 34.9835C101.166 35.1987 101.349 35.4802 101.415 35.861L100.802 35.9603C100.736 35.712 100.637 35.5133 100.488 35.3974C100.339 35.2815 100.156 35.2153 99.9412 35.2153C99.6267 35.2153 99.3618 35.3312 99.1631 35.563C98.9644 35.7948 98.8651 36.159 98.8651 36.6557C98.8651 37.1524 98.9644 37.5166 99.1465 37.7484C99.3452 37.9802 99.5936 38.0961 99.9081 38.0961C100.156 38.0961 100.372 38.0133 100.537 37.8643C100.703 37.6656 100.819 37.4338 100.852 37.1193Z" fill="#D3AF4A"/>
<path d="M102.342 34.7516H105.289V38.4933H104.66V35.2814H102.988V37.1522C102.988 37.5827 102.971 37.8807 102.938 38.0132C102.905 38.1456 102.839 38.2781 102.706 38.3774C102.574 38.4768 102.392 38.5264 102.16 38.5264C102.011 38.5264 101.845 38.5099 101.647 38.4933V37.9635H101.928C102.06 37.9635 102.16 37.9469 102.209 37.9304C102.259 37.8973 102.309 37.8642 102.325 37.7979C102.342 37.7317 102.358 37.5496 102.358 37.2185V34.7516H102.342Z" fill="#D3AF4A"/>
<path d="M106.2 39.9172L106.134 39.3212C106.267 39.3543 106.399 39.3709 106.498 39.3709C106.647 39.3709 106.747 39.3543 106.83 39.3046C106.912 39.255 106.979 39.1887 107.045 39.106C107.078 39.0397 107.144 38.8907 107.243 38.6258C107.26 38.5927 107.277 38.5431 107.293 38.4768L105.869 34.7351H106.548L107.326 36.904C107.426 37.1854 107.525 37.4669 107.591 37.7649C107.657 37.4669 107.757 37.1854 107.856 36.9205L108.651 34.7351H109.28L107.856 38.5431C107.707 38.957 107.591 39.2384 107.508 39.3874C107.392 39.6027 107.26 39.7517 107.128 39.851C106.979 39.9503 106.813 40 106.614 40C106.498 40 106.349 39.9834 106.2 39.9172Z" fill="#D3AF4A"/>
<path d="M109.841 34.7516H111.994V35.2814H110.47V38.4933H109.841V34.7516Z" fill="#D3AF4A"/>
<path d="M112.475 34.7516H113.104V37.5993L114.859 34.7516H115.538V38.4933H114.909V35.6622L113.154 38.4933H112.475V34.7516Z" fill="#D3AF4A"/>
<path d="M118.999 34.7516H121.598V37.9635H121.995V39.5529H121.482V38.4933H118.535V39.5529H118.022V37.9635H118.353C118.817 37.3509 119.015 36.2913 118.999 34.7516ZM119.529 35.2648C119.479 36.4734 119.297 37.384 118.966 37.9635H120.969V35.2648H119.529Z" fill="#D3AF4A"/>
<path d="M123.02 34.7516H125.967V38.4933H125.338V35.2814H123.666V37.1522C123.666 37.5827 123.649 37.8807 123.616 38.0132C123.583 38.1456 123.517 38.2781 123.384 38.3774C123.252 38.4768 123.07 38.5264 122.838 38.5264C122.689 38.5264 122.523 38.5099 122.325 38.4933V37.9635H122.606C122.739 37.9635 122.838 37.9469 122.888 37.9304C122.937 37.8973 122.987 37.8642 123.003 37.7979C123.02 37.7317 123.037 37.5496 123.037 37.2185V34.7516H123.02Z" fill="#D3AF4A"/>
<path d="M129.858 34.7516V38.4933H129.229V37.0364H128.864C128.649 37.0364 128.467 37.0695 128.368 37.1191C128.252 37.1688 128.103 37.3675 127.887 37.682L127.341 38.4933H126.563L127.242 37.4834C127.457 37.1688 127.656 37.0032 127.871 36.9701C127.507 36.9205 127.242 36.788 127.06 36.5728C126.878 36.3575 126.795 36.1258 126.795 35.8443C126.795 35.5132 126.911 35.2648 127.142 35.0496C127.374 34.8344 127.705 34.7516 128.136 34.7516H129.858ZM129.229 35.2648H128.334C127.954 35.2648 127.705 35.3311 127.606 35.4469C127.507 35.5628 127.44 35.6953 127.44 35.8609C127.44 36.0761 127.523 36.2416 127.689 36.3575C127.854 36.4734 128.136 36.5065 128.55 36.5065H129.245V35.2648H129.229Z" fill="#D3AF4A"/>
<path d="M135.57 33.1954H136.133C136.1 33.4438 136.05 33.6259 135.967 33.7252C135.884 33.8246 135.768 33.8908 135.636 33.9074C135.504 33.9239 135.239 33.957 134.841 33.957C134.312 33.957 133.964 34.0067 133.765 34.106C133.583 34.2054 133.434 34.3709 133.351 34.5862C133.269 34.8014 133.219 35.0994 133.219 35.4471C133.384 35.2153 133.567 35.0332 133.782 34.9173C133.997 34.8014 134.229 34.7352 134.51 34.7352C135.007 34.7352 135.404 34.9007 135.735 35.2484C136.05 35.5795 136.216 36.0431 136.216 36.6226C136.216 37.053 136.133 37.4173 135.967 37.6987C135.802 37.9802 135.619 38.1954 135.388 38.3444C135.172 38.4934 134.858 38.5762 134.477 38.5762C134.03 38.5762 133.682 38.4769 133.434 38.2782C133.186 38.0795 133.004 37.8146 132.871 37.5001C132.739 37.1855 132.672 36.6391 132.672 35.8444C132.672 34.8511 132.838 34.1888 133.169 33.8411C133.5 33.4934 134.014 33.3279 134.709 33.3279C135.139 33.3279 135.388 33.3279 135.437 33.3113C135.487 33.2948 135.553 33.2451 135.57 33.1954ZM135.537 36.606C135.537 36.2087 135.437 35.8941 135.255 35.6458C135.073 35.3974 134.808 35.265 134.477 35.265C134.129 35.265 133.865 35.3974 133.666 35.6623C133.467 35.9272 133.384 36.2749 133.384 36.7219C133.384 37.1524 133.484 37.4835 133.699 37.7153C133.914 37.9471 134.163 38.063 134.477 38.063C134.792 38.063 135.04 37.9305 135.239 37.6656C135.437 37.3842 135.537 37.0365 135.537 36.606Z" fill="#D3AF4A"/>
<path d="M136.961 34.7516H137.59V37.5993L139.345 34.7516H140.024V38.4933H139.395V35.6622L137.64 38.4933H136.961V34.7516Z" fill="#D3AF4A"/>
<path d="M141.812 36.788V36.2913C142.077 36.2913 142.259 36.2747 142.358 36.2582C142.458 36.2416 142.54 36.1754 142.64 36.0926C142.723 35.9933 142.772 35.8774 142.772 35.7449C142.772 35.5794 142.723 35.4304 142.607 35.331C142.491 35.2317 142.342 35.182 142.16 35.182C141.795 35.182 141.547 35.3973 141.415 35.8112L140.819 35.7118C141.001 35.0165 141.464 34.6522 142.176 34.6522C142.574 34.6522 142.888 34.7681 143.12 34.9833C143.352 35.1986 143.468 35.4635 143.468 35.7615C143.468 36.0595 143.319 36.3079 143.021 36.49C143.203 36.5893 143.352 36.7218 143.451 36.8708C143.55 37.0198 143.6 37.2184 143.6 37.4171C143.6 37.7482 143.484 38.0297 143.236 38.2284C142.987 38.4436 142.656 38.5429 142.209 38.5429C141.365 38.5429 140.868 38.1622 140.719 37.4006L141.315 37.2681C141.365 37.4999 141.481 37.6986 141.646 37.831C141.812 37.9635 141.994 38.0297 142.209 38.0297C142.425 38.0297 142.607 37.9635 142.739 37.8476C142.888 37.7317 142.954 37.5661 142.954 37.384C142.954 37.235 142.905 37.1191 142.822 37.0032C142.739 36.8873 142.64 36.8211 142.54 36.8045C142.441 36.7714 142.259 36.7714 141.994 36.7714C141.944 36.788 141.895 36.788 141.812 36.788Z" fill="#D3AF4A"/>
<path d="M144.296 34.7516H144.925V36.3079H146.68V34.7516H147.309V38.4933H146.68V36.8377H144.925V38.4933H144.296V34.7516Z" fill="#D3AF4A"/>
<path d="M150.835 37.2848L151.498 37.3676C151.398 37.7484 151.2 38.0464 150.918 38.2617C150.637 38.4769 150.289 38.5762 149.842 38.5762C149.296 38.5762 148.865 38.4107 148.534 38.063C148.22 37.7319 148.054 37.2517 148.054 36.6391C148.054 36.01 148.22 35.5299 148.534 35.1822C148.849 34.8345 149.279 34.6689 149.792 34.6689C150.289 34.6689 150.703 34.8345 151.018 35.1822C151.332 35.5299 151.498 35.9934 151.498 36.6226V36.7881H148.716C148.733 37.2021 148.849 37.5166 149.064 37.7319C149.279 37.9471 149.527 38.063 149.842 38.063C150.074 38.063 150.273 37.9968 150.438 37.8809C150.604 37.7484 150.736 37.5497 150.835 37.2848ZM148.749 36.2583H150.835C150.802 35.9438 150.72 35.712 150.604 35.5464C150.405 35.2981 150.14 35.1822 149.825 35.1822C149.527 35.1822 149.296 35.2815 149.097 35.4802C148.882 35.6623 148.782 35.9272 148.749 36.2583Z" fill="#D3AF4A"/>
<path d="M154.726 37.1193L155.356 37.2021C155.289 37.6325 155.107 37.9636 154.826 38.212C154.544 38.4603 154.197 38.5762 153.799 38.5762C153.286 38.5762 152.872 38.4107 152.557 38.0795C152.243 37.7484 152.094 37.2683 152.094 36.6391C152.094 36.2418 152.16 35.8776 152.293 35.5795C152.425 35.2815 152.624 35.0497 152.905 34.9007C153.187 34.7517 153.468 34.6689 153.799 34.6689C154.213 34.6689 154.544 34.7683 154.793 34.9835C155.041 35.1987 155.223 35.4802 155.289 35.861L154.677 35.9603C154.61 35.712 154.511 35.5133 154.362 35.3974C154.213 35.2815 154.031 35.2153 153.816 35.2153C153.501 35.2153 153.236 35.3312 153.038 35.563C152.839 35.7948 152.74 36.159 152.74 36.6557C152.74 37.1524 152.839 37.5166 153.021 37.7484C153.22 37.9802 153.468 38.0961 153.783 38.0961C154.031 38.0961 154.246 38.0133 154.412 37.8643C154.577 37.6656 154.677 37.4338 154.726 37.1193Z" fill="#D3AF4A"/>
<path d="M158.335 38.0297C158.104 38.2284 157.872 38.3774 157.657 38.4602C157.441 38.5429 157.21 38.5761 156.961 38.5761C156.547 38.5761 156.233 38.4767 156.018 38.278C155.802 38.0794 155.686 37.8145 155.686 37.5165C155.686 37.3343 155.736 37.1688 155.819 37.0198C155.902 36.8708 156.018 36.7549 156.15 36.6555C156.282 36.5562 156.431 36.49 156.614 36.4403C156.746 36.4072 156.928 36.3741 157.177 36.341C157.69 36.2747 158.071 36.2085 158.302 36.1257C158.302 36.0429 158.302 35.9767 158.302 35.9602C158.302 35.6953 158.236 35.5131 158.12 35.4138C157.955 35.2648 157.723 35.1986 157.392 35.1986C157.094 35.1986 156.879 35.2482 156.729 35.3476C156.58 35.4469 156.481 35.629 156.415 35.8939L155.802 35.8112C155.852 35.5463 155.951 35.331 156.084 35.1655C156.216 34.9999 156.398 34.884 156.647 34.7847C156.895 34.7019 157.177 34.6522 157.491 34.6522C157.806 34.6522 158.071 34.6853 158.269 34.7681C158.468 34.8509 158.617 34.9337 158.716 35.0496C158.816 35.1655 158.882 35.3145 158.915 35.48C158.931 35.5959 158.948 35.778 158.948 36.0595V36.9039C158.948 37.4999 158.965 37.8641 158.981 38.0297C158.998 38.1953 159.064 38.3277 159.147 38.4767H158.484C158.402 38.3443 158.352 38.1953 158.335 38.0297ZM158.286 36.6059C158.054 36.7052 157.706 36.7714 157.243 36.8376C156.978 36.8708 156.796 36.9204 156.696 36.9701C156.58 37.0198 156.498 37.086 156.448 37.1688C156.398 37.2516 156.365 37.3675 156.365 37.4668C156.365 37.6324 156.431 37.7814 156.564 37.8973C156.696 38.0131 156.879 38.0628 157.127 38.0628C157.375 38.0628 157.59 38.0131 157.773 37.8973C157.955 37.7814 158.104 37.6489 158.186 37.4668C158.253 37.3178 158.286 37.1191 158.286 36.8376V36.6059Z" fill="#D3AF4A"/>
<path d="M42.1431 28.8245H161.017" stroke="#D3AF4A" stroke-width="0.351476" stroke-miterlimit="10"/>
</svg>
