<svg width="175" height="40" viewBox="0 0 175 40" fill="none" xmlns="http://www.w3.org/2000/svg">
<path fill-rule="evenodd" clip-rule="evenodd" d="M17.9359 31.1289L2 33.1209V34.9261L17.9359 33.8056V31.1289ZM17.9359 35.4241L2 36.2956V38.1008H17.9359C17.9359 38.0386 17.9359 35.4241 17.9359 35.4241ZM17.9359 1L2 10.8977V12.7029L17.9359 3.61449V1ZM17.9359 5.29523V7.90972L2 15.8777V14.0724L17.9359 5.29523ZM17.9359 9.59046V12.205L2 19.0524V17.2472L17.9359 9.59046ZM17.9359 13.9479L2 20.4219V22.2272L17.9359 16.5624V13.9479ZM17.9359 18.2432L2 23.5967V25.4019L17.9359 20.8577V18.2432ZM17.9359 22.5384V25.1529L2 28.5766V26.7714L17.9359 22.5384ZM17.9359 26.8336V29.4481L2 31.6891V29.8839L17.9359 26.8336Z" fill="#152C4E"/>
<path fill-rule="evenodd" clip-rule="evenodd" d="M17.936 31.1289L26.3397 33.1209V34.9261L17.936 33.8056V31.1289ZM17.936 35.4241L26.3397 36.2333V38.0386H17.936V35.4241ZM17.936 1L26.3397 10.8977V12.7029L17.936 3.61449V1ZM17.936 5.29523V7.90972L26.3397 15.8777V14.0724L17.936 5.29523ZM17.936 9.59046V12.205L26.3397 19.0524V17.2472L17.936 9.59046ZM17.936 13.9479L26.3397 20.4842V22.2894L17.936 16.5624V13.9479ZM17.936 18.2432L26.3397 23.5966V25.4019L17.936 20.8577V18.2432ZM17.936 22.5384V25.1529L26.3397 28.5766V26.7714L17.936 22.5384ZM17.936 26.8336V29.4481L26.3397 31.7514V29.9461L17.936 26.8336Z" fill="#7ABFC8"/>
<path fill-rule="evenodd" clip-rule="evenodd" d="M78.4422 25.4019H84.2314V26.6468H78.4422V25.4019ZM78.4422 31.1288H84.2314V32.3738H78.4422V31.1288ZM84.3559 38.0385H78.3177V36.7936H84.3559V38.0385Z" fill="#7ABFC8"/>
<path fill-rule="evenodd" clip-rule="evenodd" d="M173 38.0386H171.63V27.4562H168.331C167.957 30.4442 167.646 32.5607 167.397 33.8056C167.273 34.7394 167.024 35.6731 166.712 36.5446C166.526 37.0426 166.214 37.5406 165.779 37.8519C165.343 38.1631 164.907 38.2876 164.409 38.2876C164.036 38.2876 163.662 38.2254 163.289 38.1009V36.7936C163.6 36.9804 163.911 37.0426 164.222 37.0426C164.596 36.9804 164.969 36.7936 165.156 36.4201C165.467 35.9844 165.779 34.9261 166.09 33.2454C166.401 31.5647 166.775 29.1992 167.148 26.2112H173V38.0386Z" fill="#152C4E"/>
<path fill-rule="evenodd" clip-rule="evenodd" d="M162.729 38.1631H161.172L159.927 34.8639H154.885L153.702 38.1631H152.146L156.69 26.2734H158.122L162.729 38.1631ZM159.492 33.5567L157.624 28.5144C157.562 28.2654 157.5 28.0164 157.437 27.7052H157.375C157.313 27.9542 157.251 28.2654 157.188 28.5144L155.321 33.5567H159.492Z" fill="#152C4E"/>
<path fill-rule="evenodd" clip-rule="evenodd" d="M151.026 27.5184H147.602V38.1631H146.17V27.5184H142.746V26.2734H151.026V27.5184Z" fill="#152C4E"/>
<path fill-rule="evenodd" clip-rule="evenodd" d="M135.464 33.6812V38.1632H134.094V26.2735H137.331C138.389 26.2113 139.448 26.5225 140.319 27.2073C141.066 27.892 141.44 28.8258 141.377 29.8218C141.44 30.88 141.004 31.876 140.195 32.5608C139.323 33.3077 138.203 33.6812 137.082 33.619H135.464V33.6812ZM135.464 27.5185V32.374H136.895C137.705 32.4363 138.452 32.1873 139.074 31.6893C139.572 31.1913 139.883 30.5065 139.821 29.8218C139.821 28.2655 138.887 27.4563 137.02 27.4563L135.464 27.5185Z" fill="#152C4E"/>
<path fill-rule="evenodd" clip-rule="evenodd" d="M132.102 38.1631H130.546L129.301 34.8639H124.258L123.076 38.1631H121.519L126.064 26.2734H127.495L132.102 38.1631ZM128.865 33.5567L126.997 28.5144C126.935 28.2654 126.873 28.0164 126.811 27.7052H126.748C126.686 27.9542 126.624 28.2654 126.562 28.5144L124.694 33.5567H128.865Z" fill="#152C4E"/>
<path fill-rule="evenodd" clip-rule="evenodd" d="M112.493 38.1631V26.2734H115.854C116.726 26.2111 117.597 26.5224 118.282 27.0204C118.905 27.5184 119.216 28.2654 119.216 29.0124C119.216 29.6349 119.029 30.2574 118.656 30.7554C118.282 31.2534 117.722 31.6269 117.162 31.8136C117.909 31.8759 118.593 32.1871 119.091 32.6851C119.589 33.2454 119.838 33.9301 119.838 34.6771C119.901 35.6109 119.465 36.5446 118.718 37.1671C117.971 37.7896 116.975 38.1631 115.979 38.1008L112.493 38.1631ZM113.925 32.6229V36.9181H115.792C116.477 36.9804 117.162 36.7314 117.722 36.3579C118.158 35.9844 118.407 35.3619 118.407 34.7394C118.407 33.3076 117.473 32.6229 115.543 32.6229H113.925ZM113.925 27.5184V31.3779H115.294C115.917 31.4401 116.601 31.1911 117.099 30.8176C117.535 30.4441 117.784 29.8216 117.722 29.2614C117.722 28.0786 116.975 27.5184 115.419 27.5184H113.925Z" fill="#152C4E"/>
<path fill-rule="evenodd" clip-rule="evenodd" d="M110.813 38.1631H108.883L104.277 32.7474C104.152 32.6229 104.028 32.4984 103.966 32.3117H103.903V38.1631H102.534V26.2734H103.903V31.8759H103.966C104.028 31.7514 104.152 31.6269 104.277 31.4402L108.697 26.2734H110.439L105.335 31.9382L110.813 38.1631Z" fill="#152C4E"/>
<path fill-rule="evenodd" clip-rule="evenodd" d="M94.876 37.6651C93.88 38.1631 92.7595 38.4121 91.639 38.3499C90.145 38.4121 88.651 37.8519 87.5927 36.7314C86.5345 35.5486 85.9742 33.9924 86.0365 32.4361C85.9742 30.7554 86.5967 29.0746 87.7795 27.8296C88.9 26.6469 90.5185 26.0244 92.137 26.0867C93.0707 26.0867 94.0667 26.2112 94.9382 26.5847V28.0786C94.0667 27.5806 93.133 27.3316 92.137 27.3316C90.892 27.2694 89.647 27.7674 88.8377 28.7011C87.9662 29.6971 87.5305 31.0044 87.5927 32.3739C87.5305 33.6189 87.9662 34.8639 88.7755 35.8599C89.5847 36.7314 90.7052 37.1671 91.888 37.1671C93.0085 37.1671 94.0667 36.9181 95.0005 36.3579L94.876 37.6651Z" fill="#152C4E"/>
<path fill-rule="evenodd" clip-rule="evenodd" d="M74.3963 38.1631H73.0268V32.7474H66.8641V38.1631H65.4324V26.2734H66.8641V31.5024H73.0268V26.2734H74.3963V38.1631Z" fill="#152C4E"/>
<path fill-rule="evenodd" clip-rule="evenodd" d="M55.3478 37.6652V36.1712C56.2816 36.8559 57.3398 37.2294 58.5226 37.1672C59.2696 37.2294 59.9543 36.9804 60.5768 36.5447C61.0748 36.1089 61.3861 35.4864 61.3238 34.8639C61.3238 33.3699 60.2656 32.5607 58.2113 32.5607H56.9663V31.4402H58.0868C58.8338 31.5024 59.5808 31.3157 60.1411 30.8799C60.6391 30.5064 60.8881 29.8839 60.8881 29.2614C60.8881 28.7012 60.7013 28.2032 60.2656 27.8297C59.8298 27.4562 59.2073 27.2695 58.6471 27.2695C57.5888 27.2695 56.5928 27.5807 55.7213 28.2032V26.7715C56.6551 26.2735 57.7133 26.0245 58.7093 26.0245C59.6431 25.9622 60.6391 26.2735 61.3861 26.8337C62.0086 27.3317 62.3821 28.1409 62.3198 28.9502C62.4443 30.3819 61.4483 31.6269 60.0788 31.8759V31.9382C60.8258 32.0004 61.5106 32.3117 62.0086 32.8719C62.5066 33.3699 62.7556 34.1169 62.7556 34.8017C62.8178 35.7977 62.3821 36.7937 61.5728 37.4162C60.6391 38.1009 59.5186 38.4122 58.3981 38.3499C57.4021 38.4122 56.2816 38.1632 55.3478 37.6652Z" fill="#152C4E"/>
<path fill-rule="evenodd" clip-rule="evenodd" d="M52.671 38.1631H51.3015V29.5727C51.3015 29.0124 51.3015 28.4522 51.3638 27.9542H51.3015C51.177 28.2032 51.0525 28.4522 50.928 28.7012L44.8276 38.1631H43.0846V26.2734H44.4541V34.6149C44.4541 35.1751 44.4541 35.7976 44.3918 36.3579H44.4541C44.5786 36.1089 44.7653 35.8599 44.9521 35.6109L50.928 26.2734H52.7333L52.671 38.1631Z" fill="#152C4E"/>
<path fill-rule="evenodd" clip-rule="evenodd" d="M33.0628 38.1631V26.2734H39.4123V27.5184H34.4323V31.3157H36.6733C37.6693 31.2534 38.6653 31.5647 39.4123 32.1872C40.097 32.8097 40.4705 33.7434 40.4083 34.6772C40.4705 35.6731 40.097 36.6069 39.35 37.2916C38.5408 37.9764 37.5448 38.2876 36.5488 38.2254L33.0628 38.1631ZM34.4323 32.5607V36.9181H36.362C37.0468 36.9804 37.7315 36.7314 38.2918 36.3579C38.7275 35.9221 38.9765 35.3619 38.9765 34.7394C38.9765 33.3077 38.105 32.6229 36.4243 32.6229L34.4323 32.5607Z" fill="#152C4E"/>
<path d="M38.0422 12.8897H34.9297V18.8657H34.1205V12.205H38.7892V18.9279H37.98V12.8897H38.0422Z" fill="#686869"/>
<path d="M40.4065 14.0725H40.9045L41.029 14.6327H41.0912C41.2157 14.3837 41.4025 14.2592 41.6515 14.1347C41.9005 14.0102 42.1495 13.948 42.4607 13.948C43.0832 13.948 43.5812 14.1347 43.8924 14.5082C44.2037 14.8817 44.3904 15.5042 44.3904 16.3757C44.3904 16.7492 44.3282 17.1227 44.2037 17.434C44.0792 17.7452 43.9547 18.0565 43.7679 18.2432C43.5812 18.4922 43.3322 18.6167 43.0832 18.7412C42.8342 18.8657 42.523 18.928 42.1495 18.928C41.9005 18.928 41.7137 18.928 41.5892 18.8657C41.4647 18.8657 41.278 18.8035 41.1535 18.7412V20.7332H40.4065V14.0725ZM42.3362 14.6327C42.025 14.6327 41.776 14.695 41.5892 14.8817C41.4025 15.0685 41.278 15.3175 41.2157 15.6287V17.9942C41.3402 18.0565 41.4647 18.181 41.5892 18.181C41.7137 18.2432 41.9005 18.2432 42.1495 18.2432C42.5852 18.2432 42.9587 18.0565 43.2077 17.7452C43.4567 17.434 43.5812 16.936 43.5812 16.3135C43.5812 16.0645 43.5812 15.8155 43.5189 15.6287C43.4567 15.442 43.3945 15.2552 43.3322 15.0685C43.2077 14.944 43.0832 14.8195 42.9587 14.695C42.772 14.695 42.5852 14.6327 42.3362 14.6327Z" fill="#686869"/>
<path d="M45.3258 16.5001C45.3258 15.6909 45.5125 15.0684 45.886 14.6326C46.2595 14.1969 46.7575 14.0101 47.4423 14.0101C47.8157 14.0101 48.127 14.0724 48.376 14.1969C48.625 14.3214 48.874 14.5081 49.0607 14.6949C49.2475 14.9439 49.372 15.1929 49.4342 15.5041C49.4965 15.8154 49.5587 16.1266 49.5587 16.5624C49.5587 17.3716 49.372 17.9941 48.9985 18.4299C48.625 18.8656 48.127 19.0524 47.4423 19.0524C47.0688 19.0524 46.7575 18.9901 46.5085 18.8656C46.2595 18.7411 46.0105 18.5544 45.8238 18.3676C45.637 18.1186 45.5125 17.8696 45.4503 17.5584C45.388 17.2471 45.3258 16.8736 45.3258 16.5001ZM46.135 16.5001C46.135 16.7491 46.135 16.9981 46.1973 17.1849C46.2595 17.4339 46.3218 17.6206 46.4463 17.7451C46.5708 17.9319 46.6953 18.0564 46.8198 18.1186C47.0065 18.2431 47.1933 18.2431 47.4423 18.2431C48.3137 18.2431 48.7495 17.6206 48.7495 16.3756C48.7495 16.1266 48.7495 15.8776 48.6872 15.6909C48.625 15.4419 48.5627 15.2551 48.4382 15.1306C48.3137 14.9439 48.1892 14.8194 48.0647 14.7571C47.9402 14.6949 47.6913 14.6326 47.4423 14.6326C46.5708 14.6326 46.135 15.2551 46.135 16.5001Z" fill="#686869"/>
<path d="M54.9108 20.1105H54.4128L54.2883 18.8655H50.6778L50.5533 20.1105H50.0553V18.243H50.5533C50.6156 18.1808 50.6778 18.0563 50.7401 17.8695C50.8023 17.6828 50.9268 17.4338 50.9891 17.1225C51.0513 16.8113 51.1136 16.3755 51.1758 15.8775C51.2381 15.3795 51.3003 14.8193 51.3003 14.1345H54.226V18.243H54.9108V20.1105ZM53.4168 18.243V14.8193H51.9851C51.9851 15.0683 51.9228 15.3795 51.9228 15.6908C51.8606 16.002 51.8606 16.3133 51.7983 16.6245C51.7361 16.9358 51.6738 17.247 51.6116 17.496C51.5493 17.8073 51.4248 17.994 51.3003 18.243H53.4168Z" fill="#686869"/>
<path d="M55.782 14.4459C56.031 14.3214 56.28 14.1969 56.6535 14.1346C56.9648 14.0724 57.3383 14.0101 57.6495 14.0101C57.9608 14.0101 58.272 14.0724 58.4588 14.1346C58.6455 14.1969 58.8323 14.3214 58.8945 14.5081C59.019 14.6326 59.0813 14.8194 59.0813 15.0061C59.1435 15.1929 59.1435 15.3796 59.1435 15.5041C59.1435 15.8776 59.1435 16.2511 59.1435 16.6246C59.1435 16.9981 59.1435 17.3094 59.1435 17.6829C59.1435 17.9319 59.1435 18.1186 59.1435 18.3676C59.1435 18.5544 59.2058 18.8034 59.268 18.9279H58.6455L58.4588 18.2431H58.3965C58.3343 18.3054 58.272 18.4299 58.2098 18.4921C58.1475 18.5544 58.023 18.6789 57.8985 18.7411C57.774 18.8034 57.6495 18.8656 57.4628 18.9279C57.276 18.9901 57.1515 18.9901 56.9025 18.9901C56.7158 18.9901 56.529 18.9279 56.3423 18.8656C56.1555 18.8034 56.031 18.7411 55.9065 18.6166C55.782 18.4921 55.6575 18.3676 55.5953 18.1809C55.533 17.9941 55.4708 17.8074 55.4708 17.6206C55.4708 17.3094 55.533 17.1226 55.6575 16.9359C55.782 16.7491 55.9065 16.6246 56.1555 16.5001C56.3423 16.3756 56.5913 16.3134 56.9025 16.2511C57.2138 16.1889 57.525 16.1889 57.8363 16.1889C57.8985 16.1889 58.023 16.1889 58.0853 16.1889C58.1475 16.1889 58.272 16.1889 58.3343 16.1889C58.3343 16.0021 58.3343 15.8154 58.3343 15.6909C58.3343 15.3174 58.272 15.0684 58.1475 14.9439C58.0853 14.7571 57.774 14.6949 57.4005 14.6949C57.276 14.6949 57.1515 14.6949 57.027 14.6949C56.9025 14.6949 56.778 14.7571 56.6535 14.7571C56.529 14.7571 56.4045 14.8194 56.28 14.8816C56.1555 14.9439 56.031 14.9439 55.9688 15.0061L55.782 14.4459ZM57.1515 18.3054C57.3383 18.3054 57.4628 18.3054 57.6495 18.2431C57.774 18.1809 57.8985 18.1186 58.023 18.0564C58.1475 17.9941 58.2098 17.9319 58.272 17.8074C58.3343 17.7451 58.3965 17.6206 58.3965 17.5584V16.7491C58.3343 16.7491 58.2098 16.7491 58.1475 16.7491C58.0853 16.7491 57.9608 16.7491 57.8985 16.7491C57.7118 16.7491 57.525 16.7491 57.3383 16.8114C57.1515 16.8114 56.9648 16.8736 56.8403 16.9359C56.7158 16.9981 56.5913 17.0604 56.4668 17.1849C56.4045 17.3094 56.3423 17.4339 56.3423 17.5584C56.3423 17.8074 56.4045 17.9941 56.5913 18.1186C56.6535 18.2431 56.9025 18.3054 57.1515 18.3054Z" fill="#686869"/>
<path d="M62.1943 16.7491L60.7625 18.8656H59.891L61.385 16.6869L61.6963 16.3756L61.1983 16.0021L59.9533 14.0724H60.7625L62.0698 16.1266H62.5678V14.0724H63.3148V16.2511L63.7505 16.1266L65.0578 14.0724H65.867L64.5598 16.0021L64.1863 16.3134L64.6843 16.6869L66.116 18.8656H65.1823L63.7505 16.6869H63.2525V18.8656H62.5055V16.6246L62.1943 16.7491Z" fill="#686869"/>
<path d="M66.8623 14.4459C67.1113 14.3214 67.3603 14.1969 67.7338 14.1346C68.0451 14.0724 68.4186 14.0101 68.7298 14.0101C69.0411 14.0101 69.3523 14.0724 69.5391 14.1346C69.7258 14.1969 69.9126 14.3214 69.9748 14.5081C70.0993 14.6326 70.1616 14.8194 70.1616 15.0061C70.1616 15.1929 70.2238 15.3796 70.2238 15.5041C70.2238 15.8776 70.2238 16.2511 70.2238 16.6246C70.2238 16.9981 70.2238 17.3094 70.2238 17.6829C70.2238 17.9319 70.2238 18.1186 70.2238 18.3676C70.2238 18.5544 70.2861 18.8034 70.3483 18.9279H69.7881L69.6013 18.2431H69.5391C69.4768 18.3054 69.4146 18.4299 69.3523 18.4921C69.2901 18.5544 69.1656 18.6789 69.0411 18.7411C68.9166 18.8034 68.7921 18.8656 68.6053 18.9279C68.4186 18.9901 68.2941 18.9901 68.0451 18.9901C67.8583 18.9901 67.6716 18.9279 67.4848 18.8656C67.2981 18.8034 67.1736 18.7411 67.0491 18.6166C66.9246 18.4921 66.8001 18.3676 66.7378 18.1809C66.6756 17.9941 66.6133 17.8074 66.6133 17.6206C66.6133 17.3094 66.6756 17.1226 66.8001 16.9359C66.9246 16.7491 67.0491 16.6246 67.2981 16.5001C67.4848 16.3756 67.7338 16.3134 68.0451 16.2511C68.3563 16.1889 68.6676 16.1889 68.9788 16.1889C69.0411 16.1889 69.1656 16.1889 69.2278 16.1889C69.2901 16.1889 69.4146 16.1889 69.4768 16.1889C69.4768 16.0021 69.4768 15.8154 69.4768 15.6909C69.4768 15.3174 69.4146 15.0684 69.2901 14.9439C69.1656 14.8194 68.9166 14.7571 68.5431 14.7571C68.4186 14.7571 68.2941 14.7571 68.1696 14.7571C68.0451 14.7571 67.9206 14.8194 67.7961 14.8194C67.6716 14.8194 67.5471 14.8816 67.4226 14.9439C67.2981 15.0061 67.1736 15.0061 67.1113 15.0684L66.8623 14.4459ZM68.2318 18.3054C68.4186 18.3054 68.5431 18.3054 68.7298 18.2431C68.9166 18.1809 68.9788 18.1186 69.1033 18.0564C69.2278 17.9941 69.2901 17.9319 69.3523 17.8074C69.4146 17.7451 69.4768 17.6206 69.4768 17.5584V16.7491C69.4146 16.7491 69.2901 16.7491 69.2278 16.7491C69.1656 16.7491 69.0411 16.7491 68.9788 16.7491C68.7921 16.7491 68.6053 16.7491 68.4186 16.8114C68.2318 16.8114 68.0451 16.8736 67.9206 16.9359C67.7961 16.9981 67.6716 17.0604 67.5471 17.1849C67.4848 17.3094 67.4226 17.4339 67.4226 17.5584C67.4226 17.8074 67.4848 17.9941 67.6716 18.1186C67.7338 18.2431 67.9828 18.3054 68.2318 18.3054Z" fill="#686869"/>
<path d="M77.0099 14.7571H74.9557V18.8656H74.2087V14.0724H77.0099V14.7571Z" fill="#686869"/>
<path d="M77.135 16.5001C77.135 15.6909 77.3217 15.0684 77.6952 14.6326C78.0687 14.1969 78.5667 14.0101 79.2515 14.0101C79.625 14.0101 79.9362 14.0724 80.1852 14.1969C80.4342 14.3214 80.6832 14.5081 80.87 14.6949C81.0567 14.9439 81.1812 15.1929 81.2435 15.5041C81.3057 15.8154 81.368 16.1266 81.368 16.5624C81.368 17.3716 81.1812 17.9941 80.8077 18.4299C80.4342 18.8656 79.9362 19.0524 79.2515 19.0524C78.878 19.0524 78.5667 18.9901 78.3177 18.8656C78.0687 18.7411 77.8197 18.5544 77.633 18.3676C77.4462 18.1186 77.3217 17.8696 77.2595 17.5584C77.1972 17.2471 77.135 16.8736 77.135 16.5001ZM77.9442 16.5001C77.9442 16.7491 77.9442 16.9981 78.0065 17.1849C78.0687 17.4339 78.131 17.6206 78.2555 17.7451C78.38 17.9319 78.5045 18.0564 78.629 18.1186C78.8157 18.2431 79.0025 18.2431 79.2515 18.2431C80.123 18.2431 80.5587 17.6206 80.5587 16.3756C80.5587 16.1266 80.5587 15.8776 80.4965 15.6909C80.4342 15.4419 80.372 15.2551 80.2475 15.1306C80.123 14.9439 79.9985 14.8194 79.874 14.7571C79.7495 14.6949 79.5005 14.6326 79.2515 14.6326C78.38 14.6326 77.9442 15.2551 77.9442 16.5001Z" fill="#686869"/>
<path d="M85.2891 14.7571H83.7951V18.8656H83.0481V14.7571H81.5541V14.0724H85.3513V14.7571H85.2891Z" fill="#686869"/>
<path d="M85.9754 16.5001C85.9754 15.6909 86.1621 15.0684 86.5356 14.6326C86.9091 14.1969 87.4071 14.0101 88.0919 14.0101C88.4654 14.0101 88.7766 14.0724 89.0256 14.1969C89.2746 14.3214 89.5236 14.5081 89.7103 14.6949C89.8971 14.9439 90.0216 15.1929 90.0839 15.5041C90.1461 15.8154 90.2083 16.1266 90.2083 16.5624C90.2083 17.3716 90.0216 17.9941 89.6481 18.4299C89.2746 18.8656 88.7766 19.0524 88.0919 19.0524C87.7184 19.0524 87.4071 18.9901 87.1581 18.8656C86.9091 18.7411 86.6601 18.5544 86.4734 18.3676C86.2866 18.1186 86.1621 17.8696 86.0999 17.5584C86.0376 17.2471 85.9754 16.8736 85.9754 16.5001ZM86.7846 16.5001C86.7846 16.7491 86.7846 16.9981 86.8469 17.1849C86.9091 17.4339 86.9714 17.6206 87.0959 17.7451C87.2204 17.9319 87.3449 18.0564 87.4694 18.1186C87.6561 18.2431 87.8429 18.2431 88.0919 18.2431C88.9634 18.2431 89.3991 17.6206 89.3991 16.3756C89.3991 16.1266 89.3991 15.8776 89.3369 15.6909C89.2746 15.4419 89.2124 15.2551 89.0879 15.1306C88.9634 14.9439 88.8389 14.8194 88.7144 14.7571C88.5276 14.6326 88.3409 14.6326 88.0919 14.6326C87.2204 14.6326 86.7846 15.2551 86.7846 16.5001Z" fill="#686869"/>
<path d="M91.3909 14.1346C91.6399 14.1346 91.8266 14.1346 92.0756 14.0724C92.3246 14.0724 92.6359 14.0724 93.0094 14.0724C93.6319 14.0724 94.0676 14.1969 94.3789 14.3836C94.6901 14.5704 94.8146 14.8816 94.8146 15.2551C94.8146 15.5041 94.7524 15.6909 94.6279 15.9399C94.5034 16.1266 94.2544 16.3134 94.0054 16.4379V16.5001C94.3789 16.5624 94.6279 16.6869 94.8146 16.8736C95.0014 17.0604 95.0636 17.3094 95.0636 17.6206C95.0636 18.1186 94.8769 18.4921 94.5034 18.6789C94.1299 18.9279 93.6319 18.9901 92.8849 18.9901C92.6359 18.9901 92.3869 18.9901 92.1379 18.9901C91.8889 18.9901 91.7021 18.9279 91.4531 18.9279V14.1346H91.3909ZM93.0716 16.1266C93.1961 16.1266 93.3206 16.1266 93.3829 16.0644C93.5074 16.0021 93.5696 16.0021 93.6941 15.8776C93.7564 15.8154 93.8809 15.7531 93.8809 15.6286C93.9431 15.5664 93.9431 15.4419 93.9431 15.3174C93.9431 15.0684 93.8809 14.8816 93.6941 14.7571C93.5074 14.6326 93.2584 14.6326 92.8849 14.6326C92.6981 14.6326 92.5114 14.6326 92.3869 14.6326C92.2624 14.6326 92.1379 14.6326 92.0756 14.6326V16.0021H93.0716V16.1266ZM92.1379 18.2431C92.2624 18.2431 92.3869 18.2431 92.5114 18.2431C92.6359 18.2431 92.7604 18.2431 92.9471 18.2431C93.3829 18.2431 93.6941 18.1809 93.8809 18.0564C94.0676 17.9319 94.1921 17.7451 94.1921 17.4339C94.1921 17.1849 94.1299 16.9981 93.9431 16.8736C93.7564 16.7491 93.4451 16.6869 93.0094 16.6869H92.1379V18.2431Z" fill="#686869"/>
<path d="M95.9355 16.5001C95.9355 15.6909 96.1223 15.0684 96.4958 14.6326C96.8693 14.1969 97.3673 14.0101 98.052 14.0101C98.4255 14.0101 98.7368 14.0724 98.9858 14.1969C99.2348 14.3214 99.4838 14.5081 99.6705 14.6949C99.8573 14.9439 99.9818 15.1929 100.044 15.5041C100.106 15.8154 100.169 16.1266 100.169 16.5624C100.169 17.3716 99.9818 17.9941 99.6083 18.4299C99.2348 18.8656 98.7368 19.0524 98.052 19.0524C97.6785 19.0524 97.3673 18.9901 97.1183 18.8656C96.8693 18.7411 96.6203 18.5544 96.4335 18.3676C96.2468 18.1186 96.1223 17.8696 96.06 17.5584C95.9355 17.2471 95.9355 16.8736 95.9355 16.5001ZM96.6825 16.5001C96.6825 16.7491 96.6825 16.9981 96.7448 17.1849C96.807 17.3716 96.8693 17.6206 96.9938 17.7451C97.1183 17.9319 97.2428 18.0564 97.3673 18.1186C97.4918 18.1809 97.7408 18.2431 97.9898 18.2431C98.8613 18.2431 99.297 17.6206 99.297 16.3756C99.297 16.1266 99.297 15.8776 99.2348 15.6909C99.1725 15.5041 99.1103 15.2551 98.9858 15.1306C98.8613 14.9439 98.7368 14.8194 98.6123 14.7571C98.4255 14.6326 98.2388 14.6326 97.9898 14.6326C97.1183 14.6326 96.6825 15.2551 96.6825 16.5001Z" fill="#686869"/>
<path d="M104.09 14.7571H102.035V18.8656H101.288V14.0724H104.09V14.7571Z" fill="#686869"/>
<path d="M104.401 16.5001C104.401 15.6909 104.588 15.0684 104.962 14.6326C105.335 14.1969 105.833 14.0101 106.518 14.0101C106.891 14.0101 107.203 14.0724 107.452 14.1969C107.701 14.3214 107.95 14.5081 108.136 14.6949C108.323 14.9439 108.448 15.1929 108.51 15.5041C108.572 15.8154 108.634 16.1266 108.634 16.5624C108.634 17.3716 108.448 17.9941 108.074 18.4299C107.701 18.8656 107.203 19.0524 106.518 19.0524C106.144 19.0524 105.833 18.9901 105.584 18.8656C105.335 18.7411 105.086 18.5544 104.899 18.3676C104.713 18.1186 104.588 17.8696 104.526 17.5584C104.464 17.2471 104.401 16.8736 104.401 16.5001ZM105.211 16.5001C105.211 16.7491 105.211 16.9981 105.273 17.1849C105.335 17.4339 105.397 17.6206 105.522 17.7451C105.646 17.9319 105.771 18.0564 105.895 18.1186C106.082 18.2431 106.269 18.2431 106.518 18.2431C107.389 18.2431 107.825 17.6206 107.825 16.3756C107.825 16.1266 107.825 15.8776 107.763 15.6909C107.701 15.4419 107.638 15.2551 107.514 15.1306C107.389 14.9439 107.265 14.8194 107.14 14.7571C106.954 14.6326 106.767 14.6326 106.518 14.6326C105.646 14.6326 105.211 15.2551 105.211 16.5001Z" fill="#686869"/>
<path d="M112.806 14.9439C112.993 14.6327 113.242 14.4459 113.491 14.3214C113.74 14.1969 114.051 14.1347 114.424 14.1347C114.985 14.1347 115.483 14.3214 115.794 14.6949C116.105 15.0684 116.292 15.6287 116.292 16.3757C116.292 17.2471 116.105 17.8696 115.732 18.3054C115.358 18.7411 114.86 18.9901 114.175 18.9901C113.491 18.9901 112.93 18.7411 112.619 18.2431C112.246 17.7451 112.121 16.9981 112.121 15.9399C112.121 15.3797 112.121 14.9439 112.183 14.5082C112.246 14.1347 112.308 13.7612 112.432 13.5122C112.557 13.2632 112.681 13.0142 112.806 12.8897C112.93 12.7029 113.117 12.5784 113.304 12.5162C113.491 12.4539 113.677 12.3294 113.926 12.3294C114.175 12.3294 114.362 12.2672 114.673 12.2049C114.985 12.1427 115.296 12.1427 115.483 12.0804C115.669 12.0182 115.794 11.9559 115.918 11.8314L115.981 12.5162C115.918 12.5784 115.856 12.6407 115.794 12.6407C115.732 12.7029 115.607 12.7029 115.545 12.7652C115.483 12.8274 115.296 12.8274 115.171 12.8274C115.047 12.8274 114.86 12.8897 114.673 12.8897C114.424 12.8897 114.175 12.9519 113.926 13.0142C113.74 13.0764 113.553 13.1387 113.366 13.2632C113.179 13.3877 113.117 13.5744 112.993 13.8234C112.868 14.0724 112.806 14.5704 112.806 14.9439ZM112.93 16.5002C112.93 16.7491 112.93 16.9981 112.993 17.1849C113.055 17.4339 113.117 17.6206 113.242 17.7451C113.366 17.9319 113.491 18.0564 113.677 18.1186C113.864 18.1809 114.051 18.2431 114.238 18.2431C114.673 18.2431 114.985 18.0564 115.234 17.7451C115.42 17.4339 115.545 16.9359 115.545 16.3134C115.545 16.0644 115.545 15.8154 115.483 15.6287C115.42 15.4419 115.358 15.2552 115.296 15.0684C115.171 14.9439 115.109 14.8194 114.922 14.6949C114.798 14.6327 114.611 14.5704 114.424 14.5704C113.926 14.5704 113.553 14.6949 113.304 15.0062C113.055 15.5042 112.93 15.9399 112.93 16.5002Z" fill="#686869"/>
<path d="M120.523 16.0644V15.4419L120.15 16.0644L117.971 18.8656H117.535V14.0724H118.282V16.9981V17.5584H118.345L118.718 16.9359L120.897 14.0101H121.333V18.8034H120.586V16.0644H120.523Z" fill="#686869"/>
<path d="M123.2 16.7491V16.1266H123.885C124.01 16.1266 124.134 16.1266 124.196 16.0644C124.259 16.0021 124.383 16.0021 124.508 15.8776C124.57 15.8154 124.694 15.7531 124.694 15.6286C124.757 15.5664 124.757 15.4419 124.757 15.3174C124.757 15.0684 124.694 14.8816 124.508 14.8194C124.321 14.7571 124.072 14.6949 123.761 14.6949C123.512 14.6949 123.263 14.7571 123.076 14.8194C122.889 14.8816 122.702 14.9439 122.578 15.0061L122.329 14.4459C122.516 14.3214 122.765 14.2591 123.014 14.1346C123.263 14.0101 123.574 14.0101 123.947 14.0101C125.006 14.0101 125.566 14.3836 125.566 15.1929C125.566 15.4419 125.504 15.6286 125.379 15.8776C125.255 16.0644 125.006 16.2511 124.757 16.3134V16.3756C125.13 16.4379 125.379 16.5624 125.566 16.7491C125.753 16.9359 125.815 17.1849 125.815 17.5584C125.815 17.7451 125.753 17.9319 125.69 18.1186C125.628 18.3054 125.504 18.4299 125.317 18.5544C125.13 18.6789 124.943 18.8034 124.694 18.8656C124.445 18.9279 124.134 18.9901 123.823 18.9901C123.512 18.9901 123.2 18.9901 123.014 18.9279C122.827 18.8656 122.578 18.8034 122.453 18.7411L122.702 18.1186C122.827 18.1809 123.014 18.2431 123.263 18.3054C123.449 18.3676 123.698 18.3676 123.947 18.3676C124.321 18.3676 124.632 18.3054 124.819 18.1809C125.006 18.0564 125.13 17.8696 125.13 17.5584C125.13 17.3094 125.006 17.1226 124.819 16.9981C124.632 16.8736 124.321 16.8114 123.885 16.8114H123.2V16.7491Z" fill="#686869"/>
<path d="M129.924 16.7491H127.745V18.8656H126.998V14.0724H127.745V16.0644H129.924V14.0724H130.671V18.8656H129.924V16.7491Z" fill="#686869"/>
<path d="M135.651 18.4922C135.464 18.6167 135.215 18.7412 134.904 18.8657C134.592 18.928 134.281 18.9902 133.97 18.9902C133.596 18.9902 133.285 18.928 133.036 18.8035C132.787 18.679 132.538 18.4922 132.351 18.3055C132.165 18.0565 132.04 17.8075 131.978 17.4962C131.916 17.185 131.853 16.8737 131.853 16.438C131.853 15.6287 132.04 15.0062 132.414 14.5705C132.787 14.1347 133.285 13.948 133.97 13.948C134.157 13.948 134.406 13.948 134.592 14.0102C134.779 14.0725 135.028 14.1347 135.153 14.2592C135.339 14.3837 135.464 14.5705 135.588 14.8195C135.713 15.0685 135.775 15.3797 135.775 15.8155C135.775 16.0022 135.775 16.2512 135.713 16.5002H132.663C132.663 16.8115 132.663 17.0605 132.725 17.2472C132.787 17.434 132.849 17.6207 132.974 17.8075C133.098 17.932 133.223 18.0565 133.472 18.181C133.659 18.2432 133.908 18.3055 134.157 18.3055C134.343 18.3055 134.592 18.2432 134.779 18.181C134.966 18.1187 135.153 17.9942 135.277 17.932L135.651 18.4922ZM134.032 14.6327C133.659 14.6327 133.347 14.7572 133.098 14.944C132.849 15.1307 132.725 15.5042 132.663 15.94H135.028C135.028 15.442 134.966 15.1307 134.779 14.944C134.592 14.7572 134.343 14.6327 134.032 14.6327Z" fill="#686869"/>
<path d="M140.194 18.5545C140.007 18.679 139.758 18.8035 139.509 18.8657C139.26 18.928 138.949 18.9902 138.7 18.9902C138.327 18.9902 138.015 18.928 137.766 18.8035C137.517 18.679 137.331 18.4922 137.144 18.3055C136.957 18.0565 136.833 17.8075 136.77 17.4962C136.708 17.185 136.646 16.8737 136.646 16.438C136.646 15.6287 136.833 15.0062 137.206 14.5705C137.58 14.1347 138.078 13.948 138.762 13.948C139.074 13.948 139.323 13.948 139.572 14.0102C139.821 14.0725 140.007 14.1347 140.132 14.197L139.883 14.8817C139.758 14.8195 139.572 14.7572 139.385 14.695C139.198 14.6327 139.011 14.6327 138.825 14.6327C137.891 14.6327 137.455 15.2552 137.455 16.5002C137.455 16.7492 137.455 16.9982 137.517 17.185C137.58 17.3717 137.642 17.6207 137.766 17.7452C137.891 17.8697 138.015 18.0565 138.202 18.181C138.389 18.3055 138.638 18.3055 138.887 18.3055C139.136 18.3055 139.323 18.2432 139.509 18.181C139.696 18.1187 139.821 18.0565 139.945 17.932L140.194 18.5545Z" fill="#686869"/>
<path d="M141.19 14.446C141.439 14.3215 141.688 14.197 142.062 14.1348C142.373 14.0725 142.747 14.0103 143.058 14.0103C143.369 14.0103 143.68 14.0725 143.867 14.1348C144.054 14.197 144.241 14.3215 144.303 14.5083C144.427 14.6328 144.49 14.8195 144.49 15.0062C144.49 15.193 144.552 15.3797 144.552 15.5042C144.552 15.8777 144.552 16.2512 144.552 16.6247C144.552 16.9982 144.552 17.3095 144.552 17.683C144.552 17.932 144.552 18.1187 144.552 18.3677C144.552 18.5545 144.614 18.8035 144.676 18.928H144.116L143.929 18.2432H143.867C143.805 18.3055 143.743 18.43 143.68 18.4922C143.618 18.5545 143.494 18.679 143.369 18.7412C143.245 18.8035 143.12 18.8657 142.933 18.928C142.747 18.9902 142.622 18.9902 142.373 18.9902C142.186 18.9902 142 18.928 141.813 18.8657C141.626 18.8035 141.502 18.7412 141.377 18.6167C141.253 18.4922 141.128 18.3677 141.066 18.181C141.004 17.9942 140.941 17.8075 140.941 17.6207C140.941 17.3095 141.004 17.1227 141.128 16.936C141.253 16.7492 141.377 16.6247 141.626 16.5002C141.813 16.3757 142.062 16.3135 142.373 16.2512C142.684 16.189 142.996 16.189 143.307 16.189C143.369 16.189 143.494 16.189 143.556 16.189C143.618 16.189 143.743 16.189 143.805 16.189C143.805 16.0022 143.805 15.8155 143.805 15.691C143.805 15.3175 143.743 15.0685 143.618 14.944C143.494 14.8195 143.245 14.7573 142.871 14.7573C142.747 14.7573 142.622 14.7573 142.498 14.7573C142.373 14.7573 142.249 14.8195 142.124 14.8195C142 14.8195 141.875 14.8818 141.751 14.944C141.626 15.0062 141.502 15.0063 141.439 15.0685L141.19 14.446ZM142.498 18.3055C142.684 18.3055 142.809 18.3055 142.996 18.2432C143.182 18.181 143.245 18.1187 143.369 18.0565C143.494 17.9942 143.556 17.932 143.618 17.8075C143.68 17.7452 143.743 17.6207 143.743 17.5585V16.7492C143.68 16.7492 143.556 16.7492 143.494 16.7492C143.431 16.7492 143.307 16.7492 143.245 16.7492C143.058 16.7492 142.871 16.7492 142.684 16.8115C142.498 16.8115 142.311 16.8737 142.186 16.936C142.062 16.9982 141.937 17.0605 141.813 17.185C141.751 17.3095 141.688 17.434 141.688 17.5585C141.688 17.8075 141.751 17.9942 141.937 18.1187C142.062 18.2432 142.249 18.3055 142.498 18.3055Z" fill="#686869"/>
</svg>
