<svg width="163" height="40" viewBox="0 0 163 40" fill="none" xmlns="http://www.w3.org/2000/svg">
<g clip-path="url(#clip0)">
<path fill-rule="evenodd" clip-rule="evenodd" d="M28.9584 0.756958L19.4184 10.297L14.4476 15.267L19.0803 19.8996L28.6203 10.3596L38.1604 19.8996L33.5903 24.4689L38.4984 29.377L48.0385 19.837L28.9584 0.756958Z" fill="#2C4295"/>
<path fill-rule="evenodd" clip-rule="evenodd" d="M28.9582 19.837L19.4181 29.377L9.8781 19.837L14.4474 15.267L9.54003 10.3596L0 19.8996L19.0801 38.9789L28.6201 29.4389L33.5901 24.4682L28.9582 19.8363V19.837Z" fill="#2C4295"/>
<path fill-rule="evenodd" clip-rule="evenodd" d="M19.0803 19.8996L14.4476 15.267L9.87834 19.837L19.4184 29.377L28.9584 19.837L33.5903 24.4689L38.1604 19.8996L28.6203 10.3596L19.0803 19.8996Z" fill="#0083CA"/>
<path fill-rule="evenodd" clip-rule="evenodd" d="M56.4885 21.8836C57.0205 21.8836 57.459 21.8081 57.791 21.6459C58.4355 21.3516 58.7298 20.7252 58.7298 19.88C58.7298 19.1797 58.4543 18.5594 57.8468 18.1904C57.4967 17.9904 57.0583 17.915 56.4508 17.915H55.9195V21.8843H56.4885V21.8836ZM53.4021 15.8745H56.564C57.6657 15.8745 58.5864 16.0246 59.2995 16.3876C60.6201 17.014 61.34 18.2093 61.34 19.8808C61.34 21.2957 60.7333 22.8042 58.9297 23.4992C58.2476 23.7558 57.4092 23.9181 56.3383 23.9181H55.9127V27.981H53.396V15.8745H53.4028H53.4021ZM69.441 23.0042L68.7263 20.9637C68.432 20.0808 68.2887 19.5676 68.1755 19.1601H68.1377C68.0442 19.5865 67.863 20.0996 67.531 20.9826L66.799 23.005H69.4402L69.441 23.0042ZM67.0933 15.8179H69.1338L74.0789 27.981H71.3743L70.1971 25.0198H66.0851L64.9645 27.981H62.3731L67.0933 15.8179ZM79.0308 21.3704C79.5817 21.3704 79.9318 21.2769 80.245 21.1139C80.7204 20.8196 81.0525 20.3253 81.0525 19.6423C81.0525 18.9979 80.7582 18.447 80.2261 18.1716C79.9507 18.0025 79.6066 17.915 79.0489 17.915H78.0913V21.3712H79.0308V21.3704ZM75.5754 15.8745H79.1931C80.2759 15.8745 81.0834 16.0375 81.7286 16.331C83.1247 16.9385 83.6567 18.0969 83.6567 19.3797C83.6567 20.9569 82.6674 22.0654 81.303 22.485V22.5228C81.672 22.7227 82.204 23.3861 82.8492 24.5074L84.8143 27.981H81.9286L80.3325 25.0764C79.7251 23.9369 79.2995 23.4804 79.0119 23.4049H78.0913V27.981H75.5754V15.8745Z" fill="black"/>
<path d="M89.2275 15.8744H86.7115V27.9809H89.2275V15.8744Z" fill="black"/>
<path fill-rule="evenodd" clip-rule="evenodd" d="M94.3914 18.0092H90.8612V15.8744H100.745L100.081 18.0092H96.9081V27.9809H94.3914V18.0092ZM102.16 15.8744H109.159L108.495 18.0092H104.676V20.8014H108.514V22.9106H104.676V25.8529H109.14V27.9809H102.16V15.8744ZM113.935 18.0092H110.411V15.8744H120.288L119.631 18.0092H116.451V27.9809H113.935V18.0092ZM125.033 26.8414C126.667 26.8414 127.75 26.197 127.75 24.5821C127.75 23.2237 126.742 22.3597 125.196 22.3597H123.23V26.8422H125.033V26.8414ZM124.552 21.2202C126.167 21.2202 127.03 20.4316 127.03 19.0854C127.03 17.8779 126.329 17.0071 124.601 17.0071H123.224V21.2142H124.552V21.2202ZM121.872 15.8744H124.683C127.256 15.8744 128.395 17.2893 128.395 18.942C128.395 20.175 127.788 21.1455 126.799 21.5711V21.6088C128.157 21.9031 129.153 23.023 129.153 24.5504C129.153 26.5909 127.719 27.987 125.033 27.987H121.872V15.8744ZM137.284 23.5928L136.032 20.0996C135.644 19.0355 135.462 18.4658 135.312 18.0092H135.274C135.124 18.4726 134.924 19.0355 134.542 20.0996L133.271 23.5928H137.284ZM134.824 15.8367H135.762L140.395 27.9809H138.924L137.728 24.7322H132.858L131.663 27.9809H130.229L134.824 15.8367ZM150.949 27.9809L145.146 20.3003C144.56 19.5343 143.99 18.7559 143.437 17.9655H143.4C143.437 18.5722 143.456 19.0854 143.456 20.0369V27.9749H142.098V15.8744H143.4L148.984 23.2607C149.586 24.0645 150.174 24.8784 150.749 25.7019H150.786C150.749 25.0575 150.749 24.5255 150.749 23.5739V15.8744H152.088V27.9809H150.949ZM155.068 15.8744H156.426V21.4209H156.464L161.058 15.8744H162.674L157.641 21.8647L162.999 27.9809H161.297L156.464 22.4533H156.426V27.9809H155.068V15.8744Z" fill="black"/>
</g>
<defs>
<clipPath id="clip0">
<rect width="163" height="38.4861" fill="white" transform="translate(0 0.756958)"/>
</clipPath>
</defs>
</svg>
