<svg width="175" height="40" viewBox="0 0 175 40" fill="none" xmlns="http://www.w3.org/2000/svg">
<path fill-rule="evenodd" clip-rule="evenodd" d="M34.9584 1L25.4184 10.54L20.4476 15.51L25.0803 20.1427L34.6203 10.6027L44.1604 20.1427L39.5903 24.712L44.4984 29.6201L54.0385 20.0801L34.9584 1Z" fill="#2C4295"/>
<path fill-rule="evenodd" clip-rule="evenodd" d="M34.9582 20.0801L25.4181 29.6201L15.8781 20.0801L20.4474 15.51L15.54 10.6027L6 20.1427L25.0801 39.222L34.6201 29.682L39.5901 24.7112L34.9582 20.0793V20.0801Z" fill="#2C4295"/>
<path fill-rule="evenodd" clip-rule="evenodd" d="M25.0803 20.1427L20.4476 15.51L15.8783 20.0801L25.4184 29.6201L34.9584 20.0801L39.5903 24.712L44.1604 20.1427L34.6203 10.6027L25.0803 20.1427Z" fill="#0083CA"/>
<path fill-rule="evenodd" clip-rule="evenodd" d="M62.4885 22.1266C63.0205 22.1266 63.459 22.0512 63.791 21.8889C64.4355 21.5946 64.7298 20.9683 64.7298 20.1231C64.7298 19.4228 64.4543 18.8025 63.8468 18.4335C63.4967 18.2335 63.0583 18.158 62.4508 18.158H61.9195V22.1274H62.4885V22.1266ZM59.4021 16.1175H62.564C63.6657 16.1175 64.5864 16.2677 65.2995 16.6307C66.6201 17.257 67.34 18.4523 67.34 20.1238C67.34 21.5388 66.7333 23.0473 64.9297 23.7423C64.2476 23.9989 63.4092 24.1611 62.3383 24.1611H61.9127V28.224H59.396V16.1175H59.4028H59.4021ZM75.441 23.2473L74.7263 21.2067C74.432 20.3238 74.2887 19.8107 74.1755 19.4032H74.1377C74.0442 19.8295 73.863 20.3427 73.531 21.2256L72.799 23.248H75.4402L75.441 23.2473ZM73.0933 16.0609H75.1338L80.0789 28.224H77.3743L76.1971 25.2629H72.0851L70.9645 28.224H68.3731L73.0933 16.0609ZM85.0308 21.6135C85.5817 21.6135 85.9318 21.5199 86.245 21.3569C86.7204 21.0626 87.0525 20.5683 87.0525 19.8854C87.0525 19.2409 86.7582 18.69 86.2261 18.4146C85.9507 18.2456 85.6066 18.158 85.0489 18.158H84.0913V21.6142H85.0308V21.6135ZM81.5754 16.1175H85.1931C86.2759 16.1175 87.0834 16.2805 87.7286 16.5741C89.1247 17.1815 89.6567 18.3399 89.6567 19.6228C89.6567 21.1999 88.6674 22.3085 87.303 22.7281V22.7658C87.672 22.9658 88.204 23.6291 88.8492 24.7505L90.8143 28.224H87.9286L86.3325 25.3195C85.7251 24.18 85.2995 23.7234 85.0119 23.648H84.0913V28.224H81.5754V16.1175Z" fill="black"/>
<path d="M95.2275 16.1174H92.7115V28.224H95.2275V16.1174Z" fill="black"/>
<path fill-rule="evenodd" clip-rule="evenodd" d="M100.391 18.2523H96.8612V16.1174H106.745L106.081 18.2523H102.908V28.224H100.391V18.2523ZM108.16 16.1174H115.159L114.495 18.2523H110.676V21.0444H114.514V23.1536H110.676V26.0959H115.14V28.224H108.16V16.1174ZM119.935 18.2523H116.411V16.1174H126.288L125.631 18.2523H122.451V28.224H119.935V18.2523ZM131.033 27.0845C132.667 27.0845 133.75 26.44 133.75 24.8251C133.75 23.4668 132.742 22.6027 131.196 22.6027H129.23V27.0852H131.033V27.0845ZM130.552 21.4632C132.167 21.4632 133.03 20.6747 133.03 19.3284C133.03 18.121 132.329 17.2501 130.601 17.2501H129.224V21.4572H130.552V21.4632ZM127.872 16.1174H130.683C133.256 16.1174 134.395 17.5324 134.395 19.185C134.395 20.4181 133.788 21.3885 132.799 21.8141V21.8519C134.157 22.1462 135.153 23.2661 135.153 24.7934C135.153 26.8339 133.719 28.23 131.033 28.23H127.872V16.1174ZM143.284 23.8358L142.032 20.3426C141.644 19.2786 141.462 18.7088 141.312 18.2523H141.274C141.124 18.7156 140.924 19.2786 140.542 20.3426L139.271 23.8358H143.284ZM140.824 16.0797H141.762L146.395 28.224H144.924L143.728 24.9753H138.858L137.663 28.224H136.229L140.824 16.0797ZM156.949 28.224L151.146 20.5433C150.56 19.7774 149.99 18.9989 149.437 18.2085H149.4C149.437 18.8152 149.456 19.3284 149.456 20.28V28.2179H148.098V16.1174H149.4L154.984 23.5038C155.586 24.3076 156.174 25.1214 156.749 25.945H156.786C156.749 25.3005 156.749 24.7685 156.749 23.8169V16.1174H158.088V28.224H156.949ZM161.068 16.1174H162.426V21.664H162.464L167.058 16.1174H168.674L163.641 22.1077L168.999 28.224H167.297L162.464 22.6963H162.426V28.224H161.068V16.1174Z" fill="black"/>
</svg>
