<svg width="165" height="40" viewBox="0 0 165 40" fill="none" xmlns="http://www.w3.org/2000/svg">
<path d="M52.6698 8.29614H63.0098V10.6174H55.4624V13.8286H59.1977C60.2298 13.8286 61.0854 13.9543 61.7643 14.2059C62.4433 14.4574 63.0236 14.923 63.5053 15.6028C63.9933 16.2999 64.2479 17.1339 64.2324 17.9848C64.2324 18.9221 63.9904 19.7249 63.5064 20.3932C63.0224 21.0614 62.4704 21.5175 61.8503 21.7614C61.231 22.0053 60.3487 22.1276 59.2034 22.1284H52.6698V8.29614ZM55.4624 19.806H58.1793C59.0478 19.806 59.6595 19.7635 60.0142 19.6787C60.374 19.5878 60.6954 19.3845 60.9317 19.0984C61.1953 18.7883 61.3346 18.3916 61.3228 17.9848C61.3228 17.3433 61.0934 16.8765 60.6347 16.5845C60.1759 16.2924 59.3976 16.146 58.2997 16.1452H55.4624V19.806Z" fill="black"/>
<path d="M68.4619 15.1648L66.0535 14.7301C66.3242 13.7622 66.7894 13.0454 67.4492 12.5798C68.1091 12.1142 69.0904 11.8813 70.3932 11.8813C71.576 11.8813 72.4553 12.0213 73.031 12.3011C73.6067 12.5809 74.0138 12.9361 74.2524 13.3665C74.4886 13.7977 74.6068 14.5887 74.6068 15.7394L74.5781 18.8359C74.5781 19.7167 74.6205 20.3665 74.7054 20.7855C74.8072 21.2519 74.9675 21.7035 75.1825 22.1296H72.5665C72.4966 21.9542 72.4117 21.6927 72.3119 21.3475C72.2672 21.1904 72.2362 21.086 72.2167 21.0355C71.7993 21.4512 71.3086 21.786 70.7694 22.023C70.2471 22.2444 69.6852 22.3568 69.1179 22.3533C68.0865 22.3533 67.2738 22.0734 66.6797 21.5138C66.3884 21.2439 66.1581 20.9149 66.0042 20.5488C65.8503 20.1827 65.7764 19.7879 65.7875 19.391C65.7773 18.8588 65.9163 18.3343 66.1889 17.8771C66.46 17.4338 66.8551 17.0797 67.3254 16.8587C67.8132 16.6224 68.5162 16.4164 69.4345 16.2405C70.6731 16.0112 71.5313 15.7944 72.0091 15.5903V15.3242C72.0091 14.815 71.8834 14.4518 71.6318 14.2347C71.3803 14.0176 70.9055 13.909 70.2074 13.909C69.7357 13.909 69.3679 14.0019 69.1042 14.1877C68.8404 14.3735 68.6263 14.6992 68.4619 15.1648ZM72.0091 17.3151C71.4788 17.4776 70.9407 17.6131 70.3967 17.7211C69.6604 17.8786 69.1791 18.0315 68.9528 18.1799C68.7946 18.2791 68.6642 18.4168 68.5735 18.58C68.4829 18.7432 68.435 18.9267 68.4344 19.1134C68.4327 19.2939 68.4688 19.4727 68.5403 19.6384C68.6118 19.8041 68.7171 19.953 68.8496 20.0756C68.9893 20.2108 69.1549 20.3164 69.3364 20.3861C69.5178 20.4559 69.7115 20.4884 69.9058 20.4816C70.4008 20.4762 70.8808 20.3109 71.274 20.0103C71.5761 19.7959 71.7983 19.4873 71.9059 19.1329C71.9747 18.9035 72.0091 18.4727 72.0091 17.8404V17.3151Z" fill="black"/>
<path d="M75.9715 12.1071H78.7973L81.1931 19.2175L83.5327 12.1071H86.2783L82.7402 21.7487L82.1037 23.4965C81.9297 23.9651 81.7067 24.4141 81.4386 24.836C81.2445 25.1283 80.9984 25.3825 80.7126 25.586C80.4049 25.7932 80.0633 25.9449 79.7034 26.0344C79.2608 26.1465 78.8055 26.2005 78.3489 26.195C77.8446 26.1953 77.3417 26.1415 76.8488 26.0344L76.6183 23.9552C76.9878 24.032 77.3638 24.0731 77.7411 24.0779C78.3573 24.0779 78.813 23.8971 79.1081 23.5355C79.4272 23.1284 79.6587 22.6599 79.7882 22.1592L75.9715 12.1071Z" fill="black"/>
<path d="M100.463 22.1261H97.4246L96.217 18.9848H90.6891L89.5423 22.1261H86.5857L91.9759 8.29614H94.929L100.463 22.1261ZM95.3213 16.6544L93.4152 11.5222L91.5481 16.6544H95.3213Z" fill="black"/>
<path d="M101.849 12.107H104.322V13.5796C104.648 13.07 105.095 12.6485 105.623 12.3525C106.178 12.0362 106.807 11.8735 107.445 11.8811C108.608 11.8811 109.595 12.3372 110.406 13.2493C111.217 14.1614 111.623 15.4318 111.624 17.0603C111.624 18.7332 111.215 20.0329 110.397 20.9596C109.579 21.8863 108.588 22.3496 107.425 22.3496C106.905 22.357 106.39 22.244 105.921 22.0193C105.471 21.7991 104.998 21.4218 104.501 20.8874V25.9335H101.849V12.107ZM104.472 16.9468C104.472 18.073 104.695 18.9048 105.142 19.4423C105.588 19.9798 106.132 20.2474 106.774 20.2451C107.07 20.2491 107.363 20.1844 107.63 20.056C107.897 19.9277 108.13 19.7392 108.312 19.5054C108.721 19.0107 108.925 18.2007 108.925 17.0752C108.925 16.0255 108.715 15.2456 108.293 14.7356C108.108 14.497 107.871 14.3044 107.599 14.1729C107.327 14.0414 107.029 13.9746 106.727 13.9776C106.419 13.9722 106.113 14.0369 105.834 14.1668C105.555 14.2968 105.309 14.4885 105.114 14.7276C104.687 15.2261 104.473 15.9658 104.472 16.9468Z" fill="black"/>
<path d="M119.529 18.9378L122.167 19.3816C121.827 20.3495 121.292 21.087 120.561 21.5939C119.83 22.1008 118.913 22.3539 117.809 22.3531C116.066 22.3531 114.777 21.7839 113.94 20.6454C113.28 19.7341 112.95 18.583 112.951 17.1923C112.951 15.5316 113.385 14.2318 114.252 13.293C115.12 12.3541 116.218 11.8839 117.545 11.8823C119.035 11.8823 120.211 12.3743 121.073 13.3583C121.934 14.3423 122.348 15.8485 122.313 17.8769H115.671C115.689 18.6621 115.903 19.2738 116.312 19.7119C116.505 19.924 116.742 20.0923 117.006 20.2052C117.269 20.3182 117.554 20.3733 117.841 20.3668C118.219 20.3778 118.59 20.2561 118.888 20.0227C119.17 19.8025 119.384 19.4409 119.529 18.9378ZM119.681 16.2587C119.661 15.4942 119.462 14.9108 119.085 14.5086C118.904 14.3164 118.685 14.1639 118.442 14.0606C118.199 13.9574 117.937 13.9057 117.673 13.9088C117.408 13.912 117.148 13.9698 116.907 14.0788C116.666 14.1878 116.451 14.3454 116.274 14.5419C115.897 14.9632 115.712 15.5366 115.718 16.2622L119.681 16.2587Z" fill="black"/>
<path d="M124.369 12.1071H127.02V15.777H130.812V12.1071H133.472V22.126H130.812V17.9193H127.02V22.126H124.369V12.1071Z" fill="black"/>
<path d="M144.426 22.126H136.841V24.7638H134.689V19.947H135.774C136.228 19.4446 136.602 18.6587 136.897 17.589C137.192 16.5194 137.368 14.689 137.426 12.0979H145.511V19.947H146.586V24.7638H144.426V22.126ZM142.888 19.9561L142.897 14.2872H139.686C139.579 17.0542 139.139 18.9439 138.365 19.9561H142.888Z" fill="black"/>
<path d="M150.387 15.1648L147.979 14.7301C148.25 13.7622 148.715 13.0454 149.375 12.5798C150.035 12.1142 151.016 11.8813 152.319 11.8813C153.501 11.8813 154.381 12.0213 154.956 12.3011C155.532 12.5809 155.939 12.9361 156.178 13.3665C156.414 13.7977 156.532 14.5887 156.532 15.7394L156.504 18.8359C156.504 19.7167 156.546 20.3665 156.631 20.7855C156.733 21.2519 156.893 21.7035 157.108 22.1296H154.49C154.42 21.9542 154.335 21.6927 154.235 21.3475C154.19 21.1904 154.159 21.086 154.14 21.0355C153.721 21.4529 153.229 21.7889 152.688 22.0264C152.166 22.2479 151.604 22.3602 151.037 22.3567C150.006 22.3567 149.193 22.0769 148.598 21.5172C148.307 21.2473 148.077 20.9183 147.923 20.5522C147.769 20.1861 147.695 19.7914 147.706 19.3944C147.697 18.8614 147.838 18.3365 148.112 17.8794C148.383 17.4361 148.778 17.082 149.249 16.861C149.736 16.6247 150.439 16.4187 151.358 16.2428C152.596 16.0135 153.454 15.7967 153.932 15.5926V15.3242C153.932 14.815 153.807 14.4518 153.555 14.2347C153.303 14.0176 152.829 13.909 152.131 13.909C151.659 13.909 151.291 14.0019 151.027 14.1877C150.764 14.3735 150.55 14.6992 150.387 15.1648ZM153.935 17.3151C153.404 17.4776 152.866 17.6131 152.322 17.7211C151.586 17.8786 151.105 18.0315 150.878 18.1799C150.72 18.2791 150.59 18.4168 150.499 18.58C150.408 18.7432 150.361 18.9267 150.36 19.1134C150.358 19.2939 150.394 19.4727 150.466 19.6384C150.537 19.8041 150.643 19.953 150.775 20.0756C150.915 20.2108 151.08 20.3164 151.262 20.3861C151.443 20.4559 151.637 20.4884 151.831 20.4816C152.326 20.4762 152.806 20.3109 153.199 20.0103C153.502 19.7962 153.724 19.4875 153.831 19.1329C153.9 18.9035 153.935 18.4727 153.935 17.8404V17.3151Z" fill="black"/>
<path d="M41.8138 11.7495C42.5684 13.8678 42.5019 15.6305 42.4537 17.0721C42.37 19.2106 41.9253 21.3196 41.1383 23.3098C39.9364 26.4235 37.9328 29.3297 37.4867 29.1244C36.9947 28.895 39.1806 25.2675 39.3641 19.3956C39.4788 15.7326 38.7574 13.2496 38.1966 11.8184C37.6931 10.5029 37.0635 8.89961 35.5611 7.41214C34.0151 5.8788 32.5506 5.45446 32.6538 5.18037C32.8018 4.79158 35.8123 4.951 38.2505 6.6793C40.6004 8.32733 41.4468 10.7197 41.8138 11.7495Z" fill="#FDB400"/>
<path d="M20.2162 30.6461C19.1611 28.4946 19.0601 26.5931 18.9684 24.9875C18.8791 23.2192 19.037 21.4471 19.4374 19.7223C19.8276 18.0229 20.4558 16.387 21.3034 14.8631C22.4135 12.8825 23.9469 11.0407 24.1992 11.1932C24.3815 11.3079 23.8093 12.34 23.2255 14.0087C22.3903 16.4584 21.92 19.0177 21.8298 21.6043C21.7724 23.7673 21.7266 25.5036 22.5179 27.6471C23.6395 30.6691 25.7107 32.5786 26.4172 33.1761C28.2029 34.698 29.5068 34.995 29.399 35.3551C29.2281 35.9389 25.5307 36.0868 22.8528 34.0936C21.3722 32.9811 20.6738 31.5843 20.2162 30.6461Z" fill="#FDB400"/>
<path d="M15.763 21.352C15.9121 20.0251 16.3364 16.5111 18.9225 13.043C20.9938 10.2504 23.3953 8.91434 24.6912 8.20214C25.5835 7.709 26.6133 7.2514 26.7051 7.41196C26.8427 7.62986 24.9539 8.78819 23.1005 10.9603C22.2633 11.9652 21.5269 13.05 20.902 14.199C20.902 14.199 20.5018 14.9089 20.1703 15.6188C19.3457 17.3804 18.4879 20.1627 18.2929 22.7603C17.8468 28.5175 20.6394 32.5086 19.9868 32.8434C19.4719 33.1072 17.3491 30.6805 16.3169 27.7732C15.3765 25.1297 15.6058 22.8521 15.763 21.352Z" fill="#FDB400"/>
<path d="M45.6661 15.4148C46.4345 20.9541 43.4641 25.3121 42.4778 26.7457C39.3813 31.2758 35.0118 33.4892 34.8283 33.2713C34.6678 33.0878 37.4661 31.2184 40.0236 27.2389C40.8722 25.92 42.7187 23.0414 43.338 19.3829C44.439 12.7885 40.8264 7.67354 41.3998 7.40976C41.4915 7.36389 41.7209 7.36389 42.4778 8.22403C45.15 11.2173 45.5973 14.8528 45.6661 15.4148Z" fill="#FDB400"/>
<path d="M44.8174 29.6816C39.6566 37.0674 28.9908 37.3312 28.8303 36.8495C28.6812 36.4251 36.7894 35.5879 42.0764 28.9476C46.8703 22.9267 46.4115 15.8506 46.985 15.9309C47.5813 16.0226 48.9576 23.7524 44.8174 29.6816Z" fill="#FDB400"/>
<path d="M16.8283 10.9031C19.2424 7.4235 22.4938 5.99222 23.7748 5.45435C28.3874 3.48635 32.9233 4.01275 32.9428 4.22951C32.9542 4.36598 31.0206 4.40039 28.4792 5.20204C28.2498 5.27085 23.3184 6.87301 19.9753 10.3526C14.4704 16.0765 15.4314 24.6607 14.6068 24.5919C14.0804 24.546 13.749 20.9862 14.241 17.8048C14.4589 16.3391 14.9176 13.6727 16.8283 10.9031Z" fill="#FDB400"/>
<path d="M38.208 19.5219C37.7045 19.6365 37.5783 13.5812 33.1951 10.8344C30.047 8.86529 26.4653 9.71281 26.408 8.99947C26.3621 8.40425 28.7992 7.33997 31.2145 7.68403C33.3545 7.99253 34.7514 9.29765 35.3007 9.83553C39.0016 13.4435 38.7 19.3957 38.208 19.5219Z" fill="#FDB400"/>
<path d="M23.2255 21.4096C23.2943 21.3981 23.3287 21.9589 23.7404 23.1608C24.0386 24.0428 26.0639 29.9365 30.0481 31.1269C31.125 31.4604 32.2467 31.6263 33.374 31.6189C34.1768 31.5845 34.7135 31.4365 34.7823 31.596C34.8855 31.8597 33.5575 32.8781 32.218 33.2107C29.9403 33.7601 27.4012 32.3632 25.9011 30.761C22.6417 27.2815 23.0202 21.444 23.2255 21.4096Z" fill="#FDB400"/>
<path d="M34.9694 13.7647C34.7744 14.0159 32.8741 12.0135 29.383 11.51C27.1169 11.1889 25.572 11.6924 25.5032 11.4183C25.423 11.0868 27.5297 9.81266 29.8074 10.0329C33.0117 10.3425 35.1861 13.478 34.9694 13.7647Z" fill="#FDB400"/>
<path d="M26.5903 27.0405C26.6705 26.9499 27.0719 27.2584 27.9986 27.716C27.9986 27.716 29.6042 28.5062 31.1685 28.8628C33.7558 29.4466 35.5988 28.5084 35.7559 28.9431C35.8706 29.2528 35.0128 29.9271 34.2226 30.2941C32.1169 31.2666 29.9299 30.2482 29.5205 30.0533C27.5754 29.0784 26.4194 27.2354 26.5903 27.0405Z" fill="#FDB400"/>
<path d="M30.0928 12.8596C30.1272 13.1693 27.712 13.0431 25.6751 14.932C24.3127 16.1935 23.9927 17.5411 23.7175 17.4379C23.3734 17.3129 23.3401 14.9779 24.6911 13.581C26.533 11.7036 30.047 12.4938 30.0928 12.8596Z" fill="#FDB400"/>
<path d="M31.2374 27.5898C31.2259 27.3387 33.3017 27.5669 35.2778 26.0565C36.7538 24.9349 37.1781 23.5953 37.4407 23.71C37.7504 23.8476 37.6128 25.9074 36.3191 27.0978C34.4876 28.7803 31.2604 27.9109 31.2374 27.5898Z" fill="#FDB400"/>
<path d="M54.0186 31.1543L53.4371 32.9148H52.6894L54.5989 27.3181H55.4625L57.3731 32.9148H56.6002L56.0026 31.1543H54.0186ZM55.8604 30.5901L55.3031 28.9845C55.1792 28.6186 55.0955 28.2872 55.0129 27.9626H54.9957C54.9131 28.2872 54.8306 28.6358 54.7136 28.9765L54.1654 30.5958L55.8604 30.5901Z" fill="#898989"/>
<path d="M58.1702 30.2083C58.1702 29.6933 58.1541 29.2782 58.1381 28.8951H58.7849L58.8273 29.5832H58.8422C59.1335 29.0935 59.6152 28.8114 60.2712 28.8114C61.2506 28.8114 61.9812 29.6337 61.9812 30.8459C61.9812 32.291 61.0935 33.0054 60.1462 33.0054C59.6152 33.0054 59.1496 32.7761 58.9087 32.3747H58.8915V34.5537H58.169L58.1702 30.2083ZM58.8927 31.2794C58.891 31.3802 58.9021 31.4808 58.926 31.5788C58.9871 31.8231 59.1283 32.04 59.327 32.1948C59.5257 32.3496 59.7705 32.4335 60.0223 32.4332C60.7953 32.4332 61.2437 31.8024 61.2437 30.8803C61.2437 30.0833 60.8206 29.3894 60.0476 29.3894C59.7894 29.3928 59.5399 29.4831 59.3395 29.6459C59.1391 29.8086 58.9994 30.0343 58.9432 30.2863C58.9142 30.3808 58.8972 30.4787 58.8927 30.5776V31.2794Z" fill="#898989"/>
<path d="M63.3035 31.0387C63.3196 32.0273 63.9423 32.4332 64.6798 32.4332C65.0613 32.4465 65.4411 32.3756 65.7922 32.2257L65.9253 32.7498C65.4998 32.9289 65.0415 33.0164 64.58 33.0067C63.3425 33.0067 62.6028 32.1844 62.6028 30.9721C62.6028 29.7599 63.3173 28.8126 64.4882 28.8126C65.8094 28.8126 66.1489 29.9595 66.1489 30.6981C66.1516 30.8132 66.1435 30.9284 66.1248 31.0421L63.3035 31.0387ZM65.4459 30.5157C65.4539 30.057 65.2543 29.3356 64.432 29.3356C63.6854 29.3356 63.3689 30.0088 63.3116 30.5157H65.4459Z" fill="#898989"/>
<path d="M67.7625 28.8951V30.5156H69.664V28.8951H70.3957V32.9149H69.664V31.0971H67.7625V32.9149H67.032V28.8951H67.7625Z" fill="#898989"/>
<path d="M74.7055 28.895V32.3677L75.1207 32.3757L75.0794 34.1854H74.506L74.4727 32.9147H71.687L71.6457 34.1854H71.0815L71.0482 32.3837L71.3923 32.3677C71.5648 32.1145 71.6992 31.8375 71.7914 31.5454C71.9498 31.0251 72.0271 30.4836 72.0208 29.9398V28.8927L74.7055 28.895ZM72.6618 30.1084C72.669 30.6168 72.5991 31.1233 72.4543 31.6107C72.3767 31.8707 72.271 32.1215 72.1389 32.3585H73.991V29.4524H72.6618V30.1084Z" fill="#898989"/>
<path d="M78.8158 31.9518C78.8123 32.2739 78.8319 32.5959 78.8743 32.9152H78.2241L78.1656 32.4094H78.1415C77.9986 32.5993 77.8125 32.7525 77.5988 32.8564C77.385 32.9602 77.1497 33.0118 76.9121 33.0069C76.0978 33.0069 75.6826 32.4335 75.6826 31.8532C75.6826 30.8807 76.5462 30.3497 78.0991 30.3623V30.2797C78.0991 29.9552 78.0085 29.3496 77.1816 29.3622C76.8085 29.3583 76.4423 29.4618 76.1265 29.6604L75.9602 29.1707C76.3645 28.9392 76.8235 28.8204 77.2894 28.8267C78.5188 28.8267 78.817 29.665 78.817 30.4632L78.8158 31.9518ZM78.1094 30.8646C77.3066 30.8474 76.4063 30.9885 76.4063 31.7695C76.4063 32.2512 76.7217 32.4668 77.0875 32.4668C77.3022 32.4738 77.5136 32.4125 77.6913 32.2917C77.8689 32.1709 78.0037 31.9969 78.0761 31.7947C78.098 31.7202 78.1092 31.643 78.1094 31.5653V30.8646Z" fill="#898989"/>
<path d="M84.6213 32.7738C84.2567 32.9306 83.8632 33.0087 83.4664 33.0031C82.2542 33.0031 81.4651 32.1808 81.4651 30.9514C81.4651 29.722 82.3126 28.8091 83.6246 28.8091C83.9742 28.8028 84.3206 28.8766 84.6373 29.0247L84.4722 29.5809C84.2094 29.4492 83.9184 29.3839 83.6246 29.3905C82.7072 29.3905 82.2048 30.0787 82.2048 30.9101C82.2048 31.8402 82.8023 32.4136 83.5994 32.4136C83.9089 32.4172 84.2152 32.3517 84.4962 32.2221L84.6213 32.7738Z" fill="#898989"/>
<path d="M88.3257 28.8951V29.4686H87.071V32.9149H86.3405V29.4686H85.0858V28.8951H88.3257Z" fill="#898989"/>
<path d="M88.9645 30.2083C88.9645 29.6933 88.9484 29.2782 88.9312 28.8951H89.578L89.6193 29.5832H89.6365C89.9267 29.0935 90.4084 28.8114 91.0644 28.8114C92.0449 28.8114 92.7755 29.6337 92.7755 30.8459C92.7755 32.291 91.8866 33.0054 90.9405 33.0054C90.4095 33.0054 89.945 32.7761 89.703 32.3747H89.6927V34.5537H88.9702L88.9645 30.2083ZM89.687 31.2794C89.6835 31.4299 89.7101 31.5795 89.7653 31.7195C89.8205 31.8595 89.9032 31.987 90.0085 32.0945C90.1138 32.202 90.2395 32.2874 90.3783 32.3456C90.5171 32.4037 90.6661 32.4335 90.8166 32.4332C91.5885 32.4332 92.0369 31.8024 92.0369 30.8803C92.0369 30.0833 91.6137 29.3894 90.8419 29.3894C90.5835 29.3925 90.3338 29.4828 90.1331 29.6455C89.9324 29.8083 89.7926 30.0341 89.7363 30.2863C89.7082 30.381 89.6917 30.4788 89.687 30.5776V31.2794Z" fill="#898989"/>
<path d="M97.3273 30.8724C97.3273 32.3633 96.2894 33.0067 95.326 33.0067C94.2457 33.0067 93.3993 32.2096 93.3993 30.9423C93.3993 29.6051 94.2881 28.8161 95.3925 28.8161C96.5462 28.8126 97.3273 29.651 97.3273 30.8724ZM94.147 30.9136C94.147 31.7944 94.6448 32.4585 95.3593 32.4585C96.0737 32.4585 96.5795 31.8025 96.5795 30.8976C96.5795 30.2164 96.2354 29.3608 95.3753 29.3608C94.5152 29.3608 94.147 30.1579 94.147 30.9136Z" fill="#898989"/>
<path d="M98.9213 28.8951V30.5902C98.9213 31.221 98.9052 31.6281 98.872 32.2015L98.8972 32.2095C99.1461 31.7198 99.2791 31.4366 99.5532 30.9721L100.807 28.8951H101.662V32.9149H100.965V31.2129C100.965 30.5569 100.981 30.2163 101.014 29.5603H100.998C100.732 30.0833 100.566 30.4067 100.325 30.8138C99.9431 31.4366 99.4947 32.2095 99.0715 32.9149H98.224V28.8951H98.9213Z" fill="#898989"/>
<path d="M105.541 28.8951V29.4686H104.286V32.9149H103.556V29.4686H102.301V28.8951H105.541Z" fill="#898989"/>
<path d="M106.479 31.0387C106.495 32.0273 107.119 32.4332 107.855 32.4332C108.237 32.4466 108.617 32.3757 108.968 32.2257L109.101 32.7498C108.676 32.9291 108.217 33.0167 107.756 33.0067C106.518 33.0067 105.78 32.1844 105.78 30.9721C105.78 29.7599 106.493 28.8126 107.664 28.8126C108.985 28.8126 109.326 29.9595 109.326 30.698C109.329 30.8133 109.32 30.9285 109.301 31.0421L106.479 31.0387ZM108.622 30.5157C108.631 30.057 108.431 29.3356 107.609 29.3356C106.861 29.3356 106.546 30.0088 106.487 30.5157H108.622Z" fill="#898989"/>
<path d="M113.297 28.8951V32.9149H112.567V29.4686H111.19V30.5007C111.19 31.6304 111.083 32.3862 110.558 32.7268C110.332 32.9044 110.049 32.9929 109.761 32.9756L109.687 32.4022C109.831 32.3803 109.968 32.3236 110.086 32.2371C110.459 31.963 110.501 31.3976 110.501 30.5007V28.8951H113.297Z" fill="#898989"/>
<path d="M115.191 28.8951V30.2496C115.411 30.222 115.633 30.2082 115.855 30.2083C116.761 30.2083 117.715 30.4984 117.715 31.5696C117.72 31.7448 117.684 31.9188 117.611 32.078C117.537 32.2371 117.428 32.3771 117.292 32.4871C116.851 32.861 116.129 32.9527 115.539 32.9527C115.18 32.9545 114.822 32.9373 114.465 32.9011V28.8951H115.191ZM115.183 32.3999C115.364 32.4266 115.547 32.4377 115.731 32.4332C116.27 32.4332 116.984 32.2508 116.984 31.5868C116.984 30.8884 116.254 30.7313 115.705 30.7313C115.53 30.7304 115.355 30.7469 115.183 30.7806V32.3999Z" fill="#898989"/>
<path d="M119.326 28.8951V30.5156H121.231V28.8951H121.963V32.9149H121.231V31.0971H119.326V32.9149H118.593V28.8951H119.326Z" fill="#898989"/>
<path d="M126.792 30.8724C126.792 32.3633 125.76 33.0067 124.791 33.0067C123.711 33.0067 122.864 32.2096 122.864 30.9423C122.864 29.6051 123.753 28.8161 124.858 28.8161C126.011 28.8126 126.792 29.651 126.792 30.8724ZM123.612 30.9136C123.612 31.7944 124.11 32.4585 124.824 32.4585C125.522 32.4585 126.045 31.8025 126.045 30.8976C126.045 30.2164 125.7 29.3608 124.84 29.3608C123.98 29.3608 123.612 30.1579 123.612 30.9136Z" fill="#898989"/>
<path d="M128.386 28.8952V30.5902C128.386 31.221 128.37 31.6281 128.337 32.2016L128.361 32.2096C128.611 31.7199 128.744 31.4366 129.018 30.9721L130.272 28.8952H131.127V32.9149H130.43V31.213C130.43 30.557 130.446 30.2164 130.479 29.5604H130.463C130.197 30.0833 130.031 30.4067 129.79 30.8139C129.408 31.4366 128.96 32.2096 128.536 32.9149H127.689V28.8952H128.386ZM128.86 27.2598C128.885 27.6164 129.059 27.8905 129.392 27.8905C129.749 27.8905 129.915 27.6164 129.956 27.2598H130.479C130.438 27.9318 130.021 28.2919 129.375 28.2919C128.644 28.2919 128.361 27.8263 128.329 27.2598H128.86Z" fill="#898989"/>
<path d="M136.79 28.8951V29.4686H135.537V32.9149H134.806V29.4686H133.552V28.8951H136.79Z" fill="#898989"/>
<path d="M137.73 31.0387C137.746 32.0273 138.368 32.4332 139.106 32.4332C139.487 32.4465 139.867 32.3756 140.218 32.2257L140.351 32.7498C139.926 32.9291 139.468 33.0167 139.006 33.0067C137.769 33.0067 137.029 32.1844 137.029 30.9721C137.029 29.7599 137.743 28.8126 138.914 28.8126C140.236 28.8126 140.576 29.9595 140.576 30.698C140.579 30.8133 140.57 30.9285 140.551 31.0421L137.73 31.0387ZM139.872 30.5157C139.88 30.057 139.682 29.3356 138.859 29.3356C138.112 29.3356 137.796 30.0088 137.738 30.5157H139.872Z" fill="#898989"/>
<path d="M141.791 28.8951L142.364 29.7599C142.522 29.9835 142.647 30.1831 142.779 30.4067H142.797C142.93 30.1773 143.063 29.9674 143.204 29.7507L143.76 28.8951H144.563L143.186 30.8448L144.59 32.9206H143.768L143.17 32.0157C143.012 31.7864 142.879 31.557 142.738 31.3184H142.722C142.589 31.5593 142.456 31.7772 142.298 32.0157L141.716 32.9206H140.913L142.342 30.87L140.98 28.9009L141.791 28.8951Z" fill="#898989"/>
<path d="M146.003 28.8951V30.5156H147.905V28.8951H148.636V32.9149H147.905V31.0971H146.003V32.9149H145.273V28.8951H146.003Z" fill="#898989"/>
<path d="M150.502 28.8951V30.5902C150.502 31.221 150.485 31.6281 150.452 32.2015L150.477 32.2095C150.726 31.7198 150.859 31.4366 151.133 30.9721L152.388 28.8951H153.243V32.9149H152.54V31.2129C152.54 30.5569 152.557 30.2163 152.591 29.5603H152.574C152.307 30.0833 152.142 30.4067 151.902 30.8138C151.518 31.4366 151.07 32.2095 150.647 32.9149H149.799V28.8951H150.502Z" fill="#898989"/>
<path d="M155.153 28.8951V30.6395H155.327L156.831 28.8951H157.719L155.981 30.706C156.629 30.7806 157.013 31.2129 157.334 31.9355C157.454 32.2709 157.596 32.5981 157.758 32.9149H156.994C156.85 32.6504 156.725 32.376 156.62 32.0937C156.346 31.4457 155.973 31.1464 155.3 31.1464H155.159V32.9149H154.436V28.8951H155.153Z" fill="#898989"/>
<path d="M159.077 28.8951V30.5902C159.077 31.221 159.06 31.6281 159.027 32.2015L159.052 32.2095C159.301 31.7198 159.434 31.4366 159.708 30.9721L160.963 28.8951H161.818V32.9149H161.12V31.2129C161.12 30.5569 161.137 30.2163 161.17 29.5603H161.153C160.888 30.0833 160.722 30.4067 160.481 30.8138C160.099 31.4366 159.651 32.2095 159.226 32.9149H158.389V28.8951H159.077Z" fill="#898989"/>
</svg>
