<svg width="175" height="40" viewBox="0 0 175 40" fill="none" xmlns="http://www.w3.org/2000/svg">
<path d="M110.839 19.7955C110.15 19.7955 109.59 20.3568 109.59 21.0455C109.59 21.7396 110.15 22.2982 110.839 22.2982C111.528 22.2982 112.089 21.7396 112.089 21.0455C112.089 20.3568 111.528 19.7955 110.839 19.7955ZM67.5081 20.9832C67.5081 20.9832 68.1317 18.8953 68.2271 18.569C68.4801 17.7186 68.8562 16.3801 68.8562 16.3801H68.9185C68.9185 16.3801 69.2655 17.767 69.4923 18.5565C69.5808 18.8635 70.1768 20.9832 70.1768 20.9832H67.5081ZM71.3065 24.7761H73.5631L70.1546 14.3557C69.7951 14.2341 69.3471 14.1594 68.8742 14.1594C68.3571 14.1594 68.1732 14.2271 67.768 14.3557L64.1522 24.7761H66.3148C66.3148 24.7761 66.6051 23.8635 66.9591 22.7296H70.6967C71.0341 23.8621 71.3065 24.7761 71.3065 24.7761ZM144.326 24.7761C144.326 24.7761 143.257 22.4946 142.996 21.9788C142.702 21.3939 142.429 20.9901 141.825 20.8463V20.8118C142.23 20.7357 142.552 20.491 142.898 19.7457C143.234 19.017 143.334 18.8607 143.53 18.6879C143.722 18.5136 143.985 18.58 143.985 18.58L144.083 17.2235C143.802 17.1862 143.493 17.1862 143.172 17.2028C142.644 17.236 142.366 17.3867 142.107 17.6508C141.905 17.8527 141.763 18.1528 141.591 18.5053C141.407 18.8828 141.264 19.187 141.078 19.5701C140.89 19.9628 140.799 20.1384 140.29 20.1384H139.962V17.3217H137.995V24.7761H139.962V21.7299L140.229 21.7258C140.788 21.7258 140.883 21.8654 141.182 22.4545C141.53 23.1597 142.191 24.7761 142.191 24.7761H144.326ZM136.286 24.7761V17.3217H134.326V20.1398H132.107V17.3217H130.152V24.7761H132.107V21.7327H134.326V24.7761H136.286ZM82.4445 17.254L82.4362 24.3834C83.3654 24.7761 84.3858 24.9531 85.2915 24.9531C87.3726 24.9531 88.4857 23.8773 88.4857 22.1046C88.4857 20.5006 87.4998 19.5078 85.658 19.5078C85.1906 19.5078 84.9168 19.5701 84.4024 19.6945V17.254H82.4445ZM86.4599 22.1959C86.4599 22.9315 86.2014 23.4348 85.2597 23.4348C84.9431 23.4348 84.8131 23.4348 84.401 23.3201V21.1699C84.9113 21.0703 84.9569 21.0537 85.2597 21.0537C86.1585 21.0537 86.4599 21.4907 86.4599 22.1959ZM129.124 24.0612C128.606 23.2744 128.472 22.8098 128.472 21.8212V19.8134C128.472 18.728 128.347 18.3311 128.06 17.9329C127.662 17.3743 126.999 17.1337 125.777 17.1337C124.913 17.1337 124.066 17.2277 123.258 17.4337L123.548 18.8718C124.095 18.7943 124.673 18.728 125.087 18.728C126.383 18.728 126.532 18.9174 126.532 19.8895V20.2531C126.244 20.1757 125.921 20.1204 125.543 20.1204C123.585 20.1204 122.554 21.0759 122.554 22.6522C122.554 24.1345 123.656 24.9448 125.005 24.9448C125.507 24.9448 126.029 24.8508 126.442 24.6834C126.692 24.5728 126.801 24.5106 127.125 24.2977C127.32 24.5853 127.711 24.8756 127.87 24.9268L129.124 24.0612ZM126.634 23.2011C126.204 23.3505 125.921 23.3851 125.581 23.3851C124.878 23.3851 124.484 23.1085 124.484 22.3895C124.484 21.6414 124.986 21.387 125.957 21.387C126.192 21.387 126.424 21.4229 126.532 21.4617V21.9982C126.532 22.5761 126.564 22.955 126.634 23.2011ZM107.511 24.0612C106.994 23.2744 106.86 22.8098 106.86 21.8212V19.8134C106.86 18.728 106.734 18.3311 106.446 17.9329C106.051 17.3743 105.387 17.1337 104.165 17.1337C103.302 17.1337 102.454 17.2277 101.644 17.4337L101.934 18.8718C102.485 18.7943 103.058 18.728 103.473 18.728C104.77 18.728 104.921 18.9174 104.921 19.8895V20.2531C104.632 20.1757 104.308 20.1204 103.93 20.1204C101.97 20.1204 100.939 21.0759 100.939 22.6522C100.939 24.1345 102.041 24.9448 103.392 24.9448C103.894 24.9448 104.416 24.8508 104.83 24.6834C105.08 24.5728 105.188 24.5106 105.511 24.2977C105.708 24.5853 106.098 24.8756 106.257 24.9268L107.511 24.0612ZM105.022 23.2011C104.592 23.3505 104.308 23.3851 103.968 23.3851C103.267 23.3851 102.868 23.1085 102.868 22.3895C102.868 21.6414 103.371 21.387 104.342 21.387C104.575 21.387 104.81 21.4229 104.921 21.4617V21.9982C104.921 22.5761 104.949 22.955 105.022 23.2011ZM80.8916 24.7761V17.5941C79.8159 17.2733 78.9876 17.1337 77.9091 17.1337C76.8305 17.1337 76.023 17.2733 74.9472 17.5941V21.2708C74.9472 22.2706 74.9306 22.5706 74.8214 22.8942C74.7135 23.1776 74.5684 23.5178 74.1729 23.7805L74.7066 24.9268C76.2802 24.483 76.872 23.7985 76.872 21.6234V18.9174C77.3919 18.8414 77.4942 18.8234 77.9091 18.8234C78.3253 18.8234 78.4124 18.8414 78.9309 18.9174V24.7761H80.8916ZM95.7146 27.218V24.5396C95.9635 24.6862 96.4572 24.9033 97.2924 24.9033C98.9517 24.9033 100.174 23.5247 100.174 21.0054C100.174 18.291 98.9586 17.1281 96.9633 17.1281C96.4544 17.1281 96.1253 17.1807 95.7146 17.3756V14.1774H93.7636V17.3756C93.3543 17.1807 93.0211 17.1281 92.515 17.1281C90.5197 17.1281 89.3043 18.338 89.3043 21.051C89.3043 23.5717 90.4021 24.9033 92.1831 24.9033C93.0197 24.9033 93.5161 24.6862 93.7636 24.5396V27.218H95.7146ZM91.3148 21.051C91.3148 19.5549 91.7655 18.7639 92.6643 18.7639C93.0446 18.7639 93.2948 18.7612 93.7636 18.9852V23.1002C93.3391 23.2399 93.1386 23.2592 92.7597 23.2592C91.7351 23.2592 91.3148 22.4227 91.3148 21.051ZM98.1621 21.0054C98.1621 22.3756 97.6173 23.2592 96.7185 23.2592C96.341 23.2592 96.1419 23.2399 95.7146 23.1002V18.9852C96.1834 18.7612 96.4351 18.7639 96.8125 18.7639C97.7113 18.7639 98.1621 19.5078 98.1621 21.0054ZM121.806 21.5405C121.806 19.6931 120.724 18.421 118.451 18.421C117.892 18.421 117.503 18.4749 116.9 18.6174L116.896 15.9583C117.272 15.9044 117.912 15.8588 118.62 15.8588C119.288 15.8588 120.134 15.8933 120.876 15.986L120.929 14.4442C120.084 14.2562 118.859 14.14 117.91 14.14C116.973 14.14 115.517 14.3737 114.824 14.5618L114.821 24.3875C115.904 24.783 116.958 24.9641 118.042 24.9641C120.52 24.9641 121.806 23.6505 121.806 21.5405ZM119.722 21.6884C119.722 22.684 119.17 23.3394 118.155 23.3394C117.753 23.3394 117.425 23.3422 116.9 23.1984V20.184C117.132 20.1453 117.61 20.072 118.155 20.0914C119.187 20.1301 119.722 20.6126 119.722 21.6884ZM43.1428 8.77222L40.21 17.5734H46.1198L43.1787 8.77222H43.1428ZM32.869 32.207C32.6865 32.207 32.5399 32.3591 32.5399 32.5443V36.2874C32.5399 36.4741 32.6865 36.6234 32.869 36.6234H53.4511C53.6322 36.6234 53.7774 36.4741 53.7774 36.2874V32.5443C53.7774 32.3591 53.6322 32.207 53.4511 32.207H32.869ZM43.1594 3.53992C45.4118 3.53992 46.1198 5.15358 46.7116 6.76862C46.9633 7.4517 52.8137 23.4735 52.9893 23.9547C53.0377 24.0861 53.0059 24.3073 52.7985 24.3862C52.5924 24.465 49.5518 25.6486 49.3831 25.7122C49.2158 25.7744 49.0249 25.6818 48.9641 25.5145C48.9019 25.3485 47.6422 21.8557 47.4998 21.4644H38.8314C38.6876 21.8557 37.4154 25.3541 37.356 25.5145C37.2979 25.6749 37.1154 25.7827 36.9384 25.7122C36.76 25.6403 33.7055 24.4567 33.5258 24.3862C33.3502 24.3212 33.27 24.1221 33.3322 23.9547C33.5479 23.3532 39.3084 7.58859 39.6043 6.76862C40.174 5.17847 40.9082 3.53992 43.1594 3.53992Z" fill="#EE2922"/>
</svg>
