<svg width="175" height="40" viewBox="0 0 175 40" fill="none" xmlns="http://www.w3.org/2000/svg">
<path fill-rule="evenodd" clip-rule="evenodd" d="M50.9644 20.8251H52.3644V15.5584L55.1811 18.5917L57.9977 15.5584V20.8251H59.3977V12.1584L55.1811 16.6417L50.9644 12.1584V20.8251ZM67.2977 15.3584V20.8251H68.6977V12.1584L62.8477 17.7084V12.2417H61.4477V20.9084L67.2977 15.3584ZM70.7477 20.8251H72.1477V17.1417H76.3977V20.8251H77.7977V12.2417H76.3977V15.7917H72.1477V12.2417H70.7477V20.8251ZM83.7477 20.9084C84.9644 20.9084 85.9977 20.4917 86.7811 19.6751L85.8811 18.6751C85.3477 19.2417 84.5811 19.5917 83.7477 19.5917C82.0644 19.5917 80.7977 18.2417 80.7977 16.5251C80.7977 14.8251 82.0644 13.4751 83.7477 13.4751C84.5811 13.4751 85.3477 13.8251 85.8811 14.3917L86.7811 13.3917C85.9977 12.5751 84.9644 12.1584 83.7477 12.1584C81.3311 12.1584 79.3644 14.0584 79.3644 16.5251C79.3644 19.0084 81.3311 20.9084 83.7477 20.9084ZM88.1977 20.8251H89.5977V16.7751L93.4144 20.8251H95.2311L91.2311 16.5751L94.8644 12.2417H93.1977L89.5977 16.5584V12.2417H88.1977V20.8251ZM103.014 20.8251V12.2417H96.2477V20.8251H97.6477V13.6084H101.614V20.8251H103.014ZM105.064 20.8251H106.464V17.7084H107.614C109.398 17.7084 110.614 16.5751 110.614 14.9751C110.614 13.3751 109.398 12.2417 107.614 12.2417H105.064V20.8251ZM106.464 16.4084V13.5584H107.564C108.581 13.5584 109.198 14.1084 109.198 14.9751C109.198 15.8417 108.581 16.4084 107.564 16.4084H106.464ZM115.964 19.5917C114.264 19.5917 112.998 18.2417 112.998 16.5251C112.998 14.8251 114.264 13.4751 115.964 13.4751C117.648 13.4751 118.914 14.8251 118.914 16.5251C118.914 18.2417 117.648 19.5917 115.964 19.5917ZM115.964 20.9084C118.398 20.9084 120.348 19.0084 120.348 16.5251C120.348 14.0584 118.398 12.1584 115.964 12.1584C113.531 12.1584 111.581 14.0584 111.581 16.5251C111.581 19.0084 113.531 20.9084 115.964 20.9084ZM121.914 20.8251H123.314V15.5584L126.131 18.5917L128.931 15.5584V20.8251H130.331V12.1584L126.131 16.6417L121.914 12.1584V20.8251ZM136.281 20.9084C137.498 20.9084 138.531 20.4917 139.314 19.6751L138.414 18.6751C137.881 19.2417 137.114 19.5917 136.281 19.5917C134.598 19.5917 133.331 18.2417 133.331 16.5251C133.331 14.8251 134.598 13.4751 136.281 13.4751C137.114 13.4751 137.881 13.8251 138.414 14.3917L139.314 13.3917C138.531 12.5751 137.498 12.1584 136.281 12.1584C133.864 12.1584 131.898 14.0584 131.898 16.5251C131.898 19.0084 133.864 20.9084 136.281 20.9084ZM142.331 20.8251H143.731V13.6251H145.948V12.2417H140.131V13.6251H142.331V20.8251ZM147.214 20.8251H148.614V17.7084H149.781C151.548 17.7084 152.764 16.5751 152.764 14.9751C152.764 13.3751 151.548 12.2417 149.781 12.2417H147.214V20.8251ZM148.614 16.4084V13.5584H149.714C150.748 13.5584 151.348 14.1084 151.348 14.9751C151.348 15.8417 150.748 16.4084 149.714 16.4084H148.614ZM158.114 19.5917C156.431 19.5917 155.164 18.2417 155.164 16.5251C155.164 14.8251 156.431 13.4751 158.114 13.4751C159.814 13.4751 161.081 14.8251 161.081 16.5251C161.081 18.2417 159.814 19.5917 158.114 19.5917ZM158.114 20.9084C160.564 20.9084 162.498 19.0084 162.498 16.5251C162.498 14.0584 160.564 12.1584 158.114 12.1584C155.698 12.1584 153.731 14.0584 153.731 16.5251C153.731 19.0084 155.698 20.9084 158.114 20.9084ZM168.831 9.79175C168.814 10.4751 168.481 10.8417 167.898 10.8417C167.314 10.8417 166.981 10.4751 166.964 9.79175H165.864C165.898 11.0917 166.731 11.7584 167.898 11.7584C169.064 11.7584 169.881 11.0917 169.914 9.79175H168.831ZM169.914 15.3584V20.8251H171.314V12.1584L165.464 17.7084V12.2417H164.064V20.9084L169.914 15.3584Z" fill="#CF1304"/>
<path fill-rule="evenodd" clip-rule="evenodd" d="M52.893 28.2323C53.4264 28.2323 53.8597 28.0156 54.1764 27.6823L53.6764 27.1656C53.493 27.3656 53.243 27.5156 52.893 27.5156C52.3264 27.5156 51.9097 27.0823 51.9097 26.499C51.9097 25.9156 52.3264 25.499 52.893 25.499C53.243 25.499 53.493 25.6323 53.6764 25.849L54.1764 25.3323C53.8597 24.9823 53.4264 24.7656 52.893 24.7656C51.893 24.7656 51.1597 25.5323 51.1597 26.499C51.1597 27.4823 51.893 28.2323 52.893 28.2323ZM58.6097 25.4823V24.8323H56.0097V25.4823H56.9097V28.1823H57.643V25.4823H58.6097ZM61.4597 24.8323H60.7264V29.4156H61.4597V27.899C61.7097 28.1323 62.0264 28.2323 62.4097 28.2323C63.393 28.2323 64.0764 27.449 64.0764 26.499C64.0764 25.5656 63.393 24.7656 62.4097 24.7656C62.0264 24.7656 61.7097 24.8823 61.4597 25.1156V24.8323ZM61.4597 25.899C61.6264 25.6323 61.9264 25.4656 62.3264 25.4656C62.9264 25.4656 63.3264 25.9156 63.3264 26.499C63.3264 27.099 62.9264 27.549 62.3264 27.549C61.9264 27.549 61.6264 27.3823 61.4597 27.1156V25.899ZM67.8097 27.5323C67.243 27.5323 66.843 27.099 66.843 26.499C66.843 25.9156 67.243 25.4823 67.8097 25.4823C68.3764 25.4823 68.793 25.9156 68.793 26.499C68.793 27.099 68.3764 27.5323 67.8097 27.5323ZM67.8097 28.2323C68.8097 28.2323 69.5597 27.4823 69.5597 26.499C69.5597 25.5323 68.8097 24.7656 67.8097 24.7656C66.8097 24.7656 66.0764 25.5323 66.0764 26.499C66.0764 27.4823 66.8097 28.2323 67.8097 28.2323ZM74.8764 28.1823V24.7656L72.5097 26.8323V24.8323H71.7764V28.2323L74.143 26.2156V28.1823H74.8764ZM79.5764 25.4823V24.8323H76.9764V25.4823H77.893V28.1823H78.6264V25.4823H79.5764ZM83.0764 28.2323C83.6764 28.2323 84.1597 27.999 84.443 27.649L83.9597 27.1156C83.7764 27.3156 83.4764 27.499 83.0764 27.499C82.5764 27.499 82.193 27.199 82.1097 26.699H84.6764V26.499C84.6264 25.4323 84.0097 24.7656 83.0597 24.7656C82.093 24.7656 81.343 25.5323 81.343 26.499C81.343 27.4823 82.093 28.2323 83.0764 28.2323ZM83.0097 25.449C83.4597 25.449 83.7764 25.6823 83.8597 26.1323H82.1264C82.2597 25.699 82.6097 25.449 83.0097 25.449ZM89.843 28.1823L87.993 24.7656L86.1597 28.1823H86.9597L88.0097 26.249L89.0264 28.1823H89.843ZM92.5264 25.9656V24.8323H91.793V28.1823H93.1764C94.093 28.1823 94.443 27.599 94.443 27.0656C94.443 26.5323 94.093 25.9656 93.1764 25.9656H92.5264ZM92.5264 26.5656H93.193C93.543 26.5656 93.743 26.749 93.743 27.049C93.743 27.3656 93.543 27.5323 93.1597 27.5323H92.5264V26.5656ZM99.6597 28.1823V24.8323H98.9264V26.149H97.343V24.8323H96.6097V28.1823H97.343V26.8156H98.9264V28.1823H99.6597ZM104.51 28.1823H105.26V24.8323H104.51V25.0823C104.276 24.8823 103.976 24.7656 103.61 24.7656C102.626 24.7656 101.893 25.5323 101.893 26.499C101.893 27.4823 102.626 28.2323 103.61 28.2323C103.976 28.2323 104.276 28.1323 104.51 27.949V28.1823ZM103.626 27.5323C103.043 27.5323 102.643 27.099 102.643 26.499C102.643 25.9156 103.043 25.4823 103.626 25.4823C103.993 25.4823 104.326 25.6656 104.51 25.9323V27.0823C104.326 27.349 103.993 27.5323 103.626 27.5323ZM110.176 28.1823V24.8323H108.826C107.976 24.8323 107.576 25.2656 107.576 25.899C107.576 26.3823 107.81 26.749 108.26 26.9323L107.276 28.1823H108.143L109.06 27.0156H109.443V28.1823H110.176ZM109.443 25.4323V26.399H108.826C108.493 26.399 108.276 26.249 108.276 25.9323C108.276 25.599 108.46 25.4323 108.826 25.4323H109.443ZM117.226 27.5323C116.643 27.5323 116.243 27.099 116.243 26.499C116.243 25.9156 116.643 25.4823 117.226 25.4823C117.793 25.4823 118.21 25.9156 118.21 26.499C118.21 27.099 117.793 27.5323 117.226 27.5323ZM117.226 28.2323C118.226 28.2323 118.96 27.4823 118.96 26.499C118.96 25.5323 118.226 24.7656 117.226 24.7656C116.226 24.7656 115.493 25.5323 115.493 26.499C115.493 27.4823 116.226 28.2323 117.226 28.2323ZM121.926 24.8323H121.193V29.4156H121.926V27.899C122.176 28.1323 122.493 28.2323 122.876 28.2323C123.86 28.2323 124.56 27.449 124.56 26.499C124.56 25.5656 123.86 24.7656 122.876 24.7656C122.493 24.7656 122.176 24.8823 121.926 25.1156V24.8323ZM121.926 25.899C122.093 25.6323 122.393 25.4656 122.793 25.4656C123.393 25.4656 123.793 25.9156 123.793 26.499C123.793 27.099 123.393 27.549 122.793 27.549C122.393 27.549 122.093 27.3823 121.926 27.1156V25.899ZM128.86 25.4823V24.8323H126.776V28.1823H127.51V25.4823H128.86ZM133.226 28.1823H133.976V24.8323H133.226V25.0823C132.993 24.8823 132.693 24.7656 132.326 24.7656C131.343 24.7656 130.61 25.5323 130.61 26.499C130.61 27.4823 131.343 28.2323 132.326 28.2323C132.693 28.2323 132.993 28.1323 133.226 27.949V28.1823ZM132.343 27.5323C131.776 27.5323 131.36 27.099 131.36 26.499C131.36 25.9156 131.776 25.4823 132.343 25.4823C132.71 25.4823 133.06 25.6656 133.226 25.9323V27.0823C133.06 27.349 132.71 27.5323 132.343 27.5323ZM139.493 28.1823V24.8323H138.76V26.149H137.16V24.8323H136.426V28.1823H137.16V26.8156H138.76V28.1823H139.493ZM145.026 28.1823V24.7656L142.676 26.8323V24.8323H141.943V28.2323L144.293 26.2156V28.1823H145.026ZM147.693 25.749C147.86 25.499 148.093 25.3823 148.426 25.3823C148.743 25.3823 148.943 25.499 148.943 25.7656C148.943 26.049 148.66 26.1656 148.41 26.1656H147.96V26.7323H148.443C148.826 26.7323 149.01 26.9156 149.01 27.1656C149.01 27.4156 148.826 27.6156 148.426 27.6156C148.06 27.6156 147.81 27.4656 147.626 27.1823L147.093 27.549C147.41 28.0323 147.843 28.2323 148.443 28.2323C149.41 28.2323 149.76 27.699 149.76 27.2323C149.76 26.9156 149.61 26.599 149.276 26.4323C149.51 26.2656 149.66 26.049 149.66 25.749C149.66 25.2156 149.193 24.7656 148.46 24.7656C147.893 24.7656 147.543 24.9823 147.226 25.3823L147.693 25.749ZM154.293 28.1823H155.026V24.8323H154.293V25.0823C154.043 24.8823 153.743 24.7656 153.393 24.7656C152.393 24.7656 151.66 25.5323 151.66 26.499C151.66 27.4823 152.393 28.2323 153.393 28.2323C153.743 28.2323 154.043 28.1323 154.293 27.949V28.1823ZM153.393 27.5323C152.826 27.5323 152.41 27.099 152.41 26.499C152.41 25.9156 152.826 25.4823 153.393 25.4823C153.76 25.4823 154.11 25.6656 154.293 25.9323V27.0823C154.11 27.349 153.76 27.5323 153.393 27.5323ZM160.443 27.5323V24.8323H159.71V27.5323H158.21V24.8323H157.476V28.1823H160.326V29.0323H160.993V27.5323H160.443ZM166.21 28.1823V24.7656L163.843 26.8323V24.8323H163.11V28.2323L165.476 26.2156V28.1823H166.21ZM171.126 28.1823V24.8323H169.776C168.926 24.8323 168.526 25.2656 168.526 25.899C168.526 26.3823 168.76 26.749 169.226 26.9323L168.226 28.1823H169.093L170.01 27.0156H170.393V28.1823H171.126ZM170.393 25.4323V26.399H169.776C169.443 26.399 169.226 26.249 169.226 25.9323C169.226 25.599 169.41 25.4323 169.776 25.4323H170.393Z" fill="#CF1304"/>
<path fill-rule="evenodd" clip-rule="evenodd" d="M25.5332 6.66675L29.8665 9.33342L12.9665 19.3501L20.0165 23.7001L31.2165 17.0834L35.5665 19.7668L20.0499 29.0501L4.34987 19.3501L25.5332 6.66675Z" fill="#CF1304"/>
<path fill-rule="evenodd" clip-rule="evenodd" d="M25.7113 32.4356L21.378 29.7689L38.2613 19.7522L31.2113 15.4022L20.0113 22.0189L15.678 19.3356L31.178 10.0522L46.8947 19.7522L25.7113 32.4356Z" fill="#CF1304"/>
</svg>
