<svg width="157" height="36" viewBox="0 0 157 36" fill="none" xmlns="http://www.w3.org/2000/svg">
<g clip-path="url(#clip0)">
<path d="M41.0137 5.05615H51.9805V7.5181H43.9756V10.924H47.9373C49.032 10.924 49.9394 11.0573 50.6595 11.3241C51.3796 11.5909 51.9951 12.0848 52.506 12.8057C53.0237 13.5451 53.2936 14.4296 53.2772 15.3321C53.2772 16.3263 53.0205 17.1777 52.5072 17.8865C51.9939 18.5952 51.4084 19.0789 50.7508 19.3376C50.0939 19.5963 49.1581 19.7261 47.9434 19.7269H41.0137V5.05615ZM43.9756 17.2637H46.8571C47.7784 17.2637 48.4271 17.2187 48.8034 17.1287C49.1849 17.0323 49.5258 16.8166 49.7765 16.5132C50.056 16.1843 50.2038 15.7635 50.1912 15.3321C50.1912 14.6517 49.948 14.1567 49.4614 13.8469C48.9749 13.5371 48.1493 13.3818 46.9849 13.381H43.9756V17.2637Z" fill="black"/>
<path d="M57.7632 12.3411L55.2088 11.8801C55.4958 10.8535 55.9893 10.0933 56.6891 9.59942C57.3889 9.10557 58.4297 8.85864 59.8115 8.85864C61.066 8.85864 61.9986 9.00704 62.6092 9.30384C63.2198 9.60063 63.6516 9.9773 63.9046 10.4338C64.1552 10.8912 64.2805 11.7301 64.2805 12.9505L64.2501 16.2347C64.2501 17.1689 64.2951 17.8582 64.3851 18.3026C64.493 18.7972 64.663 19.2762 64.8911 19.7282H62.1166C62.0424 19.5421 61.9524 19.2647 61.8465 18.8986C61.7991 18.732 61.7662 18.6213 61.7456 18.5678C61.3029 19.0086 60.7824 19.3637 60.2105 19.6151C59.6566 19.8499 59.0605 19.9691 58.4589 19.9654C57.365 19.9654 56.503 19.6686 55.8729 19.075C55.5639 18.7887 55.3196 18.4398 55.1564 18.0515C54.9932 17.6632 54.9148 17.2445 54.9266 16.8235C54.9157 16.259 55.0632 15.7028 55.3523 15.2179C55.6398 14.7477 56.0589 14.3722 56.5577 14.1377C57.0751 13.8871 57.8207 13.6686 58.7946 13.4821C60.1083 13.2388 61.0186 13.0089 61.5254 12.7924V12.5102C61.5254 11.9701 61.392 11.5849 61.1252 11.3546C60.8584 11.1243 60.3548 11.0092 59.6145 11.0092C59.1141 11.0092 58.7241 11.1077 58.4443 11.3048C58.1646 11.5018 57.9375 11.8473 57.7632 12.3411ZM61.5254 14.6218C60.963 14.7941 60.3922 14.9378 59.8152 15.0524C59.0343 15.2195 58.5238 15.3817 58.2838 15.539C58.116 15.6442 57.9777 15.7902 57.8815 15.9634C57.7854 16.1365 57.7346 16.3311 57.734 16.5291C57.7322 16.7205 57.7704 16.9102 57.8463 17.0859C57.9221 17.2617 58.0338 17.4196 58.1743 17.5497C58.3225 17.693 58.4981 17.805 58.6906 17.879C58.8831 17.953 59.0885 17.9874 59.2946 17.9803C59.8196 17.9746 60.3286 17.7992 60.7457 17.4803C61.0661 17.253 61.3018 16.9257 61.4159 16.5498C61.4889 16.3065 61.5254 15.8496 61.5254 15.1789V14.6218Z" fill="black"/>
<path d="M65.7279 9.09802H68.7251L71.2661 16.6396L73.7475 9.09802H76.6595L72.907 19.3241L72.2319 21.1778C72.0473 21.6749 71.8109 22.1511 71.5264 22.5986C71.3206 22.9086 71.0596 23.1783 70.7564 23.3941C70.4301 23.6138 70.0678 23.7747 69.686 23.8697C69.2166 23.9885 68.7337 24.0458 68.2495 24.04C67.7146 24.0403 67.1812 23.9832 66.6585 23.8697L66.414 21.6644C66.8058 21.7458 67.2046 21.7894 67.6048 21.7946C68.2584 21.7946 68.7417 21.6028 69.0547 21.2192C69.3931 20.7875 69.6387 20.2906 69.776 19.7596L65.7279 9.09802Z" fill="black"/>
<path d="M91.7037 19.7244H88.4815L87.2007 16.3928H81.3377L80.1214 19.7244H76.9855L82.7025 5.05615H85.8347L91.7037 19.7244ZM86.2507 13.9211L84.2291 8.47782L82.2488 13.9211H86.2507Z" fill="black"/>
<path d="M93.1743 9.09805H95.7968V10.6599C96.1433 10.1193 96.6174 9.67237 97.1774 9.35835C97.7654 9.02296 98.4322 8.85039 99.109 8.85842C100.342 8.85842 101.389 9.34213 102.25 10.3096C103.11 11.277 103.541 12.6243 103.542 14.3516C103.542 16.1259 103.108 17.5044 102.24 18.4873C101.372 19.4701 100.322 19.9615 99.0884 19.9615C98.5365 19.9694 97.9903 19.8495 97.4925 19.6112C97.0156 19.3776 96.5137 18.9774 95.9866 18.4106V23.7627H93.1743V9.09805ZM95.9562 14.2312C95.9562 15.4256 96.193 16.3079 96.6666 16.878C97.1401 17.4481 97.7171 17.7319 98.3975 17.7294C98.7115 17.7337 99.0222 17.665 99.3053 17.5289C99.5883 17.3928 99.8359 17.1929 100.029 16.9449C100.462 16.4202 100.679 15.5611 100.679 14.3674C100.679 13.254 100.456 12.4269 100.009 11.886C99.813 11.6329 99.5609 11.4287 99.2726 11.2892C98.9844 11.1497 98.6678 11.0788 98.3476 11.082C98.0209 11.0762 97.6971 11.1449 97.4008 11.2827C97.1045 11.4205 96.8435 11.6239 96.6374 11.8775C96.184 12.4062 95.957 13.1907 95.9562 14.2312Z" fill="black"/>
<path d="M111.926 16.3429L114.724 16.8136C114.364 17.8402 113.796 18.6224 113.021 19.16C112.246 19.6977 111.272 19.9661 110.101 19.9653C108.253 19.9653 106.886 19.3615 105.999 18.1541C105.298 17.1875 104.948 15.9666 104.949 14.4916C104.949 12.7303 105.409 11.3517 106.329 10.3559C107.25 9.36008 108.414 8.86136 109.822 8.85974C111.402 8.85974 112.649 9.38157 113.563 10.4252C114.477 11.4689 114.916 13.0664 114.878 15.2177H107.834C107.854 16.0506 108.08 16.6993 108.514 17.1639C108.719 17.3889 108.97 17.5674 109.249 17.6872C109.529 17.807 109.831 17.8654 110.136 17.8585C110.537 17.8702 110.93 17.7411 111.246 17.4936C111.545 17.26 111.772 16.8765 111.926 16.3429ZM112.087 13.5014C112.066 12.6905 111.855 12.0718 111.455 11.6452C111.263 11.4414 111.031 11.2796 110.773 11.1701C110.515 11.0606 110.237 11.0058 109.957 11.0091C109.677 11.0124 109.4 11.0738 109.145 11.1894C108.89 11.3049 108.661 11.4722 108.474 11.6805C108.074 12.1273 107.878 12.7355 107.884 13.5051L112.087 13.5014Z" fill="black"/>
<path d="M117.059 9.09802H119.871V12.9904H123.893V9.09802H126.715V19.7243H123.893V15.2626H119.871V19.7243H117.059V9.09802Z" fill="black"/>
<path d="M138.332 19.7244H130.287V22.522H128.005V17.4133H129.156C129.637 16.8805 130.034 16.0469 130.347 14.9124C130.66 13.7779 130.847 11.8366 130.908 9.08838H139.483V17.4133H140.623V22.522H138.332V19.7244ZM136.701 17.423L136.711 11.4104H133.305C133.192 14.3451 132.724 16.3493 131.904 17.423H136.701Z" fill="black"/>
<path d="M144.655 12.3411L142.101 11.8801C142.388 10.8535 142.881 10.0933 143.581 9.59942C144.281 9.10557 145.321 8.85864 146.703 8.85864C147.958 8.85864 148.89 9.00704 149.501 9.30384C150.112 9.60063 150.543 9.9773 150.796 10.4338C151.047 10.8912 151.172 11.7301 151.172 12.9505L151.142 16.2347C151.142 17.1689 151.187 17.8582 151.277 18.3026C151.385 18.7972 151.555 19.2762 151.783 19.7282H149.006C148.932 19.5421 148.842 19.2647 148.736 18.8986C148.688 18.732 148.656 18.6213 148.635 18.5678C148.191 19.0104 147.669 19.3667 147.095 19.6187C146.541 19.8536 145.945 19.9728 145.343 19.969C144.25 19.969 143.388 19.6722 142.757 19.0786C142.448 18.7924 142.204 18.4434 142.041 18.0551C141.878 17.6668 141.799 17.2482 141.811 16.8271C141.801 16.2618 141.951 15.7051 142.242 15.2203C142.529 14.7501 142.948 14.3746 143.447 14.1401C143.964 13.8896 144.71 13.671 145.684 13.4845C146.998 13.2412 147.908 13.0114 148.415 12.7948V12.5102C148.415 11.9701 148.281 11.5849 148.015 11.3546C147.748 11.1243 147.244 11.0092 146.504 11.0092C146.003 11.0092 145.613 11.1077 145.334 11.3048C145.054 11.5018 144.828 11.8473 144.655 12.3411ZM148.417 14.6218C147.855 14.7941 147.284 14.9378 146.707 15.0524C145.926 15.2195 145.416 15.3817 145.176 15.539C145.008 15.6442 144.869 15.7902 144.773 15.9634C144.677 16.1365 144.626 16.3311 144.626 16.5291C144.624 16.7205 144.662 16.9102 144.738 17.0859C144.814 17.2617 144.926 17.4196 145.066 17.5497C145.214 17.693 145.39 17.805 145.582 17.879C145.775 17.953 145.98 17.9874 146.186 17.9803C146.711 17.9746 147.22 17.7992 147.637 17.4803C147.958 17.2533 148.194 16.9259 148.308 16.5498C148.381 16.3065 148.417 15.8496 148.417 15.1789V14.6218Z" fill="black"/>
<path d="M29.4996 8.71881C30.3 10.9655 30.2294 12.835 30.1783 14.364C30.0896 16.6322 29.6179 18.869 28.7831 20.9799C27.5084 24.2823 25.3834 27.3646 24.9102 27.1469C24.3884 26.9036 26.7068 23.0562 26.9014 16.8284C27.023 12.9433 26.2579 10.3098 25.6631 8.7918C25.1291 7.39661 24.4614 5.69612 22.8679 4.11848C21.2282 2.49219 19.6749 2.04213 19.7844 1.75141C19.9413 1.33906 23.1343 1.50814 25.7203 3.34122C28.2127 5.08915 29.1103 7.62651 29.4996 8.71881Z" fill="#FDB400"/>
<path d="M6.59274 28.761C5.47367 26.479 5.36663 24.4623 5.26932 22.7594C5.17466 20.8838 5.34211 19.0042 5.76682 17.175C6.18066 15.3725 6.84692 13.6374 7.74586 12.0212C8.92332 9.9205 10.5496 7.967 10.8172 8.12878C11.0106 8.25042 10.4036 9.34515 9.78451 11.115C8.89863 13.7132 8.39984 16.4276 8.30418 19.171C8.24336 21.4651 8.19471 23.3067 9.03401 25.5801C10.2236 28.7853 12.4204 30.8105 13.1697 31.4443C15.0636 33.0584 16.4466 33.3735 16.3323 33.7554C16.151 34.3745 12.2294 34.5314 9.38919 32.4174C7.81885 31.2375 7.07807 29.756 6.59274 28.761Z" fill="#FDB400"/>
<path d="M1.8696 18.9033C2.02773 17.496 2.47779 13.769 5.22072 10.0907C7.41749 7.12882 9.96459 5.71174 11.3391 4.95637C12.2854 4.43333 13.3777 3.94799 13.475 4.11829C13.621 4.3494 11.6176 5.57794 9.65198 7.88175C8.76402 8.94758 7.983 10.0981 7.32018 11.3168C7.32018 11.3168 6.89567 12.0697 6.54414 12.8227C5.66956 14.691 4.75971 17.642 4.55293 20.397C4.07976 26.5033 7.04163 30.7362 6.34952 31.0914C5.80336 31.3712 3.55185 28.7973 2.45711 25.7138C1.45968 22.9101 1.70296 20.4944 1.8696 18.9033Z" fill="#FDB400"/>
<path d="M33.5854 12.6063C34.4004 18.4814 31.25 23.1037 30.2039 24.6241C26.9197 29.4288 22.2853 31.7764 22.0907 31.5453C21.9204 31.3507 24.8883 29.368 27.6009 25.1472C28.501 23.7483 30.4593 20.6952 31.1162 16.815C32.2839 9.82083 28.4523 4.3958 29.0605 4.11603C29.1578 4.06738 29.4011 4.06738 30.2039 4.97966C33.0381 8.1544 33.5124 12.0103 33.5854 12.6063Z" fill="#FDB400"/>
<path d="M32.6853 27.738C27.2116 35.5715 15.8993 35.8512 15.729 35.3404C15.5709 34.8903 24.1707 34.0024 29.7782 26.9595C34.8626 20.5736 34.3761 13.0685 34.9842 13.1537C35.6168 13.251 37.0764 21.4494 32.6853 27.738Z" fill="#FDB400"/>
<path d="M2.99951 7.82103C5.55998 4.13054 9.00841 2.6125 10.3671 2.04202C15.2594 -0.0452794 20.0701 0.513037 20.0908 0.742932C20.103 0.887681 18.0522 0.924172 15.3567 1.77442C15.1134 1.8474 9.88298 3.54668 6.33724 7.23716C0.49864 13.3081 1.51796 22.4127 0.643389 22.3397C0.0850725 22.291 -0.26646 18.5154 0.255365 15.1412C0.486477 13.5866 0.973027 10.7586 2.99951 7.82103Z" fill="#FDB400"/>
<path d="M25.6752 16.9623C25.1412 17.0839 25.0074 10.6614 20.3584 7.74822C17.0195 5.65971 13.2207 6.55861 13.1599 5.80202C13.1113 5.17072 15.6961 4.04193 18.2577 4.40684C20.5275 4.73404 22.0091 6.11828 22.5917 6.68876C26.5169 10.5155 26.197 16.8285 25.6752 16.9623Z" fill="#FDB400"/>
<path d="M9.78447 18.9644C9.85745 18.9523 9.89394 19.5471 10.3306 20.8218C10.6469 21.7572 12.795 28.0082 17.0207 29.2708C18.1628 29.6245 19.3526 29.8005 20.5482 29.7926C21.3996 29.7561 21.9689 29.5992 22.0419 29.7683C22.1514 30.048 20.7428 31.1282 19.3221 31.4809C16.9064 32.0636 14.2133 30.582 12.6223 28.8827C9.16533 25.1923 9.56674 19.0009 9.78447 18.9644Z" fill="#FDB400"/>
<path d="M22.2403 10.8561C22.0335 11.1225 20.0179 8.99872 16.3153 8.46474C13.9117 8.12415 12.2733 8.65814 12.2003 8.36743C12.1151 8.01589 14.3496 6.6645 16.7654 6.89804C20.1639 7.22647 22.4702 10.552 22.2403 10.8561Z" fill="#FDB400"/>
<path d="M13.3532 24.9367C13.4384 24.8406 13.8641 25.1678 14.8469 25.6531C14.8469 25.6531 16.5499 26.4912 18.209 26.8695C20.9531 27.4887 22.9079 26.4937 23.0745 26.9547C23.1961 27.2831 22.2863 27.9983 21.4482 28.3876C19.2149 29.4191 16.8953 28.3389 16.4611 28.1321C14.3981 27.0982 13.172 25.1435 13.3532 24.9367Z" fill="#FDB400"/>
<path d="M17.0681 9.89622C17.1046 10.2246 14.5429 10.0908 12.3827 12.0942C10.9376 13.4322 10.5982 14.8615 10.3063 14.752C9.9414 14.6194 9.90612 12.1429 11.339 10.6613C13.2925 8.67012 17.0195 9.5082 17.0681 9.89622Z" fill="#FDB400"/>
<path d="M18.2821 25.5193C18.2699 25.2529 20.4716 25.495 22.5674 23.893C24.1329 22.7034 24.5829 21.2826 24.8615 21.4043C25.1899 21.5502 25.0439 23.7349 23.6719 24.9975C21.7293 26.7819 18.3064 25.8599 18.2821 25.5193Z" fill="#FDB400"/>
<path d="M42.4443 29.2998L41.8276 31.167H41.0345L43.0597 25.2311H43.9757L46.0022 31.167H45.1823L44.5486 29.2998H42.4443ZM44.3978 28.7014L43.8066 26.9985C43.6752 26.6104 43.5864 26.2589 43.4989 25.9147H43.4806C43.393 26.2589 43.3055 26.6287 43.1814 26.99L42.6 28.7075L44.3978 28.7014Z" fill="#898989"/>
<path d="M46.8475 28.2965C46.8475 27.7503 46.8305 27.31 46.8135 26.9037H47.4995L47.5445 27.6336H47.5603C47.8693 27.1142 48.3802 26.8149 49.0759 26.8149C50.1147 26.8149 50.8896 27.6871 50.8896 28.9728C50.8896 30.5054 49.9481 31.2632 48.9434 31.2632C48.3802 31.2632 47.8863 31.02 47.6309 30.5942H47.6126V32.9053H46.8463L46.8475 28.2965ZM47.6139 29.4326C47.612 29.5395 47.6239 29.6462 47.6491 29.7501C47.714 30.0092 47.8637 30.2392 48.0745 30.4034C48.2852 30.5677 48.5448 30.6567 48.812 30.6563C49.6318 30.6563 50.1074 29.9872 50.1074 29.0093C50.1074 28.1639 49.6586 27.428 48.8387 27.428C48.5649 27.4315 48.3003 27.5274 48.0877 27.7C47.8752 27.8726 47.727 28.1119 47.6674 28.3792C47.6366 28.4795 47.6186 28.5833 47.6139 28.6882V29.4326Z" fill="#898989"/>
<path d="M52.292 29.1771C52.3091 30.2257 52.9696 30.6563 53.7517 30.6563C54.1564 30.6703 54.5592 30.5951 54.9316 30.4361L55.0727 30.992C54.6215 31.1819 54.1353 31.2748 53.6459 31.2645C52.3334 31.2645 51.5488 30.3923 51.5488 29.1066C51.5488 27.8209 52.3066 26.8162 53.5486 26.8162C54.9498 26.8162 55.3099 28.0325 55.3099 28.8159C55.3127 28.9381 55.3042 29.0602 55.2843 29.1808L52.292 29.1771ZM54.5642 28.6225C54.5727 28.1359 54.3611 27.3708 53.489 27.3708C52.6971 27.3708 52.3614 28.0848 52.3005 28.6225H54.5642Z" fill="#898989"/>
<path d="M57.0213 26.9037V28.6224H59.0381V26.9037H59.8141V31.1671H59.0381V29.2391H57.0213V31.1671H56.2465V26.9037H57.0213Z" fill="#898989"/>
<path d="M64.3852 26.9036V30.5867L64.8255 30.5953L64.7818 32.5147H64.1736L64.1383 31.167H61.1837L61.1399 32.5147H60.5415L60.5062 30.6038L60.8711 30.5867C61.0541 30.3183 61.1967 30.0244 61.2944 29.7146C61.4624 29.1628 61.5444 28.5884 61.5377 28.0117V26.9011L64.3852 26.9036ZM62.2176 28.1905C62.2253 28.7297 62.151 29.267 61.9975 29.7839C61.9152 30.0597 61.8031 30.3256 61.663 30.577H63.6274V27.4947H62.2176V28.1905Z" fill="#898989"/>
<path d="M68.7447 30.1457C68.741 30.4873 68.7617 30.8288 68.8067 31.1674H68.1171L68.055 30.631H68.0295C67.8779 30.8324 67.6806 30.9949 67.4539 31.105C67.2272 31.2152 66.9775 31.27 66.7255 31.2647C65.8619 31.2647 65.4216 30.6566 65.4216 30.0411C65.4216 29.0096 66.3375 28.4464 67.9845 28.4598V28.3722C67.9845 28.028 67.8884 27.3857 67.0114 27.3991C66.6157 27.3949 66.2272 27.5047 65.8923 27.7154L65.7159 27.196C66.1448 26.9504 66.6316 26.8244 67.1257 26.8311C68.4297 26.8311 68.7459 27.7202 68.7459 28.5668L68.7447 30.1457ZM67.9954 28.9926C67.144 28.9743 66.1891 29.1239 66.1891 29.9523C66.1891 30.4632 66.5236 30.6918 66.9116 30.6918C67.1393 30.6993 67.3635 30.6343 67.552 30.5062C67.7404 30.3781 67.8833 30.1935 67.9601 29.979C67.9834 29.9 67.9953 29.8181 67.9954 29.7358V28.9926Z" fill="#898989"/>
<path d="M74.902 31.0174C74.5154 31.1838 74.098 31.2666 73.6771 31.2607C72.3914 31.2607 71.5546 30.3885 71.5546 29.0846C71.5546 27.7806 72.4535 26.8124 73.845 26.8124C74.2158 26.8058 74.5831 26.884 74.919 27.0411L74.7439 27.631C74.4652 27.4914 74.1566 27.422 73.845 27.4291C72.8719 27.4291 72.3391 28.1589 72.3391 29.0408C72.3391 30.0273 72.9729 30.6355 73.8182 30.6355C74.1464 30.6392 74.4714 30.5698 74.7694 30.4323L74.902 31.0174Z" fill="#898989"/>
<path d="M78.831 26.9037V27.5119H77.5003V31.1671H76.7255V27.5119H75.3947V26.9037H78.831Z" fill="#898989"/>
<path d="M79.5085 28.2965C79.5085 27.7503 79.4915 27.31 79.4733 26.9037H80.1593L80.2031 27.6336H80.2213C80.5291 27.1142 81.04 26.8149 81.7357 26.8149C82.7757 26.8149 83.5505 27.6871 83.5505 28.9728C83.5505 30.5054 82.6079 31.2632 81.6044 31.2632C81.0412 31.2632 80.5485 31.02 80.2919 30.5942H80.2809V32.9053H79.5146L79.5085 28.2965ZM80.2749 29.4326C80.2711 29.5921 80.2994 29.7508 80.3579 29.8993C80.4165 30.0478 80.5042 30.183 80.6159 30.2971C80.7275 30.4111 80.8609 30.5017 81.0081 30.5633C81.1553 30.625 81.3134 30.6566 81.473 30.6563C82.2916 30.6563 82.7672 29.9872 82.7672 29.0093C82.7672 28.1639 82.3184 27.428 81.4997 27.428C81.2257 27.4313 80.9608 27.527 80.748 27.6996C80.5352 27.8723 80.3869 28.1117 80.3272 28.3792C80.2974 28.4797 80.2798 28.5834 80.2749 28.6882V29.4326Z" fill="#898989"/>
<path d="M88.3783 29.0008C88.3783 30.5821 87.2775 31.2645 86.2557 31.2645C85.1099 31.2645 84.2122 30.4191 84.2122 29.075C84.2122 27.6567 85.1549 26.8198 86.3263 26.8198C87.5499 26.8162 88.3783 27.7054 88.3783 29.0008ZM85.0053 29.0446C85.0053 29.9788 85.5332 30.683 86.291 30.683C87.0488 30.683 87.5852 29.9873 87.5852 29.0276C87.5852 28.305 87.2203 27.3976 86.308 27.3976C85.3957 27.3976 85.0053 28.243 85.0053 29.0446Z" fill="#898989"/>
<path d="M90.069 26.9037V28.7015C90.069 29.3705 90.0519 29.8023 90.0167 30.4105L90.0434 30.419C90.3074 29.8996 90.4485 29.5992 90.7392 29.1065L92.0687 26.9037H92.9761V31.1671H92.2365V29.362C92.2365 28.6662 92.2536 28.3049 92.2888 27.6092H92.2718C91.9896 28.1639 91.8132 28.5069 91.5578 28.9387C91.1528 29.5992 90.6771 30.419 90.2283 31.1671H89.3294V26.9037H90.069Z" fill="#898989"/>
<path d="M97.09 26.9037V27.5119H95.7593V31.1671H94.9844V27.5119H93.6537V26.9037H97.09Z" fill="#898989"/>
<path d="M98.0851 29.1771C98.1021 30.2257 98.7638 30.6563 99.5447 30.6563C99.9494 30.6704 100.352 30.5953 100.725 30.4361L100.866 30.992C100.415 31.1822 99.9284 31.2751 99.4389 31.2645C98.1264 31.2645 97.3431 30.3923 97.3431 29.1066C97.3431 27.8209 98.0997 26.8162 99.3416 26.8162C100.743 26.8162 101.104 28.0325 101.104 28.8159C101.107 28.9381 101.098 29.0603 101.077 29.1808L98.0851 29.1771ZM100.357 28.6225C100.367 28.1359 100.155 27.3708 99.2832 27.3708C98.4901 27.3708 98.1556 28.0848 98.0936 28.6225H100.357Z" fill="#898989"/>
<path d="M105.316 26.9037V31.1671H104.541V27.5119H103.082V28.6066C103.082 29.8047 102.967 30.6063 102.412 30.9676C102.172 31.156 101.871 31.2499 101.566 31.2315L101.487 30.6234C101.64 30.6001 101.786 30.54 101.91 30.4482C102.306 30.1575 102.351 29.5578 102.351 28.6066V26.9037H105.316Z" fill="#898989"/>
<path d="M107.324 26.9037V28.3402C107.558 28.3109 107.793 28.2963 108.029 28.2964C108.99 28.2964 110.002 28.6042 110.002 29.7403C110.007 29.9261 109.969 30.1106 109.891 30.2794C109.813 30.4483 109.698 30.5968 109.553 30.7134C109.086 31.1099 108.319 31.2072 107.694 31.2072C107.314 31.2091 106.933 31.1908 106.555 31.1525V26.9037H107.324ZM107.316 30.6209C107.508 30.6492 107.703 30.661 107.897 30.6562C108.469 30.6562 109.227 30.4628 109.227 29.7585C109.227 29.0177 108.452 28.8511 107.871 28.8511C107.684 28.8502 107.499 28.8677 107.316 28.9034V30.6209Z" fill="#898989"/>
<path d="M111.711 26.9037V28.6224H113.731V26.9037H114.507V31.1671H113.731V29.2391H111.711V31.1671H110.934V26.9037H111.711Z" fill="#898989"/>
<path d="M119.629 29.0008C119.629 30.5821 118.535 31.2645 117.507 31.2645C116.361 31.2645 115.463 30.4191 115.463 29.075C115.463 27.6567 116.406 26.8198 117.577 26.8198C118.801 26.8162 119.629 27.7054 119.629 29.0008ZM116.256 29.0446C116.256 29.9788 116.784 30.683 117.542 30.683C118.282 30.683 118.836 29.9873 118.836 29.0276C118.836 28.305 118.471 27.3976 117.559 27.3976C116.647 27.3976 116.256 28.243 116.256 29.0446Z" fill="#898989"/>
<path d="M121.32 26.9037V28.7015C121.32 29.3706 121.303 29.8024 121.268 30.4105L121.293 30.4191C121.558 29.8997 121.7 29.5992 121.99 29.1066L123.32 26.9037H124.227V31.1671H123.488V29.362C123.488 28.6663 123.505 28.305 123.54 27.6092H123.523C123.241 28.1639 123.064 28.5069 122.809 28.9387C122.404 29.5992 121.928 30.4191 121.479 31.1671H120.581V26.9037H121.32ZM121.822 25.1692C121.849 25.5475 122.034 25.8382 122.387 25.8382C122.765 25.8382 122.941 25.5475 122.985 25.1692H123.54C123.496 25.882 123.053 26.2639 122.369 26.2639C121.594 26.2639 121.293 25.7701 121.259 25.1692H121.822Z" fill="#898989"/>
<path d="M130.234 26.9037V27.5119H128.904V31.1671H128.129V27.5119H126.799V26.9037H130.234Z" fill="#898989"/>
<path d="M131.23 29.1771C131.247 30.2257 131.907 30.6563 132.69 30.6563C133.094 30.6703 133.497 30.5951 133.869 30.4361L134.011 30.992C133.559 31.1822 133.073 31.2751 132.584 31.2645C131.271 31.2645 130.487 30.3923 130.487 29.1066C130.487 27.8209 131.244 26.8162 132.486 26.8162C133.888 26.8162 134.249 28.0325 134.249 28.8159C134.252 28.9381 134.243 29.0603 134.222 29.1808L131.23 29.1771ZM133.502 28.6225C133.511 28.1359 133.3 27.3708 132.428 27.3708C131.635 27.3708 131.3 28.0848 131.238 28.6225H133.502Z" fill="#898989"/>
<path d="M135.537 26.9037L136.145 27.8208C136.313 28.058 136.446 28.2697 136.586 28.5069H136.604C136.745 28.2636 136.886 28.041 137.036 27.8111L137.626 26.9037H138.477L137.017 28.9715L138.506 31.1732H137.634L137 30.2134C136.833 29.9702 136.691 29.7269 136.542 29.4739H136.525C136.384 29.7293 136.243 29.9604 136.075 30.2134L135.458 31.1732H134.607L136.122 28.9983L134.677 26.9098L135.537 26.9037Z" fill="#898989"/>
<path d="M140.005 26.9037V28.6224H142.022V26.9037H142.798V31.1671H142.022V29.2391H140.005V31.1671H139.23V26.9037H140.005Z" fill="#898989"/>
<path d="M144.777 26.9037V28.7015C144.777 29.3705 144.759 29.8023 144.723 30.4105L144.75 30.419C145.014 29.8996 145.155 29.5992 145.446 29.1065L146.776 26.9037H147.684V31.1671H146.938V29.362C146.938 28.6662 146.957 28.3049 146.992 27.6092H146.974C146.691 28.1639 146.516 28.5069 146.261 28.9387C145.854 29.5992 145.379 30.419 144.93 31.1671H144.031V26.9037H144.777Z" fill="#898989"/>
<path d="M149.709 26.9037V28.7538H149.894L151.489 26.9037H152.431L150.587 28.8243C151.275 28.9034 151.682 29.362 152.023 30.1283C152.15 30.4841 152.3 30.8311 152.473 31.1671H151.662C151.509 30.8866 151.376 30.5955 151.265 30.2962C150.974 29.6089 150.579 29.2914 149.865 29.2914H149.715V31.1671H148.949V26.9037H149.709Z" fill="#898989"/>
<path d="M153.872 26.9037V28.7015C153.872 29.3705 153.853 29.8023 153.818 30.4105L153.845 30.419C154.109 29.8996 154.25 29.5992 154.541 29.1065L155.871 26.9037H156.779V31.1671H156.038V29.362C156.038 28.6662 156.056 28.3049 156.091 27.6092H156.073C155.792 28.1639 155.616 28.5069 155.36 28.9387C154.955 29.5992 154.48 30.419 154.03 31.1671H153.142V26.9037H153.872Z" fill="#898989"/>
</g>
<defs>
<clipPath id="clip0">
<rect width="156.782" height="35" fill="white" transform="translate(0 0.5)"/>
</clipPath>
</defs>
</svg>
