<svg width="168" height="39" viewBox="0 0 168 39" fill="none" xmlns="http://www.w3.org/2000/svg">
<g clip-path="url(#clip0)">
<path d="M41.6188 34.2103L40.6984 31.8612H37.7387L36.8279 34.2103H35.9594L38.8816 26.7943H39.604L42.5084 34.2103H41.6188ZM40.4256 31.0884L39.5716 28.8026C39.4612 28.5136 39.3459 28.1532 39.229 27.736C39.1416 28.0975 39.0332 28.4536 38.9043 28.8026L38.0342 31.0916L40.4256 31.0884Z" fill="#D9AA5E"/>
<path d="M46.9056 29.3903H44.4104V34.2104H43.5712V28.6727H46.9056V29.3903Z" fill="#D9AA5E"/>
<path d="M50.5186 34.3109C49.7006 34.3109 49.055 34.062 48.5818 33.5641C48.109 33.0663 47.8718 32.3741 47.871 31.4877C47.871 30.5948 48.0906 29.8859 48.5302 29.3609C48.745 29.1024 49.0166 28.8967 49.3238 28.7599C49.6306 28.6231 49.9654 28.5588 50.3014 28.5719C50.6098 28.5569 50.9182 28.6105 51.2038 28.729C51.4894 28.8475 51.745 29.0278 51.9522 29.2571C52.357 29.7138 52.559 30.3155 52.5578 31.0623V31.5932H48.741C48.7574 32.2426 48.9198 32.7361 49.2282 33.0738C49.5366 33.4115 49.9754 33.5798 50.5446 33.5787C51.1534 33.5758 51.755 33.4487 52.3126 33.2053V33.9521C52.0422 34.0721 51.7606 34.1646 51.4718 34.2281C51.1578 34.2876 50.8386 34.3153 50.5186 34.3109ZM50.2914 29.2781C50.0934 29.2692 49.8958 29.3033 49.7122 29.3781C49.5286 29.4529 49.3634 29.5667 49.2282 29.7116C48.9442 30.0502 48.7798 30.4731 48.7606 30.9146H51.6554C51.6554 30.3854 51.5382 29.9811 51.3014 29.7003C51.177 29.5567 51.021 29.4436 50.8458 29.3699C50.671 29.2961 50.481 29.2636 50.2914 29.2749V29.2781Z" fill="#D9AA5E"/>
<path d="M55.0009 28.6727V30.9926H58.1033V28.6727H58.9345V34.2104H58.0969V31.7151H55.0009V34.2104H54.1613V28.6727H55.0009Z" fill="#D9AA5E"/>
<path d="M64.626 29.3903H62.8272V34.2104H61.988V29.3903H60.21V28.6727H64.626V29.3903Z" fill="#D9AA5E"/>
<path d="M68.1142 34.3109C67.3122 34.3109 66.6914 34.0641 66.2522 33.5705C65.8126 33.077 65.5918 32.3795 65.5898 31.4779C65.5898 30.5514 65.8126 29.8355 66.2586 29.3301C66.7046 28.8246 67.3402 28.5719 68.1662 28.5719C68.4346 28.5724 68.7022 28.6013 68.965 28.6579C69.1814 28.6991 69.3918 28.7667 69.5914 28.8593L69.3334 29.5719C69.1362 29.495 68.933 29.4337 68.7262 29.3885C68.5362 29.3433 68.3418 29.3189 68.1466 29.3154C67.0222 29.3154 66.4594 30.0325 66.4582 31.4665C66.4582 32.1462 66.5958 32.6685 66.8706 33.0332C67.1454 33.3979 67.5518 33.5797 68.0898 33.5787C68.5782 33.5731 69.0606 33.4722 69.5102 33.2816V34.0235C69.0746 34.2289 68.5958 34.3273 68.1142 34.3109Z" fill="#D9AA5E"/>
<path d="M74.7358 29.3903H72.937V34.2104H72.0994V29.3903H70.3134V28.6727H74.7294L74.7358 29.3903Z" fill="#D9AA5E"/>
<path d="M80.4057 30.0317C80.4161 30.183 80.3937 30.3348 80.3401 30.4767C80.2861 30.6185 80.2021 30.7469 80.0941 30.8532C79.8473 31.0618 79.5457 31.1953 79.2253 31.2379V31.2834C79.6961 31.3467 80.0373 31.4863 80.2581 31.6974C80.3697 31.8138 80.4565 31.952 80.5121 32.1035C80.5681 32.2549 80.5921 32.4162 80.5825 32.5773C80.5937 32.8074 80.5477 33.0367 80.4485 33.2446C80.3493 33.4525 80.2001 33.6327 80.0145 33.7689C79.6345 34.0482 79.0825 34.1878 78.3537 34.1878H75.9185V28.6404H78.3537C79.7229 28.6404 80.4069 29.1042 80.4057 30.0317ZM79.5941 30.1129C79.6029 29.9975 79.5781 29.8819 79.5229 29.7802C79.4677 29.6785 79.3841 29.595 79.2821 29.5398C78.9857 29.412 78.6629 29.3563 78.3405 29.3775H76.7593V30.9376H78.1785C78.6977 30.9376 79.0637 30.8737 79.2757 30.746C79.3809 30.6794 79.4657 30.585 79.5205 30.4733C79.5757 30.3616 79.5989 30.2369 79.5873 30.1129H79.5941ZM79.7565 32.5124C79.7641 32.3833 79.7365 32.2547 79.6761 32.1402C79.6161 32.0257 79.5261 31.9299 79.4153 31.863C79.1881 31.7266 78.8121 31.6584 78.2869 31.6584H76.7661V33.4783H78.3065C79.2633 33.4783 79.7421 33.1563 79.7433 32.5124H79.7565Z" fill="#D9AA5E"/>
<path d="M86.8579 31.4375C86.8579 32.3402 86.6307 33.0437 86.1763 33.5481C85.7215 34.0524 85.0931 34.3057 84.2911 34.3078C83.8283 34.3167 83.3715 34.1964 82.9731 33.9604C82.5831 33.7227 82.2735 33.3739 82.0835 32.9587C81.8647 32.4809 81.7575 31.9596 81.7699 31.4343C81.7699 30.5317 81.9959 29.8281 82.4471 29.3238C82.8983 28.8194 83.5251 28.5678 84.3271 28.5689C85.1007 28.5689 85.7163 28.8265 86.1731 29.3417C86.6295 29.8568 86.8579 30.5555 86.8579 31.4375ZM82.6371 31.4375C82.6371 32.1443 82.7787 32.6855 83.0623 33.061C83.3459 33.4366 83.7615 33.6222 84.3091 33.6179C84.8579 33.6179 85.2751 33.4333 85.5607 33.0643C85.8467 32.6952 85.9883 32.154 85.9863 31.4408C85.9863 30.7362 85.8443 30.2015 85.5607 29.8368C85.2751 29.4699 84.8547 29.2881 84.2995 29.2881C83.7443 29.2881 83.3367 29.4683 83.0559 29.8287C82.7751 30.1891 82.6371 30.7232 82.6371 31.4375Z" fill="#D9AA5E"/>
<path d="M92.1982 28.6727V30.9926H95.299V28.6727H96.1382V34.2104H95.299V31.7151H92.1982V34.2104H91.3602V28.6727H92.1982Z" fill="#D9AA5E"/>
<path d="M100.432 34.3111C99.6137 34.3111 98.9681 34.0622 98.4953 33.5643C98.0221 33.0664 97.7857 32.3743 97.7857 31.4879C97.7857 30.595 98.0053 29.886 98.4449 29.3611C98.6597 29.1024 98.9309 28.8966 99.2381 28.7598C99.5453 28.6229 99.8801 28.5587 100.216 28.5721C100.524 28.5577 100.831 28.6116 101.116 28.7301C101.401 28.8486 101.655 29.0286 101.862 29.2572C102.267 29.714 102.469 30.3157 102.469 31.0625V31.5934H98.6541C98.6705 32.2428 98.8361 32.7379 99.1413 33.074C99.4465 33.41 99.8929 33.5789 100.458 33.5789C101.067 33.576 101.668 33.4489 102.226 33.2055V33.9523C101.956 34.0725 101.674 34.165 101.385 34.2283C101.071 34.2878 100.752 34.3156 100.432 34.3111ZM100.205 29.2783C100.007 29.2696 99.8089 29.3038 99.6253 29.3786C99.4421 29.4534 99.2769 29.5671 99.1413 29.7118C98.8573 30.0504 98.6929 30.4732 98.6737 30.9148H101.57C101.57 30.3855 101.452 29.9808 101.216 29.7004C101.091 29.5568 100.935 29.4438 100.76 29.37C100.585 29.2962 100.395 29.2638 100.205 29.2751V29.2783Z" fill="#D9AA5E"/>
<path d="M108.884 36.1261H108.073V34.2104H104.202V36.1261H103.391V33.4879H103.824C104.296 32.8334 104.656 32.104 104.886 31.3303C105.146 30.4684 105.281 29.5732 105.285 28.6727H108.092V33.4879H108.884V36.1261ZM107.284 33.4879V29.3351H106.04C105.992 30.1079 105.847 30.8715 105.608 31.608C105.41 32.281 105.103 32.9168 104.698 33.4896L107.284 33.4879Z" fill="#D9AA5E"/>
<path d="M114.659 30.0624C114.669 30.2136 114.647 30.3652 114.593 30.507C114.54 30.6488 114.456 30.7773 114.349 30.8839C114.099 31.089 113.797 31.2195 113.477 31.2605V31.306C113.947 31.3698 114.292 31.5078 114.509 31.72C114.621 31.8361 114.707 31.9741 114.763 32.1252C114.819 32.2764 114.843 32.4374 114.834 32.5983C114.845 32.8286 114.799 33.0582 114.7 33.2665C114.601 33.4747 114.452 33.6551 114.266 33.7915C113.886 34.0708 113.334 34.2104 112.605 34.2104H110.17V28.6727H112.605C113.975 28.6727 114.66 29.136 114.659 30.0624ZM113.847 30.1436C113.856 30.0281 113.831 29.9125 113.776 29.8107C113.721 29.709 113.637 29.6255 113.535 29.5705C113.239 29.4418 112.916 29.3862 112.593 29.4082H111.012V30.9699H112.431C112.951 30.9699 113.317 30.9061 113.529 30.7784C113.634 30.7114 113.719 30.6168 113.774 30.5048C113.829 30.3928 113.852 30.2678 113.841 30.1436H113.847ZM114.009 32.5431C114.017 32.414 113.99 32.2852 113.93 32.1706C113.869 32.0561 113.779 31.9603 113.668 31.8937C113.441 31.7573 113.062 31.6891 112.532 31.6891H111.011V33.5106H112.551C113.516 33.5106 113.997 33.186 113.996 32.5366L114.009 32.5431Z" fill="#D9AA5E"/>
<path d="M117.017 28.6727V32.1843L116.981 33.1048L116.966 33.3921L119.961 28.6727H121.007V34.2104H120.225V30.8254L120.239 30.1582L120.265 29.5088L117.273 34.2168H116.227V28.6727H117.017Z" fill="#D9AA5E"/>
<path d="M125.495 28.6841H126.268V31.3661L128.557 28.6841H129.476L127.163 31.3661L129.674 34.2104H128.7L126.265 31.4067V34.2104H125.495V31.4002L123.06 34.2039H122.096L124.601 31.3596L122.292 28.6776H123.213L125.486 31.3596L125.495 28.6841Z" fill="#D9AA5E"/>
<path d="M131.54 28.6727V32.1843L131.501 33.1048L131.487 33.3921L134.482 28.6727H135.528V34.2104H134.748V30.8254L134.763 30.1582L134.789 29.5088L131.799 34.2168H130.751V28.6727H131.54Z" fill="#D9AA5E"/>
<path d="M140.361 33.4019L140.523 32.9327L140.739 32.3369L142.241 28.6841H143.306V34.2039H142.564V29.6387L142.463 29.9309L142.169 30.7037L140.739 34.2104H140.038L138.607 30.6939C138.465 30.3492 138.342 29.9969 138.239 29.6387V34.2104H137.491V28.6906H138.517L139.966 32.2005C140.108 32.5685 140.239 32.969 140.361 33.4019Z" fill="#D9AA5E"/>
<path d="M150.045 31.4375C150.045 32.3402 149.818 33.0437 149.363 33.548C148.909 34.0524 148.28 34.3056 147.478 34.3078C147.015 34.3164 146.559 34.1962 146.16 33.9604C145.771 33.7217 145.462 33.3732 145.27 32.9587C145.053 32.4806 144.946 31.9595 144.957 31.4343C144.957 30.5317 145.183 29.8281 145.634 29.3238C146.086 28.8194 146.712 28.5678 147.514 28.5689C148.288 28.5689 148.904 28.8265 149.362 29.3417C149.82 29.8568 150.047 30.5554 150.045 31.4375ZM145.824 31.4375C145.824 32.1443 145.965 32.6854 146.248 33.061C146.53 33.4328 146.948 33.6178 147.496 33.6178C148.045 33.6178 148.47 33.4328 148.746 33.0642C149.022 32.6957 149.173 32.1551 149.173 31.4408C149.173 30.7264 149.03 30.2021 148.746 29.8368C148.462 29.4715 148.045 29.2897 147.49 29.2897C146.934 29.2897 146.525 29.4699 146.246 29.8303C145.967 30.1907 145.827 30.7232 145.827 31.4375H145.824Z" fill="#D9AA5E"/>
<path d="M153.905 34.3109C153.104 34.3109 152.483 34.0641 152.044 33.5705C151.606 33.077 151.384 32.3805 151.384 31.4779C151.384 30.5753 151.608 29.8349 152.054 29.3301C152.5 28.8251 153.135 28.5719 153.962 28.5719C154.23 28.5724 154.497 28.6013 154.759 28.6579C154.975 28.6988 155.186 28.7664 155.386 28.8593L155.129 29.5719C154.932 29.4952 154.728 29.4339 154.522 29.3885C154.331 29.3433 154.136 29.3187 153.94 29.3154C152.815 29.3154 152.253 30.0325 152.254 31.4665C152.254 32.1462 152.391 32.6685 152.664 33.0332C152.94 33.3968 153.346 33.5787 153.885 33.5787C154.373 33.5733 154.855 33.4723 155.304 33.2816V34.0235C154.867 34.2295 154.388 34.3281 153.905 34.3109Z" fill="#D9AA5E"/>
<path d="M160.529 29.3903H158.73V34.2104H157.891V29.3903H156.113V28.6727H160.529V29.3903Z" fill="#D9AA5E"/>
<path d="M162.588 28.6727V32.1843L162.552 33.1048L162.538 33.3921L165.533 28.6727H166.58V34.2104H165.796V30.8254L165.812 30.1582L165.837 29.5088L162.846 34.2168H161.799V28.6727H162.588Z" fill="#D9AA5E"/>
<path d="M13.3145 14.7189C13.7058 14.7189 14.0321 14.7482 14.2675 14.7725C14.6296 14.7907 14.9868 14.8652 15.326 14.9933C15.6068 15.1102 15.8244 15.1995 15.8487 15.3602C15.878 15.5485 15.6166 15.6719 15.1036 16.0908C14.3048 16.7402 14.0353 17.1899 13.9542 17.3327C13.8526 17.5049 13.7735 17.6893 13.7188 17.8815C13.6895 17.9903 13.4931 18.7711 13.8373 19.0439C13.9493 19.1332 14.0175 19.0861 14.2155 19.2062C14.3563 19.2985 14.4762 19.419 14.5678 19.5601C14.8211 19.9043 15.5906 20.0667 16.1913 19.9903C17.1296 19.8719 17.9398 19.1251 18.0729 18.3847C18.1104 18.0503 18.1104 17.7127 18.0729 17.3782C18.029 16.8441 17.9398 16.6444 18.0599 16.3846C18.18 16.1249 18.4057 16.0356 18.6996 15.8619C19.4561 15.4187 19.8019 15.1329 19.9285 14.844C19.9837 14.7141 19.987 14.4479 19.9934 13.917C19.9934 13.2481 20.0016 12.9137 19.849 12.8455C19.6704 12.7643 19.3424 13.0208 19.1704 13.2757C18.956 13.5923 19.073 13.7627 18.857 14.0874C18.6411 14.4121 18.2823 14.5745 18.2158 14.5193C18.1492 14.4641 18.4528 14.1459 18.6086 13.6296C18.7921 13.0241 18.4576 12.8293 18.6476 12.4542C18.7142 12.3243 19.0405 12.1117 19.6931 11.6847C19.9594 11.5094 20.1526 11.3909 20.2418 11.1489C20.297 10.9963 20.2694 10.9087 20.3328 10.7171C20.4172 10.459 20.5844 10.1862 20.6574 10.2073C20.7305 10.2284 20.6721 10.6165 20.6704 10.8746C20.6704 11.9623 21.8897 12.9624 22.7485 13.4218C23.9937 14.0874 25.1139 13.9592 25.1122 14.1134C25.1122 14.3423 22.6543 14.2433 20.4886 15.3813C19.4821 15.909 19.0518 16.4333 18.8554 16.922C18.758 17.1639 18.633 17.6087 18.581 17.7971C18.3911 18.4741 18.3992 18.6201 18.2937 19.0001C18.1443 19.5342 17.8196 20.6949 17.0388 20.9206C16.8374 20.9774 16.6442 20.9417 16.2546 20.867C15.5224 20.729 15.2708 20.4693 14.662 20.2858C14.2212 20.1598 13.7624 20.1088 13.3048 20.1349C12.8418 20.1089 12.3776 20.1599 11.9313 20.2858C11.3225 20.4693 11.0709 20.729 10.3371 20.867C9.94904 20.9417 9.75424 20.9774 9.55292 20.9206C8.77368 20.6949 8.44896 19.5342 8.2996 19.0001C8.19408 18.6201 8.2006 18.4741 8.01224 17.7971C7.95868 17.6087 7.83532 17.1639 7.73788 16.922C7.54144 16.435 7.1096 15.909 6.10468 15.3813C3.93898 14.2449 1.48267 14.3423 1.48105 14.1134C1.48105 13.9511 2.59799 14.0874 3.84482 13.4218C4.70364 12.9624 5.92612 11.9607 5.92124 10.8746C5.92124 10.6165 5.85144 10.2252 5.93584 10.2073C6.02028 10.1895 6.17612 10.459 6.26052 10.7171C6.32224 10.9087 6.29624 10.9963 6.35144 11.1489C6.43912 11.3909 6.63392 11.5094 6.9002 11.6847C7.54956 12.1117 7.87428 12.3243 7.94568 12.4542C8.13564 12.8293 7.8012 13.0241 7.98464 13.6296C8.147 14.1459 8.44736 14.4527 8.37592 14.5193C8.30448 14.5858 7.9522 14.4024 7.73628 14.0874C7.52036 13.7725 7.6356 13.6004 7.42292 13.2757C7.24924 13.0208 6.92292 12.7643 6.74272 12.8455C6.59172 12.9137 6.59172 13.2481 6.59984 13.917C6.59984 14.4479 6.60796 14.7141 6.6648 14.844C6.7914 15.1329 7.1372 15.4187 7.89376 15.8619C8.1876 16.0356 8.41164 16.1249 8.5334 16.3846C8.65516 16.6444 8.56424 16.8441 8.5204 17.3782C8.48284 17.7127 8.48284 18.0503 8.5204 18.3847C8.65352 19.1251 9.462 19.8719 10.402 19.9903C10.9994 20.0667 11.7673 19.9043 12.0255 19.5601C12.1183 19.4195 12.2387 19.2991 12.3794 19.2062C12.5774 19.0796 12.6456 19.1267 12.7576 19.0439C13.1018 18.7711 12.9038 17.9903 12.8746 17.8815C12.8214 17.6889 12.7428 17.5044 12.6408 17.3327C12.558 17.1899 12.2885 16.7451 11.4897 16.0908C10.9783 15.6719 10.717 15.5485 10.7462 15.3602C10.7705 15.1979 10.9881 15.1102 11.2689 14.9933C11.6076 14.8652 11.9642 14.7907 12.3258 14.7725C12.5628 14.7482 12.8892 14.7238 13.2804 14.7189" fill="#D9AA5E"/>
<path d="M21.3362 8.44919C21.1933 8.50923 21.3638 9.20083 21.5976 10.1473C21.8233 11.063 21.9401 11.5273 22.1463 11.7708C22.5749 12.2724 23.2081 12.438 24.0523 12.6588C24.864 12.8715 24.9273 12.7449 25.2033 12.9202C26.2342 13.581 25.8982 15.7028 26.0914 15.7158C26.2115 15.7158 26.4761 14.9041 26.5086 13.9398C26.6255 10.7821 24.2065 8.12935 24.0523 8.21375C24.0036 8.24135 24.1919 8.53847 24.3932 9.44111C24.5945 10.3438 24.7179 10.8811 24.4971 11.0354C24.1724 11.2724 23.1853 10.4818 22.721 10.0434C21.8135 9.18623 21.4937 8.38099 21.3362 8.44919Z" fill="#D9AA5E"/>
<path d="M5.25796 8.56621C5.4008 8.62789 5.23036 9.31949 4.9982 10.2644C4.77092 11.1816 4.65404 11.6443 4.44948 11.8878C4.01924 12.3895 3.38609 12.5551 2.54189 12.7759C1.73015 12.9902 1.66684 12.8619 1.39247 13.0373C0.359946 13.6947 0.696003 15.815 0.502811 15.8296C0.382675 15.8296 0.118049 15.0179 0.0855797 14.0535C-0.0231925 10.8927 2.38766 8.24801 2.54189 8.33241C2.59059 8.35841 2.40227 8.65713 2.20258 9.55977C2.00289 10.4624 1.87789 10.9982 2.09706 11.154C2.43636 11.3894 3.41044 10.5988 3.87313 10.1605C4.78064 9.30489 5.10048 8.49965 5.25796 8.56621Z" fill="#D9AA5E"/>
<path d="M13.0798 8.83396L10.3621 7.66504C10.3777 7.51688 10.3689 7.36716 10.3361 7.22184C10.2702 6.88188 10.0731 6.58156 9.78742 6.38576C9.09258 6.001 7.89122 7.07084 7.72398 7.22184C6.79861 8.04656 6.55346 8.92812 6.39114 8.8664C6.22878 8.80472 6.27909 7.96216 6.67849 7.22184C7.02429 6.57244 7.4399 6.38412 7.3587 6.17632C7.2337 5.85164 6.15734 6.0026 5.63298 6.0708C4.76277 6.18608 3.96242 6.2932 3.12471 6.69908C1.06615 7.69752 0.335591 9.75444 0.0677186 9.62456C-0.143332 9.52068 0.176491 8.36152 0.590475 7.35172C1.14029 6.01712 1.91145 4.78492 2.87145 3.70703C3.03379 3.79308 3.26595 3.91321 3.55655 4.03172C3.78221 4.13076 3.95917 4.19407 3.98839 4.20868C4.68325 4.4652 5.69954 3.97166 6.82946 3.88399C7.28814 3.84672 7.74978 3.87294 8.2013 3.96192C9.47734 4.22005 10.3118 5.0042 10.9433 5.60812C11.882 6.51492 12.6111 7.61588 13.0798 8.83396Z" fill="#D9AA5E"/>
<path d="M13.5099 8.83389L16.2276 7.66501C16.212 7.51685 16.2208 7.36713 16.2536 7.22181C16.3202 6.88213 16.5172 6.58201 16.8023 6.38569C17.4988 6.00093 18.6985 7.07081 18.8673 7.22181C19.7911 8.04653 20.0378 8.92805 20.1986 8.86637C20.3593 8.80469 20.3122 7.96209 19.9112 7.22181C19.567 6.57241 19.1514 6.38409 19.2326 6.17629C19.356 5.85157 20.4324 6.00257 20.9568 6.07077C21.8286 6.18601 22.6273 6.29317 23.465 6.69905C25.5236 7.69749 26.2558 9.75441 26.522 9.62129C26.7347 9.51737 26.4132 8.35821 25.9992 7.34841C25.4513 6.01469 24.683 4.78261 23.7264 3.70374C23.564 3.78978 23.3302 3.90992 23.0396 4.02843C22.814 4.12746 22.6386 4.19078 22.6094 4.20539C21.913 4.46189 20.8967 3.96836 19.7684 3.8807C19.3097 3.84342 18.848 3.86964 18.3965 3.95862C17.1189 4.21675 16.286 5.00089 15.6529 5.60481C14.712 6.51237 13.9806 7.61437 13.5099 8.83389Z" fill="#D9AA5E"/>
<path d="M13.2866 6.88578C13.5772 6.2997 14.5172 4.55122 16.2559 3.71026C16.8081 3.45687 17.387 3.26627 17.9816 3.14204C18.595 3.02727 19.2182 2.97289 19.8422 2.9797C20.451 2.9797 20.8162 3.05113 21.5078 2.96022C21.7858 2.94345 22.0595 2.88432 22.3196 2.78488C23.1492 2.41635 23.6183 1.465 23.456 1.29453C23.3651 1.19713 23.1086 1.39682 22.6134 1.54942C21.8569 1.7832 21.2172 1.68742 20.6539 1.60787C18.9947 1.36597 18.4654 0.476308 17.4134 0.273374C16.5838 0.112651 15.0984 0.523388 13.1259 2.61929" fill="#D9AA5E"/>
<path d="M13.2865 6.88573C12.9943 6.29965 12.0754 4.54793 10.3367 3.70698C9.7851 3.45347 9.20678 3.26287 8.61258 3.13876C7.99866 3.02392 7.37498 2.96955 6.75046 2.97642C6.14326 2.98453 5.77638 3.04785 5.08478 2.95693C4.8101 2.93936 4.5397 2.88025 4.28278 2.7816C3.45318 2.41307 2.98399 1.46172 3.14634 1.29126C3.23726 1.19385 3.49377 1.39353 3.98892 1.54614C4.74546 1.77992 5.3851 1.68413 5.94846 1.60459C7.60762 1.36593 8.12714 0.473028 9.18078 0.270095C10.0104 0.107748 11.3221 0.349645 13.2963 2.44392" fill="#D9AA5E"/>
<path d="M15.4005 13.0144C15.3404 13.0144 15.3615 12.3487 15.3128 11.3909C15.2852 10.8422 15.2576 10.6603 15.3615 10.3827C15.4978 10.0398 15.7423 9.75075 16.058 9.55959C16.4249 9.34531 16.7967 9.33391 17.4103 9.31443C17.6783 9.32211 17.9464 9.30907 18.2123 9.27547C18.4433 9.23931 18.6701 9.17999 18.8893 9.09851C18.9229 9.19279 18.9394 9.29231 18.938 9.39239C18.9234 10.0596 18.0078 10.4785 17.9639 10.4996C17.7148 10.6028 17.4551 10.6785 17.1895 10.7252C16.9485 10.7441 16.7143 10.8144 16.5028 10.9314C16.3762 11.011 16.2122 11.149 16.2382 11.2058C16.2641 11.2626 16.3697 11.2318 16.4249 11.2253C16.5872 11.2058 17.5337 11.084 17.5613 11.1668C17.5775 11.2107 17.3259 11.36 17.0613 11.451C16.8275 11.5305 16.7252 11.5142 16.2983 11.6133C16.1849 11.6357 16.0732 11.6656 15.9638 11.7026C15.4232 11.9558 15.4784 13.0176 15.4005 13.0144Z" fill="#D9AA5E"/>
<path d="M11.1845 13.0728C11.2462 13.0728 11.2251 12.4071 11.2722 11.4493C11.2998 10.8989 11.3274 10.7171 11.2234 10.4395C11.0882 10.0964 10.8441 9.80725 10.5286 9.61641C10.1617 9.40209 9.78992 9.39073 9.17624 9.37125C8.90776 9.37893 8.63912 9.36589 8.37264 9.33229C8.14224 9.29717 7.916 9.23897 7.69728 9.15857C7.66252 9.25317 7.64544 9.35329 7.64696 9.45405C7.66316 10.1213 8.5788 10.5385 8.62104 10.5597C8.87236 10.6623 9.13424 10.7369 9.40192 10.7821C9.6424 10.8009 9.87604 10.8712 10.087 10.9882C10.2153 11.0694 10.3776 11.2058 10.3516 11.2626C10.3257 11.3194 10.2201 11.2886 10.1649 11.2821C10.0026 11.2626 9.05772 11.1409 9.02852 11.2237C9.01392 11.2691 9.26392 11.4168 9.52856 11.5077C9.76232 11.5873 9.86624 11.5727 10.2932 11.6701C10.4031 11.6933 10.5115 11.7232 10.6179 11.7594C11.1585 12.0143 11.1066 13.0777 11.1845 13.0728Z" fill="#D9AA5E"/>
<path d="M18.0081 21.6755C18.4253 22.0278 21.083 24.3445 20.9953 27.8139C20.9287 30.4357 19.3134 32.9619 16.9691 34.3207C17.1773 33.4051 17.0494 32.4452 16.6087 31.616C16.8829 31.4531 17.1377 31.2598 17.3685 31.0397C18.9611 29.7409 19.479 27.3057 18.9124 25.3657C18.5815 24.2995 17.9509 23.351 17.0957 22.6334L9.42973 22.734C8.97629 23.1582 8.59277 23.6513 8.29329 24.1951C7.24129 26.1173 7.11465 29.0103 8.69265 30.689C9.00269 31.0204 9.35537 31.3092 9.74141 31.5478C9.41913 32.1294 9.25141 32.784 9.25437 33.4489C9.25473 33.7012 9.27917 33.9529 9.32745 34.2006C7.44909 33.0236 6.11945 31.0754 5.73145 29.0412C5.17297 26.1189 6.68117 23.674 6.79321 23.5003C7.20817 22.8485 7.72313 22.2661 8.31925 21.7745L18.0081 21.6755Z" fill="#D9AA5E"/>
<path d="M13.1513 38.2187C12.047 38.2176 10.9773 37.8332 10.1249 37.1312C9.27249 36.4292 8.69017 35.453 8.47733 34.3694C8.41981 34.0687 8.39045 33.7632 8.38969 33.457C8.41269 32.2096 8.92441 31.021 9.81473 30.147C10.7051 29.273 11.9029 28.7833 13.1505 28.7833C14.3981 28.7833 15.5959 29.273 16.4863 30.147C17.3766 31.021 17.8883 32.2096 17.9113 33.457C17.9115 34.0823 17.7886 34.7014 17.5495 35.2791C17.3103 35.8568 16.9597 36.3817 16.5177 36.8239C16.0757 37.2661 15.5509 37.6169 14.9733 37.8562C14.3957 38.0955 13.7765 38.2187 13.1513 38.2187ZM10.1414 34.0464C10.2926 34.822 10.7365 35.5098 11.3811 35.967C12.0256 36.4243 12.8214 36.616 13.6035 36.5023C14.3855 36.3886 15.0939 35.9784 15.5816 35.3566C16.0694 34.7348 16.2992 33.9492 16.2233 33.1626C16.1475 32.3759 15.7718 31.6486 15.1743 31.1315C14.5767 30.6144 13.803 30.347 13.0136 30.3849C12.2243 30.4227 11.4797 30.7629 10.9344 31.3349C10.3891 31.9069 10.0848 32.6668 10.0846 33.457C10.0848 33.6548 10.1039 33.8522 10.1414 34.0464Z" fill="#D9AA5E"/>
<path d="M19.9409 17.6007C19.9497 18.3076 19.714 18.9958 19.2737 19.5489C19.5426 19.6022 19.7967 19.713 20.0189 19.8735C20.2914 20.0639 20.5024 20.3297 20.6261 20.6382C20.8047 21.1107 20.7007 21.5847 20.6261 21.937C20.5514 22.2893 20.4832 22.3348 20.5092 22.5247C20.566 22.9468 20.9767 23.1887 21.1586 23.3364C21.5449 23.6384 21.9167 24.2926 21.8437 25.8447C22.1244 25.6928 22.3819 25.5015 22.6083 25.2765C22.8892 24.9972 23.2577 24.6271 23.3535 24.0426C23.3992 23.6879 23.3429 23.3275 23.1911 23.0036C22.9931 22.5426 22.7561 22.476 22.5417 22.0296C22.401 21.7368 22.3335 21.4142 22.3453 21.0895C22.3924 20.3249 22.9947 19.8249 23.1489 19.6982C22.8791 19.3507 22.5702 19.0353 22.2284 18.7582C21.5598 18.2097 20.7789 17.8146 19.9409 17.6007Z" fill="#D9AA5E"/>
<path d="M20.8656 15.7385C20.752 16.3879 20.8916 16.7662 21.0491 16.9935C21.4387 17.5584 22.0978 17.4253 23.2164 18.1948C23.8658 18.6397 23.9307 18.88 23.9486 18.979C24.0168 19.3378 23.8041 19.7306 23.5037 20.2778C23.3414 20.583 23.2943 20.6024 23.2424 20.7226C23.08 21.0911 23.1433 21.7454 24.184 22.9954C24.5625 22.5196 24.8866 22.0028 25.1499 21.4548C25.8634 19.9223 26.1177 18.216 25.8821 16.5422C25.6207 16.6574 25.1938 16.6347 24.7132 16.5746C23.8089 16.4626 23.0492 15.8846 22.6953 14.87L20.8656 15.7385Z" fill="#D9AA5E"/>
<path d="M6.85205 17.5487C6.84789 17.8673 6.89393 18.1845 6.98845 18.4887C7.10149 18.8514 7.28093 19.19 7.51769 19.4871C7.24877 19.5442 6.99525 19.6583 6.77413 19.8216C6.50117 20.0107 6.28997 20.2761 6.16697 20.5846C5.98837 21.0587 6.09065 21.5327 6.16697 21.8834C6.24325 22.2341 6.30981 22.2811 6.28385 22.4711C6.22701 22.8932 5.81465 23.1351 5.63445 23.2747C5.24809 23.5767 4.87629 24.2309 4.94773 25.7829C4.66725 25.6307 4.40981 25.4393 4.18309 25.2147C3.90384 24.9355 3.53369 24.5653 3.43953 23.9809C3.39469 23.6262 3.45097 23.266 3.60188 22.9419C3.80156 22.4808 4.03861 22.4126 4.25125 21.9678C4.39093 21.6747 4.45777 21.3523 4.44609 21.0278C4.40061 20.2631 3.79669 19.7631 3.63434 19.6365C3.9048 19.289 4.21421 18.9736 4.55649 18.6965C5.22797 18.1498 6.01177 17.7579 6.85205 17.5487Z" fill="#D9AA5E"/>
<path d="M5.81944 15.7126C5.93308 16.362 5.79344 16.7402 5.6376 16.9659C5.24632 17.5325 4.5872 17.3994 3.46864 18.1689C2.81925 18.6121 2.75594 18.854 2.73646 18.953C2.66989 19.3102 2.88257 19.7047 3.18129 20.2518C3.34363 20.557 3.39071 20.5765 3.44267 20.6966C3.60501 21.0651 3.5417 21.7194 2.50105 22.9695C2.11985 22.4933 1.79313 21.976 1.52697 21.4272C0.81349 19.8953 0.559174 18.1895 0.79479 16.5162C1.05617 16.6314 1.48314 16.6087 1.96369 16.5486C2.86796 16.4366 3.62774 15.8587 3.98328 14.844L5.81944 15.7126Z" fill="#D9AA5E"/>
<path d="M13.3689 27.0168C13.3559 27.0379 13.3299 27.0314 13.317 27.0168C12.9756 26.5062 12.4515 26.146 11.8526 26.0102C11.399 25.9243 10.93 25.981 10.51 26.1726C10.1009 25.1384 9.65927 23.8851 9.86059 23.7374C10.2129 23.489 11.4743 23.8413 11.937 23.8819C13.2358 23.9939 14.3105 23.9988 15.5752 23.7439C16.4178 23.5815 16.7408 23.7146 16.7928 23.7439C17.0201 23.8429 16.5525 25.1401 16.1434 26.1791C15.6595 25.949 15.1073 25.9073 14.5944 26.0622C14.0815 26.2171 13.6446 26.5574 13.3689 27.0168Z" fill="#D9AA5E"/>
<path d="M36.1326 17.7711C36.2342 17.7713 36.3347 17.7514 36.4285 17.7125C36.5223 17.6736 36.6074 17.6165 36.679 17.5445C36.7506 17.4725 36.8071 17.387 36.8454 17.293C36.8837 17.1989 36.903 17.0982 36.9021 16.9967V7.35819C36.903 7.25667 36.8837 7.15595 36.8454 7.06195C36.8071 6.96791 36.7506 6.88243 36.679 6.81043C36.6074 6.73839 36.5223 6.68127 36.4285 6.64239C36.3347 6.60347 36.2342 6.58355 36.1326 6.58379H35.4492V6.15355H44.2595L44.3459 5.55127H44.6867V9.68135H44.3459L44.2595 8.90695C44.1235 7.72023 42.9771 6.58379 41.6071 6.58379H38.5224V17.7711H40.0615V18.2029H35.4492V17.7711H36.1326Z" fill="#D9AA5E"/>
<path d="M40.3798 18.4936H35.1409V17.4805H36.1345C36.197 17.4797 36.2587 17.4664 36.316 17.4412C36.3733 17.4162 36.4249 17.3798 36.4679 17.3344C36.5109 17.289 36.5443 17.2354 36.5663 17.1769C36.5882 17.1183 36.5981 17.056 36.5955 16.9935V7.35819C36.5981 7.29571 36.5882 7.23335 36.5663 7.17475C36.5443 7.11619 36.5109 7.06263 36.4679 7.01723C36.4249 6.97179 36.3733 6.93547 36.316 6.91039C36.2587 6.88531 36.197 6.87195 36.1345 6.87115H35.1409V5.86135H43.9986L44.083 5.25903H45.0066V9.97035H44.075L43.961 8.93455C43.8362 7.94263 42.8622 6.87439 41.6086 6.87439H38.8489V17.4805H40.3878L40.3798 18.4936ZM36.6929 17.9107H38.2223V6.44415H36.6929C36.8519 6.53803 36.9837 6.67167 37.0754 6.83191C37.1671 6.99219 37.2154 7.17355 37.2157 7.35819V16.9967C37.2154 17.1813 37.1671 17.3627 37.0754 17.523C36.9837 17.6832 36.8519 17.8169 36.6929 17.9107ZM42.5262 6.44415C42.9374 6.58931 43.3142 6.81779 43.6334 7.11531C43.9522 7.41279 44.2066 7.77295 44.3802 8.17315V6.44415H42.5262Z" fill="#D9AA5E"/>
<path d="M46.8578 18.2028V17.771H47.543C47.6446 17.771 47.745 17.7509 47.8386 17.712C47.9322 17.673 48.0174 17.6158 48.089 17.5439C48.1606 17.4719 48.217 17.3865 48.2554 17.2926C48.2938 17.1986 48.3134 17.0981 48.3126 16.9966V7.35808C48.3134 7.2566 48.2938 7.156 48.2554 7.06208C48.217 6.96816 48.1606 6.88276 48.089 6.8108C48.0174 6.7388 47.9322 6.68168 47.8386 6.64272C47.745 6.60372 47.6446 6.58368 47.543 6.58368H46.8578V6.15344H51.9914C54.7286 6.15344 56.4398 7.85648 56.4398 10.1115C56.4398 12.3665 54.7286 14.0711 51.9914 14.0711H49.9378V17.771H51.4782V18.2028H46.8578ZM49.9426 13.6409H51.6538C53.365 13.6409 54.6474 12.3665 54.6474 10.1115C54.6474 7.85648 53.365 6.58368 51.6538 6.58368H49.9378L49.9426 13.6409Z" fill="#D9AA5E"/>
<path d="M51.7899 18.4936H46.5495V17.4806H47.5447C47.6071 17.4796 47.6687 17.4661 47.7259 17.4409C47.7827 17.4157 47.8343 17.3793 47.8771 17.3339C47.9199 17.2886 47.9531 17.2351 47.9751 17.1766C47.9967 17.1181 48.0067 17.0559 48.0043 16.9936V7.35829C48.0067 7.29593 47.9967 7.23369 47.9751 7.17525C47.9531 7.11677 47.9199 7.06329 47.8771 7.01789C47.8343 6.97249 47.7827 6.93613 47.7259 6.91097C47.6687 6.88577 47.6071 6.87225 47.5447 6.87125H46.5495V5.86145H51.9931C54.7935 5.86145 56.7515 7.60993 56.7515 10.1117C56.7515 12.6135 54.7935 14.3619 51.9931 14.3619H50.2495V17.4806H51.7899V18.4936ZM48.0999 17.9108H49.6291V6.44425H48.0999C48.2591 6.53805 48.3911 6.67161 48.4831 6.83185C48.5751 6.99213 48.6239 7.17353 48.6243 7.35829V16.9968C48.6239 17.1815 48.5751 17.363 48.4831 17.5232C48.3911 17.6835 48.2591 17.817 48.0999 17.9108ZM52.8583 6.50921C54.1491 7.00761 54.9543 8.33237 54.9543 10.1117C54.9543 11.891 54.1423 13.2174 52.8583 13.7158C54.8471 13.4106 56.1311 12.0387 56.1311 10.1117C56.1311 8.18461 54.8471 6.81277 52.8583 6.50921ZM50.2495 13.3489H51.6503C53.2739 13.3489 54.3339 12.0793 54.3339 10.1117C54.3339 8.14405 53.2803 6.87449 51.6503 6.87449H50.2495V13.3489Z" fill="#D9AA5E"/>
<path d="M58.0141 17.7711H58.5273C59.2969 17.7711 59.6393 17.427 59.8957 16.7386L63.8309 5.89551H64.6005L68.7065 16.7386C68.9809 17.4789 69.2193 17.7711 69.9889 17.7711H70.4173V18.203H66.1397V17.7711H67.3377L66.0213 14.3294H61.3129L60.0629 17.7711H61.1749V18.203H58.0141V17.7711ZM65.8833 13.9852L63.6589 7.87451L61.4349 13.9852H65.8833Z" fill="#D9AA5E"/>
<path d="M70.7272 18.4935H65.8292V17.4804H66.896L65.8016 14.6199H61.5304L60.4932 17.4804H61.4816V18.4935H57.704V17.4804H58.5272C59.1048 17.4804 59.3664 17.2775 59.6032 16.6428L63.6084 5.60315H64.8196L68.9984 16.6428C69.2564 17.3408 69.4236 17.4821 69.9888 17.4821H70.7272V18.4935ZM67.7208 17.9107H69.1948C68.8148 17.724 68.6088 17.3635 68.414 16.8343L64.3812 6.18599H64.0564L63.7172 7.12111L66.3148 14.2303L67.7208 17.9107ZM59.3144 17.9107H59.6896L59.8404 17.4934C59.702 17.6736 59.5212 17.8169 59.3144 17.9107ZM61.8696 13.6896H65.4496L63.6636 8.77215L61.8696 13.6896Z" fill="#D9AA5E"/>
<path d="M71.7358 6.58368V6.15344H76.1842V6.58368H74.8154V11.4898H81.2314V7.35808C81.2322 7.25648 81.2126 7.15576 81.1742 7.06172C81.1358 6.96768 81.079 6.8822 81.0074 6.8102C80.9354 6.7382 80.8502 6.68112 80.7566 6.64224C80.6626 6.60336 80.5618 6.58344 80.4602 6.58368H79.777V6.15344H84.225V6.58368H82.8566V17.771H84.225V18.2028H79.777V17.771H80.4602C80.5618 17.7712 80.6626 17.7513 80.7566 17.7124C80.8502 17.6735 80.9354 17.6164 81.0074 17.5444C81.079 17.4725 81.1358 17.387 81.1742 17.293C81.2126 17.1989 81.2322 17.0982 81.2314 16.9966V11.834H74.8154V17.771H76.1842V18.2028H71.7358V17.771H72.4194C72.521 17.7712 72.6214 17.7513 72.7154 17.7124C72.8094 17.6735 72.8946 17.6164 72.9662 17.5444C73.0378 17.4725 73.0946 17.387 73.133 17.293C73.1714 17.1989 73.191 17.0982 73.1906 16.9966V7.35808C73.191 7.25648 73.1714 7.15576 73.133 7.06172C73.0946 6.96768 73.0378 6.8822 72.9662 6.8102C72.8946 6.7382 72.8094 6.68112 72.7154 6.64224C72.6214 6.60336 72.521 6.58344 72.4194 6.58368H71.7358Z" fill="#D9AA5E"/>
<path d="M84.5331 18.4936H79.4647V17.4806H80.4583C80.5207 17.4798 80.5827 17.4664 80.6399 17.4413C80.6971 17.4163 80.7487 17.3799 80.7919 17.3345C80.8347 17.2891 80.8683 17.2355 80.8903 17.177C80.9119 17.1184 80.9219 17.0561 80.9195 16.9936V12.1232H75.1235V17.4806H76.4923V18.4936H71.4239V17.4806H72.4171C72.4799 17.4798 72.5415 17.4664 72.5987 17.4413C72.6563 17.4163 72.7079 17.3799 72.7507 17.3345C72.7939 17.2891 72.8271 17.2355 72.8491 17.177C72.8711 17.1184 72.8811 17.0561 72.8783 16.9936V7.35829C72.8811 7.29581 72.8711 7.23345 72.8491 7.17485C72.8271 7.11629 72.7939 7.06273 72.7507 7.01733C72.7079 6.97189 72.6563 6.93557 72.5987 6.91049C72.5415 6.88541 72.4799 6.87205 72.4171 6.87125H71.4239V5.86145H76.4923V6.87449H75.1235V11.1978H80.9195V7.35829C80.9219 7.29581 80.9119 7.23345 80.8903 7.17485C80.8683 7.11629 80.8347 7.06273 80.7919 7.01733C80.7487 6.97189 80.6971 6.93557 80.6399 6.91049C80.5827 6.88541 80.5207 6.87205 80.4583 6.87125H79.4647V5.86145H84.5331V6.87449H83.1647V17.4806H84.5331V18.4936ZM81.0119 17.9108H82.5411V6.44425H81.0119C81.1711 6.53805 81.3031 6.67161 81.3951 6.83185C81.4871 6.99213 81.5359 7.17353 81.5363 7.35829V16.9968C81.5359 17.1815 81.4871 17.363 81.3951 17.5232C81.3031 17.6835 81.1711 17.817 81.0119 17.9108ZM72.9711 17.9108H74.5003V6.44425H72.9711C73.1299 6.53805 73.2623 6.67161 73.3539 6.83185C73.4459 6.99213 73.4947 7.17353 73.4951 7.35829V16.9968C73.4951 17.1812 73.4467 17.3625 73.3555 17.5227C73.2643 17.6829 73.1327 17.8166 72.9743 17.9108H72.9711Z" fill="#D9AA5E"/>
<path d="M85.454 21.4725V17.771H86.9928L90.5012 6.58368H89.1296V6.15344H96.5716V6.58368H95.1104V17.771H96.7336V21.4725H96.4024L96.318 20.6981C96.164 19.1314 95.2224 18.2028 93.6656 18.2028H88.5336C86.9768 18.2028 86.0352 19.1314 85.8808 20.6981L85.7964 21.4725H85.454ZM87.506 17.771H92.724C92.8252 17.771 92.9256 17.7509 93.0196 17.712C93.1132 17.673 93.198 17.6158 93.2696 17.5439C93.3412 17.4719 93.3976 17.3865 93.436 17.2926C93.4744 17.1986 93.494 17.0981 93.4932 16.9966V7.35808C93.494 7.2566 93.4744 7.156 93.436 7.06208C93.3976 6.96816 93.3412 6.88276 93.2696 6.8108C93.198 6.7388 93.1132 6.68168 93.0196 6.64272C92.9256 6.60372 92.8252 6.58368 92.724 6.58368H91.0144L87.506 17.771Z" fill="#D9AA5E"/>
<path d="M97.0537 21.7633H96.1217L96.0081 20.7275C95.8669 19.2859 95.0341 18.4937 93.6637 18.4937H88.5321C87.1617 18.4937 86.3305 19.2859 86.1893 20.7243L86.0741 21.7633H85.1421V17.4806H86.7657L90.0889 6.87449H88.8261V5.86145H96.8881V6.87449H95.4269V17.4806H97.0505L97.0537 21.7633ZM93.2789 17.9108H93.6637C95.0341 17.9108 96.0213 18.5927 96.4333 19.7778V18.0634H94.8101V6.44425H93.2809C93.4397 6.53805 93.5721 6.67161 93.6637 6.83185C93.7557 6.99213 93.8045 7.17353 93.8049 7.35829V16.9968C93.8045 17.1817 93.7553 17.3632 93.6633 17.5235C93.5709 17.6837 93.4385 17.8173 93.2789 17.9108ZM85.7625 18.0634V19.7762C85.8913 19.373 86.1153 19.0067 86.4157 18.7086C86.7161 18.4104 87.0841 18.1891 87.4881 18.0634H85.7625ZM87.9201 17.4806H92.7237C92.7861 17.4796 92.8477 17.4661 92.9049 17.4409C92.9621 17.4157 93.0133 17.3793 93.0561 17.3339C93.0989 17.2886 93.1325 17.2351 93.1541 17.1766C93.1761 17.1181 93.1861 17.0559 93.1833 16.9936V7.35829C93.1861 7.29593 93.1761 7.23369 93.1541 7.17525C93.1325 7.11677 93.0989 7.06329 93.0561 7.01789C93.0133 6.97249 92.9621 6.93613 92.9049 6.91097C92.8477 6.88577 92.7861 6.87225 92.7237 6.87125H91.2385L87.9201 17.4806Z" fill="#D9AA5E"/>
<path d="M104.853 18.2028V17.771H105.536C105.638 17.7712 105.739 17.7513 105.832 17.7124C105.926 17.6735 106.011 17.6164 106.083 17.5444C106.154 17.4724 106.211 17.3868 106.249 17.2928C106.287 17.1988 106.307 17.0981 106.306 16.9966V7.35808C106.307 7.25656 106.287 7.15584 106.249 7.06184C106.211 6.9678 106.154 6.88232 106.083 6.81028C106.011 6.73828 105.926 6.68116 105.832 6.64228C105.739 6.60336 105.638 6.58344 105.536 6.58368H104.853V6.15344H109.985C112.722 6.15344 114.433 7.85648 114.433 10.1115C114.433 12.3665 112.722 14.0711 109.985 14.0711H107.931V17.771H109.472V18.2028H104.853ZM107.937 13.6409H109.649C111.36 13.6409 112.644 12.3665 112.644 10.1115C112.644 7.85648 111.36 6.58368 109.649 6.58368H107.931L107.937 13.6409Z" fill="#D9AA5E"/>
<path d="M109.785 18.4936H104.554V17.4806H105.547C105.61 17.4796 105.671 17.4661 105.728 17.4409C105.785 17.4157 105.837 17.3793 105.88 17.3339C105.923 17.2886 105.956 17.2351 105.978 17.1766C105.999 17.1181 106.009 17.0559 106.007 16.9936V7.35829C106.009 7.29593 105.999 7.23369 105.978 7.17525C105.956 7.11677 105.923 7.06329 105.88 7.01789C105.837 6.97249 105.785 6.93613 105.728 6.91097C105.671 6.88577 105.61 6.87225 105.547 6.87125H104.554V5.86145H109.996C112.798 5.86145 114.754 7.60993 114.754 10.1117C114.754 12.6135 112.806 14.3619 109.996 14.3619H108.244V17.4806H109.785V18.4936ZM106.095 17.9108H107.625V6.44425H106.095C106.254 6.53781 106.386 6.67133 106.478 6.83161C106.57 6.99193 106.619 7.17345 106.619 7.35829V16.9968C106.619 17.1816 106.57 17.3631 106.478 17.5234C106.386 17.6838 106.254 17.8173 106.095 17.9108ZM110.853 6.50921C112.151 7.00761 112.95 8.33237 112.95 10.1117C112.95 11.891 112.139 13.2174 110.853 13.7158C112.843 13.4106 114.132 12.0387 114.132 10.1117C114.132 8.18461 112.843 6.81277 110.853 6.50921ZM108.244 13.3489H109.645C111.269 13.3489 112.33 12.0793 112.33 10.1117C112.33 8.14405 111.277 6.87449 109.645 6.87449H108.244V13.3489Z" fill="#D9AA5E"/>
<path d="M116.95 6.58368V6.15344H121.467V6.58368H120.03V16.1394L126.524 7.61944V7.35808C126.525 7.2566 126.505 7.156 126.467 7.06208C126.428 6.96816 126.372 6.88276 126.3 6.8108C126.229 6.7388 126.144 6.68168 126.05 6.64272C125.956 6.60372 125.856 6.58368 125.754 6.58368H125.07V6.15344H129.604V6.58368H128.143V17.771H129.604V18.2028H125.076V17.771H125.761C125.862 17.771 125.963 17.7509 126.057 17.712C126.15 17.673 126.235 17.6158 126.307 17.5439C126.378 17.4719 126.435 17.3865 126.473 17.2926C126.512 17.1986 126.531 17.0981 126.53 16.9966V8.30456L120.037 16.8245V17.771H121.49V18.2028H116.95V17.771H117.634C117.736 17.7712 117.836 17.7513 117.93 17.7124C118.024 17.6735 118.109 17.6164 118.18 17.5444C118.252 17.4724 118.308 17.3868 118.347 17.2928C118.385 17.1988 118.404 17.0981 118.404 16.9966V7.35808C118.404 7.25656 118.385 7.15584 118.347 7.06184C118.308 6.9678 118.252 6.88232 118.18 6.81028C118.109 6.73828 118.024 6.68116 117.93 6.64228C117.836 6.60336 117.736 6.58344 117.634 6.58368H116.95Z" fill="#D9AA5E"/>
<path d="M129.918 18.4936H124.764V17.4806H125.759C125.821 17.4796 125.883 17.4661 125.94 17.4409C125.997 17.4157 126.048 17.3793 126.091 17.3339C126.134 17.2886 126.168 17.2351 126.189 17.1766C126.211 17.1181 126.221 17.0559 126.218 16.9936V9.20089L120.338 16.9189V17.4806H121.799V18.4936H116.638V17.4806H117.632C117.694 17.4796 117.756 17.4661 117.813 17.4409C117.87 17.4157 117.922 17.3793 117.964 17.3339C118.007 17.2886 118.04 17.2351 118.062 17.1766C118.084 17.1181 118.094 17.0559 118.091 16.9936V7.35829C118.094 7.29593 118.084 7.23369 118.062 7.17525C118.04 7.11677 118.007 7.06329 117.964 7.01789C117.922 6.97249 117.87 6.93613 117.813 6.91097C117.756 6.88577 117.694 6.87225 117.632 6.87125H116.638V5.86145H121.775V6.87449H120.338V15.2305L126.218 7.52225V7.35989C126.221 7.29757 126.211 7.23533 126.189 7.17685C126.168 7.11841 126.134 7.06489 126.091 7.01953C126.048 6.97413 125.997 6.93777 125.94 6.91257C125.883 6.88741 125.821 6.87389 125.759 6.87285H124.764V5.86145H129.918V6.87449H128.457V17.4806H129.918V18.4936ZM126.314 17.9108H127.844V6.44425H126.314C126.474 6.53781 126.606 6.67133 126.698 6.83161C126.79 6.99193 126.838 7.17345 126.838 7.35829V16.9968C126.838 17.1816 126.79 17.3631 126.698 17.5234C126.606 17.6838 126.474 17.8173 126.314 17.9108ZM118.197 17.9108H119.726V6.44425H118.189C118.348 6.53813 118.48 6.67177 118.571 6.83201C118.663 6.99229 118.711 7.17365 118.712 7.35829V16.9968C118.711 17.1814 118.663 17.3628 118.571 17.5231C118.48 17.6833 118.348 17.817 118.189 17.9108H118.197Z" fill="#D9AA5E"/>
<path d="M132.637 5.98141H132.98V7.01393H133.064C133.387 6.77733 133.734 6.57545 134.098 6.41165C134.986 6.01453 135.948 5.80929 136.92 5.80933C140.342 5.80933 143.08 8.56921 143.08 12.1782C143.08 15.7872 140.376 18.547 136.92 18.547C134.439 18.547 133.259 16.5664 132.472 16.5664C132.147 16.5664 132.027 16.8246 131.908 17.0827C131.848 17.2494 131.808 17.4227 131.788 17.5989H131.446V17.3765C131.446 15.5176 132.045 14.9316 132.644 14.9316C133.926 14.9316 134.714 18.1168 136.92 18.1168C139.23 18.1168 141.284 16.0339 141.284 12.1782C141.282 11.6299 141.236 11.0826 141.146 10.5417H140.685C138.22 10.5417 137.844 14.4153 135.638 14.4153C134.97 14.4153 134.664 14.1393 134.501 13.813C134.412 13.6238 134.36 13.4194 134.348 13.2107H134.689C134.689 13.5549 134.861 13.727 135.204 13.727C136.486 13.727 136.914 10.0254 139.993 10.0254C140.36 10.0157 140.726 10.074 141.071 10.1976C140.47 7.63409 138.795 6.23629 136.912 6.23629C134.792 6.23629 133.387 7.63085 133.149 9.07573L132.986 10.1082H132.637V5.98141Z" fill="#D9AA5E"/>
<path d="M136.914 18.8378C135.218 18.8378 134.074 17.9595 133.317 17.3767C132.992 17.1218 132.64 16.8572 132.466 16.8572C132.369 16.8572 132.318 16.9156 132.194 17.1819C132.143 17.3242 132.109 17.4718 132.091 17.6218L132.067 17.8881H131.13V17.3735C131.13 14.9041 132.185 14.6379 132.638 14.6379C133.351 14.6379 133.876 15.3133 134.424 16.0292C135.074 16.8702 135.814 17.815 136.908 17.815C139.693 17.815 140.967 14.8928 140.967 12.1686C140.966 11.7188 140.933 11.2697 140.869 10.8244H140.678C139.579 10.8244 138.939 11.74 138.26 12.7092C137.582 13.6784 136.871 14.6963 135.631 14.6963C134.936 14.6963 134.46 14.4366 134.218 13.9219C134.114 13.7024 134.052 13.4649 134.038 13.2222L134.014 12.9089H134.999V13.2174C134.999 13.4333 135.066 13.4414 135.204 13.4414C135.528 13.4414 135.888 12.8975 136.265 12.3196C136.976 11.2319 137.947 9.74154 139.999 9.74154C140.217 9.74106 140.434 9.75734 140.648 9.79022C140.028 7.77062 138.63 6.5433 136.914 6.5433C134.928 6.5433 133.668 7.84206 133.458 9.14082L133.246 10.4201H132.328V5.71206H133.289V6.52382C133.478 6.41018 133.694 6.2949 133.95 6.1715C134.882 5.75274 135.892 5.53638 136.913 5.53674C140.541 5.53674 143.382 8.45898 143.382 12.1929C143.382 15.9269 140.543 18.8378 136.914 18.8378ZM132.466 16.276C132.861 16.276 133.236 16.5633 133.71 16.9254C134.184 17.2874 134.801 17.7647 135.588 18.0326C134.9 17.6251 134.379 16.9546 133.929 16.3734C133.479 15.7922 133.036 15.2223 132.63 15.2223C132.182 15.2223 131.88 15.7435 131.78 16.6494C131.851 16.5319 131.952 16.4355 132.072 16.3699C132.193 16.3043 132.329 16.2719 132.466 16.276ZM141.478 10.7026C141.55 11.1913 141.587 11.6844 141.588 12.1783C141.588 14.9074 140.524 17.0228 138.846 17.9287C141.15 17.1169 142.764 14.8798 142.764 12.1783C142.764 9.4769 141.132 7.21054 138.809 6.41342C140.038 7.06282 140.965 8.37294 141.378 10.136L141.512 10.7172L141.478 10.7026ZM135.075 14.0113C135.248 14.0945 135.439 14.1335 135.631 14.1249C136.537 14.1249 137.122 13.2855 137.741 12.3991C138.343 11.5371 139.014 10.5776 140.093 10.3195H139.991C138.293 10.3195 137.496 11.5403 136.793 12.6199C136.306 13.37 135.879 14.0194 135.202 14.0194C135.16 14.0191 135.117 14.0163 135.075 14.0113ZM132.948 7.3047V8.60346C133.257 7.67634 133.914 6.90586 134.781 6.45562C134.595 6.51894 134.41 6.59198 134.223 6.67318C133.884 6.82838 133.562 7.01766 133.262 7.23814L133.177 7.30306L132.948 7.3047Z" fill="#D9AA5E"/>
<path d="M143.534 17.771H144.219C145.091 17.771 145.518 17.3408 145.842 16.3099L148.927 6.58528H147.558V6.15344H154.914V6.58368H153.454V17.771H154.914V18.2028H150.377V17.771H151.062C151.164 17.771 151.264 17.7509 151.357 17.712C151.451 17.673 151.536 17.6158 151.608 17.5439C151.679 17.4719 151.736 17.3865 151.774 17.2926C151.813 17.1986 151.832 17.0981 151.831 16.9966V7.35808C151.832 7.2566 151.813 7.156 151.774 7.06208C151.736 6.96816 151.679 6.88276 151.608 6.8108C151.536 6.7388 151.451 6.68168 151.357 6.64272C151.264 6.60372 151.164 6.58368 151.062 6.58368H149.351L145.844 17.771H147.467V18.2028H143.534V17.771Z" fill="#D9AA5E"/>
<path d="M155.219 18.4936H150.066V17.4806H151.06C151.122 17.4796 151.184 17.4661 151.241 17.4409C151.298 17.4157 151.35 17.3793 151.392 17.3339C151.435 17.2886 151.468 17.2351 151.49 17.1766C151.512 17.1181 151.522 17.0559 151.519 16.9936V7.35829C151.522 7.29593 151.512 7.23369 151.49 7.17525C151.468 7.11677 151.435 7.06329 151.392 7.01789C151.35 6.97249 151.298 6.93613 151.241 6.91097C151.184 6.88577 151.122 6.87225 151.06 6.87125H149.581L146.256 17.4773H147.777V18.4904H143.222V17.4773H144.217C144.821 17.4773 145.212 17.2777 145.545 16.2224L148.506 6.87125H147.248V5.86145H155.219V6.87449H153.758V17.4806H155.219V18.4936ZM151.615 17.9108H153.144V6.44425H151.615C151.774 6.53781 151.907 6.67133 151.999 6.83161C152.091 6.99193 152.139 7.17345 152.14 7.35829V16.9968C152.139 17.1816 152.091 17.3631 151.999 17.5234C151.907 17.6838 151.774 17.8173 151.615 17.9108ZM145.027 17.9108H145.475L145.616 17.4627C145.458 17.6569 145.256 17.8104 145.027 17.9108Z" fill="#D9AA5E"/>
<path d="M157.51 5.55127L157.596 6.15355H167.262L167.348 5.55127H167.691V9.68135H167.348L167.262 8.90695C167.194 8.25731 166.882 7.65743 166.391 7.22687C165.9 6.79627 165.264 6.56667 164.611 6.58379H163.242V17.7711H164.611V18.2029H160.163V17.7711H160.846C160.948 17.7713 161.048 17.7514 161.142 17.7126C161.236 17.6737 161.322 17.6166 161.393 17.5446C161.465 17.4726 161.522 17.3871 161.56 17.2931C161.599 17.199 161.618 17.0983 161.618 16.9967V7.35819C161.618 7.25659 161.599 7.15587 161.56 7.06183C161.522 6.96779 161.465 6.88231 161.393 6.81031C161.322 6.73831 161.236 6.68123 161.142 6.64235C161.048 6.60347 160.948 6.58355 160.846 6.58379H160.249C159.596 6.56627 158.96 6.79567 158.468 7.22627C157.976 7.65687 157.665 8.25703 157.596 8.90695L157.51 9.68135H157.169V5.55127H157.51Z" fill="#D9AA5E"/>
<path d="M164.921 18.4936H159.853V17.4805H160.846C160.909 17.4797 160.97 17.4664 161.027 17.4413C161.085 17.4162 161.137 17.3799 161.179 17.3345C161.223 17.2891 161.256 17.2355 161.278 17.1769C161.3 17.1183 161.31 17.056 161.307 16.9935V7.35821C161.31 7.29573 161.3 7.23337 161.278 7.17481C161.256 7.11625 161.223 7.06265 161.179 7.01725C161.137 6.97185 161.085 6.93553 161.027 6.91041C160.97 6.88533 160.909 6.87197 160.846 6.87117H160.249C159.67 6.85741 159.108 7.06193 158.673 7.44397C158.239 7.82601 157.965 8.35761 157.904 8.93297L157.791 9.97037H156.859V5.26233H157.783L157.867 5.86461H166.991L167.077 5.26233H168.001V9.97037H167.069L166.953 8.93461C166.894 8.35909 166.62 7.82709 166.186 7.44469C165.752 7.06229 165.189 6.85749 164.611 6.87117H163.552V17.4773H164.921V18.4936ZM161.403 17.9108H162.932V6.44421H161.403C161.562 6.53797 161.694 6.67157 161.786 6.83181C161.878 6.99205 161.927 7.17345 161.927 7.35821V16.9967C161.927 17.1815 161.878 17.3629 161.786 17.5231C161.694 17.6834 161.562 17.817 161.403 17.9108ZM165.595 6.44421C165.996 6.57245 166.364 6.78765 166.673 7.07441C166.981 7.36121 167.223 7.71253 167.381 8.10337V6.44421H165.595ZM157.477 6.44421V8.10337C157.635 7.71241 157.876 7.36097 158.185 7.07417C158.493 6.78737 158.862 6.57225 159.263 6.44421H157.477Z" fill="#D9AA5E"/>
</g>
<defs>
<clipPath id="clip0">
<rect width="168" height="38" fill="white" transform="translate(0.000854492 0.229126)"/>
</clipPath>
</defs>
</svg>
