<svg width="175" height="42" viewBox="0 0 175 42" fill="none" xmlns="http://www.w3.org/2000/svg">
<path fill-rule="evenodd" clip-rule="evenodd" d="M0 31.3165H12.1435V30.5081H0V31.3165ZM0 30.0688L12.1435 30.1039V29.8755L0 29.9106V30.0688Z" fill="#D3AD4A"/>
<path fill-rule="evenodd" clip-rule="evenodd" d="M3.84891 14.7972C3.84891 14.7972 3.81376 14.1821 4.35855 13.5846C4.90333 12.9695 6.71343 12.9695 7.50425 12.741C8.2775 12.5126 8.31265 11.9326 8.31265 11.9326V9.57776C8.31265 9.57776 8.29507 10.1401 7.50425 10.3862C6.73101 10.6146 4.92091 10.6146 4.35855 11.2297C3.83133 11.8272 3.84891 12.4423 3.84891 12.4423V14.7972Z" fill="#AB8B2F"/>
<path fill-rule="evenodd" clip-rule="evenodd" d="M8.29461 11.9502C8.29461 11.9502 8.32976 11.3352 7.80255 10.7377C7.25776 10.1226 5.44766 10.1226 4.67441 9.89411C3.90117 9.66565 3.84845 9.08572 3.84845 9.08572V6.71326C3.84845 6.71326 3.88359 7.27562 4.67441 7.52165C5.44766 7.75011 7.25776 7.75011 7.80255 8.36519C8.32976 8.9627 8.29461 9.57778 8.29461 9.57778V11.9502Z" fill="#D3AF4A"/>
<path fill-rule="evenodd" clip-rule="evenodd" d="M3.84891 20.5086C3.84891 20.5086 3.81376 19.8935 4.35855 19.296C4.90333 18.6809 6.71343 18.6809 7.50425 18.4525C8.2775 18.224 8.31265 17.6441 8.31265 17.6441V15.2892C8.31265 15.2892 8.29507 15.8515 7.50425 16.0976C6.73101 16.326 4.92091 16.326 4.35855 16.9411C3.83133 17.5386 3.84891 18.1537 3.84891 18.1537V20.5086Z" fill="#AB8B2F"/>
<path fill-rule="evenodd" clip-rule="evenodd" d="M8.29461 17.6441C8.29461 17.6441 8.32976 17.029 7.80255 16.4315C7.25776 15.8164 5.44766 15.8164 4.67441 15.588C3.90117 15.3595 3.84845 14.7796 3.84845 14.7796V12.4247C3.84845 12.4247 3.88359 12.987 4.67441 13.2331C5.44766 13.4615 7.25776 13.4615 7.80255 14.0766C8.32976 14.6741 8.29461 15.2892 8.29461 15.2892V17.6441Z" fill="#D3AF4A"/>
<path fill-rule="evenodd" clip-rule="evenodd" d="M3.84891 26.22C3.84891 26.22 3.81376 25.6049 4.35855 25.0074C4.90333 24.3924 6.71343 24.3924 7.50425 24.1639C8.2775 23.9354 8.31265 23.3555 8.31265 23.3555V21.0006C8.31265 21.0006 8.29507 21.563 7.50425 21.809C6.73101 22.0375 4.92091 22.0375 4.35855 22.6525C3.83133 23.2501 3.84891 23.8651 3.84891 23.8651V26.22Z" fill="#AB8B2F"/>
<path fill-rule="evenodd" clip-rule="evenodd" d="M8.29638 23.3555C8.29638 23.3555 8.33153 22.7404 7.80432 22.1429C7.25953 21.5278 5.44943 21.5278 4.67618 21.2994C3.90294 21.0709 3.85022 20.491 3.85022 20.491V18.1361C3.85022 18.1361 3.88536 18.6985 4.67618 18.9445C5.44943 19.173 7.25953 19.173 7.80432 19.788C8.33153 20.3856 8.29638 21.0006 8.29638 21.0006V23.3555Z" fill="#D3AF4A"/>
<path fill-rule="evenodd" clip-rule="evenodd" d="M8.29638 29.0143C8.29638 29.0143 8.33153 28.3993 7.80432 27.8017C7.25953 27.1867 5.44943 27.1867 4.67618 26.9582C3.90294 26.7297 3.85022 26.1498 3.85022 26.1498V23.7949C3.85022 23.7949 3.88536 24.3573 4.67618 24.6033C5.44943 24.8318 7.25953 24.8318 7.80432 25.4469C8.33153 26.0444 8.29638 26.6594 8.29638 26.6594V29.0143Z" fill="#D3AF4A"/>
<path fill-rule="evenodd" clip-rule="evenodd" d="M6.04633 2.02103C5.94089 2.09132 5.81787 2.30221 5.71243 2.4428C5.60699 2.58339 5.46639 2.68883 5.55426 2.86457C5.6597 3.07545 5.92331 3.67296 6.04633 3.83113C6.16935 3.69054 6.43295 3.09303 6.53839 2.86457C6.62626 2.67126 6.4681 2.54824 6.36266 2.40765C6.27479 2.30221 6.15177 2.09132 6.04633 2.02103ZM8.01459 4.53408L8.73512 3.05788L7.99702 3.23362L8.01459 4.53408ZM4.14836 4.51651V3.21605L3.41026 3.05788L4.14836 4.51651ZM6.08148 0.175781C6.34508 0.826011 6.74928 1.68713 7.31164 2.31978C7.73341 2.79427 7.5401 2.67126 7.22377 3.37421C7.06561 3.72569 6.83715 4.21775 6.8723 4.63952C7.39951 4.5868 7.52253 3.54995 7.59282 3.09303C7.64554 2.81185 7.68069 2.74155 7.9443 2.65368C8.89328 2.35493 8.85813 2.61854 9.77197 1.7047C9.89499 1.58168 9.93014 1.54654 10.018 1.61683C10.1234 1.79257 9.71925 2.39008 9.61381 2.61854C9.10417 3.67296 8.50666 4.67467 8.33092 5.85211H3.9199C3.74416 4.70982 3.12908 3.65539 2.63702 2.63611C2.56672 2.51309 1.91649 1.49382 2.32069 1.59926L3.05879 2.24949C3.70902 2.74155 4.49984 2.35493 4.62285 3.04031C4.71072 3.5148 4.79859 4.56923 5.34338 4.62195C5.37853 4.20018 5.15007 3.72569 4.9919 3.37421C4.90404 3.1809 4.81617 3.02273 4.7283 2.86457C4.55256 2.58339 4.7283 2.47795 4.86889 2.31978C5.3961 1.72227 5.80029 0.755716 6.08148 0.175781Z" fill="#D3AF4A"/>
<path d="M38.8922 0.667742C38.8922 0.755611 38.8043 0.948923 38.6286 1.24768C38.4528 1.54643 38.2068 2.00335 37.9256 2.60086C37.785 2.89961 37.6444 3.21594 37.4863 3.5147C37.3281 3.81345 37.1699 4.14735 37.0293 4.44611C36.8712 4.76243 36.7306 5.06119 36.6076 5.34237C36.4846 5.62355 36.3615 5.90473 36.2561 6.15076C36.1331 6.44952 36.0101 6.78342 35.8519 7.17004C35.6937 7.55666 35.5531 7.94329 35.4301 8.32991C35.2895 8.71653 35.1841 9.06801 35.0962 9.38434C35.0084 9.70067 34.9556 9.92912 34.9556 10.0873C34.9556 10.2279 34.9908 10.3157 35.0611 10.3509C35.1314 10.3685 35.2192 10.386 35.2895 10.386C35.3774 10.386 35.4828 10.3685 35.5883 10.3157C35.6937 10.263 35.7992 10.2279 35.887 10.1752C35.9925 10.1049 36.0979 10.0346 36.2034 9.96427L36.344 10.2982C36.2209 10.4036 36.0452 10.5442 35.8519 10.7024C35.641 10.8605 35.4301 11.0363 35.1841 11.1944C34.9381 11.3526 34.692 11.4932 34.4284 11.5986C34.1648 11.7041 33.9188 11.7744 33.7079 11.7744C33.5849 11.7744 33.4794 11.7568 33.3916 11.7041C33.3037 11.6514 33.2686 11.5635 33.2686 11.4053C33.2686 11.2999 33.3037 11.1066 33.3916 10.7902C33.4794 10.4915 33.62 10.0697 33.8133 9.5425C33.9715 9.08558 34.1648 8.59352 34.3757 8.0663C34.5866 7.53909 34.7975 7.02945 35.0259 6.51981C35.2368 6.01017 35.4477 5.53568 35.6234 5.09634C35.8168 4.65699 35.9573 4.28794 36.0979 3.98919L35.9925 3.95404C35.7465 4.20007 35.518 4.46368 35.2895 4.70971C35.0611 4.97332 34.7799 5.27207 34.4636 5.62355C34.1472 5.97502 33.743 6.39679 33.2686 6.88886C32.7941 7.38093 32.1965 7.97844 31.476 8.69896C31.1597 9.01529 30.8785 9.29647 30.6325 9.5425C30.3864 9.78853 30.1404 10.0346 29.8944 10.263C29.6483 10.4915 29.4199 10.7024 29.1739 10.9133C28.9278 11.1241 28.6642 11.335 28.3655 11.5459C28.26 11.6338 28.1019 11.7217 27.891 11.8095C27.6801 11.8974 27.4868 11.9501 27.2759 11.9501C27.1177 11.9501 26.9947 11.8974 26.942 11.8095C26.8717 11.7217 26.8541 11.5811 26.8541 11.3877C26.8541 11.2296 26.9068 10.9836 27.0123 10.6497C27.1177 10.3157 27.2407 9.92912 27.3989 9.52493C27.5571 9.10316 27.7152 8.68139 27.9085 8.24204C28.0843 7.8027 28.26 7.3985 28.4006 7.0646C28.8927 5.9223 29.3496 4.8503 29.7714 3.88374C30.1931 2.89961 30.6676 1.91548 31.1597 0.931349H31.0894C30.9312 1.08951 30.6676 1.38827 30.2986 1.81004C29.9295 2.24938 29.4726 2.74145 28.9805 3.33896C28.4709 3.91889 27.9261 4.55155 27.3286 5.21935C26.7311 5.88716 26.1512 6.53739 25.5712 7.15247C25.2549 7.48637 24.921 7.85542 24.552 8.24204C24.1829 8.62866 23.8139 9.01529 23.4097 9.41949C23.023 9.80611 22.6188 10.1927 22.2146 10.5618C21.8104 10.9308 21.4063 11.2647 21.0372 11.5459C20.6506 11.8271 20.2815 12.0556 19.93 12.2313C19.5786 12.407 19.2622 12.4949 18.9811 12.4949C18.6296 12.4949 18.4363 12.3192 18.4363 11.9677C18.4363 11.6514 18.5417 11.335 18.7702 11.0363C18.9986 10.7199 19.2622 10.4563 19.5786 10.263H19.7719C19.7543 10.3157 19.7543 10.3685 19.7543 10.4036C19.7543 10.4388 19.7543 10.4915 19.7543 10.5266C19.7543 10.5794 19.7543 10.6321 19.7719 10.7024C19.7895 10.7727 19.807 10.8254 19.8422 10.8957C19.8773 10.966 19.9476 11.0187 20.0179 11.0538C20.0882 11.089 20.1937 11.1241 20.3167 11.1241C20.4045 11.1241 20.4924 11.1066 20.6154 11.0714C20.7384 11.0363 20.879 10.966 21.0372 10.8605C21.2129 10.7551 21.4062 10.6145 21.6347 10.4388C21.8632 10.263 22.1268 10.017 22.4255 9.73581C23.1988 8.98014 23.9193 8.25962 24.6222 7.55666C25.3252 6.85371 25.993 6.13319 26.6432 5.43024C27.2935 4.70971 27.9261 3.98919 28.5588 3.25109C29.1914 2.51299 29.8065 1.73974 30.4392 0.931349C30.1756 0.878627 29.9295 0.84348 29.6835 0.825906C29.4375 0.808333 29.1211 0.790759 28.7169 0.790759C28.3655 0.790759 27.8734 0.808333 27.2935 0.825906C26.696 0.84348 26.0281 0.948923 25.29 1.10709C24.552 1.26525 23.726 1.51128 22.8473 1.84519C21.9686 2.17909 21.0723 2.65358 20.1409 3.26866C19.7895 3.5147 19.4731 3.76073 19.1744 4.00676C18.8756 4.27037 18.6296 4.5164 18.4187 4.76243C18.2078 5.00847 18.0497 5.2545 17.9266 5.48296C17.8036 5.71142 17.7509 5.9223 17.7509 6.11561C17.7509 6.2562 17.786 6.34407 17.8739 6.41437C17.9618 6.48466 18.0672 6.50224 18.1902 6.50224C18.3308 6.50224 18.4539 6.48466 18.5769 6.44952C18.6999 6.41437 18.8229 6.36165 18.9811 6.29135V6.50224C18.7702 6.76584 18.5066 6.95916 18.1551 7.08217C17.8212 7.20519 17.5049 7.27548 17.2061 7.27548C16.714 7.27548 16.4504 7.0646 16.4504 6.64283C16.4504 6.29135 16.591 5.93988 16.8546 5.55325C17.1358 5.16663 17.4697 4.79758 17.8739 4.44611C18.2781 4.09463 18.7175 3.74315 19.1744 3.4444C19.6313 3.12807 20.0531 2.86447 20.4221 2.65358C21.3887 2.10879 22.3377 1.66945 23.3042 1.35312C24.2532 1.03679 25.1495 0.790759 25.9754 0.632595C26.8014 0.474431 27.5219 0.368988 28.1546 0.316266C28.7872 0.281119 29.2617 0.245972 29.5781 0.245972C30.0877 0.245972 30.527 0.263546 30.8961 0.281119C31.2651 0.298693 31.5815 0.33384 31.8451 0.351414C32.1438 0.386562 32.4074 0.421709 32.6359 0.439283C32.548 0.562299 32.4426 0.773185 32.2844 1.07194C32.1263 1.37069 31.9681 1.68702 31.7923 2.05607C31.6166 2.42512 31.4233 2.82932 31.23 3.25109C31.0367 3.67286 30.8609 4.07706 30.6852 4.48125C30.3689 5.20178 30.0877 5.86958 29.8241 6.50224C29.5605 7.13489 29.332 7.69726 29.1387 8.18932C28.9454 8.68139 28.8048 9.12073 28.6818 9.47221C28.5764 9.82368 28.5236 10.0873 28.5236 10.2455C28.5236 10.2982 28.5236 10.3333 28.5412 10.386C28.5588 10.4212 28.5939 10.4388 28.6818 10.4388C28.7872 10.4388 29.0333 10.2806 29.4375 9.96427C29.8417 9.64794 30.3689 9.15588 31.0543 8.48807C31.1773 8.36506 31.3706 8.15417 31.6693 7.85542C31.9505 7.55666 32.302 7.20519 32.6886 6.80099C33.0752 6.39679 33.5146 5.93988 33.9715 5.43024C34.4284 4.93817 34.8853 4.41096 35.3598 3.88374C35.7992 3.39168 36.1507 2.93476 36.3791 2.54814C36.6251 2.16151 36.836 1.82761 37.0469 1.56401C37.2402 1.3004 37.3984 1.12466 37.539 1.01922C37.662 0.913775 37.8202 0.84348 38.0135 0.773185C38.1365 0.738038 38.2595 0.70289 38.4177 0.70289C38.5758 0.685316 38.6637 0.685316 38.7164 0.685316C38.8394 0.527152 38.8922 0.579873 38.8922 0.667742Z" fill="#D3AF4A"/>
<path d="M58.1355 0.316328C58.1355 0.474492 57.9949 0.720525 57.7137 1.01928C57.4325 1.31803 56.9405 1.70466 56.2199 2.19672C55.5873 2.61849 55.0601 2.96997 54.6207 3.25115C54.1814 3.53233 53.7772 3.77836 53.4433 3.98925C53.0918 4.20013 52.7755 4.41102 52.4767 4.58676C52.178 4.76249 51.8616 4.99095 51.5453 5.21941C51.6683 5.46545 51.8265 5.79935 51.9847 6.27384C52.1428 6.73076 52.301 7.22282 52.4767 7.75004C52.5997 8.11909 52.7052 8.50571 52.8282 8.87476C52.9512 9.24381 53.0742 9.57771 53.2148 9.87646C53.3554 10.1752 53.496 10.4037 53.6717 10.5794C53.8299 10.7552 54.0232 10.8606 54.2341 10.8606C54.4274 10.8606 54.6207 10.8254 54.814 10.7376C55.0249 10.6673 55.2007 10.5443 55.3588 10.4213L55.4994 10.597C55.4643 10.6497 55.3764 10.7376 55.2182 10.8782C55.0601 11.0188 54.8843 11.1594 54.691 11.2999C54.4801 11.4405 54.2692 11.5811 54.0408 11.6866C53.8123 11.8096 53.6014 11.8623 53.3906 11.8623C53.127 11.8623 52.9161 11.792 52.7579 11.6338C52.5822 11.4757 52.4416 11.2648 52.301 11.0012C52.1604 10.7376 52.0374 10.4213 51.9144 10.0522C51.7913 9.70073 51.6683 9.29653 51.5102 8.89233C51.4399 8.69902 51.352 8.45299 51.2641 8.13666C51.1763 7.82033 51.0708 7.504 50.9654 7.1701C50.8599 6.8362 50.7545 6.53745 50.6315 6.27384C50.5085 6.01023 50.403 5.81692 50.2976 5.71148C50.0515 6.27384 49.8231 6.81863 49.577 7.34584C49.3837 7.80276 49.1728 8.27725 48.9268 8.78689C48.6984 9.29653 48.4875 9.73588 48.3117 10.1049C48.2239 10.3158 48.136 10.4915 48.0657 10.6321C47.9954 10.7727 47.9251 10.8957 47.8548 10.9836C47.7845 11.0891 47.7142 11.1593 47.6615 11.2296C47.5912 11.2999 47.5209 11.3527 47.4506 11.4054C47.2925 11.5108 47.1167 11.5987 46.9058 11.6514C46.6949 11.7217 46.5368 11.7393 46.4138 11.7393C46.3259 11.7393 46.2556 11.7217 46.238 11.6866C46.2205 11.6514 46.2029 11.6163 46.2029 11.5635C46.2029 11.5108 46.238 11.4054 46.3259 11.2472C46.4138 11.0891 46.5368 10.843 46.7125 10.5091C47.0288 9.92919 47.2925 9.40197 47.5209 8.96263C47.7494 8.50571 47.9427 8.08394 48.136 7.66217C48.3293 7.2404 48.5226 6.81863 48.6984 6.39686C48.8917 5.97508 49.1026 5.48302 49.3486 4.92066C49.5419 4.49889 49.7176 4.05954 49.9285 3.58505C50.1218 3.12813 50.2976 2.70636 50.4733 2.31974C50.6315 1.93312 50.7721 1.59921 50.8775 1.30046C50.983 1.01928 51.0533 0.825968 51.0884 0.738099C50.9478 0.720525 50.8072 0.720525 50.6842 0.702951C50.5612 0.685377 50.4382 0.685377 50.3151 0.667804C50.1921 0.65023 50.0691 0.65023 49.9637 0.65023C49.5243 0.65023 49.0147 0.667804 48.4172 0.702951C47.8197 0.738099 47.1694 0.825968 46.4489 0.984132C45.7284 1.1423 44.9376 1.38833 44.094 1.72223C43.2505 2.05613 42.3718 2.51305 41.458 3.11056C41.1065 3.35659 40.7726 3.60262 40.4738 3.84866C40.1751 4.11226 39.929 4.3583 39.7182 4.60433C39.5073 4.85036 39.3491 5.0964 39.2437 5.32486C39.1382 5.55331 39.0855 5.7642 39.0855 5.95751C39.0855 6.04538 39.1206 6.13325 39.1734 6.22112C39.2261 6.30899 39.3491 6.36171 39.5424 6.36171C39.7006 6.36171 39.8236 6.34413 39.929 6.30899C40.0345 6.27384 40.1751 6.22112 40.3332 6.15082V6.36171C40.0696 6.62532 39.7533 6.81863 39.4194 6.94164C39.0855 7.06466 38.7867 7.13495 38.5583 7.13495C38.0662 7.13495 37.8026 6.92407 37.8026 6.5023C37.8026 6.18597 37.9432 5.85207 38.2068 5.46545C38.488 5.07882 38.8219 4.70977 39.2261 4.34072C39.6303 3.97167 40.0696 3.63777 40.5265 3.30387C40.9835 2.96997 41.4052 2.70636 41.7743 2.49548C42.7409 1.95069 43.6898 1.52892 44.5861 1.19502C45.4824 0.878689 46.3435 0.632656 47.1694 0.474492C47.9954 0.316328 48.7687 0.210886 49.5068 0.158164C50.2449 0.105443 50.9302 0.0878689 51.5453 0.0878689C51.7562 0.0878689 51.9847 0.105443 52.2307 0.14059C52.4767 0.175738 52.6525 0.193312 52.793 0.210885L50.403 5.46545C50.8248 5.16669 51.2114 4.92066 51.5453 4.6922C51.8792 4.46374 52.2131 4.25286 52.5294 4.04197C52.8458 3.83108 53.1797 3.6202 53.496 3.39174C53.8123 3.16328 54.199 2.91725 54.6207 2.61849C54.814 2.49548 54.9898 2.35489 55.2007 2.19672C55.394 2.03856 55.5697 1.89797 55.7454 1.7398C55.9036 1.58164 56.0442 1.44105 56.1496 1.28289C56.2551 1.1423 56.3078 1.00171 56.3078 0.878689C56.3078 0.755673 56.2551 0.685378 56.1496 0.65023C56.0442 0.615082 55.9563 0.579935 55.886 0.579935V0.474492C56.2551 0.298754 56.6241 0.175738 56.958 0.105443C57.3095 0.035148 57.5555 0 57.7137 0C57.8016 0 57.907 0.0175736 57.9949 0.0527212C58.0828 0.0878688 58.1355 0.175738 58.1355 0.316328Z" fill="#D3AF4A"/>
<path d="M37.4502 15.2364C37.4502 15.4122 37.38 15.5703 37.2569 15.7109C37.1163 15.8515 36.9758 15.957 36.8176 16.0448C36.6243 16.1503 36.431 16.2381 36.1849 16.2909L36.0971 16.2206C36.1146 16.1854 36.1146 16.1151 36.1146 16.0448C36.1146 15.8339 36.0092 15.623 35.7807 15.4122C35.5523 15.2189 35.2359 15.0431 34.8142 14.885C34.3924 14.7268 33.8652 14.6038 33.2325 14.5159C32.5999 14.428 31.8618 14.3753 31.0358 14.3753C30.9655 14.4632 30.8952 14.5686 30.8425 14.6741C30.7898 14.7795 30.7195 14.9025 30.6668 15.0431C30.5965 15.1837 30.5262 15.3419 30.4559 15.5352C30.368 15.7109 30.2801 15.9218 30.1747 16.1678C30.0693 16.4139 29.9111 16.7829 29.7002 17.2926C29.4893 17.8022 29.2433 18.3997 28.9445 19.0675C28.6634 19.7529 28.347 20.4734 28.0131 21.2642C27.6792 22.0551 27.3277 22.8283 26.9938 23.6191C26.8357 23.9706 26.6599 24.2869 26.4491 24.5857C26.2558 24.8844 26.0449 25.0953 25.834 25.2535C25.7637 25.3062 25.6758 25.3589 25.5528 25.4116C25.4298 25.4644 25.3243 25.5171 25.2013 25.5522C25.0783 25.605 24.9729 25.6401 24.8674 25.6577C24.762 25.6753 24.6741 25.6928 24.6214 25.6928L24.5159 25.5698C24.5335 25.5347 24.5862 25.4468 24.639 25.3414C24.7093 25.2183 24.7796 25.0953 24.8674 24.9372C24.9553 24.779 25.0432 24.6208 25.1486 24.4451C25.254 24.2693 25.3419 24.0936 25.4298 23.953C25.6407 23.584 25.8691 23.1446 26.0976 22.635C26.3436 22.1429 26.5897 21.5981 26.8357 21.0358C27.0993 20.4734 27.3629 19.8759 27.6265 19.2608C27.9077 18.6457 28.1713 18.0307 28.4349 17.4331C28.6634 16.9235 28.8742 16.5017 29.0324 16.1678C29.2081 15.8339 29.3487 15.5528 29.4893 15.3243C29.6299 15.0958 29.7354 14.9201 29.8408 14.7795C29.9462 14.6389 30.0517 14.4983 30.1571 14.3753H29.7178C29.1554 14.3753 28.5052 14.3929 27.7847 14.4456C27.0641 14.4983 26.2733 14.6038 25.4474 14.7619C24.6214 14.9201 23.7427 15.1661 22.8464 15.5C21.9326 15.8164 21.0363 16.2557 20.1049 16.8181C19.3668 17.2574 18.7869 17.7495 18.3475 18.2591C17.9258 18.7688 17.7149 19.2432 17.7149 19.665C17.7149 19.9286 17.8555 20.0516 18.1542 20.0516C18.2773 20.0516 18.4003 20.0341 18.5233 19.9989C18.6463 19.9638 18.7869 19.9111 18.9451 19.8232V20.0341C18.699 20.2977 18.4003 20.491 18.0488 20.614C17.6973 20.737 17.3986 20.8073 17.1701 20.8073C16.8889 20.8073 16.6956 20.737 16.5902 20.614C16.4847 20.491 16.432 20.3153 16.432 20.0868C16.432 19.7705 16.5726 19.4366 16.8362 19.0675C17.1174 18.6985 17.4513 18.3294 17.8379 17.9779C18.2421 17.6265 18.6639 17.275 19.1384 16.9762C19.5953 16.6599 20.0346 16.3963 20.4037 16.203C21.3351 15.7109 22.2665 15.3067 23.2331 15.008C24.182 14.6916 25.1134 14.4456 25.9921 14.2699C26.8708 14.0941 27.6968 13.9711 28.4525 13.9008C29.2081 13.8305 29.8584 13.7954 30.368 13.7954H30.5965L31.4576 13.1627H31.8091C31.7212 13.2857 31.6509 13.3736 31.5806 13.479L31.3346 13.7954C32.0727 13.813 32.7932 13.8481 33.5137 13.9184C34.2342 13.9887 34.8845 14.0766 35.4644 14.1996C36.0443 14.3226 36.5188 14.4808 36.8703 14.6565C37.2745 14.7971 37.4502 15.008 37.4502 15.2364ZM34.3045 15.9394C34.1815 16.1678 34.0409 16.4314 33.8828 16.7478C33.7246 17.0641 33.5489 17.3804 33.3731 17.7319C33.1974 18.0658 33.0392 18.4173 32.8811 18.7512C32.7229 19.0851 32.5999 19.4014 32.4944 19.665C32.3363 20.0692 32.1781 20.4734 32.02 20.8952C31.8618 21.317 31.6509 21.8266 31.4049 22.4241C31.317 22.6526 31.2116 22.9162 31.0885 23.2149C30.9655 23.5137 30.9128 23.7597 30.9128 23.9706C30.9128 24.1112 31.0007 24.1815 31.1588 24.1815C31.2643 24.1815 31.3697 24.1639 31.4927 24.1112C31.6158 24.0585 31.7212 24.0233 31.8091 23.9706C31.9321 23.9003 32.0375 23.83 32.1254 23.7597L32.266 24.0936C32.143 24.1991 31.9672 24.3221 31.7739 24.4802C31.563 24.6384 31.3521 24.779 31.1237 24.9196C30.8952 25.0602 30.6492 25.1832 30.4032 25.2886C30.1571 25.3941 29.9287 25.4468 29.7002 25.4468C29.4718 25.4468 29.3663 25.3062 29.3663 25.0075C29.3663 24.9196 29.3839 24.779 29.419 24.6033C29.4542 24.4275 29.5069 24.2342 29.5772 24.0409C29.6475 23.83 29.7354 23.6191 29.8232 23.3907C29.9111 23.1622 30.0165 22.9337 30.1044 22.7053C30.1571 22.5647 30.2626 22.3187 30.3856 22.0023C30.5262 21.686 30.6668 21.317 30.8425 20.8952C31.0182 20.4734 31.194 20.0341 31.4049 19.5771C31.5982 19.1202 31.8091 18.6809 32.02 18.2767C32.2308 17.8725 32.4241 17.5034 32.6175 17.1695C32.8108 16.8356 32.9865 16.6072 33.1271 16.4666C33.3556 16.2381 33.5664 16.0975 33.7422 16.0448C33.9179 15.9921 34.0409 15.9745 34.1464 15.9745H34.1991H34.2342H34.3045V15.9394Z" fill="#D3AF4A"/>
<path d="M42.4602 19.3838C42.4602 19.8935 42.3724 20.4031 42.2142 20.9303C42.0385 21.44 41.7749 21.9672 41.4058 22.4768C41.2125 22.7404 40.9665 23.0568 40.6501 23.4082C40.3514 23.7597 39.9999 24.0936 39.6133 24.3924C39.2267 24.6911 38.7873 24.9547 38.3128 25.1656C37.8383 25.3765 37.3463 25.4819 36.8015 25.4819C36.6257 25.4819 36.45 25.4819 36.2567 25.4644C36.0634 25.4468 35.9228 25.4468 35.7998 25.4116C35.6768 25.6753 35.5538 26.0092 35.4132 26.3782C35.2726 26.7473 35.0968 27.1866 34.9211 27.6787C34.4993 28.7682 34.2181 29.5591 34.0775 30.016C34.06 30.139 34.0424 30.262 34.0248 30.3675C34.0073 30.4905 34.0073 30.5432 34.0073 30.5783C33.9194 30.8244 33.7085 31.0353 33.3922 31.2286C33.0583 31.4395 32.7595 31.5625 32.4959 31.5625C32.3202 31.5625 32.2323 31.4746 32.2323 31.2813C32.2323 31.1934 32.2675 31.0177 32.3377 30.7892C32.408 30.5608 32.5311 30.2444 32.6892 29.8578L34.8332 24.9547C34.7102 24.6735 34.6399 24.4099 34.6399 24.1463C34.6399 24.0585 34.6399 24.0057 34.6399 23.953C34.6399 23.9003 34.6575 23.8652 34.6575 23.8124L35.132 24.0057L36.6082 20.6843C36.9069 19.9989 37.0651 19.5596 37.0651 19.3487C37.0651 19.2608 37.0124 19.2081 36.9245 19.2081C36.8366 19.2081 36.696 19.2432 36.4676 19.3311C36.2391 19.419 35.9404 19.5596 35.5362 19.788L35.4307 19.4893C35.624 19.3838 35.8701 19.2608 36.1513 19.1202C36.4324 18.9796 36.7312 18.839 37.03 18.6985C37.3287 18.5754 37.6275 18.4524 37.8911 18.3646C38.1722 18.2767 38.3831 18.224 38.5413 18.224C38.6819 18.224 38.7522 18.2943 38.7522 18.4349C38.7522 18.5051 38.6643 18.7512 38.471 19.173C38.2777 19.6123 38.0317 20.1219 37.7153 20.7194L37.8032 20.737C37.9965 20.5437 38.1898 20.3328 38.4007 20.1044C38.6116 19.8759 38.84 19.6474 39.0861 19.419C39.3321 19.1905 39.5781 18.9796 39.8593 18.7863C40.1229 18.5754 40.4041 18.4173 40.7204 18.2767C40.9665 18.1537 41.2301 18.101 41.5464 18.101C41.8276 18.101 42.0385 18.1888 42.2142 18.3821C42.39 18.6282 42.4602 18.9445 42.4602 19.3838ZM40.9665 20.0165C40.9665 19.7529 40.9313 19.542 40.8786 19.419C40.8083 19.296 40.7029 19.2257 40.5271 19.2257C40.2811 19.2257 39.9999 19.3311 39.7012 19.5596C39.3848 19.788 39.0861 20.0692 38.7697 20.4031C38.4534 20.7546 38.1371 21.1236 37.8383 21.5454C37.522 21.9672 37.2584 22.3714 37.0124 22.7756C36.8015 23.1095 36.6433 23.4258 36.5027 23.707C36.3797 23.9882 36.2743 24.2518 36.1864 24.4978C36.5555 24.7263 37.0124 24.8493 37.522 24.8493C37.9614 24.8493 38.3831 24.7087 38.7697 24.4099C39.1037 24.1639 39.4024 23.8827 39.6836 23.5312C39.9472 23.1798 40.1757 22.8283 40.369 22.4241C40.5623 22.0375 40.7029 21.6333 40.8083 21.2115C40.9138 20.8249 40.9665 20.4207 40.9665 20.0165Z" fill="#D3AF4A"/>
<path d="M50.841 18.8039C50.6828 18.9445 50.5422 19.1027 50.4016 19.3136C50.2611 19.5245 50.1205 19.7529 49.9799 20.0165C49.892 20.2098 49.7866 20.4207 49.6635 20.6843C49.5405 20.9479 49.3999 21.2467 49.2594 21.5806C49.1012 21.9145 48.9782 22.1957 48.8903 22.4241C48.8024 22.6526 48.7146 22.8459 48.6618 22.9865C48.4685 23.461 48.3807 23.7598 48.3807 23.9003C48.3807 24.0585 48.4685 24.1288 48.6443 24.1288C48.8727 24.1288 49.1012 24.0585 49.3648 23.9003C49.6284 23.7422 49.892 23.584 50.1556 23.4083L50.2962 23.7422C50.0326 23.9355 49.769 24.1288 49.5054 24.3221C49.2242 24.5154 48.9606 24.7087 48.6794 24.8669C48.3982 25.0251 48.1346 25.1657 47.871 25.2711C47.6074 25.3765 47.379 25.4293 47.1681 25.4293C46.9045 25.4293 46.7639 25.3062 46.7639 25.0602C46.7639 24.7966 46.9045 24.3397 47.1681 23.7246L47.625 22.6526H47.502C47.0451 23.1447 46.6233 23.5664 46.2542 23.9179C45.8852 24.2694 45.5513 24.5681 45.235 24.779C44.9186 25.0075 44.6374 25.1657 44.3738 25.2711C44.1102 25.3765 43.8466 25.4293 43.5654 25.4293C42.9504 25.4293 42.634 25.0602 42.634 24.3397C42.634 23.9882 42.6868 23.6367 42.8098 23.2677C42.9328 22.9162 43.091 22.5647 43.2843 22.2308C43.4776 21.8969 43.706 21.5806 43.9872 21.2643C44.2508 20.9479 44.5496 20.6668 44.8659 20.3856C45.1822 20.1044 45.5513 19.8408 45.9203 19.5772C46.307 19.3136 46.7112 19.1027 47.1329 18.9094C47.5547 18.7161 48.0116 18.5579 48.451 18.4525C48.9079 18.3295 49.3648 18.2767 49.8217 18.2767C50.0326 18.2767 50.2435 18.3119 50.4719 18.3997C50.7004 18.47 50.8058 18.5931 50.8058 18.7688V18.8039H50.841ZM49.6284 19.0676C49.5405 18.9973 49.3999 18.9445 49.2242 18.927C49.0485 18.9094 48.8727 18.8918 48.7321 18.8918C48.3631 18.8918 47.994 18.9797 47.6074 19.173C47.2384 19.3663 46.8693 19.5948 46.5354 19.8759C46.2015 20.1571 45.8852 20.4559 45.604 20.7898C45.3228 21.1237 45.0944 21.44 44.9186 21.7212C44.6902 22.143 44.4969 22.512 44.3563 22.8635C44.2157 23.215 44.1454 23.5137 44.1454 23.7598C44.1454 23.9706 44.1805 24.1288 44.2684 24.2167C44.3563 24.3045 44.4793 24.3397 44.655 24.3397C44.9011 24.3397 45.1822 24.2167 45.5161 23.9882C45.8325 23.7598 46.1664 23.4961 46.4827 23.1798C46.799 22.8635 47.0978 22.5472 47.379 22.2133C47.6601 21.8794 47.8535 21.6158 47.9765 21.4049C48.0995 21.2116 48.2401 20.9655 48.3982 20.6492C48.4861 20.4559 48.574 20.2626 48.6618 20.0868C48.7497 19.9111 48.8727 19.7178 49.0309 19.542C49.2242 19.3487 49.4351 19.173 49.6284 19.0676Z" fill="#D3AF4A"/>
<path d="M60.5084 14.2875C60.5084 14.762 60.2096 15.3771 59.5945 16.1152C59.4012 16.3437 59.1552 16.6073 58.8389 16.8885C58.5401 17.1696 58.2062 17.4508 57.8372 17.7496C57.4681 18.0483 57.0815 18.3471 56.6773 18.6283C56.2731 18.927 55.8513 19.1906 55.4471 19.4191V19.4894C55.7283 19.4191 55.9919 19.3839 56.238 19.3488C56.484 19.3312 56.6949 19.3136 56.8882 19.3136C57.2045 19.3136 57.4857 19.3839 57.7141 19.5245C57.9426 19.6651 58.0481 19.9287 58.0481 20.3153C58.0481 20.5789 57.9953 20.8601 57.8723 21.1589C57.7493 21.4576 57.5911 21.774 57.3978 22.0727C57.1869 22.389 56.9585 22.6878 56.6949 23.0041C56.4313 23.3029 56.1501 23.6016 55.8338 23.8828C55.2363 24.4276 54.6563 24.8142 54.094 25.0427C53.5316 25.2712 53.022 25.3942 52.5826 25.3942C52.319 25.3942 52.1081 25.3414 51.9499 25.2536C51.7918 25.1657 51.6863 25.0427 51.6161 24.9197C51.5458 24.7967 51.493 24.6561 51.4755 24.4979C51.4579 24.3397 51.4579 24.2167 51.4579 24.0937C51.4579 23.6368 51.5458 23.1447 51.7215 22.6175C51.8972 22.0903 52.1081 21.5455 52.3541 20.9831C52.565 20.5087 52.8286 19.999 53.1625 19.4542C53.4789 18.9094 53.8479 18.3471 54.2521 17.8023C54.6563 17.2575 55.0957 16.7127 55.535 16.2031C55.9919 15.6934 56.4488 15.2365 56.9058 14.8499C57.3627 14.4457 57.8372 14.1294 58.2765 13.9009C58.7334 13.6549 59.1552 13.5494 59.5594 13.5494C59.8581 13.5494 60.0866 13.6022 60.2448 13.7076C60.4381 13.8306 60.5084 14.0239 60.5084 14.2875ZM59.0498 15.0432C59.0498 14.7269 58.874 14.5511 58.5401 14.5511C58.2414 14.5511 57.9426 14.6566 57.6439 14.8499C57.3275 15.0432 57.0288 15.3068 56.73 15.6231C56.4313 15.9395 56.1325 16.2909 55.8513 16.6951C55.5702 17.0993 55.3065 17.486 55.0781 17.8902C54.832 18.2944 54.6212 18.681 54.4279 19.0325C54.2345 19.4015 54.094 19.7003 53.9885 19.9463C53.8479 20.245 53.7073 20.5614 53.5843 20.8953C53.4613 21.2292 53.3383 21.5631 53.2504 21.8794C53.145 22.2133 53.0747 22.5121 53.0044 22.8108C52.9341 23.1096 52.9165 23.3732 52.9165 23.6016C52.9165 23.8652 52.9692 24.0937 53.0747 24.287C53.1801 24.4803 53.3734 24.5682 53.6898 24.5682C53.9534 24.5682 54.1994 24.4979 54.4806 24.3573C54.7442 24.2167 55.0429 24.0058 55.3768 23.6895C55.7635 23.3205 56.0974 22.8635 56.361 22.3539C56.6246 21.8267 56.7476 21.3346 56.7476 20.8601C56.7476 20.7547 56.7476 20.6317 56.73 20.5087C56.7124 20.3856 56.6773 20.2626 56.6246 20.1396C56.5543 20.0166 56.4664 19.9287 56.3258 19.8584C56.1852 19.7881 55.9919 19.753 55.7283 19.753C55.4296 19.753 55.1835 19.7881 54.9551 19.8584C54.7266 19.9287 54.586 19.9814 54.5333 19.999V19.5772C54.8321 19.4015 55.2363 19.1379 55.7459 18.804C56.2555 18.4701 56.7652 18.0835 57.2572 17.6617C57.7493 17.2399 58.1711 16.8006 58.5401 16.3437C58.874 15.9043 59.0498 15.465 59.0498 15.0432Z" fill="#D3AF4A"/>
<path d="M65.6394 19.6826C65.6394 20.3153 65.4988 20.9304 65.2 21.5279C64.9013 22.143 64.5322 22.7053 64.0929 23.2325C63.4251 24.0058 62.7748 24.5681 62.1422 24.9196C61.4919 25.2711 60.8241 25.4468 60.1388 25.4468C59.0492 25.4468 58.5044 24.902 58.5044 23.83C58.5044 23.4258 58.5747 23.0216 58.7329 22.5823C58.891 22.143 59.0843 21.7212 59.3479 21.317C59.6116 20.9128 59.9279 20.5086 60.2794 20.1395C60.6308 19.7705 61.035 19.4366 61.4392 19.1554C61.861 18.8742 62.3003 18.6458 62.7573 18.4876C63.2142 18.3294 63.6887 18.2416 64.1632 18.2416C64.6376 18.2416 65.0067 18.3646 65.2703 18.6282C65.4988 18.8918 65.6394 19.2433 65.6394 19.6826ZM64.1983 20.2626C64.1983 19.7881 64.128 19.4717 63.9698 19.2784C63.8117 19.1027 63.5657 18.9972 63.179 18.9972C62.3355 18.9972 61.5974 19.4893 60.912 20.491C60.2266 21.4752 59.8927 22.512 59.8927 23.6016C59.8927 23.9531 59.9806 24.2167 60.1388 24.4451C60.2969 24.656 60.5605 24.7614 60.9472 24.7614C61.2635 24.7614 61.5622 24.6736 61.8434 24.5154C62.1246 24.3573 62.3882 24.1464 62.6342 23.8828C62.8803 23.6192 63.0912 23.3204 63.2845 23.0041C63.4778 22.6702 63.6359 22.3538 63.7765 22.0199C63.9171 21.686 64.0226 21.3697 64.0929 21.0534C64.1632 20.7546 64.1983 20.491 64.1983 20.2626Z" fill="#D3AF4A"/>
<path d="M75.2334 14.2875C75.2334 14.762 74.9346 15.3771 74.3195 16.1152C74.1262 16.3437 73.8802 16.6073 73.5638 16.8885C73.2651 17.1696 72.9312 17.4508 72.5621 17.7496C72.1931 18.0483 71.8065 18.3471 71.4023 18.6283C70.9981 18.927 70.5763 19.1906 70.1721 19.4191V19.4894C70.4533 19.4191 70.7169 19.3839 70.9629 19.3488C71.209 19.3312 71.4199 19.3136 71.6132 19.3136C71.9295 19.3136 72.2107 19.3839 72.4391 19.5245C72.6676 19.6651 72.773 19.9287 72.773 20.3153C72.773 20.5789 72.7203 20.8601 72.5973 21.1589C72.4743 21.4576 72.3161 21.774 72.1228 22.0727C71.9119 22.389 71.6835 22.6878 71.4198 23.0041C71.1562 23.3029 70.8751 23.6016 70.5587 23.8828C69.9612 24.4276 69.3813 24.8142 68.8189 25.0427C68.2566 25.2712 67.7469 25.3942 67.3076 25.3942C67.044 25.3942 66.8331 25.3414 66.6749 25.2536C66.5168 25.1657 66.4113 25.0427 66.341 24.9197C66.2707 24.7967 66.218 24.6561 66.2004 24.4979C66.1829 24.3397 66.1829 24.2167 66.1829 24.0937C66.1829 23.6368 66.2707 23.1447 66.4465 22.6175C66.6222 22.0903 66.8331 21.5455 67.0791 20.9831C67.29 20.5087 67.5536 19.999 67.8875 19.4542C68.2038 18.9094 68.5729 18.3471 68.9771 17.8023C69.3813 17.2575 69.8206 16.7127 70.26 16.2031C70.7169 15.6934 71.1738 15.2365 71.6307 14.8499C72.0877 14.4457 72.5621 14.1294 73.0015 13.9009C73.4584 13.6549 73.8802 13.5494 74.2844 13.5494C74.5831 13.5494 74.8116 13.6022 74.9698 13.7076C75.1455 13.8306 75.2334 14.0239 75.2334 14.2875ZM73.7572 15.0432C73.7572 14.7269 73.5814 14.5511 73.2475 14.5511C72.9488 14.5511 72.65 14.6566 72.3513 14.8499C72.0349 15.0432 71.7362 15.3068 71.4374 15.6231C71.1387 15.9395 70.8399 16.2909 70.5587 16.6951C70.2776 17.0993 70.0139 17.486 69.7855 17.8902C69.5395 18.2944 69.3286 18.681 69.1353 19.0325C68.9419 19.4015 68.8014 19.7003 68.6959 19.9463C68.5553 20.245 68.4147 20.5614 68.2917 20.8953C68.1687 21.2292 68.0457 21.5631 67.9578 21.8794C67.8524 22.2133 67.7821 22.5121 67.7118 22.8108C67.6415 23.1096 67.6239 23.3732 67.6239 23.6016C67.6239 23.8652 67.6766 24.0937 67.7821 24.287C67.8875 24.4803 68.0808 24.5682 68.3972 24.5682C68.6608 24.5682 68.9068 24.4979 69.188 24.3573C69.4516 24.2167 69.7503 24.0058 70.0842 23.6895C70.4709 23.3205 70.8048 22.8635 71.0684 22.3539C71.332 21.8267 71.455 21.3346 71.455 20.8601C71.455 20.7547 71.455 20.6317 71.4374 20.5087C71.4199 20.3856 71.3847 20.2626 71.332 20.1396C71.2617 20.0166 71.1738 19.9287 71.0332 19.8584C70.8926 19.7881 70.6993 19.753 70.4357 19.753C70.137 19.753 69.8909 19.7881 69.6625 19.8584C69.434 19.9287 69.2934 19.9814 69.2407 19.999V19.5772C69.5395 19.4015 69.9436 19.1379 70.4533 18.804C70.9629 18.4701 71.4726 18.0835 71.9646 17.6617C72.4567 17.2399 72.8785 16.8006 73.2475 16.3437C73.5814 15.9043 73.7572 15.465 73.7572 15.0432Z" fill="#D3AF4A"/>
<path d="M79.4687 21.4752C79.4687 21.7388 79.3809 22.0551 79.2227 22.4417C79.0645 22.8283 78.8009 23.1974 78.4495 23.5664C78.3264 23.707 78.1683 23.8476 77.975 24.0058C77.7817 24.1639 77.5708 24.3221 77.3599 24.4627C77.1314 24.6209 76.903 24.7439 76.6569 24.8845C76.4109 25.0251 76.1824 25.0954 75.9364 25.1656C75.5674 25.2887 75.251 25.359 75.005 25.3765C74.759 25.3941 74.5305 25.4117 74.2845 25.4117C73.9857 25.4117 73.7924 25.3414 73.6694 25.2184C73.5464 25.0954 73.4937 24.9372 73.4937 24.7966C73.4937 24.6209 73.5288 24.41 73.6167 24.1639C73.7045 23.9179 73.8275 23.6016 74.0033 23.215C74.0912 23.0216 74.1966 22.7756 74.3196 22.4769C74.4602 22.1781 74.5832 21.8618 74.7238 21.5279C74.8644 21.194 75.005 20.8776 75.128 20.5789C75.251 20.2801 75.3565 20.0341 75.4268 19.8232C75.4619 19.7353 75.4971 19.6475 75.5146 19.5596C75.5498 19.4893 75.5498 19.419 75.5498 19.3487C75.5498 19.2609 75.4971 19.2081 75.4092 19.2081C75.3213 19.2081 75.1983 19.2433 75.0401 19.296C74.882 19.3663 74.7238 19.419 74.5832 19.5069C74.3899 19.5948 74.2142 19.6826 74.0209 19.7881L73.9154 19.4893C74.056 19.4014 74.2318 19.3136 74.4602 19.1906C74.6887 19.0675 74.9171 18.9621 75.1632 18.8567C75.4092 18.7512 75.6376 18.6458 75.8485 18.5579C76.0594 18.47 76.2352 18.3997 76.3582 18.3646C76.6042 18.2767 76.8151 18.2416 76.9908 18.2416C77.0435 18.2416 77.0963 18.2592 77.1314 18.2767C77.1666 18.2943 77.1841 18.3646 77.1841 18.47C77.1841 18.4876 77.1666 18.5403 77.1314 18.6458C77.0963 18.7512 77.0435 18.8567 76.9908 18.9797C76.9381 19.1027 76.8678 19.2433 76.8151 19.4014C76.7448 19.542 76.6921 19.6826 76.6569 19.8056C76.5691 19.9814 76.4988 20.1747 76.4109 20.368C76.323 20.5613 76.2176 20.7898 76.1121 21.0358C76.4636 20.8601 76.8327 20.7195 77.2017 20.5965C77.5708 20.4734 77.9222 20.4207 78.2561 20.4207C78.6955 20.4207 78.9942 20.5086 79.17 20.6668C79.3809 20.8249 79.4687 21.1061 79.4687 21.4752ZM78.098 21.8618C78.098 21.7036 78.0804 21.563 78.0277 21.4576C77.975 21.3521 77.9222 21.2818 77.8519 21.2467C77.7817 21.194 77.6938 21.1764 77.6059 21.1588C77.518 21.1412 77.4126 21.1413 77.3072 21.1413C77.1138 21.1413 76.8854 21.1764 76.6394 21.2643C76.3933 21.3521 76.1824 21.44 75.9716 21.5454C75.8661 21.7915 75.7607 22.0375 75.6376 22.3011C75.5146 22.5647 75.4092 22.8108 75.3037 23.0744C75.1983 23.338 75.1104 23.5664 75.0577 23.7773C74.9874 23.9882 74.9698 24.1815 74.9698 24.3221C74.9698 24.4627 75.005 24.5681 75.0753 24.6384C75.1456 24.7087 75.2862 24.7439 75.4971 24.7439C75.7782 24.7439 76.0946 24.6736 76.3933 24.5154C76.6921 24.3573 76.9908 24.1639 77.2369 23.9003C77.5005 23.6367 77.6938 23.338 77.8695 22.9865C78.0101 22.6526 78.098 22.266 78.098 21.8618ZM83.1592 18.3997C83.1592 18.47 83.0011 18.8215 82.6847 19.4542C82.3684 20.1044 81.9466 21.071 81.4019 22.389C81.3316 22.5472 81.2613 22.7053 81.191 22.8635C81.1207 23.0216 81.0504 23.1798 80.9976 23.3204C80.9449 23.461 80.8922 23.584 80.8571 23.707C80.8219 23.83 80.8043 23.9179 80.8043 23.9882C80.8043 24.0936 80.8219 24.1464 80.8571 24.1815C80.8922 24.1991 80.9449 24.2167 81.0328 24.2167C81.1207 24.2167 81.2613 24.1815 81.4194 24.0936C81.5776 24.0058 81.7357 23.9179 81.9115 23.8125C82.1048 23.6894 82.2805 23.5664 82.4914 23.4083L82.632 23.7422C82.509 23.8476 82.3157 23.9882 82.0697 24.1815C81.8236 24.3748 81.56 24.5681 81.2613 24.7439C80.9801 24.9372 80.6813 25.0954 80.3826 25.2359C80.0838 25.3765 79.8202 25.4468 79.6093 25.4468C79.4512 25.4468 79.3633 25.4117 79.3106 25.3414C79.2578 25.2711 79.2403 25.2008 79.2403 25.0954C79.2403 24.9899 79.2754 24.8493 79.3457 24.6209C79.416 24.3924 79.5039 24.1464 79.6269 23.8476C79.7499 23.5489 79.8729 23.2501 80.0135 22.9162C80.1541 22.5823 80.2947 22.266 80.4353 21.9321C80.5759 21.6157 80.6989 21.317 80.8219 21.0358C80.9449 20.7546 81.0328 20.5262 81.1207 20.3504C81.2788 19.9814 81.4546 19.6123 81.6303 19.2784C81.806 18.927 81.9818 18.6985 82.1575 18.5931C82.3508 18.47 82.4914 18.3997 82.632 18.347C82.755 18.2943 82.8956 18.2767 83.0186 18.2767C83.0538 18.2767 83.0889 18.2767 83.1241 18.2943C83.1417 18.2767 83.1592 18.3294 83.1592 18.3997Z" fill="#D3AF4A"/>
<path d="M90.0133 18.7864C90.0133 18.9972 89.943 19.2081 89.7848 19.4366C89.6267 19.665 89.4509 19.8759 89.2225 20.0868C88.994 20.2977 88.7656 20.491 88.5195 20.6668C88.2735 20.8425 88.0626 21.0007 87.8693 21.1237C87.4651 21.3873 87.0433 21.6333 86.5864 21.8442C86.1471 22.0551 85.655 22.2308 85.1278 22.3538C85.0751 22.4944 85.0399 22.6526 85.0223 22.7932C85.0048 22.9513 84.9872 23.0392 84.9872 23.0919C84.9872 23.6367 85.1102 24.0233 85.3563 24.2694C85.6023 24.5154 85.9713 24.6209 86.4458 24.6209C86.8676 24.6209 87.2894 24.5154 87.7111 24.3221C88.1329 24.1112 88.5195 23.9179 88.8534 23.707L88.994 23.9355C88.8007 24.0936 88.5547 24.2694 88.2911 24.4451C88.0099 24.6209 87.7287 24.779 87.4124 24.9372C87.096 25.0953 86.7797 25.2184 86.4634 25.3062C86.1471 25.3941 85.8132 25.4468 85.4968 25.4468C84.8993 25.4468 84.4248 25.3062 84.0734 25.0251C83.7219 24.7439 83.5461 24.3045 83.5461 23.707C83.5461 22.4417 84.1085 21.2818 85.2508 20.1923C85.4968 19.9638 85.778 19.7353 86.0943 19.4893C86.4107 19.2433 86.727 19.05 87.0785 18.8567C87.4124 18.6633 87.7814 18.5228 88.1329 18.3997C88.502 18.2767 88.8534 18.224 89.2225 18.224C89.7497 18.2591 90.0133 18.4349 90.0133 18.7864ZM88.5371 19.4014C88.5371 19.1554 88.3789 19.05 88.0802 19.05C87.8517 19.05 87.6057 19.1378 87.3245 19.296C87.0609 19.4542 86.7973 19.6826 86.5513 19.9287C86.3052 20.1923 86.0768 20.4734 85.8659 20.8073C85.655 21.1237 85.4968 21.4576 85.3914 21.7739C85.6901 21.7212 86.024 21.6157 86.3931 21.4751C86.7621 21.317 87.096 21.1412 87.4124 20.9128C87.7287 20.7019 87.9923 20.4559 88.2032 20.1923C88.4317 19.9287 88.5371 19.665 88.5371 19.4014Z" fill="#D3AF4A"/>
<path d="M106.849 18.6458C106.849 18.7688 106.814 18.927 106.761 19.1379C106.709 19.3312 106.638 19.5421 106.55 19.7706C106.463 19.999 106.375 20.2275 106.287 20.4559C106.199 20.6844 106.111 20.8777 106.023 21.0534L105.443 22.3539C105.391 22.4593 105.338 22.5824 105.268 22.7405C105.197 22.8987 105.127 23.0568 105.074 23.215C105.004 23.3732 104.951 23.5313 104.916 23.6719C104.863 23.8125 104.846 23.918 104.846 23.9883C104.846 24.1288 104.916 24.1991 105.074 24.1991C105.162 24.1991 105.268 24.164 105.391 24.1113C105.531 24.0586 105.707 23.9531 105.935 23.7949L106.515 23.3907L106.656 23.7247C105.918 24.3222 105.32 24.7615 104.828 25.0251C104.336 25.3063 103.949 25.4469 103.651 25.4469C103.405 25.4469 103.282 25.3239 103.282 25.0954C103.282 25.0075 103.299 24.8845 103.352 24.7264C103.405 24.5682 103.457 24.3925 103.51 24.2167C103.58 24.041 103.651 23.8477 103.721 23.6544C103.791 23.461 103.862 23.3029 103.932 23.1447L104.547 21.6685C104.74 21.194 104.898 20.7898 105.004 20.4911C105.109 20.1923 105.162 19.9814 105.162 19.9111C105.162 19.7706 105.092 19.7003 104.969 19.7003C104.758 19.7003 104.529 19.7706 104.266 19.9287C104.002 20.0869 103.756 20.2802 103.493 20.5087C103.229 20.7371 102.965 21.0007 102.702 21.2995C102.438 21.5982 102.192 21.8794 101.981 22.1606C101.753 22.4418 101.577 22.7054 101.401 22.9514C101.243 23.1974 101.12 23.3907 101.05 23.5313L100.716 24.1991C100.663 24.287 100.646 24.3573 100.628 24.41C100.61 24.4628 100.575 24.5155 100.54 24.5506L100.224 24.8669C100.031 25.0603 99.8548 25.1833 99.7142 25.2711C99.5736 25.3414 99.433 25.3942 99.3276 25.3942C99.187 25.3942 99.1167 25.3239 99.1167 25.1833C99.1167 25.0603 99.187 24.8669 99.31 24.5858C99.433 24.3046 99.5912 23.9883 99.7669 23.6192L100.206 22.7054C100.593 21.8443 100.892 21.1589 101.067 20.6492C101.243 20.1396 101.331 19.8233 101.331 19.7178C101.331 19.63 101.296 19.5772 101.208 19.5772C101.015 19.5772 100.786 19.6475 100.523 19.8057C100.259 19.9639 99.9778 20.1572 99.6966 20.4208C99.3979 20.6668 99.1167 20.948 98.8355 21.2643C98.5543 21.5631 98.2907 21.8794 98.0447 22.1782C97.7987 22.4769 97.5878 22.7405 97.412 23.0041C97.2363 23.2502 97.1133 23.4435 97.043 23.6016L96.7442 24.2343C96.6915 24.3222 96.6739 24.3925 96.6564 24.4452C96.6388 24.4979 96.6036 24.5506 96.5685 24.5858L96.2522 24.9021C96.0589 25.0954 95.8831 25.2184 95.7425 25.3063C95.6019 25.3766 95.4613 25.4293 95.3559 25.4293C95.2153 25.4293 95.145 25.359 95.145 25.2184C95.145 25.1481 95.1977 25.0075 95.2856 24.7967C95.3735 24.5858 95.4789 24.3573 95.6019 24.1289L96.4982 22.2133C96.7794 21.5807 97.0254 21.0183 97.2012 20.5087C97.3769 19.999 97.4648 19.63 97.4648 19.4191C97.4648 19.2961 97.4296 19.2433 97.3417 19.2433C97.2539 19.2433 97.1133 19.2785 96.92 19.3488C96.7091 19.4191 96.3928 19.5772 95.9534 19.8233L95.848 19.5245C96.0061 19.4366 96.2346 19.3136 96.4982 19.173C96.7794 19.0325 97.0606 18.8919 97.3593 18.7513C97.6581 18.6107 97.9568 18.5052 98.238 18.3998C98.5368 18.3119 98.7652 18.2592 98.9761 18.2592C99.1167 18.2592 99.187 18.3295 99.187 18.4701C99.187 18.5228 99.1518 18.6634 99.0816 18.8919C99.0113 19.1203 98.8882 19.4191 98.7301 19.8057L97.9393 21.5807L98.0623 21.6158C98.484 21.1589 98.9058 20.7195 99.3452 20.3153C99.7845 19.9111 100.206 19.5597 100.61 19.2433C101.015 18.9446 101.401 18.6986 101.753 18.5228C102.104 18.3471 102.421 18.2592 102.684 18.2592C102.825 18.2592 102.913 18.2944 102.965 18.3646C103.018 18.4349 103.036 18.5228 103.036 18.6458C103.036 18.9446 102.86 19.5069 102.491 20.3856L102.034 21.4928C102.561 21.0007 103.053 20.5087 103.545 20.0693C104.037 19.6124 104.565 19.1906 105.127 18.804C105.619 18.4525 106.093 18.2768 106.55 18.2768C106.744 18.2592 106.849 18.3822 106.849 18.6458ZM107.904 14.1469C107.693 14.5863 107.394 14.9905 107.007 15.3771C106.621 15.7637 106.146 16.0449 105.584 16.2558C104.951 16.5018 104.336 16.6424 103.739 16.6776C103.159 16.7303 102.544 16.7479 101.911 16.7479C101.19 16.7479 100.593 16.7479 100.136 16.7654C99.6791 16.783 99.2749 16.8182 98.9234 16.8709C98.5895 16.9236 98.2732 17.0115 98.0096 17.1345C97.7459 17.2575 97.4472 17.4157 97.1309 17.6266L97.0606 17.4157C97.3242 17.2048 97.5526 17.0115 97.7811 16.8709C98.0095 16.7303 98.2204 16.6073 98.4137 16.5194C98.6246 16.4315 98.8179 16.3437 99.0288 16.2909C99.2397 16.2382 99.4682 16.1679 99.7142 16.0976C100.066 16.0098 100.435 15.9395 100.804 15.9043C101.173 15.8692 101.542 15.8516 101.911 15.834C102.28 15.8164 102.667 15.8164 103.053 15.7989C103.44 15.7813 103.826 15.7637 104.231 15.711C104.969 15.6231 105.637 15.465 106.199 15.2189C106.779 14.9729 107.271 14.5863 107.675 14.0239L107.904 14.1469Z" fill="#D3AF4A"/>
<path d="M114.072 18.7864C114.072 18.9972 114.002 19.2081 113.844 19.4366C113.686 19.665 113.51 19.8759 113.281 20.0868C113.053 20.2977 112.824 20.491 112.578 20.6668C112.332 20.8425 112.121 21.0007 111.928 21.1237C111.524 21.3873 111.102 21.6333 110.645 21.8442C110.206 22.0551 109.714 22.2308 109.187 22.3538C109.134 22.4944 109.099 22.6526 109.081 22.7932C109.064 22.9513 109.046 23.0392 109.046 23.0919C109.046 23.6367 109.169 24.0233 109.415 24.2694C109.661 24.5154 110.03 24.6209 110.505 24.6209C110.926 24.6209 111.348 24.5154 111.77 24.3221C112.192 24.1112 112.578 23.9179 112.912 23.707L113.053 23.9355C112.86 24.0936 112.614 24.2694 112.35 24.4451C112.069 24.6209 111.788 24.779 111.471 24.9372C111.155 25.0953 110.839 25.2184 110.522 25.3062C110.206 25.3941 109.872 25.4468 109.556 25.4468C108.958 25.4468 108.484 25.3062 108.132 25.0251C107.781 24.7439 107.605 24.3045 107.605 23.707C107.605 22.4417 108.167 21.2818 109.31 20.1923C109.556 19.9638 109.837 19.7353 110.153 19.4893C110.47 19.2433 110.786 19.05 111.137 18.8567C111.471 18.6633 111.84 18.5228 112.192 18.3997C112.561 18.2767 112.912 18.224 113.281 18.224C113.809 18.2591 114.072 18.4349 114.072 18.7864ZM112.596 19.4014C112.596 19.1554 112.438 19.05 112.139 19.05C111.911 19.05 111.665 19.1378 111.383 19.296C111.12 19.4542 110.856 19.6826 110.61 19.9287C110.364 20.1923 110.136 20.4734 109.925 20.8073C109.714 21.1237 109.556 21.4576 109.45 21.7739C109.749 21.7212 110.083 21.6157 110.452 21.4751C110.821 21.317 111.155 21.1412 111.471 20.9128C111.788 20.7019 112.051 20.4559 112.262 20.1923C112.49 19.9287 112.596 19.665 112.596 19.4014Z" fill="#D3AF4A"/>
<path d="M121.7 18.3119C121.7 18.47 121.577 18.6985 121.349 18.9972C121.12 19.296 120.821 19.6299 120.47 19.9814C120.136 20.3328 119.767 20.7019 119.38 21.0885C118.994 21.4576 118.642 21.809 118.343 22.1254L118.484 22.8283C118.537 23.0392 118.572 23.2325 118.607 23.3907C118.642 23.5488 118.677 23.6894 118.712 23.8124C118.783 24.0233 118.853 24.1639 118.906 24.2694C119.011 24.41 119.152 24.4803 119.328 24.4803C119.591 24.4803 119.89 24.3572 120.259 24.0936C120.54 23.9003 120.839 23.6543 121.173 23.338L121.296 23.6719C120.171 24.8669 119.187 25.4644 118.379 25.4644C118.062 25.4644 117.834 25.1656 117.658 24.5505C117.553 24.1639 117.43 23.6016 117.289 22.881C117.148 23.0216 117.008 23.1798 116.85 23.338C116.691 23.4961 116.516 23.6543 116.34 23.83C115.69 24.4275 115.198 24.8493 114.846 25.0953C114.495 25.3589 114.196 25.482 113.915 25.482C113.792 25.482 113.704 25.4292 113.634 25.3414C113.563 25.2535 113.528 25.0953 113.528 24.8669C113.528 24.7263 113.546 24.5681 113.598 24.3572C113.915 24.3572 114.424 24.1991 115.092 23.8652C115.866 23.4785 116.568 23.0041 117.184 22.4065L116.85 20.368C116.779 19.9286 116.691 19.6475 116.586 19.5244C116.481 19.4014 116.305 19.3487 116.059 19.3487C115.795 19.3487 115.514 19.4014 115.215 19.5069C114.917 19.6123 114.635 19.7353 114.372 19.8408L114.301 19.542C114.442 19.4542 114.653 19.3487 114.934 19.2081C115.215 19.0675 115.514 18.9269 115.83 18.7863C116.147 18.6458 116.445 18.5403 116.727 18.4349C117.008 18.3294 117.236 18.2943 117.377 18.2943C117.57 18.2943 117.693 18.3997 117.746 18.593C117.816 18.7863 117.869 19.1378 117.939 19.6299L118.238 21.6684C118.73 21.194 119.205 20.7019 119.644 20.1747C120.083 19.6475 120.452 19.0324 120.786 18.3646C120.874 18.3294 120.962 18.2943 121.085 18.2416C121.208 18.1888 121.366 18.1713 121.542 18.1713C121.595 18.1713 121.647 18.1888 121.665 18.2064C121.7 18.1713 121.7 18.224 121.7 18.3119Z" fill="#D3AF4A"/>
<path d="M130.082 18.3997C130.029 18.4876 129.976 18.5931 129.923 18.7161C129.853 18.8391 129.8 18.9621 129.73 19.0851C129.66 19.2081 129.607 19.3311 129.554 19.4366C129.502 19.542 129.466 19.6123 129.449 19.6651C129.326 19.9287 129.168 20.2977 128.974 20.7371C128.781 21.1764 128.553 21.7212 128.271 22.3538C128.113 22.7229 127.973 23.0568 127.85 23.338C127.727 23.6367 127.674 23.8476 127.674 23.9882C127.674 24.0936 127.692 24.1464 127.727 24.1815C127.762 24.1991 127.815 24.2167 127.902 24.2167C127.99 24.2167 128.131 24.1815 128.289 24.0936C128.447 24.0058 128.605 23.9179 128.781 23.8125C128.974 23.6894 129.15 23.5664 129.361 23.4083L129.502 23.7422C129.379 23.8476 129.185 23.9882 128.939 24.1815C128.693 24.3748 128.43 24.5681 128.131 24.7439C127.85 24.9372 127.551 25.0954 127.252 25.2359C126.953 25.3765 126.69 25.4468 126.479 25.4468C126.321 25.4468 126.233 25.4117 126.18 25.3414C126.127 25.2711 126.11 25.2008 126.11 25.0954C126.11 24.9899 126.127 24.8845 126.163 24.7263C126.198 24.5681 126.25 24.41 126.321 24.2342C126.391 24.0585 126.461 23.8828 126.532 23.6894C126.602 23.4961 126.672 23.3204 126.743 23.1622L127.375 21.6685C127.112 21.7563 126.883 21.8091 126.707 21.8442C126.532 21.8794 126.338 21.9145 126.092 21.9321C125.758 21.9848 125.46 22.0199 125.196 22.0199C124.932 22.0375 124.704 22.0375 124.458 22.0727L123.527 24.287C123.474 24.4451 123.404 24.5681 123.333 24.6384C123.281 24.6912 123.158 24.7966 122.964 24.9372C122.771 25.0778 122.595 25.2008 122.419 25.2887C122.261 25.3765 122.138 25.4117 122.015 25.4117C121.91 25.4117 121.857 25.3941 121.839 25.359C121.822 25.3238 121.822 25.2711 121.822 25.2184C121.822 25.1656 121.857 25.0426 121.945 24.8493C122.033 24.656 122.156 24.3924 122.314 24.0761C122.472 23.7246 122.613 23.4258 122.753 23.1622C122.876 22.9162 122.964 22.7053 123.052 22.4944C123.14 22.2835 123.193 22.1781 123.21 22.143C123.087 22.1605 122.947 22.1781 122.824 22.1957C122.683 22.2133 122.56 22.2308 122.419 22.2484L122.49 22.0024C122.824 21.8618 123.14 21.7563 123.421 21.686C123.491 21.5279 123.579 21.317 123.667 21.0885C123.755 20.8601 123.843 20.6316 123.931 20.4032C124.019 20.1747 124.071 19.9814 124.124 19.8056C124.177 19.6299 124.194 19.5069 124.194 19.419C124.194 19.296 124.142 19.2433 124.036 19.2433C123.948 19.2433 123.825 19.2784 123.667 19.3312C123.509 19.3839 123.368 19.4542 123.21 19.5245C123.034 19.6123 122.859 19.7002 122.648 19.8056L122.542 19.5069C122.736 19.4014 122.964 19.2784 123.263 19.1378C123.562 18.9972 123.843 18.8567 124.159 18.7161C124.458 18.5931 124.757 18.47 125.02 18.3822C125.301 18.2943 125.512 18.2416 125.671 18.2416C125.723 18.2416 125.776 18.2592 125.811 18.2767C125.846 18.2943 125.864 18.3646 125.864 18.4525C125.864 18.4876 125.846 18.5579 125.829 18.6633C125.794 18.7512 125.758 18.8742 125.723 18.9972C125.671 19.1203 125.618 19.2609 125.565 19.4014C125.512 19.542 125.46 19.6826 125.407 19.8056L124.722 21.4049C125.003 21.3697 125.284 21.3346 125.548 21.317C125.829 21.2994 126.092 21.2818 126.356 21.2467C126.637 21.2291 126.866 21.2115 127.059 21.1764C127.252 21.1588 127.41 21.1412 127.569 21.1061L128.061 19.9111C128.184 19.5948 128.307 19.3312 128.43 19.1203C128.553 18.9094 128.693 18.7512 128.869 18.6282C129.062 18.5052 129.238 18.4173 129.431 18.347C129.625 18.2767 129.765 18.2416 129.906 18.2416C129.941 18.2416 129.976 18.2416 130.011 18.2591C130.046 18.2767 130.082 18.3294 130.082 18.3997Z" fill="#D3AF4A"/>
<path d="M137.675 19.6826C137.675 20.3153 137.535 20.9304 137.236 21.5279C136.937 22.143 136.568 22.7053 136.129 23.2325C135.461 24.0058 134.811 24.5681 134.178 24.9196C133.528 25.2711 132.86 25.4468 132.175 25.4468C131.085 25.4468 130.54 24.902 130.54 23.83C130.54 23.4258 130.611 23.0216 130.769 22.5823C130.927 22.143 131.12 21.7212 131.384 21.317C131.648 20.9128 131.964 20.5086 132.315 20.1395C132.667 19.7705 133.071 19.4366 133.475 19.1554C133.897 18.8742 134.336 18.6458 134.793 18.4876C135.25 18.3294 135.725 18.2416 136.199 18.2416C136.674 18.2416 137.043 18.3646 137.306 18.6282C137.535 18.8918 137.675 19.2433 137.675 19.6826ZM136.252 20.2626C136.252 19.7881 136.182 19.4717 136.023 19.2784C135.865 19.1027 135.619 18.9972 135.233 18.9972C134.389 18.9972 133.651 19.4893 132.966 20.491C132.28 21.4752 131.946 22.512 131.946 23.6016C131.946 23.9531 132.034 24.2167 132.192 24.4451C132.351 24.656 132.614 24.7614 133.001 24.7614C133.317 24.7614 133.616 24.6736 133.897 24.5154C134.178 24.3573 134.442 24.1464 134.688 23.8828C134.934 23.6192 135.145 23.3204 135.338 23.0041C135.531 22.6702 135.69 22.3538 135.83 22.0199C135.971 21.686 136.076 21.3697 136.146 21.0534C136.199 20.7546 136.252 20.491 136.252 20.2626Z" fill="#D3AF4A"/>
<path d="M145.265 18.47C145.265 18.5755 145.16 18.8039 144.967 19.1378C144.773 19.4717 144.562 19.8584 144.352 20.2977C144.246 20.5086 144.105 20.8074 143.93 21.1588C143.754 21.5103 143.578 21.8794 143.403 22.266C143.227 22.635 143.086 22.9865 142.963 23.3028C142.84 23.6192 142.77 23.83 142.77 23.9531C142.77 24.0937 142.858 24.1639 143.016 24.1639C143.139 24.1639 143.244 24.1464 143.367 24.0937C143.49 24.0409 143.596 24.0058 143.701 23.9531C143.824 23.8828 143.93 23.8125 144.053 23.7422L144.193 24.0761C144.07 24.1815 143.895 24.3045 143.684 24.4627C143.473 24.6209 143.244 24.779 142.981 24.9196C142.735 25.0778 142.471 25.2008 142.208 25.3062C141.944 25.4117 141.698 25.4644 141.487 25.4644C141.223 25.4644 141.083 25.3414 141.083 25.0778C141.083 24.9548 141.118 24.779 141.188 24.5506C141.259 24.3221 141.364 24.0585 141.469 23.7773C141.592 23.4961 141.715 23.1974 141.856 22.8811C141.997 22.5647 142.137 22.266 142.278 21.9848C142.418 21.7036 142.541 21.44 142.664 21.2116C142.787 20.9831 142.875 20.8074 142.946 20.6668C143.139 20.2626 143.28 19.9638 143.385 19.7705C143.473 19.5596 143.526 19.419 143.526 19.3487C143.526 19.2784 143.473 19.2609 143.385 19.2609C143.086 19.2609 142.7 19.4366 142.19 19.8056C141.68 20.1747 141.118 20.6843 140.503 21.3346C140.064 21.8091 139.677 22.3011 139.343 22.8108C139.009 23.338 138.851 23.8828 138.851 24.4627C138.851 24.5857 138.851 24.656 138.869 24.6912C138.71 24.902 138.517 25.0954 138.289 25.2535C138.06 25.4117 137.867 25.482 137.691 25.482C137.55 25.482 137.445 25.4468 137.357 25.3765C137.269 25.3062 137.234 25.1832 137.234 24.9723C137.234 24.6033 137.515 24.0409 138.095 23.2501C138.499 22.7053 138.992 22.1254 139.571 21.5279C140.151 20.9304 140.766 20.368 141.434 19.8232C141.592 19.7002 141.768 19.5772 141.961 19.4366C142.172 19.3136 142.366 19.1906 142.577 19.0676C142.787 18.9445 142.981 18.8567 143.174 18.7512C143.367 18.6634 143.526 18.5931 143.666 18.5403C143.859 18.4525 144.105 18.3822 144.387 18.3295C144.668 18.2767 144.879 18.2592 145.019 18.2592C145.072 18.2592 145.125 18.2592 145.177 18.2767C145.23 18.2943 145.265 18.3646 145.265 18.47Z" fill="#D3AF4A"/>
<path d="M152.506 19.6826C152.506 20.3153 152.365 20.9304 152.066 21.5279C151.768 22.143 151.399 22.7053 150.959 23.2325C150.291 24.0058 149.641 24.5681 149.008 24.9196C148.358 25.2711 147.69 25.4468 147.005 25.4468C145.916 25.4468 145.371 24.902 145.371 23.83C145.371 23.4258 145.441 23.0216 145.599 22.5823C145.757 22.143 145.951 21.7212 146.214 21.317C146.478 20.9128 146.794 20.5086 147.146 20.1395C147.497 19.7705 147.901 19.4366 148.306 19.1554C148.727 18.8742 149.167 18.6458 149.624 18.4876C150.08 18.3294 150.555 18.2416 151.029 18.2416C151.504 18.2416 151.873 18.3646 152.137 18.6282C152.365 18.8918 152.506 19.2433 152.506 19.6826ZM151.082 20.2626C151.082 19.7881 151.012 19.4717 150.854 19.2784C150.696 19.1027 150.45 18.9972 150.063 18.9972C149.219 18.9972 148.481 19.4893 147.796 20.491C147.111 21.4752 146.777 22.512 146.777 23.6016C146.777 23.9531 146.865 24.2167 147.023 24.4451C147.181 24.656 147.444 24.7614 147.831 24.7614C148.147 24.7614 148.446 24.6736 148.727 24.5154C149.008 24.3573 149.272 24.1464 149.518 23.8828C149.764 23.6192 149.975 23.3204 150.168 23.0041C150.362 22.6702 150.52 22.3538 150.66 22.0199C150.801 21.686 150.906 21.3697 150.977 21.0534C151.029 20.7546 151.082 20.491 151.082 20.2626Z" fill="#D3AF4A"/>
<path d="M157.496 18.7512C157.496 19.1027 157.338 19.4893 157.021 19.9462C156.705 20.4032 156.23 21.0007 155.615 21.7388C155.317 22.0902 155.088 22.3714 154.912 22.5999C154.737 22.8283 154.596 23.0392 154.508 23.1974C154.42 23.3556 154.35 23.4961 154.315 23.6192C154.28 23.7422 154.262 23.83 154.262 23.9355C154.262 24.0937 154.315 24.2167 154.42 24.2694C154.526 24.3221 154.631 24.3573 154.719 24.3573C154.877 24.3573 155.018 24.3397 155.176 24.287C155.334 24.2342 155.475 24.164 155.633 24.0761C155.791 23.9882 155.932 23.9003 156.055 23.7949C156.195 23.6895 156.318 23.6016 156.424 23.5137L156.6 23.7246C156.353 23.9355 156.107 24.1639 155.861 24.3748C155.615 24.5857 155.369 24.779 155.106 24.9548C154.842 25.1129 154.579 25.2535 154.315 25.359C154.051 25.4644 153.77 25.5171 153.471 25.5171C153.19 25.5171 152.997 25.4644 152.891 25.359C152.786 25.2535 152.733 25.1129 152.733 24.9372C152.733 24.7966 152.768 24.6384 152.856 24.4627C152.944 24.287 153.067 24.0937 153.243 23.8476C153.419 23.6016 153.647 23.3204 153.928 22.9865C154.209 22.6526 154.543 22.266 154.93 21.7915C155.176 21.4927 155.369 21.2467 155.51 21.0182C155.651 20.8074 155.774 20.5965 155.844 20.4383C155.914 20.2626 155.967 20.122 155.984 19.9814C156.002 19.8584 156.002 19.7178 156.002 19.5948C156.002 19.4542 155.949 19.3487 155.861 19.296C155.774 19.2433 155.651 19.2257 155.527 19.2257C155.404 19.2257 155.281 19.2609 155.123 19.3136C154.965 19.3663 154.825 19.4366 154.666 19.5245C154.508 19.6123 154.35 19.7178 154.192 19.8232C154.034 19.9462 153.893 20.0517 153.753 20.1747L153.577 19.9638C153.805 19.7881 154.034 19.5948 154.297 19.4015C154.561 19.2081 154.825 19.0148 155.123 18.8567C155.404 18.6985 155.703 18.5579 156.02 18.4349C156.318 18.3295 156.635 18.2767 156.933 18.2767C157.056 18.2767 157.179 18.3119 157.302 18.3646C157.443 18.3997 157.496 18.5403 157.496 18.7512Z" fill="#D3AF4A"/>
<path d="M166.336 18.3998C166.336 18.4173 166.266 18.5755 166.125 18.8567C165.984 19.1379 165.826 19.4893 165.65 19.9111L164.578 22.4066C164.526 22.5296 164.473 22.6526 164.403 22.8108C164.332 22.9689 164.262 23.1095 164.209 23.2677C164.157 23.4259 164.104 23.5665 164.051 23.6895C163.999 23.8301 163.981 23.9355 163.981 24.0058C163.981 24.1464 164.051 24.2167 164.209 24.2167C164.297 24.2167 164.438 24.164 164.666 24.0409C164.895 23.9179 165.229 23.707 165.65 23.4083L165.791 23.7422C165.053 24.3397 164.455 24.779 163.963 25.0426C163.471 25.3238 163.085 25.4644 162.786 25.4644C162.54 25.4644 162.417 25.3414 162.417 25.1129C162.417 24.9899 162.434 24.8493 162.47 24.6912C162.505 24.533 162.557 24.3748 162.628 24.1991C162.698 24.0234 162.768 23.8476 162.839 23.6719C162.909 23.4962 162.979 23.3204 163.05 23.1623C163.26 22.6878 163.436 22.3011 163.577 21.9848C163.717 21.6685 163.84 21.4049 163.928 21.2116C164.016 21.0007 164.104 20.8425 164.157 20.7195C164.209 20.5965 164.262 20.4735 164.315 20.3856H164.157L163.682 20.8952C163.348 21.2643 162.979 21.6509 162.593 22.0727C162.206 22.4944 161.802 22.8986 161.415 23.2853C161.029 23.6895 160.624 24.0409 160.255 24.3924C159.869 24.7263 159.517 25.0075 159.218 25.236C159.131 25.3063 159.025 25.359 158.902 25.3941C158.779 25.4293 158.656 25.4644 158.551 25.4644C158.428 25.4644 158.322 25.4293 158.27 25.359C158.199 25.2887 158.182 25.2008 158.182 25.0954C158.182 25.0075 158.199 24.8845 158.234 24.7263C158.269 24.5682 158.34 24.3748 158.428 24.164C158.639 23.6719 158.849 23.1623 159.095 22.635C159.324 22.1078 159.535 21.6333 159.728 21.194C159.921 20.7546 160.08 20.368 160.203 20.0517C160.326 19.7354 160.378 19.5069 160.378 19.419C160.378 19.3312 160.326 19.2784 160.238 19.2784C160.08 19.2784 159.816 19.3663 159.412 19.5596L158.832 19.8584L158.726 19.5596C158.92 19.4366 159.148 19.3136 159.412 19.173C159.693 19.0324 159.957 18.8918 160.255 18.7688C160.537 18.6458 160.818 18.5403 161.081 18.4525C161.345 18.3646 161.573 18.3119 161.784 18.3119C161.925 18.3119 161.995 18.3822 161.995 18.5228C161.995 18.6106 161.942 18.804 161.819 19.1203C161.696 19.4366 161.556 19.7705 161.398 20.1571C161.239 20.5438 161.081 20.9128 160.906 21.2819C160.73 21.6509 160.607 21.9145 160.537 22.1078C160.167 22.9514 159.974 23.4083 159.974 23.4962C159.974 23.6367 160.027 23.707 160.115 23.707C160.203 23.707 160.361 23.6192 160.572 23.461C160.783 23.3028 161.029 23.0744 161.292 22.8284C161.556 22.5647 161.837 22.2836 162.136 21.9672C162.434 21.6509 162.698 21.3346 162.979 21.0534C163.243 20.7546 163.489 20.491 163.7 20.245C163.911 19.999 164.051 19.8232 164.157 19.7002L164.649 19.1379C164.737 19.05 164.807 18.9797 164.895 18.9094C164.983 18.8391 165.053 18.7864 165.141 18.7337C165.527 18.4701 165.897 18.347 166.213 18.347C166.283 18.2592 166.336 18.3119 166.336 18.3998Z" fill="#D3AF4A"/>
<path d="M175.001 18.3998C175.001 18.4173 174.931 18.5755 174.79 18.8567C174.649 19.1379 174.491 19.4893 174.316 19.9111L173.244 22.4066C173.191 22.5296 173.138 22.6526 173.068 22.8108C172.998 22.9689 172.927 23.1095 172.874 23.2677C172.822 23.4259 172.769 23.5665 172.716 23.6895C172.664 23.8301 172.646 23.9355 172.646 24.0058C172.646 24.1464 172.716 24.2167 172.874 24.2167C172.962 24.2167 173.103 24.164 173.331 24.0409C173.56 23.9179 173.894 23.707 174.316 23.4083L174.456 23.7422C173.718 24.3397 173.121 24.779 172.628 25.0426C172.136 25.3238 171.75 25.4644 171.451 25.4644C171.205 25.4644 171.082 25.3414 171.082 25.1129C171.082 24.9899 171.1 24.8493 171.135 24.6912C171.17 24.533 171.223 24.3748 171.293 24.1991C171.363 24.0234 171.433 23.8476 171.504 23.6719C171.574 23.4962 171.644 23.3204 171.715 23.1623C171.926 22.6878 172.101 22.3011 172.242 21.9848C172.382 21.6685 172.505 21.4049 172.593 21.2116C172.681 21.0007 172.769 20.8425 172.822 20.7195C172.874 20.5965 172.927 20.4735 172.98 20.3856H172.822L172.347 20.8952C172.013 21.2643 171.644 21.6509 171.258 22.0727C170.871 22.4944 170.467 22.8986 170.08 23.2853C169.694 23.6895 169.289 24.0409 168.92 24.3924C168.534 24.7263 168.182 25.0075 167.884 25.236C167.796 25.3063 167.69 25.359 167.567 25.3941C167.444 25.4293 167.321 25.4644 167.216 25.4644C167.093 25.4644 166.987 25.4293 166.935 25.359C166.864 25.2887 166.847 25.2008 166.847 25.0954C166.847 25.0075 166.864 24.8845 166.899 24.7263C166.935 24.5682 167.005 24.3748 167.093 24.164C167.304 23.6719 167.514 23.1623 167.761 22.635C167.989 22.1078 168.2 21.6333 168.393 21.194C168.586 20.7546 168.745 20.368 168.868 20.0517C168.991 19.7354 169.043 19.5069 169.043 19.419C169.043 19.3312 168.991 19.2784 168.903 19.2784C168.745 19.2784 168.481 19.3663 168.077 19.5596L167.497 19.8584L167.391 19.5596C167.585 19.4366 167.813 19.3136 168.077 19.173C168.358 19.0324 168.622 18.8918 168.92 18.7688C169.202 18.6458 169.483 18.5403 169.746 18.4525C170.01 18.3646 170.238 18.3119 170.449 18.3119C170.59 18.3119 170.66 18.3822 170.66 18.5228C170.66 18.6106 170.607 18.804 170.484 19.1203C170.361 19.4366 170.221 19.7705 170.063 20.1571C169.905 20.5438 169.746 20.9128 169.571 21.2819C169.395 21.6509 169.272 21.9145 169.202 22.1078C168.833 22.9514 168.639 23.4083 168.639 23.4962C168.639 23.6367 168.692 23.707 168.78 23.707C168.868 23.707 169.026 23.6192 169.237 23.461C169.448 23.3028 169.694 23.0744 169.957 22.8284C170.221 22.5647 170.502 22.2836 170.801 21.9672C171.1 21.6509 171.363 21.3346 171.644 21.0534C171.908 20.7546 172.154 20.491 172.365 20.245C172.576 19.999 172.716 19.8232 172.822 19.7002L173.314 19.1379C173.402 19.05 173.472 18.9797 173.56 18.9094C173.648 18.8391 173.718 18.7864 173.806 18.7337C174.193 18.4701 174.562 18.347 174.878 18.347C174.948 18.2592 175.001 18.3119 175.001 18.3998Z" fill="#D3AF4A"/>
<path d="M43.373 35.3761H44.0936V37.8364H45.148C45.2007 37.0632 45.4643 36.4305 45.9212 35.9736C46.3782 35.5167 46.9405 35.2882 47.6259 35.2882C48.3464 35.2882 48.9264 35.5342 49.4009 36.0439C49.8753 36.5535 50.1038 37.2389 50.1038 38.1C50.1038 38.9963 49.8753 39.6992 49.4009 40.2089C48.9264 40.7185 48.3288 40.9645 47.6083 40.9645C46.9405 40.9645 46.3957 40.7537 45.9564 40.3143C45.5171 39.875 45.2534 39.2775 45.1831 38.5042H44.1111V40.8767H43.3906V35.3761H43.373ZM45.8861 38.1352C45.8861 38.8205 46.0443 39.3653 46.3606 39.7519C46.6769 40.1386 47.0987 40.3319 47.6083 40.3319C48.1355 40.3319 48.5573 40.1386 48.8736 39.7519C49.19 39.3653 49.3481 38.8205 49.3481 38.1C49.3481 37.4146 49.19 36.8874 48.8736 36.4832C48.5573 36.079 48.1355 35.9033 47.6083 35.9033C47.0635 35.9033 46.6418 36.0966 46.3254 36.5008C46.0267 36.8874 45.8861 37.4322 45.8861 38.1352Z" fill="#D3AF4A"/>
<path d="M50.9996 42.3703V36.8873H51.6147V37.3969C51.7553 37.2036 51.931 37.0455 52.1068 36.94C52.2825 36.8346 52.511 36.7819 52.7746 36.7819C53.1085 36.7819 53.4072 36.8697 53.6708 37.0455C53.9344 37.2212 54.1278 37.4672 54.2508 37.7836C54.3914 38.0999 54.4441 38.4514 54.4441 38.8204C54.4441 39.2246 54.3738 39.5937 54.2332 39.91C54.0926 40.2439 53.8817 40.4899 53.6006 40.6657C53.3194 40.8414 53.0382 40.9293 52.7219 40.9293C52.4934 40.9293 52.3001 40.8765 52.1243 40.7887C51.9486 40.7008 51.808 40.5778 51.685 40.4372V42.3703H50.9996ZM51.5971 38.8907C51.5971 39.4004 51.7026 39.787 51.9135 40.0154C52.1243 40.2615 52.3704 40.3845 52.6691 40.3845C52.9679 40.3845 53.2315 40.2615 53.4424 39.9979C53.6533 39.7518 53.7587 39.3476 53.7587 38.8204C53.7587 38.3108 53.6533 37.9417 53.4424 37.6781C53.2315 37.4321 52.9855 37.3091 52.7043 37.3091C52.4231 37.3091 52.1595 37.4497 51.9486 37.7133C51.7377 37.9769 51.5971 38.3811 51.5971 38.8907Z" fill="#D3AF4A"/>
<path d="M55.2527 36.8873H55.9205V39.91L57.7833 36.8873H58.5038V40.859H57.836V37.8539L55.9732 40.859H55.2527V36.8873Z" fill="#D3AF4A"/>
<path d="M60.0679 36.8873H62.8269V40.2966H63.2487V41.9837H62.7039V40.859H59.5758V41.9837H59.031V40.2966H59.3825C59.857 39.6464 60.0854 38.5217 60.0679 36.8873ZM60.6126 37.4321C60.5599 38.715 60.3666 39.6816 60.0151 40.2966H62.1416V37.4321H60.6126Z" fill="#D3AF4A"/>
<path d="M64.0046 36.8873H64.6724V39.91L66.5353 36.8873H67.2558V40.859H66.588V37.8539L64.7252 40.8414H64.0046V36.8873Z" fill="#D3AF4A"/>
<path d="M68.0295 36.8873H68.6973V37.643C68.6973 37.9593 68.7149 38.2054 68.7501 38.346C68.7852 38.4865 68.8731 38.6271 69.0312 38.7326C69.1718 38.838 69.3651 38.8907 69.576 38.8907C69.8221 38.8907 70.156 38.8204 70.5602 38.6974V36.9049H71.228V40.8766H70.5602V39.2774C70.1384 39.4004 69.7518 39.4707 69.4003 39.4707C69.1015 39.4707 68.8379 39.4004 68.6095 39.2422C68.381 39.0841 68.2229 38.9083 68.135 38.6799C68.0471 38.4514 68.012 38.2054 68.012 37.9418V36.8873H68.0295Z" fill="#D3AF4A"/>
<path d="M74.9717 39.5762L75.6746 39.6641C75.5692 40.0683 75.3583 40.3846 75.0595 40.6131C74.7608 40.8415 74.3917 40.947 73.9173 40.947C73.3373 40.947 72.8804 40.7712 72.5289 40.4022C72.195 40.0507 72.0193 39.5411 72.0193 38.8908C72.0193 38.223 72.195 37.7134 72.5289 37.3443C72.8628 36.9753 73.3197 36.7996 73.8645 36.7996C74.3917 36.7996 74.8311 36.9753 75.165 37.3443C75.4989 37.7134 75.6746 38.2055 75.6746 38.8733V39.049H72.7222C72.7398 39.4883 72.8628 39.8223 73.0913 40.0507C73.3197 40.2792 73.5834 40.4022 73.9173 40.4022C74.1633 40.4022 74.3742 40.3319 74.5499 40.2089C74.7432 40.0683 74.8838 39.8574 74.9717 39.5762ZM72.775 38.4866H74.9893C74.9541 38.1527 74.8662 37.9067 74.7432 37.731C74.5323 37.4674 74.2512 37.3443 73.9173 37.3443C73.6009 37.3443 73.3549 37.4498 73.144 37.6607C72.9156 37.854 72.7925 38.1352 72.775 38.4866Z" fill="#D3AF4A"/>
<path d="M79.1183 39.4005L79.7861 39.4883C79.7158 39.9453 79.5225 40.2967 79.2238 40.5603C78.925 40.824 78.556 40.947 78.1342 40.947C77.5894 40.947 77.1501 40.7712 76.8162 40.4198C76.4823 40.0683 76.3241 39.5586 76.3241 38.8908C76.3241 38.4691 76.3944 38.0824 76.535 37.7661C76.6756 37.4498 76.8865 37.2038 77.1852 37.0456C77.484 36.8874 77.7827 36.7996 78.1342 36.7996C78.5735 36.7996 78.925 36.905 79.1886 37.1335C79.4522 37.3619 79.6455 37.6607 79.7158 38.0649L79.0656 38.1703C78.9953 37.9067 78.8899 37.6958 78.7317 37.5728C78.5735 37.4498 78.3802 37.3795 78.1518 37.3795C77.8179 37.3795 77.5367 37.5025 77.3258 37.7485C77.1149 37.9946 77.0095 38.3812 77.0095 38.9084C77.0095 39.4356 77.1149 39.8222 77.3082 40.0683C77.5191 40.3143 77.7827 40.4373 78.1166 40.4373C78.3802 40.4373 78.6087 40.3495 78.7844 40.1913C78.9426 39.9804 79.0656 39.7344 79.1183 39.4005Z" fill="#D3AF4A"/>
<path d="M80.348 36.8873H81.0158V38.6096C81.2267 38.6096 81.3849 38.5744 81.4727 38.4865C81.5606 38.3987 81.6836 38.1702 81.8594 37.766C82 37.4497 82.1054 37.2388 82.1757 37.1509C82.2636 37.0455 82.3514 36.9752 82.4569 36.9576C82.5623 36.9225 82.738 36.9049 82.9665 36.9049H83.1071V37.4673H82.9138C82.7381 37.4673 82.615 37.4848 82.5799 37.5376C82.5272 37.5903 82.4393 37.7484 82.3339 38.0296C82.2284 38.2932 82.1405 38.469 82.0527 38.5744C81.9648 38.6799 81.8418 38.7677 81.6661 38.8556C81.9472 38.9259 82.246 39.2071 82.5096 39.664L83.2477 40.8941H82.5096L81.7891 39.664C81.6485 39.418 81.5079 39.2598 81.4024 39.1719C81.297 39.1016 81.1564 39.0489 81.0158 39.0489V40.8766H80.348V36.8873Z" fill="#D3AF4A"/>
<path d="M83.7051 36.8873H84.3729V39.91L86.2357 36.8873H86.9562V40.859H86.2884V37.8539L84.4256 40.859H83.7051V36.8873Z" fill="#D3AF4A"/>
<path d="M90.6814 39.5762L91.3843 39.6641C91.2789 40.0683 91.068 40.3846 90.7693 40.6131C90.4705 40.8415 90.1015 40.947 89.627 40.947C89.047 40.947 88.5901 40.7712 88.2386 40.4022C87.9047 40.0507 87.729 39.5411 87.729 38.8908C87.729 38.223 87.9047 37.7134 88.2386 37.3443C88.5725 36.9753 89.0295 36.7996 89.5743 36.7996C90.1015 36.7996 90.5408 36.9753 90.8747 37.3443C91.2086 37.7134 91.3843 38.2055 91.3843 38.8733V39.049H88.4495C88.4671 39.4883 88.5901 39.8223 88.8186 40.0507C89.047 40.2792 89.3106 40.4022 89.6445 40.4022C89.8906 40.4022 90.1015 40.3319 90.2772 40.2089C90.4529 40.0683 90.5935 39.8574 90.6814 39.5762ZM88.4847 38.4866H90.699C90.6638 38.1527 90.576 37.9067 90.4529 37.731C90.2421 37.4674 89.9609 37.3443 89.627 37.3443C89.3106 37.3443 89.0646 37.4498 88.8537 37.6607C88.6253 37.854 88.5022 38.1352 88.4847 38.4866Z" fill="#D3AF4A"/>
<path d="M94.3196 42.3703L94.2493 41.7377C94.3899 41.7728 94.5305 41.7904 94.6359 41.7904C94.7941 41.7904 94.8995 41.7728 94.9874 41.7201C95.0753 41.6674 95.1456 41.5971 95.2159 41.5092C95.251 41.4389 95.3213 41.2808 95.4268 40.9996C95.4443 40.9644 95.4619 40.9117 95.4795 40.8414L93.9681 36.8698H94.6887L95.5146 39.1719C95.6201 39.4707 95.7255 39.7694 95.7958 40.0858C95.8661 39.7694 95.9716 39.4707 96.077 39.1895L96.9205 36.8698H97.5883L96.077 40.9117C95.9188 41.3511 95.7958 41.6498 95.7079 41.808C95.5849 42.0364 95.4443 42.1946 95.3037 42.3C95.1456 42.4055 94.9698 42.4582 94.759 42.4582C94.6359 42.4582 94.4954 42.4406 94.3196 42.3703Z" fill="#D3AF4A"/>
<path d="M100.681 39.4005L101.349 39.4883C101.279 39.9453 101.085 40.2967 100.787 40.5603C100.488 40.824 100.119 40.947 99.6969 40.947C99.1522 40.947 98.7128 40.7712 98.3789 40.4198C98.045 40.0683 97.8868 39.5586 97.8868 38.8908C97.8868 38.4691 97.9571 38.0824 98.0977 37.7661C98.2383 37.4498 98.4492 37.2038 98.7479 37.0456C99.0467 36.8874 99.3455 36.7996 99.6969 36.7996C100.136 36.7996 100.488 36.905 100.751 37.1335C101.015 37.3619 101.208 37.6607 101.279 38.0649L100.628 38.1703C100.558 37.9067 100.453 37.6958 100.294 37.5728C100.136 37.4498 99.943 37.3795 99.7145 37.3795C99.3806 37.3795 99.0994 37.5025 98.8885 37.7485C98.6777 37.9946 98.5722 38.3812 98.5722 38.9084C98.5722 39.4356 98.6777 39.8222 98.871 40.0683C99.0819 40.3143 99.3455 40.4373 99.6794 40.4373C99.943 40.4373 100.171 40.3495 100.347 40.1913C100.523 39.9804 100.646 39.7344 100.681 39.4005Z" fill="#D3AF4A"/>
<path d="M102.263 36.8873H105.391V40.859H104.723V37.4497H102.948V39.4355C102.948 39.8924 102.931 40.2088 102.895 40.3494C102.86 40.49 102.79 40.6305 102.649 40.736C102.509 40.8414 102.315 40.8941 102.069 40.8941C101.911 40.8941 101.736 40.8766 101.525 40.859V40.2966H101.823C101.964 40.2966 102.069 40.2791 102.122 40.2615C102.175 40.2263 102.228 40.1912 102.245 40.1209C102.263 40.0506 102.28 39.8573 102.28 39.5058V36.8873H102.263Z" fill="#D3AF4A"/>
<path d="M106.358 42.3703L106.288 41.7377C106.429 41.7728 106.569 41.7904 106.675 41.7904C106.833 41.7904 106.938 41.7728 107.026 41.7201C107.114 41.6674 107.184 41.5971 107.255 41.5092C107.29 41.4389 107.36 41.2808 107.465 40.9996C107.483 40.9644 107.501 40.9117 107.518 40.8414L106.007 36.8698H106.727L107.553 39.1719C107.659 39.4707 107.764 39.7694 107.835 40.0858C107.905 39.7694 108.01 39.4707 108.116 39.1895L108.959 36.8698H109.627L108.116 40.9117C107.958 41.3511 107.835 41.6498 107.747 41.808C107.624 42.0364 107.483 42.1946 107.342 42.3C107.184 42.4055 107.009 42.4582 106.798 42.4582C106.675 42.4582 106.516 42.4406 106.358 42.3703Z" fill="#D3AF4A"/>
<path d="M110.223 36.8873H112.507V37.4497H110.891V40.859H110.223V36.8873Z" fill="#D3AF4A"/>
<path d="M113.018 36.8873H113.686V39.91L115.549 36.8873H116.269V40.859H115.602V37.8539L113.739 40.859H113.018V36.8873Z" fill="#D3AF4A"/>
<path d="M119.943 36.8873H122.702V40.2966H123.124V41.9837H122.579V40.859H119.451V41.9837H118.906V40.2966H119.258C119.75 39.6464 119.961 38.5217 119.943 36.8873ZM120.506 37.4321C120.453 38.715 120.26 39.6816 119.908 40.2966H122.034V37.4321H120.506Z" fill="#D3AF4A"/>
<path d="M124.212 36.8873H127.34V40.859H126.672V37.4497H124.897V39.4355C124.897 39.8924 124.879 40.2088 124.844 40.3494C124.809 40.49 124.739 40.6305 124.598 40.736C124.458 40.8414 124.264 40.8941 124.018 40.8941C123.86 40.8941 123.684 40.8766 123.474 40.859V40.2966H123.772C123.913 40.2966 124.018 40.2791 124.071 40.2615C124.124 40.2263 124.176 40.1912 124.194 40.1209C124.212 40.0506 124.229 39.8573 124.229 39.5058V36.8873H124.212Z" fill="#D3AF4A"/>
<path d="M131.469 36.8873V40.859H130.802V39.3125H130.415C130.187 39.3125 129.993 39.3477 129.888 39.4004C129.765 39.4531 129.607 39.664 129.378 39.9979L128.798 40.859H127.972L128.693 39.787C128.921 39.4531 129.132 39.2774 129.361 39.2422C128.974 39.1895 128.693 39.0489 128.5 38.8204C128.306 38.592 128.218 38.3459 128.218 38.0472C128.218 37.6957 128.341 37.4321 128.587 37.2037C128.833 36.9752 129.185 36.8873 129.642 36.8873H131.469ZM130.802 37.4321H129.853C129.448 37.4321 129.185 37.5024 129.079 37.6254C128.974 37.7484 128.904 37.889 128.904 38.0648C128.904 38.2932 128.992 38.469 129.167 38.592C129.343 38.715 129.642 38.7501 130.081 38.7501H130.819V37.4321H130.802Z" fill="#D3AF4A"/>
<path d="M137.533 35.2355H138.13C138.095 35.4991 138.042 35.6924 137.954 35.7978C137.867 35.9033 137.744 35.9736 137.603 35.9911C137.462 36.0087 137.181 36.0439 136.759 36.0439C136.197 36.0439 135.828 36.0966 135.617 36.202C135.424 36.3075 135.266 36.4832 135.178 36.7117C135.09 36.9401 135.037 37.2565 135.037 37.6255C135.213 37.3795 135.406 37.1862 135.635 37.0631C135.863 36.9401 136.109 36.8698 136.408 36.8698C136.935 36.8698 137.357 37.0456 137.708 37.4146C138.042 37.7661 138.218 38.2582 138.218 38.8732C138.218 39.3302 138.13 39.7168 137.954 40.0155C137.779 40.3143 137.585 40.5428 137.339 40.7009C137.111 40.8591 136.777 40.9469 136.373 40.9469C135.898 40.9469 135.529 40.8415 135.266 40.6306C135.002 40.4197 134.809 40.1386 134.668 39.8047C134.528 39.4708 134.457 38.8908 134.457 38.0473C134.457 36.9928 134.633 36.2899 134.984 35.9208C135.336 35.5518 135.881 35.3761 136.619 35.3761C137.076 35.3761 137.339 35.3761 137.392 35.3585C137.445 35.3409 137.515 35.2882 137.533 35.2355ZM137.498 38.8557C137.498 38.4339 137.392 38.1 137.199 37.8364C137.005 37.5728 136.724 37.4322 136.373 37.4322C136.004 37.4322 135.723 37.5728 135.512 37.854C135.301 38.1351 135.213 38.5042 135.213 38.9787C135.213 39.4356 135.318 39.7871 135.547 40.0331C135.775 40.2791 136.039 40.4022 136.373 40.4022C136.707 40.4022 136.97 40.2616 137.181 39.9804C137.392 39.6816 137.498 39.3126 137.498 38.8557Z" fill="#D3AF4A"/>
<path d="M139.01 36.8873H139.677V39.91L141.54 36.8873H142.261V40.859H141.593V37.8539L139.73 40.859H139.01V36.8873Z" fill="#D3AF4A"/>
<path d="M144.158 39.0489V38.5217C144.44 38.5217 144.633 38.5041 144.738 38.4865C144.844 38.4689 144.932 38.3986 145.037 38.3108C145.125 38.2053 145.178 38.0823 145.178 37.9417C145.178 37.766 145.125 37.6078 145.002 37.5024C144.879 37.3969 144.721 37.3442 144.527 37.3442C144.141 37.3442 143.877 37.5727 143.737 38.012L143.104 37.9066C143.297 37.1685 143.789 36.7819 144.545 36.7819C144.967 36.7819 145.301 36.9049 145.547 37.1333C145.793 37.3618 145.916 37.643 145.916 37.9593C145.916 38.2756 145.758 38.5392 145.441 38.7326C145.635 38.838 145.793 38.9786 145.898 39.1367C146.004 39.2949 146.056 39.5058 146.056 39.7167C146.056 40.0682 145.933 40.3669 145.67 40.5778C145.406 40.8063 145.055 40.9117 144.58 40.9117C143.684 40.9117 143.157 40.5075 142.999 39.6991L143.631 39.5585C143.684 39.8045 143.807 40.0154 143.983 40.156C144.158 40.2966 144.352 40.3669 144.58 40.3669C144.809 40.3669 145.002 40.2966 145.143 40.1736C145.301 40.0506 145.371 39.8748 145.371 39.6815C145.371 39.5234 145.318 39.4004 145.23 39.2773C145.143 39.1543 145.037 39.084 144.932 39.0665C144.826 39.0313 144.633 39.0313 144.352 39.0313C144.299 39.0489 144.246 39.0489 144.158 39.0489Z" fill="#D3AF4A"/>
<path d="M146.795 36.8873H147.463V38.5393H149.326V36.8873H149.994V40.859H149.326V39.1016H147.463V40.859H146.795V36.8873Z" fill="#D3AF4A"/>
<path d="M153.736 39.5762L154.439 39.6641C154.334 40.0683 154.123 40.3846 153.824 40.6131C153.526 40.8415 153.157 40.947 152.682 40.947C152.102 40.947 151.645 40.7712 151.294 40.4022C150.96 40.0507 150.784 39.5411 150.784 38.8908C150.784 38.223 150.96 37.7134 151.294 37.3443C151.628 36.9753 152.085 36.7996 152.629 36.7996C153.157 36.7996 153.596 36.9753 153.93 37.3443C154.264 37.7134 154.439 38.2055 154.439 38.8733V39.049H151.487C151.505 39.4883 151.628 39.8223 151.856 40.0507C152.085 40.2792 152.348 40.4022 152.682 40.4022C152.928 40.4022 153.139 40.3319 153.315 40.2089C153.49 40.0683 153.631 39.8574 153.736 39.5762ZM151.522 38.4866H153.736C153.701 38.1527 153.613 37.9067 153.49 37.731C153.28 37.4674 152.998 37.3443 152.664 37.3443C152.348 37.3443 152.102 37.4498 151.891 37.6607C151.663 37.854 151.557 38.1352 151.522 38.4866Z" fill="#D3AF4A"/>
<path d="M157.867 39.4005L158.534 39.4883C158.464 39.9453 158.271 40.2967 157.972 40.5603C157.673 40.824 157.304 40.947 156.882 40.947C156.338 40.947 155.898 40.7712 155.564 40.4198C155.23 40.0683 155.072 39.5586 155.072 38.8908C155.072 38.4691 155.143 38.0824 155.283 37.7661C155.424 37.4498 155.635 37.2038 155.933 37.0456C156.232 36.8874 156.531 36.7996 156.882 36.7996C157.322 36.7996 157.673 36.905 157.937 37.1335C158.2 37.3619 158.394 37.6607 158.464 38.0649L157.814 38.1703C157.743 37.9067 157.638 37.6958 157.48 37.5728C157.322 37.4498 157.128 37.3795 156.9 37.3795C156.566 37.3795 156.285 37.5025 156.074 37.7485C155.863 37.9946 155.758 38.3812 155.758 38.9084C155.758 39.4356 155.863 39.8222 156.056 40.0683C156.267 40.3143 156.531 40.4373 156.865 40.4373C157.128 40.4373 157.357 40.3495 157.533 40.1913C157.708 39.9804 157.814 39.7344 157.867 39.4005Z" fill="#D3AF4A"/>
<path d="M161.697 40.3669C161.451 40.5778 161.205 40.736 160.977 40.8238C160.748 40.9117 160.502 40.9468 160.239 40.9468C159.799 40.9468 159.466 40.8414 159.237 40.6305C159.009 40.4196 158.886 40.1385 158.886 39.8221C158.886 39.6288 158.938 39.4531 159.026 39.2949C159.114 39.1367 159.237 39.0137 159.378 38.9083C159.518 38.8028 159.676 38.7325 159.87 38.6798C160.01 38.6447 160.204 38.6095 160.467 38.5744C161.012 38.5041 161.416 38.4338 161.662 38.3459C161.662 38.2581 161.662 38.1878 161.662 38.1702C161.662 37.889 161.592 37.6957 161.469 37.5903C161.293 37.4321 161.047 37.3618 160.696 37.3618C160.379 37.3618 160.151 37.4145 159.993 37.52C159.835 37.6254 159.729 37.8187 159.659 38.0999L159.009 38.012C159.061 37.7308 159.167 37.5024 159.307 37.3266C159.448 37.1509 159.641 37.0279 159.905 36.9224C160.168 36.8346 160.467 36.7819 160.801 36.7819C161.135 36.7819 161.416 36.817 161.627 36.9049C161.838 36.9927 161.996 37.0806 162.102 37.2036C162.207 37.3266 162.277 37.4848 162.313 37.6605C162.33 37.7836 162.348 37.9769 162.348 38.2756V39.1719C162.348 39.8046 162.365 40.1912 162.383 40.3669C162.4 40.5426 162.471 40.6832 162.559 40.8414H161.856C161.768 40.7008 161.715 40.5426 161.697 40.3669ZM161.645 38.8556C161.399 38.961 161.03 39.0313 160.538 39.1016C160.256 39.1367 160.063 39.1895 159.958 39.2422C159.835 39.2949 159.747 39.3652 159.694 39.4531C159.641 39.5409 159.606 39.664 159.606 39.7694C159.606 39.9451 159.676 40.1033 159.817 40.2263C159.958 40.3493 160.151 40.4021 160.415 40.4021C160.678 40.4021 160.907 40.3493 161.1 40.2263C161.293 40.1033 161.451 39.9627 161.539 39.7694C161.61 39.6112 161.645 39.4004 161.645 39.1016V38.8556Z" fill="#D3AF4A"/>
<path d="M38.3644 30.5959H164.544" stroke="#D3AF4A" stroke-width="0.351476" stroke-miterlimit="10"/>
</svg>
