<svg width="175" height="40" viewBox="0 0 175 40" fill="none" xmlns="http://www.w3.org/2000/svg">
<path d="M14.415 26.3023L13.4444 24.63L12.7333 23.4053C12.6055 23.1853 12.4326 22.9583 12.3369 22.7227C12.2933 22.6165 12.3108 22.4962 12.3108 22.3815V21.7756L12.0102 22.0763H13.7906L13.501 21.8553L14.9933 26.4356C14.9984 26.4496 15.0099 26.5193 15.0234 26.5273C15.0846 26.5634 15.067 26.2041 15.1447 26.2466C15.1281 26.2376 15.048 26.2652 15.0229 26.2682C14.873 26.2833 14.7219 26.2833 14.5719 26.2682C14.5133 26.2632 14.4551 26.2477 14.3975 26.2426C14.3752 26.239 14.3534 26.2329 14.3324 26.2246C14.3484 26.2296 14.398 26.2802 14.3699 26.2451C14.1304 25.9415 13.7075 26.3699 13.945 26.6701C14.1028 26.8705 14.4902 26.8705 14.7172 26.8776C14.9613 26.8856 15.3336 26.9021 15.519 26.7107C15.731 26.4937 15.522 26.1159 15.4449 25.8798L14.387 22.6335L14.0818 21.6969C14.063 21.6342 14.0247 21.5791 13.9726 21.5395C13.9205 21.4999 13.8571 21.4778 13.7916 21.4764H12.0102C11.9308 21.4776 11.855 21.5097 11.7988 21.5658C11.7427 21.6219 11.7106 21.6977 11.7095 21.7771C11.7095 22.1244 11.6318 22.5789 11.7596 22.9077C11.8393 23.1146 11.9786 23.3086 12.0893 23.4975L13.4955 25.9199L13.8964 26.6095C14.0903 26.9427 14.61 26.64 14.415 26.3023Z" fill="#817653"/>
<path d="M17.6523 26.162C17.6654 26.2021 17.6624 26.179 17.5711 26.1835L17.3416 26.1946C17.1472 26.2026 16.9528 26.2096 16.7583 26.2126C16.6215 26.2126 16.4842 26.2156 16.3479 26.2086C16.3143 26.2086 16.2221 26.2086 16.2326 26.1991L16.2071 26.1931L16.3805 26.4496C16.3805 26.4496 16.3805 26.4421 16.3805 26.4401C16.408 26.409 16.3805 26.2281 16.3805 26.1895V22.821C16.3805 22.5619 16.3544 22.2818 16.3805 22.0247L16.2923 22.2372L16.2948 22.2347L15.8227 22.1735L17.4539 25.7315L17.6849 26.2356C17.8463 26.5864 18.3649 26.2817 18.2046 25.932L16.5729 22.374L16.3419 21.8703C16.2592 21.6904 15.9961 21.6844 15.8698 21.8092C15.6944 21.9806 15.7811 22.4937 15.7811 22.7443V25.9826C15.7811 26.2978 15.701 26.7002 16.1054 26.7869C16.5098 26.8736 16.9688 26.8149 17.3777 26.7969C17.5952 26.7869 17.8322 26.8029 18.0197 26.6731C18.1232 26.5995 18.2 26.4941 18.2383 26.3729C18.2767 26.2518 18.2745 26.1214 18.2321 26.0016C18.1119 25.6363 17.5311 25.7932 17.6523 26.162Z" fill="#817653"/>
<path d="M9.47234 22.6667L9.90181 21.9566C10.0166 21.7672 10.1864 21.3442 10.3969 21.255C10.672 21.1357 10.9401 21.4018 11.1486 21.5472L11.8577 22.0378C12.1764 22.2583 12.4776 21.7371 12.1609 21.5186L11.342 20.9513C11.0008 20.7153 10.649 20.5249 10.2195 20.6812C9.82664 20.824 9.66828 21.1824 9.46783 21.5146L8.95318 22.3665C8.75273 22.6988 9.27189 23.0009 9.47234 22.6702V22.6667Z" fill="#817653"/>
<path d="M16.2923 22.2345L18.3269 20.2631C18.6055 19.9935 18.1801 19.5685 17.9019 19.8376L15.8674 21.809C15.5887 22.0791 16.0142 22.5041 16.2923 22.2345Z" fill="#817653"/>
<path d="M8.06842 27.0038H11.5718C12.0153 27.0038 12.5635 27.0709 12.996 26.9537C13.4555 26.8289 13.5177 26.4024 13.2561 26.0516C13.1299 25.8954 12.9939 25.7473 12.8492 25.6081L10.123 22.7868C10.0419 22.7031 9.96217 22.6174 9.87999 22.5363C9.5728 22.2306 9.22852 22.2135 8.82762 22.2135C8.52344 22.2135 8.12906 22.1539 7.84041 22.2702C7.49463 22.41 7.36384 22.7402 7.41094 23.088L7.90856 26.7833C7.93061 26.9457 8.13657 27.0308 8.27839 26.9933C8.45278 26.9472 8.50991 26.7838 8.48836 26.6234L8.05739 23.4458C8.03484 23.2774 7.96418 23.0564 7.98223 22.8865C7.98223 22.8755 7.97421 22.8605 7.97721 22.85C7.95917 22.9101 8.07744 22.8224 8.11352 22.8139C8.19821 22.7933 8.31096 22.8139 8.39766 22.8139C8.65925 22.8139 8.96092 22.7703 9.22001 22.8189C9.37686 22.8485 9.4846 22.9923 9.59134 23.1025L12.1391 25.7389C12.2663 25.8707 12.3926 26.003 12.5209 26.1343C12.5515 26.1654 12.5831 26.196 12.6136 26.2275C12.6768 26.2927 12.7309 26.3779 12.7955 26.438C12.7885 26.4315 12.8456 26.5052 12.8301 26.5097C12.7935 26.5227 12.8587 26.3593 12.8657 26.3664C12.8416 26.3498 12.5149 26.4014 12.4793 26.4014H8.06942C7.68255 26.4014 7.68205 27.0028 8.06942 27.0028L8.06842 27.0038Z" fill="#817653"/>
<path d="M16.0818 27.004C16.4687 27.004 16.4692 26.4026 16.0818 26.4026C15.6944 26.4026 15.6939 27.004 16.0818 27.004Z" fill="#817653"/>
<path d="M2.14159 29.8126L3.62291 27.3486C3.64986 27.3025 3.66407 27.2501 3.66407 27.1968C3.66407 27.1434 3.64986 27.091 3.62291 27.0449L2.09699 24.5809C1.89353 24.2522 1.37336 24.5538 1.57782 24.8841L3.10274 27.3486V27.0449L1.62242 29.5095C1.42197 29.8422 1.94264 30.1449 2.14159 29.8131V29.8126Z" fill="#817653"/>
<path d="M3.41338 29.8126L4.89471 27.3486C4.92166 27.3025 4.93586 27.2501 4.93586 27.1968C4.93586 27.1434 4.92166 27.091 4.89471 27.0449L3.36828 24.5809C3.16783 24.2522 2.64466 24.5538 2.84911 24.8841L4.37504 27.3486V27.0449L2.89422 29.5095C2.69377 29.8422 3.21393 30.1449 3.41338 29.8131V29.8126Z" fill="#817653"/>
<path d="M25.2194 27.1687L20.9167 29.8206C20.8526 29.8602 20.7017 29.9158 20.6586 29.9795C20.6411 30.0055 20.6516 29.9985 20.6526 29.9965C20.6456 30.0115 20.6707 30.0306 20.6832 30.0181C20.6957 30.0055 20.7012 29.9599 20.7097 29.9414C20.9037 29.4984 21.03 29.0118 21.1873 28.5548C21.2374 28.4104 21.2981 28.2656 21.3376 28.1178C21.4379 27.7414 21.1718 27.4122 20.7929 27.3886C20.6155 27.3781 20.4341 27.3886 20.2567 27.3886H14.4622C14.2382 27.3886 13.9656 27.3531 13.7656 27.4718C13.3527 27.7169 13.4905 28.4415 13.4905 28.8419C13.4905 29.0459 13.4815 29.2528 13.4905 29.4568C13.5046 29.774 13.6769 29.9309 13.9521 30.0511C14.2442 30.1779 14.5143 30.3292 14.7273 30.5713C15.0495 30.9376 15.2169 31.4438 15.2284 31.9243C15.2419 32.3186 15.1516 32.7095 14.9664 33.0579C14.7813 33.4062 14.5079 33.6998 14.1736 33.9093C13.9275 34.0666 13.7591 34.21 13.7446 34.5232C13.7341 34.7457 13.7446 34.9717 13.7446 35.1947V35.5795C13.7446 35.6382 13.7641 35.7389 13.7446 35.795C13.7611 35.7449 13.7867 35.7815 13.7045 35.7649C13.6043 35.7444 13.4755 35.7649 13.3713 35.7649C13.1277 35.7649 12.8736 35.7429 12.6311 35.7649C12.5384 35.7735 12.5444 35.7384 12.5655 35.802C12.5474 35.7469 12.5655 35.6562 12.5655 35.5986V34.8153C12.5655 34.6214 12.5945 34.3869 12.4923 34.214C12.369 34.0025 12.1009 33.9058 11.911 33.763C11.6826 33.5916 11.4944 33.3723 11.3597 33.1205C10.9398 32.3478 10.9183 31.2623 11.5442 30.5913C11.75 30.3811 11.9945 30.2127 12.2643 30.0952C12.5509 29.9604 12.7975 29.8487 12.821 29.4864C12.8486 29.0554 12.821 28.6139 12.821 28.1834C12.821 27.978 12.8331 27.7795 12.6972 27.6066C12.5715 27.4473 12.3936 27.3962 12.2006 27.3902C11.4414 27.3676 10.6777 27.3902 9.91851 27.3902H6.72684C6.4412 27.3902 6.15456 27.3836 5.86892 27.3902C5.49107 27.3992 5.33322 27.6332 5.1493 27.9178L4.32195 29.1967C4.28387 29.249 4.24841 29.3032 4.21571 29.3591C4.18313 29.4237 4.24828 29.3591 4.22473 29.3591C4.10847 29.3591 3.99271 29.3591 3.87645 29.3591H0.892246C0.847145 29.3591 0.591571 29.3255 0.56 29.3591C0.549978 29.3701 0.592072 29.4192 0.602095 29.4177C0.622641 29.4147 0.681773 29.307 0.692297 29.2929L1.57678 28.0702C1.80028 27.7635 2.22123 27.3656 2.02128 26.9537C1.85841 26.6179 1.56726 26.3117 1.34927 26.0106C1.10773 25.6773 0.875709 25.3335 0.623142 25.0083C0.615124 24.9978 0.563508 25.0394 0.600591 25.0349C0.642641 25.0321 0.684825 25.0321 0.726875 25.0349H4.12901C4.16032 25.0314 4.19192 25.0314 4.22322 25.0349C4.2137 25.0324 4.19115 24.9953 4.22974 25.0544L4.54645 25.545C4.79701 25.9319 5.03555 26.3283 5.29814 26.7076C5.57676 27.1115 6.10996 27.0058 6.54093 27.0058C6.74639 27.0058 6.95436 27.0153 7.15982 27.0058C7.52313 26.9893 7.70855 26.7051 7.6434 26.3568C7.59329 26.0922 7.49657 25.8307 7.42241 25.5726L6.9744 24.0116L6.59555 22.6941C6.5669 22.612 6.54281 22.5283 6.52339 22.4435C6.48681 22.2205 6.71331 22.0026 6.82907 21.8272C7.0185 21.541 6.97089 21.2108 6.97089 20.881V19.2734C6.97089 18.9171 6.94734 18.5518 6.97089 18.196C6.98542 17.969 7.12123 17.8588 7.28911 17.7305C7.48605 17.5801 7.69001 17.4323 7.88094 17.2724C7.94365 17.2234 7.99537 17.1618 8.03276 17.0915C8.07015 17.0212 8.09237 16.9439 8.09799 16.8645C8.10361 16.7851 8.09251 16.7054 8.06539 16.6306C8.03827 16.5557 7.99575 16.4874 7.94057 16.43C7.8183 16.2942 7.67497 16.1725 7.54368 16.0457C7.40386 15.9099 7.23699 15.7801 7.11371 15.6287C6.99044 15.4774 7.05859 15.3511 7.10269 15.1933L7.51311 13.7335C7.52564 13.6879 7.57425 13.5902 7.56673 13.5411C7.56673 13.535 7.57675 13.522 7.57375 13.5165C7.60181 13.5721 7.52363 13.5426 7.51712 13.5471C7.45949 13.5852 7.49657 13.4824 7.50158 13.5315C7.5066 13.5807 7.5988 13.6729 7.62486 13.7109L7.85738 14.0487C8.20065 14.5498 8.57549 15.0249 8.64665 15.6523C8.68073 15.953 8.58051 16.3338 8.80601 16.5754C8.90624 16.6831 9.04204 16.7422 9.17033 16.8114L10.5484 17.5536C10.8301 17.7039 11.0957 17.8998 11.4274 17.8698C11.9175 17.8252 12.4066 17.765 12.8957 17.7124C13.3171 17.6673 13.7556 17.6678 13.8884 17.1702C14.0097 16.7192 14.1054 16.2567 14.2142 15.8006C14.2618 15.6002 14.3214 15.3962 14.2106 15.1993C14.0348 14.8891 13.5953 14.8059 13.3282 15.0489C13.2761 15.0985 13.2306 15.1546 13.1929 15.2158C13.1789 15.2418 13.1621 15.2662 13.1427 15.2885C13.1427 15.2885 13.1828 15.2624 13.1728 15.2614C13.0991 15.2461 13.0272 15.2231 12.9583 15.1928L12.2272 14.9567C12.1939 14.94 12.1582 14.9285 12.1215 14.9227C12.0358 14.9312 12.1641 14.9151 12.129 14.9648C12.1468 14.9277 12.1602 14.8887 12.1691 14.8485L12.3906 14.203L12.6562 13.4303C12.7023 13.2955 12.7679 13.1547 12.7834 13.0119C12.813 12.7373 12.6236 12.5493 12.4687 12.3494C12.3279 12.167 12.1651 11.9896 12.0403 11.7951C12.0042 11.7395 12.0563 11.8593 12.0583 11.8237C12.0583 11.7776 12.0583 11.7305 12.0583 11.6839C12.0583 11.5596 12.0723 11.4218 12.0403 11.3C11.9611 10.9958 11.6845 10.8826 11.3993 10.8776C11.1458 10.8736 10.8922 10.8776 10.6391 10.8776C10.562 10.8776 10.4492 10.8986 10.375 10.8776C10.3279 10.8646 10.3886 10.8906 10.352 10.8681C10.2518 10.8069 10.1636 10.6676 10.0849 10.5854L9.59929 10.0728L8.49231 8.90315L8.12849 8.51879C8.11947 8.50927 8.07537 8.44813 8.06134 8.44763C8.0894 8.44763 8.06134 8.53783 8.0443 8.5223C8.05032 8.52831 8.07938 8.51879 8.0869 8.5223C8.14804 8.54886 8.28033 8.5223 8.34798 8.5223H8.76943C9.00346 8.5223 9.23798 8.5258 9.47101 8.5223C10.1395 8.51177 10.7103 7.95653 10.8586 7.3196C11.0511 6.49825 10.5765 5.73153 9.96612 5.21788C9.79908 5.07623 9.63003 4.93508 9.45898 4.79443C9.45898 4.79443 9.41388 4.76236 9.41338 4.75634C9.41939 4.81247 9.44244 4.75233 9.47702 4.7353C9.67747 4.63507 9.86539 4.45016 10.0628 4.3344C10.7704 3.91145 11.5346 3.69897 12.3455 3.58271L11.9646 3.29256V6.72977C11.9646 6.88863 11.9546 7.05099 11.9646 7.20985C11.9972 7.71448 12.6291 7.77211 12.806 7.32411C13.0756 6.63807 13.0756 5.92497 13.0756 5.20485V3.29406L12.6246 3.55364C13.5426 3.96206 14.3745 4.45867 15.0651 5.20134C15.8193 6.01266 16.2913 6.98785 16.5559 8.05775L16.8456 7.6769H15.0966C14.6411 7.6769 14.2021 7.76109 13.7967 7.97757C13.4114 8.18304 12.9989 8.4787 12.9238 8.93623C12.8326 9.49398 13.1984 9.91242 13.694 10.0998C13.9861 10.2106 14.2788 10.2351 14.5875 10.2502C14.8109 10.2547 15.0237 10.3464 15.1803 10.5057C15.5411 10.862 15.8819 11.2414 16.2327 11.6082L17.6439 13.0895C17.694 13.1432 17.7441 13.1998 17.7982 13.2514C17.8523 13.303 17.8162 13.2569 17.8177 13.2639C17.8358 13.3707 17.8177 13.4965 17.8177 13.6042V19.537C17.8177 19.6753 17.8127 19.8141 17.8177 19.952C17.8258 20.1735 17.934 20.3488 18.0332 20.5413C18.1325 20.7337 18.3028 20.9527 18.3264 21.1647C18.3345 21.3149 18.3345 21.4655 18.3264 21.6157V25.751C18.3264 26.1739 18.2091 26.8479 18.7548 26.9862C18.9959 27.0479 19.2916 27.0038 19.5356 27.0038H20.5779C20.9317 27.0038 21.3261 26.894 21.3366 26.4576C21.3417 26.2336 21.1778 25.9665 21.0916 25.766L20.6406 24.7177C20.5984 24.6021 20.5497 24.489 20.4948 24.3789C20.4902 24.3709 20.4687 24.2992 20.4597 24.2977C20.4 24.2892 20.4096 24.3744 20.4226 24.4039C20.4552 24.4751 20.7057 24.5708 20.7734 24.6099L21.5206 25.0509L25.0089 27.1085C25.0578 27.1461 25.1112 27.1776 25.1677 27.2022C25.1829 27.2081 25.1969 27.2164 25.2093 27.2268C25.2018 27.2213 25.269 27.1301 25.1617 27.2153C24.8611 27.4563 25.2875 27.8793 25.5872 27.6402C25.929 27.3681 25.8242 26.9081 25.487 26.6936C25.3562 26.6094 25.2179 26.5347 25.0861 26.4556L23.3562 25.4353L21.4755 24.3263L20.8891 23.98C20.7263 23.8838 20.5779 23.7871 20.375 23.8076C20.2458 23.8205 20.1254 23.8785 20.0348 23.9714C19.9443 24.0644 19.8894 24.1863 19.8799 24.3158C19.8719 24.4496 19.926 24.5638 19.9766 24.6821C20.1066 24.9851 20.2367 25.2881 20.367 25.5911C20.4867 25.8692 20.5945 26.1559 20.7268 26.428C20.7879 26.5538 20.7433 26.3979 20.7503 26.4024C20.6977 26.3669 20.4998 26.4024 20.4356 26.4024H19.3056C19.2099 26.4024 19.044 26.3719 18.9548 26.4024C18.9351 26.4062 18.9149 26.4062 18.8952 26.4024C18.9132 26.4064 18.9307 26.4671 18.9262 26.427C18.8786 26.0005 18.9262 25.542 18.9262 25.1135V21.2489C18.9269 21.0628 18.8826 20.8794 18.7969 20.7142C18.7243 20.5683 18.6466 20.4245 18.5734 20.2802L18.4552 20.0512C18.4401 20.0216 18.4051 19.9134 18.4176 19.9895C18.373 19.6964 18.4176 19.3606 18.4176 19.0655V14.7262C18.4176 14.2667 18.4256 13.8062 18.4176 13.3466C18.4106 12.9563 18.1445 12.7453 17.8934 12.4832L16.3935 10.9092C16.0733 10.5729 15.7581 10.1494 15.3708 9.88536C15.1287 9.72844 14.8459 9.64618 14.5574 9.64883C14.2693 9.64331 13.9115 9.60723 13.6729 9.42582C13.6019 9.37134 13.5506 9.29523 13.5266 9.20899C13.5027 9.12275 13.5074 9.03106 13.5401 8.94775C13.6008 8.80192 13.7636 8.71172 13.8909 8.62703C14.5664 8.17101 15.3943 8.27624 16.1675 8.27624H16.8471C16.8929 8.2752 16.9378 8.26382 16.9786 8.24296C17.0194 8.2221 17.055 8.1923 17.0826 8.15578C17.1103 8.11925 17.1293 8.07696 17.1383 8.03204C17.1474 7.98713 17.1461 7.94076 17.1347 7.89639C16.8511 6.75182 16.3329 5.70648 15.5386 4.83001C14.806 4.0257 13.9105 3.47296 12.9253 3.03448C12.7248 2.94478 12.4742 3.04701 12.4742 3.29406V4.73129C12.4742 5.26549 12.5183 5.82975 12.4412 6.36044C12.4184 6.51722 12.3849 6.67226 12.3409 6.82449C12.3204 6.89615 12.2548 7.01141 12.2543 7.09159L12.2402 7.13268C12.1844 7.25996 12.294 7.28786 12.569 7.21637C12.569 7.21637 12.569 7.21135 12.569 7.20985C12.5745 7.19331 12.5665 7.16926 12.569 7.15222C12.596 6.97232 12.569 6.76686 12.569 6.58545V3.29406C12.569 3.07908 12.378 2.97685 12.1886 3.00441C11.3422 3.12568 10.5394 3.36021 9.79774 3.79519C9.60692 3.90739 9.42285 4.03071 9.2465 4.16451C9.10919 4.26775 8.94583 4.37048 8.86815 4.52933C8.70629 4.85406 8.89471 5.10462 9.13124 5.30507C9.61884 5.71249 10.2633 6.17152 10.3029 6.86458C10.3143 7.04161 10.2804 7.21864 10.2044 7.37893C10.1284 7.53922 10.0127 7.67747 9.8684 7.78063C9.66795 7.91994 9.50759 7.92195 9.27958 7.92195H8.47778C8.30338 7.92195 8.11496 7.9014 7.94257 7.93348C7.84947 7.95 7.76207 7.98985 7.68854 8.04929C7.615 8.10874 7.55772 8.18584 7.52204 8.27341C7.48636 8.36098 7.47345 8.45616 7.48451 8.55007C7.49556 8.64398 7.53023 8.73356 7.58527 8.81044C7.64676 8.89003 7.71374 8.96522 7.78572 9.03545L9.79022 11.1537C9.8714 11.2394 9.95158 11.3406 10.0548 11.4013C10.2422 11.512 10.4928 11.4799 10.7018 11.4799H11.0841C11.1803 11.4799 11.3292 11.508 11.4214 11.4799C11.4418 11.4767 11.4626 11.4767 11.483 11.4799C11.4189 11.4624 11.4745 11.4113 11.4535 11.502C11.4324 11.5927 11.4479 11.7335 11.4535 11.8327C11.4785 12.2903 11.9972 12.61 12.2051 12.9853C12.2362 13.0419 12.1901 12.9442 12.1811 12.9568C12.1721 12.9693 12.1756 12.9878 12.1666 12.9988C12.1245 13.049 12.1074 13.1707 12.0859 13.2339L11.8243 13.9956C11.701 14.3549 11.3542 14.9618 11.6509 15.3085C11.8012 15.4844 12.0488 15.5305 12.2598 15.5987C12.4903 15.6728 12.7198 15.7545 12.9523 15.8217C13.2345 15.9034 13.5622 15.8327 13.696 15.538C13.7351 15.4514 13.7105 15.507 13.7105 15.5065C13.7055 15.4955 13.6915 15.4343 13.6759 15.4493C13.6474 15.4769 13.6409 15.5997 13.6318 15.6363L13.4565 16.3744C13.4114 16.5628 13.2976 16.8204 13.3061 17.0154C13.3061 17.0625 13.2866 17.0825 13.3227 17.061C13.2816 17.0855 13.1813 17.076 13.1342 17.081L12.4081 17.1587L11.6183 17.2434C11.5366 17.2519 11.3868 17.2935 11.3177 17.2795C11.1939 17.2569 11.036 17.1291 10.9268 17.069L10.1991 16.6806L9.51761 16.3133C9.45347 16.2787 9.38932 16.2361 9.32167 16.2081C9.29762 16.198 9.23498 16.1424 9.26003 16.1915C9.22245 16.1173 9.26003 15.9475 9.26003 15.8608C9.25533 15.6085 9.21759 15.358 9.14778 15.1156C9.05054 14.8005 8.9037 14.503 8.7128 14.2341C8.47327 13.8833 8.25227 13.509 7.98567 13.1818C7.74012 12.8811 7.25002 12.8741 7.04556 13.2319C6.9744 13.3577 6.94533 13.521 6.90925 13.6583L6.50034 15.1141C6.43469 15.3486 6.40763 15.5806 6.51838 15.8107C6.6186 16.0111 6.80402 16.1614 6.96237 16.3153C7.13075 16.4787 7.34423 16.6365 7.48655 16.8229C7.52915 16.8791 7.51562 16.8054 7.47352 16.834C7.38382 16.8946 7.30013 16.9678 7.21444 17.0344C6.7965 17.3576 6.38107 17.6232 6.37054 18.2151C6.36353 18.5994 6.37054 18.9843 6.37054 19.3676V20.9918C6.37054 21.1211 6.39811 21.2854 6.37054 21.4122C6.34449 21.529 6.20618 21.6743 6.13 21.7856C5.95662 22.0386 5.87042 22.2952 5.94559 22.6049C5.96814 22.6971 5.9957 22.7878 6.02427 22.879L6.42166 24.2631L6.86165 25.8061L7.00647 26.3107C7.0133 26.3502 7.02439 26.3889 7.03955 26.426C7.04356 26.433 7.03955 26.4455 7.04706 26.4515C7.05458 26.4576 6.99695 26.4285 7.05157 26.4741C7.08114 26.4987 7.24 26.4786 7.17485 26.4029C7.16032 26.3864 7.019 26.4029 6.99745 26.4029H6.61108C6.37355 26.4029 6.11247 26.3724 5.87694 26.4029C5.83384 26.409 5.7732 26.3844 5.82682 26.4235C5.79074 26.3974 5.76168 26.3233 5.73762 26.2852L5.34073 25.6703C5.12375 25.3345 4.92931 24.9492 4.66973 24.643C4.42568 24.3563 3.97767 24.432 3.63991 24.432H0.726875C0.573029 24.432 0.4262 24.432 0.287889 24.5152C0.000243352 24.6856 -0.0598917 25.0494 0.113498 25.3235C0.347022 25.6928 0.631661 26.0391 0.888237 26.3934L1.32873 27.0038C1.35779 27.0434 1.47054 27.1646 1.46804 27.2042C1.46303 27.2924 1.27009 27.4778 1.21998 27.5475L0.747922 28.199C0.527928 28.5032 0.276864 28.8003 0.0809245 29.121C0.0344626 29.197 0.00711072 29.2832 0.00121062 29.372C-0.00468948 29.4609 0.0110379 29.5499 0.0470464 29.6314C0.0830548 29.7129 0.138272 29.7844 0.207969 29.8399C0.277667 29.8953 0.359769 29.9331 0.447247 29.9499C0.549064 29.9633 0.651904 29.9671 0.754437 29.9614H3.72611C4.08241 29.9614 4.4778 30.0276 4.71583 29.6953C4.95386 29.3631 5.16985 28.9938 5.39536 28.643L5.7702 28.0627C5.78623 28.0381 5.80778 27.983 5.83334 27.9654C5.78623 27.998 5.80478 27.991 5.83334 27.9895C6.09443 27.9785 6.35802 27.9895 6.6186 27.9895H11.8554C11.9556 27.9895 12.0834 28.0105 12.1826 27.9895C12.2029 27.9867 12.2234 27.9867 12.2437 27.9895C12.1841 27.982 12.2412 27.9223 12.2177 27.9985C12.1971 28.0642 12.2177 28.1709 12.2177 28.2381V29.3826C12.2214 29.4094 12.2214 29.4365 12.2177 29.4633C12.1906 29.5174 12.2362 29.4393 12.2092 29.4633C12.1355 29.5335 11.9691 29.568 11.8774 29.6136C11.1979 29.9519 10.6943 30.5442 10.5244 31.2919C10.3309 32.1438 10.5474 33.1185 11.0941 33.803C11.2733 34.0209 11.4853 34.2096 11.7226 34.3623C11.7862 34.4044 11.923 34.455 11.9686 34.5156C11.9646 34.5101 11.9506 34.4731 11.9636 34.5091C11.9689 34.5477 11.9689 34.5868 11.9636 34.6254V35.3896C11.9636 35.5655 11.936 35.773 11.9816 35.9464C12.132 36.5227 12.9528 36.3683 13.3938 36.3683C13.5792 36.3683 13.7947 36.3949 13.9736 36.3312C14.2623 36.2275 14.3454 35.9609 14.3454 35.6843V34.5953C14.3412 34.5649 14.3412 34.534 14.3454 34.5036C14.359 34.4705 14.3289 34.5352 14.376 34.4936C14.6 34.2967 14.8696 34.1709 15.0776 33.9474C15.3748 33.6252 15.5926 33.2381 15.7135 32.8168C15.9821 31.9008 15.7817 30.8309 15.1302 30.1208C14.895 29.8757 14.6121 29.6814 14.2988 29.55C14.2603 29.533 14.0849 29.4673 14.0929 29.4803C14.0703 29.4438 14.0929 29.317 14.0929 29.2749V28.4781C14.0929 28.3278 14.0478 28.0962 14.0929 27.9529C14.0733 28.0146 14.0738 27.99 14.1676 27.99H20.366C20.4794 27.9975 20.5933 27.9975 20.7067 27.99C20.7314 27.9887 20.7562 27.9887 20.7809 27.99C20.8155 27.99 20.7689 27.9344 20.7553 27.9654C20.5774 28.3714 20.4617 28.8174 20.3174 29.2363C20.1805 29.6337 19.8578 30.2235 20.3489 30.5157C20.6852 30.7161 20.9768 30.4896 21.2535 30.3192L23.8182 28.7382L25.522 27.6858C25.8543 27.4854 25.5501 26.9647 25.2194 27.1687Z" fill="#817653"/>
<path d="M30.492 27.189C31.5739 27.189 32.1778 27.7638 32.1778 28.6923V29.6595C32.1778 30.5881 31.5739 31.1629 30.492 31.1629C29.4101 31.1629 28.8007 30.5881 28.8007 29.6595V28.6928C28.8007 27.7638 29.4046 27.189 30.492 27.189ZM30.492 28.1286C30.1077 28.1286 29.8907 28.306 29.8907 28.6442V29.7096C29.8907 30.0479 30.1102 30.2253 30.492 30.2253C30.8739 30.2253 31.0904 30.0459 31.0904 29.7096V28.6442C31.0904 28.3065 30.8709 28.1286 30.492 28.1286Z" fill="#1B1B1B"/>
<path d="M35.9265 27.4953V27.9784C35.9265 28.1503 35.8664 28.2094 35.6905 28.2094H34.8796V30.8568C34.8796 31.0237 34.819 31.0823 34.6436 31.0823H34.0222C33.8468 31.0823 33.7917 31.0237 33.7917 30.8568V28.2094H32.9739C32.7985 28.2094 32.7433 28.1503 32.7433 27.9784V27.4953C32.7433 27.3289 32.7985 27.2698 32.9739 27.2698H35.692C35.8679 27.2698 35.9265 27.3289 35.9265 27.4953Z" fill="#1B1B1B"/>
<path d="M39.6846 28.2846C39.6846 28.6444 39.5694 28.8859 39.2892 29.0738V29.0954C39.64 29.2457 39.844 29.5519 39.844 30.0195C39.844 30.712 39.2672 31.0823 38.4909 31.0823H36.8613C36.6854 31.0823 36.6252 31.0237 36.6252 30.8568V27.4953C36.6252 27.3234 36.6854 27.2643 36.8613 27.2643H38.4699C39.2281 27.2643 39.6846 27.6296 39.6846 28.2846ZM38.2459 28.1287H37.7122V28.7195H38.2449C38.4649 28.7195 38.5801 28.6394 38.5801 28.4299C38.5801 28.2204 38.4649 28.1287 38.2449 28.1287H38.2459ZM38.3501 29.5845H37.7122V30.2109H38.3491C38.5856 30.2109 38.6999 30.1197 38.6999 29.8942C38.7009 29.6807 38.5856 29.5845 38.3491 29.5845H38.3501Z" fill="#1B1B1B"/>
<path d="M43.3735 27.4953V27.9784C43.3735 28.1503 43.3134 28.2094 43.1375 28.2094H41.6893V28.6875H42.8479C43.0238 28.6875 43.0839 28.7466 43.0839 28.913V29.396C43.0839 29.5679 43.0238 29.6271 42.8479 29.6271H41.6893V30.1427H43.1881C43.3585 30.1427 43.4191 30.1963 43.4191 30.3682V30.8568C43.4191 31.0237 43.3585 31.0823 43.1881 31.0823H40.8373C40.6615 31.0823 40.6013 31.0237 40.6013 30.8568V27.4953C40.6013 27.3289 40.6615 27.2698 40.8373 27.2698H43.1375C43.3134 27.2698 43.3735 27.3289 43.3735 27.4953Z" fill="#1B1B1B"/>
<path d="M47.1677 27.4953V27.9784C47.1677 28.1503 47.1075 28.2094 46.9316 28.2094H46.1188V30.8568C46.1188 31.0237 46.0587 31.0823 45.8828 31.0823H45.2624C45.0865 31.0823 45.0319 31.0237 45.0319 30.8568V28.2094H44.2135C44.0377 28.2094 43.983 28.1503 43.983 27.9784V27.4953C43.983 27.3289 44.0377 27.2698 44.2135 27.2698H46.9316C47.1075 27.2698 47.1677 27.3289 47.1677 27.4953Z" fill="#1B1B1B"/>
<path d="M49.4137 27.189C50.2591 27.189 50.7862 27.5272 51.0173 28.1286C51.0724 28.2844 51.0338 28.3651 50.8669 28.4187L50.2796 28.6227C50.1092 28.6728 50.0436 28.6442 49.9829 28.4779C49.8827 28.2363 49.7193 28.1271 49.4121 28.1271C48.9782 28.1271 48.8078 28.31 48.8078 28.6858V29.663C48.8078 30.0389 48.9782 30.2218 49.4121 30.2218C49.7193 30.2218 49.8952 30.1035 49.9829 29.871C50.0491 29.7046 50.1147 29.667 50.2796 29.7262L50.8669 29.9301C51.0318 29.9837 51.0704 30.0644 51.0173 30.2203C50.7867 30.8216 50.2596 31.1599 49.4137 31.1599C48.3317 31.1599 47.7224 30.5851 47.7224 29.6565V28.6928C47.7224 27.7638 48.3317 27.189 49.4137 27.189Z" fill="#1B1B1B"/>
<path d="M54.7284 27.4953V27.9784C54.7284 28.1503 54.6678 28.2094 54.4924 28.2094H53.6796V30.8568C53.6796 31.0237 53.6194 31.0823 53.4435 31.0823H52.8231C52.6472 31.0823 52.5921 31.0237 52.5921 30.8568V28.2094H51.7743C51.5984 28.2094 51.5438 28.1503 51.5438 27.9784V27.4953C51.5438 27.3289 51.5984 27.2698 51.7743 27.2698H54.4924C54.6683 27.2698 54.7284 27.3289 54.7284 27.4953Z" fill="#1B1B1B"/>
<path d="M58.4841 28.2846C58.4841 28.6444 58.3688 28.8859 58.0892 29.0738V29.0954C58.44 29.2457 58.6434 29.5519 58.6434 30.0195C58.6434 30.712 58.0671 31.0823 57.2904 31.0823H55.6592C55.4839 31.0823 55.4232 31.0237 55.4232 30.8568V27.4953C55.4232 27.3234 55.4839 27.2643 55.6592 27.2643H57.2684C58.0286 27.2643 58.4841 27.6296 58.4841 28.2846ZM57.0459 28.1287H56.5132V28.7195H57.0459C57.2653 28.7195 57.3806 28.6394 57.3806 28.4299C57.3806 28.2204 57.2653 28.1287 57.0459 28.1287ZM57.1501 29.5845H56.5132V30.2109H57.1501C57.3861 30.2109 57.5009 30.1197 57.5009 29.8942C57.5014 29.6807 57.3861 29.5845 57.1501 29.5845Z" fill="#1B1B1B"/>
<path d="M62.1736 27.4953V27.9784C62.1736 28.1503 62.1135 28.2094 61.9376 28.2094H60.4879V28.6875H61.6465C61.8223 28.6875 61.883 28.7466 61.883 28.913V29.396C61.883 29.5679 61.8223 29.6271 61.6465 29.6271H60.4879V30.1427H61.9872C62.1576 30.1427 62.2177 30.1963 62.2177 30.3682V30.8568C62.2177 31.0237 62.1576 31.0823 61.9872 31.0823H59.6369C59.461 31.0823 59.4009 31.0237 59.4009 30.8568V27.4953C59.4009 27.3289 59.461 27.2698 59.6369 27.2698H61.9376C62.1135 27.2698 62.1736 27.3289 62.1736 27.4953Z" fill="#1B1B1B"/>
<path d="M66.2318 27.4953V30.8568C66.2318 31.0237 66.1712 31.0823 66.0008 31.0823H65.3749C65.205 31.0823 65.1444 31.0237 65.1444 30.8568V29.6221H64.079V30.8568C64.079 31.0237 64.0244 31.0823 63.8485 31.0823H63.2281C63.0522 31.0823 62.9921 31.0237 62.9921 30.8568V27.4953C62.9921 27.3234 63.0522 27.2643 63.2281 27.2643H63.8485C64.0244 27.2643 64.079 27.3234 64.079 27.4953V28.682H65.1444V27.4953C65.1444 27.3234 65.205 27.2643 65.3749 27.2643H66.0008C66.1712 27.2643 66.2318 27.3234 66.2318 27.4953Z" fill="#1B1B1B"/>
<path d="M70.3828 27.4953V30.8568C70.3828 31.0237 70.3221 31.0823 70.1523 31.0823H69.5264C69.356 31.0823 69.2953 31.0237 69.2953 30.8568V29.6221H68.2304V30.8568C68.2304 31.0237 68.1753 31.0823 67.9994 31.0823H67.379C67.2036 31.0823 67.143 31.0237 67.143 30.8568V27.4953C67.143 27.3234 67.2036 27.2643 67.379 27.2643H67.9984C68.1743 27.2643 68.2294 27.3234 68.2294 27.4953V28.682H69.2943V27.4953C69.2943 27.3234 69.355 27.2643 69.5253 27.2643H70.1533C70.3221 27.2643 70.3828 27.3234 70.3828 27.4953Z" fill="#1B1B1B"/>
<path d="M72.8918 27.189C73.9738 27.189 74.5776 27.7638 74.5776 28.6923V29.6595C74.5776 30.5881 73.9763 31.1629 72.8918 31.1629C71.8074 31.1629 71.2005 30.5881 71.2005 29.6595V28.6928C71.2005 27.7638 71.8069 27.189 72.8918 27.189ZM72.8918 28.1286C72.5075 28.1286 72.288 28.306 72.288 28.6442V29.7096C72.288 30.0479 72.5075 30.2253 72.8918 30.2253C73.2762 30.2253 73.4902 30.0479 73.4902 29.7096V28.6442C73.4902 28.3065 73.2707 28.1286 72.8918 28.1286Z" fill="#1B1B1B"/>
<path d="M78.1743 27.4953V27.9784C78.1743 28.1503 78.1137 28.2094 77.9378 28.2094H76.4885V28.6875H77.6471C77.8225 28.6875 77.8832 28.7466 77.8832 28.913V29.396C77.8832 29.5679 77.8225 29.6271 77.6471 29.6271H76.4885V30.1427H77.9874C78.1578 30.1427 78.2179 30.1963 78.2179 30.3682V30.8568C78.2179 31.0237 78.1578 31.0823 77.9874 31.0823H75.6371C75.4617 31.0823 75.4011 31.0237 75.4011 30.8568V27.4953C75.4011 27.3289 75.4617 27.2698 75.6371 27.2698H77.9378C78.1137 27.2698 78.1743 27.3289 78.1743 27.4953Z" fill="#1B1B1B"/>
<path d="M81.9408 27.189C82.7862 27.189 83.3134 27.5272 83.5444 28.1286C83.5996 28.2844 83.561 28.3651 83.3941 28.4187L82.8063 28.6227C82.6359 28.6728 82.5702 28.6442 82.5096 28.4779C82.4094 28.2363 82.2465 28.1271 81.9388 28.1271C81.5048 28.1271 81.3375 28.31 81.3375 28.6858V29.663C81.3375 30.0389 81.5074 30.2218 81.9388 30.2218C82.2465 30.2218 82.4219 30.1035 82.5096 29.871C82.5758 29.7046 82.6414 29.667 82.8063 29.7262L83.3941 29.9301C83.5585 29.9837 83.5946 30.0644 83.5444 30.2203C83.3139 30.8216 82.7867 31.1599 81.9408 31.1599C80.8589 31.1599 80.2495 30.5851 80.2495 29.6565V28.6928C80.2495 27.7638 80.8589 27.189 81.9408 27.189Z" fill="#1B1B1B"/>
<path d="M87.2556 27.4953V27.9784C87.2556 28.1503 87.1955 28.2094 87.0196 28.2094H86.2068V30.8568C86.2068 31.0237 86.1466 31.0823 85.9707 31.0823H85.3504C85.1745 31.0823 85.1198 31.0237 85.1198 30.8568V28.2094H84.3015C84.1256 28.2094 84.071 28.1503 84.071 27.9784V27.4953C84.071 27.3289 84.1256 27.2698 84.3015 27.2698H87.0196C87.1955 27.2698 87.2556 27.3289 87.2556 27.4953Z" fill="#1B1B1B"/>
<path d="M91.1211 28.6123C91.1211 29.4607 90.5664 29.9388 89.7155 29.9388H89.04V30.8568C89.04 31.0237 88.9849 31.0823 88.8095 31.0823H88.1891C88.0132 31.0823 87.9525 31.0237 87.9525 30.8568V27.4953C87.9525 27.3289 88.0132 27.2698 88.1891 27.2698H89.7045C90.5609 27.2698 91.1211 27.7584 91.1211 28.6123ZM89.9976 28.6073C89.9976 28.3712 89.8438 28.2099 89.5857 28.2099H89.042V28.9992H89.5857C89.8418 28.9987 89.9976 28.8433 89.9976 28.6073Z" fill="#1B1B1B"/>
<path d="M93.4656 27.189C94.5474 27.189 95.1513 27.7638 95.1513 28.6923V29.6595C95.1513 30.5881 94.5499 31.1629 93.4656 31.1629C92.3812 31.1629 91.7743 30.5881 91.7743 29.6595V28.6928C91.7743 27.7638 92.3787 27.189 93.4656 27.189ZM93.4656 28.1286C93.0812 28.1286 92.8642 28.306 92.8642 28.6442V29.7096C92.8642 30.0479 93.0837 30.2253 93.4656 30.2253C93.8474 30.2253 94.0669 30.0479 94.0669 29.7096V28.6442C94.0644 28.3065 93.8444 28.1286 93.4656 28.1286Z" fill="#1B1B1B"/>
<path d="M99.297 27.4954V30.8569C99.297 31.0238 99.2363 31.0824 99.0604 31.0824H98.4455C98.2702 31.0824 98.2095 31.0238 98.2095 30.8519V29.9388C98.2095 29.3375 98.2702 29.1922 98.418 28.6069H98.3744C98.1709 29.1581 98.0943 29.321 97.8582 29.7133L97.1005 30.9752C97.0564 31.0559 96.9963 31.0824 96.875 31.0824H96.2115C96.0356 31.0824 95.975 31.0238 95.975 30.8569V27.4954C95.975 27.329 96.0356 27.2698 96.2115 27.2698H96.8319C97.0073 27.2698 97.0624 27.329 97.0624 27.4954V28.4134C97.0624 28.9987 97.0349 29.1706 96.862 29.7399H96.9001C97.1201 29.1977 97.1912 29.0153 97.4273 28.6229L98.1739 27.3701C98.2241 27.2944 98.2787 27.2623 98.405 27.2623H99.0634C99.2363 27.2643 99.297 27.3235 99.297 27.4954Z" fill="#1B1B1B"/>
<path d="M103.184 27.4953V27.9784C103.184 28.1503 103.124 28.2094 102.948 28.2094H102.135V30.8568C102.135 31.0237 102.075 31.0823 101.899 31.0823H101.279C101.103 31.0823 101.048 31.0237 101.048 30.8568V28.2094H100.23C100.054 28.2094 99.9996 28.1503 99.9996 27.9784V27.4953C99.9996 27.3289 100.054 27.2698 100.23 27.2698H102.948C103.124 27.2698 103.184 27.3289 103.184 27.4953Z" fill="#1B1B1B"/>
<path d="M106.655 27.4953V27.9784C106.655 28.1503 106.594 28.2094 106.419 28.2094H104.969V28.6875H106.127C106.303 28.6875 106.363 28.7466 106.363 28.913V29.396C106.363 29.5679 106.303 29.6271 106.127 29.6271H104.969V30.1427H106.468C106.638 30.1427 106.698 30.1963 106.698 30.3682V30.8568C106.698 31.0237 106.638 31.0823 106.468 31.0823H104.117C103.942 31.0823 103.881 31.0237 103.881 30.8568V27.4953C103.881 27.3289 103.942 27.2698 104.117 27.2698H106.419C106.594 27.2698 106.655 27.3289 106.655 27.4953Z" fill="#1B1B1B"/>
<path d="M110.756 27.4953V30.8568C110.756 31.0237 110.696 31.0823 110.52 31.0823H109.899C109.724 31.0823 109.669 31.0237 109.669 30.8568V28.2094H109.01V28.7145C109.01 30.277 108.516 30.8032 107.862 31.1199C107.708 31.2006 107.632 31.163 107.549 31.0127L107.236 30.4649C107.154 30.3146 107.192 30.2394 107.346 30.1532C107.676 29.9653 107.939 29.7293 107.939 28.7195V27.4953C107.939 27.3289 108 27.2698 108.176 27.2698H110.52C110.694 27.2698 110.756 27.3289 110.756 27.4953Z" fill="#1B1B1B"/>
<path d="M111.667 30.8568V27.4953C111.667 27.3289 111.728 27.2698 111.903 27.2698H112.524C112.7 27.2698 112.755 27.3289 112.755 27.4953V28.4133H113.43C114.282 28.4133 114.836 28.8914 114.836 29.7398C114.836 30.5882 114.276 31.0823 113.419 31.0823H111.903C111.728 31.0823 111.667 31.0237 111.667 30.8568ZM112.755 30.1427H113.3C113.558 30.1427 113.712 29.9819 113.712 29.7453C113.712 29.5088 113.558 29.3535 113.3 29.3535H112.757L112.755 30.1427Z" fill="#1B1B1B"/>
<path d="M117.18 27.189C118.026 27.189 118.553 27.5272 118.784 28.1286C118.839 28.2844 118.8 28.3651 118.634 28.4187L118.046 28.6227C117.876 28.6728 117.81 28.6442 117.749 28.4779C117.649 28.2363 117.486 28.1271 117.178 28.1271C116.744 28.1271 116.577 28.31 116.577 28.6858V29.663C116.577 30.0389 116.747 30.2218 117.178 30.2218C117.486 30.2218 117.661 30.1035 117.749 29.871C117.815 29.7046 117.881 29.667 118.046 29.7262L118.634 29.9301C118.798 29.9837 118.837 30.0644 118.784 30.2203C118.553 30.8216 118.026 31.1599 117.18 31.1599C116.098 31.1599 115.489 30.5851 115.489 29.6565V28.6928C115.489 27.7638 116.098 27.189 117.18 27.189Z" fill="#1B1B1B"/>
<path d="M122.495 27.4953V27.9784C122.495 28.1503 122.435 28.2094 122.259 28.2094H121.446V30.8568C121.446 31.0237 121.386 31.0823 121.21 31.0823H120.59C120.414 31.0823 120.359 31.0237 120.359 30.8568V28.2094H119.541C119.365 28.2094 119.31 28.1503 119.31 27.9784V27.4953C119.31 27.3289 119.365 27.2698 119.541 27.2698H122.259C122.435 27.2698 122.495 27.3289 122.495 27.4953Z" fill="#1B1B1B"/>
<path d="M126.251 28.2846C126.251 28.6444 126.136 28.8859 125.856 29.0738V29.0954C126.206 29.2457 126.41 29.5519 126.41 30.0195C126.41 30.712 125.834 31.0823 125.057 31.0823H123.426C123.25 31.0823 123.19 31.0237 123.19 30.8568V27.4953C123.19 27.3234 123.25 27.2643 123.426 27.2643H125.035C125.795 27.2643 126.251 27.6296 126.251 28.2846ZM124.812 28.1287H124.28V28.7195H124.812C125.032 28.7195 125.147 28.6394 125.147 28.4299C125.147 28.2204 125.032 28.1287 124.812 28.1287ZM124.917 29.5845H124.28V30.2109H124.917C125.153 30.2109 125.267 30.1197 125.267 29.8942C125.268 29.6807 125.153 29.5845 124.917 29.5845Z" fill="#1B1B1B"/>
<path d="M128.766 27.189C129.847 27.189 130.451 27.7638 130.451 28.6923V29.6595C130.451 30.5881 129.847 31.1629 128.766 31.1629C127.684 31.1629 127.074 30.5881 127.074 29.6595V28.6928C127.074 27.7638 127.678 27.189 128.766 27.189ZM128.766 28.1286C128.381 28.1286 128.164 28.306 128.164 28.6442V29.7096C128.164 30.0479 128.384 30.2253 128.766 30.2253C129.148 30.2253 129.364 30.0479 129.364 29.7096V28.6442C129.364 28.3065 129.145 28.1286 128.766 28.1286Z" fill="#1B1B1B"/>
<path d="M50.2348 9.98484V11.0608C50.2348 11.6406 50.0343 11.84 49.451 11.84H43.8204V14.0089H48.4849C49.0682 14.0089 49.2686 14.2093 49.2686 14.7701V16.2163C49.2686 16.7961 49.0682 16.9956 48.4849 16.9956H43.8204V19.2005H49.6149C50.1802 19.2005 50.3806 19.3819 50.3806 19.9617V21.3333C50.3806 21.8956 50.1802 22.095 49.6149 22.095H41.8134C41.2301 22.095 41.0297 21.8946 41.0297 21.3333V9.98484C41.0297 9.42308 41.2301 9.22363 41.8134 9.22363H49.451C50.0343 9.22363 50.2348 9.42308 50.2348 9.98484Z" fill="#1B1B1B"/>
<path d="M75.045 9.98484V11.0608C75.045 11.6406 74.8406 11.84 74.2467 11.84H68.5139V14.0089H73.263C73.8569 14.0089 74.0613 14.2093 74.0613 14.7701V16.2163C74.0613 16.7961 73.8569 16.9956 73.263 16.9956H68.5139V19.2005H74.4126C74.9879 19.2005 75.1919 19.3819 75.1919 19.9617V21.3333C75.1919 21.8956 74.9879 22.095 74.4126 22.095H66.4703C65.8764 22.095 65.6725 21.8946 65.6725 21.3333V9.98484C65.6725 9.42308 65.8764 9.22363 66.4703 9.22363H74.2467C74.8406 9.22363 75.045 9.42308 75.045 9.98484Z" fill="#1B1B1B"/>
<path d="M61.6731 15.4443V15.3721C62.6102 14.7437 62.9956 13.9344 62.9956 12.7307C62.9956 10.5383 61.4717 9.31604 58.9365 9.31604H53.5594C52.9721 9.31604 52.7701 9.51649 52.7701 10.0893V21.341C52.7701 21.8973 52.9706 22.0957 53.5594 22.0957H59.0117C61.6 22.0957 63.5278 20.8559 63.5278 18.5377C63.5278 16.9712 62.8483 15.9474 61.6731 15.4443ZM58.6744 19.4904H55.4727V11.8557H58.3041C59.3013 11.8557 59.8245 12.2707 59.8245 13.2223C59.8245 14.1739 59.3013 14.5398 58.3041 14.5398C58.2484 14.5398 58.1933 14.5507 58.1418 14.572C58.0904 14.5933 58.0437 14.6246 58.0043 14.6639C57.9649 14.7033 57.9337 14.75 57.9124 14.8015C57.8911 14.8529 57.8801 14.908 57.8801 14.9637V16.3463C57.8801 16.4588 57.9248 16.5666 58.0043 16.6461C58.0838 16.7256 58.1916 16.7703 58.3041 16.7703H58.6744C59.6957 16.7703 60.1948 17.1887 60.1948 18.1193C60.1948 19.095 59.6957 19.4904 58.6744 19.4904Z" fill="#1B1B1B"/>
<path d="M87.5998 13.7568C87.5998 16.6217 85.8889 18.2354 83.2641 18.2354H80.5324V21.3358C80.5324 21.8981 80.3631 22.0975 79.8213 22.0975H78.5555C78.0138 22.0975 77.8274 21.8971 77.8274 21.3358V9.98484C77.8274 9.42308 78.0138 9.22363 78.5555 9.22363H83.2325C85.8724 9.22363 87.5998 10.8733 87.5998 13.7568ZM84.7298 13.7423C84.7298 12.6183 84.0619 11.852 82.9408 11.852H80.579V15.6065H82.9408C84.0619 15.6065 84.7298 14.8658 84.7298 13.7423Z" fill="#1B1B1B"/>
<path d="M99.8144 10.035V21.3349C99.8144 21.8942 99.62 22.0931 99.0722 22.0931H97.8916C97.3439 22.0931 97.1494 21.8927 97.1494 21.3349V16.9546H92.704V21.3349C92.704 21.8942 92.5271 22.0931 91.9618 22.0931H90.7997C90.2345 22.0931 90.0405 21.8927 90.0405 21.3349V10.035C90.0405 9.45723 90.2345 9.25879 90.7997 9.25879H91.9628C92.5281 9.25879 92.705 9.45924 92.705 10.035V14.0245H97.1504V10.0355C97.1504 9.45774 97.3449 9.25929 97.8926 9.25929H99.0732C99.6195 9.25879 99.8144 9.45723 99.8144 10.035Z" fill="#1B1B1B"/>
<path d="M102.826 21.3358V9.98484C102.826 9.42308 103.021 9.22363 103.586 9.22363H104.841C105.407 9.22363 105.584 9.42408 105.584 9.98484L105.676 13.4561H108.589C111.328 13.4561 113.112 15.0698 113.112 17.9347C113.112 20.8182 111.217 22.0975 108.462 22.0975H103.586C103.02 22.0975 102.826 21.8981 102.826 21.3358ZM105.66 19.5002H108.165C109.355 19.5002 110.063 18.7215 110.063 17.5789C110.063 16.4363 109.355 15.6831 108.165 15.6831H105.66V19.5002Z" fill="#1B1B1B"/>
<path d="M115.238 9.22363H116.862C117.274 9.22363 117.413 9.40354 117.413 9.94375V21.2852C117.413 21.8249 117.275 22.0048 116.862 22.0048H115.238C114.825 22.0048 114.687 21.8249 114.687 21.2852V9.94375C114.687 9.40354 114.825 9.22363 115.238 9.22363Z" fill="#1B1B1B"/>
<path d="M130.374 9.94375V21.2847C130.374 21.8254 130.236 22.0048 129.823 22.0048H128.199C127.787 22.0048 127.648 21.8254 127.648 21.2847V14.948L123.126 21.5483C122.947 21.8084 122.796 21.9492 122.634 21.9808C122.563 21.9981 122.49 22.0062 122.417 22.0048H120.793C120.38 22.0048 120.242 21.8254 120.242 21.2847V9.94375C120.242 9.40304 120.379 9.22363 120.793 9.22363H122.417C122.83 9.22363 122.969 9.40304 122.969 9.94375V16.3997L127.5 9.7894C127.558 9.7025 127.622 9.62038 127.693 9.54385C127.761 9.30983 127.915 9.22363 128.201 9.22363H129.825C130.238 9.22363 130.374 9.40304 130.374 9.94375Z" fill="#1B1B1B"/>
<path d="M147.427 9.90934V19.1671H148.209C148.73 19.1671 148.893 19.34 148.893 19.8752V23.0894C148.893 23.6251 148.73 23.8151 148.209 23.8151H146.88C146.359 23.8151 146.178 23.6251 146.178 23.0894V22.0466H139.383V23.0894C139.383 23.6251 139.204 23.8151 138.699 23.8151H137.261C136.757 23.8151 136.577 23.6251 136.577 23.0894V19.8752C136.577 19.34 136.757 19.1671 137.261 19.1671H137.62C138.451 18.424 138.923 16.5949 138.923 13.8482V9.90934C138.923 9.37364 139.101 9.18372 139.624 9.18372H146.725C147.246 9.18372 147.427 9.37364 147.427 9.90934ZM141.733 13.5235C141.733 15.7384 141.319 18.0236 140.651 19.131H144.725V11.8161H141.733V13.5235Z" fill="#1B1B1B"/>
<path d="M155.565 9.20215C158.769 9.20215 160.557 11.0508 160.557 14.0395V17.149C160.557 20.1382 158.769 21.9863 155.565 21.9863C152.346 21.9863 150.558 20.1382 150.558 17.149V14.0395C150.558 11.0508 152.346 9.20215 155.565 9.20215ZM155.565 11.6712C154.24 11.6712 153.483 12.3352 153.483 13.6025V17.586C153.483 18.8533 154.24 19.5173 155.565 19.5173C156.872 19.5173 157.629 18.8533 157.629 17.586V13.6025C157.631 12.3352 156.873 11.6692 155.567 11.6692L155.565 11.6712Z" fill="#1B1B1B"/>
<path d="M128.584 5.47376C128.656 5.47334 128.728 5.48981 128.792 5.52184C128.857 5.55387 128.913 5.60058 128.956 5.65822C128.999 5.71586 129.028 5.78282 129.041 5.85374C129.054 5.92466 129.049 5.99756 129.029 6.06659C128.614 7.39056 127.48 8.17132 125.751 8.17132C124.012 8.17132 122.876 7.39207 122.461 6.06659C122.441 5.99756 122.436 5.92466 122.449 5.85374C122.462 5.78282 122.491 5.71586 122.534 5.65822C122.577 5.60058 122.633 5.55387 122.698 5.52184C122.762 5.48981 122.834 5.47334 122.906 5.47376H123.673C123.778 5.47472 123.88 5.51105 123.962 5.57688C124.044 5.64271 124.101 5.7342 124.124 5.83658C124.295 6.54216 124.866 6.90898 125.751 6.90898C126.622 6.90898 127.192 6.54216 127.362 5.83658C127.385 5.7342 127.442 5.64271 127.524 5.57688C127.606 5.51105 127.708 5.47472 127.813 5.47376H128.584Z" fill="#1B1B1B"/>
<path d="M36.3773 17.7413C36.2697 17.7403 36.1651 17.7773 36.0819 17.8457C35.9988 17.9142 35.9425 18.0097 35.9228 18.1156C35.7579 19.0983 35.0078 19.6095 33.8181 19.6095C32.4435 19.6095 31.6582 18.946 31.6582 17.6781V13.6952C31.6582 12.4278 32.4435 11.7638 33.8181 11.7638C34.8905 11.7638 35.6061 12.1798 35.8577 12.9826C35.8878 13.0748 35.9465 13.1549 36.0252 13.2115C36.104 13.2681 36.1987 13.2981 36.2956 13.2973H38.3868C38.4573 13.2973 38.5267 13.2812 38.5901 13.2504C38.6534 13.2196 38.7088 13.1748 38.7523 13.1194C38.7957 13.0639 38.826 12.9994 38.8408 12.9305C38.8557 12.8617 38.8546 12.7904 38.8378 12.722C38.3272 10.5722 36.5803 9.2948 33.8181 9.2948C30.4791 9.2948 28.6249 11.1429 28.6249 14.1322V17.2391C28.6249 20.2288 30.4791 22.077 33.8181 22.077C36.7341 22.077 38.5196 20.6523 38.9125 18.2805C38.9237 18.214 38.9203 18.1459 38.9026 18.0809C38.8848 18.016 38.8531 17.9556 38.8096 17.9041C38.7662 17.8526 38.7121 17.8112 38.651 17.7827C38.5899 17.7542 38.5234 17.7394 38.456 17.7393L36.3773 17.7413Z" fill="#1B1B1B"/>
<path d="M175 9.98455V20.8339C175 21.3701 174.822 21.542 174.303 21.542H172.997C172.479 21.542 172.317 21.3701 172.317 20.8339V18.3639C172.317 18.2636 172.317 18.1634 172.317 18.0582V14.0772C172.095 14.7648 171.605 16.0632 171.304 16.6881L170.396 18.6395C170.217 18.9858 170.055 19.1406 169.617 19.1406H168.531C168.093 19.1406 167.93 19.0193 167.753 18.6395L166.796 16.6881C166.525 16.1664 166.152 15.0554 165.929 14.3188V17.8472C165.925 18.0231 165.922 18.198 165.922 18.3804V20.8359C165.922 21.3721 165.745 21.544 165.225 21.544H163.941C163.422 21.544 163.244 21.3721 163.244 20.8359V9.98455C163.244 9.70442 163.29 9.52101 163.403 9.40876C163.516 9.29651 163.687 9.25842 163.941 9.25842H165.466C166.033 9.25842 166.195 9.36216 166.422 9.79363L169.099 15.3912L171.775 9.81116C172.001 9.34462 172.148 9.25993 172.683 9.25993H174.305C174.559 9.25993 174.733 9.30152 174.843 9.41026C174.953 9.51901 175 9.70442 175 9.98455Z" fill="#1B1B1B"/>
<path d="M175 9.40857V9.98436C175 9.70423 174.954 9.52082 174.841 9.40857H175Z" fill="#FFFF00"/>
<path d="M163.242 9.40857H163.401C163.288 9.52082 163.242 9.70423 163.242 9.98436V9.40857Z" fill="white"/>
<path d="M165.927 17.8472V18.8524H165.918V18.3804C165.918 18.199 165.923 18.0231 165.927 17.8472Z" fill="#FFFF00"/>
<path d="M172.315 18.0582V16.387C172.296 17.0194 172.31 17.5546 172.315 18.0582ZM165.927 17.8472C165.932 17.5466 165.936 17.2424 165.927 16.9056V17.8472Z" fill="white"/>
</svg>
