<svg width="171" height="38" viewBox="0 0 171 38" fill="none" xmlns="http://www.w3.org/2000/svg">
<g clip-path="url(#clip0)">
<path fill-rule="evenodd" clip-rule="evenodd" d="M15.9368 30.6831L0.000854492 32.6751V34.4803L15.9368 33.3598V30.6831ZM15.9368 34.9783L0.000854492 35.8498V37.655H15.9368C15.9368 37.5928 15.9368 34.9783 15.9368 34.9783ZM15.9368 0.554199L0.000854492 10.4519V12.2571L15.9368 3.16869V0.554199ZM15.9368 4.84943V7.46392L0.000854492 15.4319V13.6266L15.9368 4.84943ZM15.9368 9.14466V11.7592L0.000854492 18.6066V16.8014L15.9368 9.14466ZM15.9368 13.5021L0.000854492 19.9761V21.7814L15.9368 16.1166V13.5021ZM15.9368 17.7974L0.000854492 23.1509V24.9561L15.9368 20.4119V17.7974ZM15.9368 22.0926V24.7071L0.000854492 28.1308V26.3256L15.9368 22.0926ZM15.9368 26.3878V29.0023L0.000854492 31.2433V29.4381L15.9368 26.3878Z" fill="#152C4E"/>
<path fill-rule="evenodd" clip-rule="evenodd" d="M15.9368 30.6831L24.3405 32.6751V34.4803L15.9368 33.3598V30.6831ZM15.9368 34.9783L24.3405 35.7875V37.5928H15.9368V34.9783ZM15.9368 0.554199L24.3405 10.4519V12.2571L15.9368 3.16869V0.554199ZM15.9368 4.84943V7.46392L24.3405 15.4319V13.6266L15.9368 4.84943ZM15.9368 9.14466V11.7591L24.3405 18.6066V16.8014L15.9368 9.14466ZM15.9368 13.5021L24.3405 20.0384V21.8436L15.9368 16.1166V13.5021ZM15.9368 17.7974L24.3405 23.1508V24.9561L15.9368 20.4119V17.7974ZM15.9368 22.0926V24.7071L24.3405 28.1308V26.3256L15.9368 22.0926ZM15.9368 26.3878V29.0023L24.3405 31.3056V29.5003L15.9368 26.3878Z" fill="#7ABFC8"/>
<path fill-rule="evenodd" clip-rule="evenodd" d="M76.443 24.9561H82.2323V26.201H76.443V24.9561ZM76.443 30.683H82.2323V31.928H76.443V30.683ZM82.3568 37.5927H76.3185V36.3478H82.3568V37.5927Z" fill="#7ABFC8"/>
<path fill-rule="evenodd" clip-rule="evenodd" d="M171 37.5928H169.631V27.0104H166.332C165.958 29.9984 165.647 32.1149 165.398 33.3598C165.274 34.2936 165.025 35.2273 164.713 36.0988C164.527 36.5968 164.215 37.0948 163.78 37.4061C163.344 37.7173 162.908 37.8418 162.41 37.8418C162.037 37.8418 161.663 37.7796 161.29 37.6551V36.3478C161.601 36.5346 161.912 36.5968 162.223 36.5968C162.597 36.5346 162.97 36.3478 163.157 35.9743C163.468 35.5386 163.78 34.4803 164.091 32.7996C164.402 31.1189 164.776 28.7534 165.149 25.7654H171V37.5928Z" fill="#152C4E"/>
<path fill-rule="evenodd" clip-rule="evenodd" d="M160.729 37.7172H159.173L157.928 34.418H152.886L151.703 37.7172H150.147L154.691 25.8275H156.123L160.729 37.7172ZM157.492 33.1107L155.625 28.0685C155.563 27.8195 155.5 27.5705 155.438 27.2593H155.376C155.314 27.5083 155.251 27.8195 155.189 28.0685L153.322 33.1107H157.492Z" fill="#152C4E"/>
<path fill-rule="evenodd" clip-rule="evenodd" d="M149.026 27.0725H145.603V37.7172H144.171V27.0725H140.747V25.8275H149.026V27.0725Z" fill="#152C4E"/>
<path fill-rule="evenodd" clip-rule="evenodd" d="M133.465 33.2353V37.7173H132.095V25.8276H135.332C136.39 25.7654 137.449 26.0766 138.32 26.7614C139.067 27.4461 139.44 28.3798 139.378 29.3758C139.44 30.4341 139.005 31.4301 138.196 32.1148C137.324 32.8618 136.204 33.2353 135.083 33.1731H133.465V33.2353ZM133.465 27.0726V31.9281H134.896C135.706 31.9903 136.453 31.7413 137.075 31.2433C137.573 30.7453 137.884 30.0606 137.822 29.3758C137.822 27.8196 136.888 27.0104 135.021 27.0104L133.465 27.0726Z" fill="#152C4E"/>
<path fill-rule="evenodd" clip-rule="evenodd" d="M130.103 37.7172H128.546L127.301 34.418H122.259L121.076 37.7172H119.52L124.064 25.8275H125.496L130.103 37.7172ZM126.866 33.1107L124.998 28.0685C124.936 27.8195 124.874 27.5705 124.811 27.2593H124.749C124.687 27.5083 124.625 27.8195 124.562 28.0685L122.695 33.1107H126.866Z" fill="#152C4E"/>
<path fill-rule="evenodd" clip-rule="evenodd" d="M110.494 37.7173V25.8276H113.855C114.727 25.7653 115.598 26.0766 116.283 26.5746C116.905 27.0726 117.217 27.8196 117.217 28.5666C117.217 29.1891 117.03 29.8116 116.656 30.3096C116.283 30.8076 115.723 31.1811 115.162 31.3678C115.909 31.4301 116.594 31.7413 117.092 32.2393C117.59 32.7996 117.839 33.4843 117.839 34.2313C117.901 35.1651 117.466 36.0988 116.719 36.7213C115.972 37.3438 114.976 37.7173 113.98 37.655L110.494 37.7173ZM111.925 32.1771V36.4723H113.793C114.478 36.5345 115.162 36.2856 115.723 35.9121C116.158 35.5386 116.407 34.9161 116.407 34.2936C116.407 32.8618 115.474 32.1771 113.544 32.1771H111.925ZM111.925 27.0726V30.9321H113.295C113.917 30.9943 114.602 30.7453 115.1 30.3718C115.536 29.9983 115.785 29.3758 115.723 28.8156C115.723 27.6328 114.976 27.0726 113.419 27.0726H111.925Z" fill="#152C4E"/>
<path fill-rule="evenodd" clip-rule="evenodd" d="M108.814 37.7172H106.884L102.278 32.3015C102.153 32.177 102.029 32.0525 101.966 31.8657H101.904V37.7172H100.535V25.8275H101.904V31.43H101.966C102.029 31.3055 102.153 31.181 102.278 30.9942L106.697 25.8275H108.44L103.336 31.4922L108.814 37.7172Z" fill="#152C4E"/>
<path fill-rule="evenodd" clip-rule="evenodd" d="M92.8768 37.2193C91.8808 37.7173 90.7603 37.9663 89.6398 37.904C88.1458 37.9663 86.6518 37.4061 85.5936 36.2856C84.5353 35.1028 83.9751 33.5466 84.0373 31.9903C83.9751 30.3096 84.5976 28.6288 85.7803 27.3838C86.9008 26.2011 88.5193 25.5786 90.1378 25.6409C91.0716 25.6409 92.0676 25.7654 92.9391 26.1389V27.6328C92.0676 27.1348 91.1338 26.8858 90.1378 26.8858C88.8928 26.8236 87.6478 27.3216 86.8386 28.2553C85.9671 29.2513 85.5313 30.5586 85.5936 31.9281C85.5313 33.1731 85.9671 34.4181 86.7763 35.4141C87.5856 36.2856 88.7061 36.7213 89.8888 36.7213C91.0093 36.7213 92.0675 36.4723 93.0013 35.9121L92.8768 37.2193Z" fill="#152C4E"/>
<path fill-rule="evenodd" clip-rule="evenodd" d="M72.3972 37.7172H71.0277V32.3015H64.865V37.7172H63.4332V25.8275H64.865V31.0565H71.0277V25.8275H72.3972V37.7172Z" fill="#152C4E"/>
<path fill-rule="evenodd" clip-rule="evenodd" d="M53.3487 37.2194V35.7254C54.2824 36.4101 55.3407 36.7836 56.5234 36.7214C57.2704 36.7836 57.9552 36.5346 58.5777 36.0989C59.0757 35.6631 59.3869 35.0406 59.3247 34.4181C59.3247 32.9241 58.2664 32.1149 56.2122 32.1149H54.9672V30.9944H56.0877C56.8347 31.0566 57.5817 30.8699 58.1419 30.4341C58.6399 30.0606 58.8889 29.4381 58.8889 28.8156C58.8889 28.2554 58.7022 27.7574 58.2664 27.3839C57.8307 27.0104 57.2082 26.8237 56.6479 26.8237C55.5897 26.8237 54.5937 27.1349 53.7222 27.7574V26.3257C54.6559 25.8277 55.7142 25.5787 56.7102 25.5787C57.6439 25.5164 58.6399 25.8277 59.3869 26.3879C60.0094 26.8859 60.3829 27.6951 60.3207 28.5044C60.4452 29.9361 59.4492 31.1811 58.0797 31.4301V31.4924C58.8267 31.5546 59.5114 31.8659 60.0094 32.4261C60.5074 32.9241 60.7564 33.6711 60.7564 34.3559C60.8187 35.3519 60.3829 36.3479 59.5737 36.9704C58.6399 37.6551 57.5194 37.9663 56.3989 37.9041C55.4029 37.9663 54.2824 37.7174 53.3487 37.2194Z" fill="#152C4E"/>
<path fill-rule="evenodd" clip-rule="evenodd" d="M50.6719 37.7172H49.3024V29.1268C49.3024 28.5665 49.3024 28.0063 49.3646 27.5083H49.3024C49.1779 27.7573 49.0534 28.0063 48.9289 28.2553L42.8284 37.7172H41.0854V25.8275H42.4549V34.169C42.4549 34.7292 42.4549 35.3517 42.3927 35.912H42.4549C42.5794 35.663 42.7662 35.414 42.9529 35.165L48.9289 25.8275H50.7341L50.6719 37.7172Z" fill="#152C4E"/>
<path fill-rule="evenodd" clip-rule="evenodd" d="M31.0636 37.7172V25.8275H37.4131V27.0725H32.4331V30.8697H34.6741C35.6701 30.8075 36.6661 31.1187 37.4131 31.7412C38.0978 32.3637 38.4713 33.2975 38.4091 34.2312C38.4713 35.2272 38.0978 36.161 37.3509 36.8457C36.5416 37.5305 35.5456 37.8417 34.5496 37.7795L31.0636 37.7172ZM32.4331 32.1147V36.4722H34.3629C35.0476 36.5345 35.7324 36.2855 36.2926 35.912C36.7284 35.4762 36.9774 34.916 36.9774 34.2935C36.9774 32.8617 36.1059 32.177 34.4251 32.177L32.4331 32.1147Z" fill="#152C4E"/>
<path d="M36.0431 12.4439H32.9306V18.4199H32.1213V11.7592H36.7901V18.4821H35.9808V12.4439H36.0431Z" fill="#686869"/>
<path d="M38.4073 13.6267H38.9053L39.0298 14.1869H39.0921C39.2166 13.9379 39.4033 13.8134 39.6523 13.6889C39.9013 13.5644 40.1503 13.5022 40.4616 13.5022C41.0841 13.5022 41.5821 13.6889 41.8933 14.0624C42.2046 14.4359 42.3913 15.0584 42.3913 15.9299C42.3913 16.3034 42.3291 16.6769 42.2046 16.9882C42.0801 17.2994 41.9556 17.6107 41.7688 17.7974C41.5821 18.0464 41.3331 18.1709 41.0841 18.2954C40.8351 18.4199 40.5238 18.4822 40.1503 18.4822C39.9013 18.4822 39.7146 18.4822 39.5901 18.4199C39.4656 18.4199 39.2788 18.3577 39.1543 18.2954V20.2874H38.4073V13.6267ZM40.3371 14.1869C40.0258 14.1869 39.7768 14.2492 39.5901 14.4359C39.4033 14.6227 39.2788 14.8717 39.2166 15.1829V17.5484C39.3411 17.6107 39.4656 17.7352 39.5901 17.7352C39.7146 17.7974 39.9013 17.7974 40.1503 17.7974C40.5861 17.7974 40.9596 17.6107 41.2086 17.2994C41.4576 16.9882 41.5821 16.4902 41.5821 15.8677C41.5821 15.6187 41.5821 15.3697 41.5198 15.1829C41.4576 14.9962 41.3953 14.8094 41.3331 14.6227C41.2086 14.4982 41.0841 14.3737 40.9596 14.2492C40.7728 14.2492 40.5861 14.1869 40.3371 14.1869Z" fill="#686869"/>
<path d="M43.3266 16.0544C43.3266 15.2452 43.5134 14.6227 43.8869 14.187C44.2604 13.7512 44.7584 13.5645 45.4431 13.5645C45.8166 13.5645 46.1279 13.6267 46.3769 13.7512C46.6259 13.8757 46.8749 14.0625 47.0616 14.2492C47.2484 14.4982 47.3729 14.7472 47.4351 15.0584C47.4974 15.3697 47.5596 15.6809 47.5596 16.1167C47.5596 16.9259 47.3729 17.5484 46.9994 17.9842C46.6259 18.4199 46.1279 18.6067 45.4431 18.6067C45.0696 18.6067 44.7584 18.5444 44.5094 18.4199C44.2604 18.2954 44.0114 18.1087 43.8246 17.9219C43.6379 17.6729 43.5134 17.4239 43.4511 17.1127C43.3889 16.8014 43.3266 16.4279 43.3266 16.0544ZM44.1359 16.0544C44.1359 16.3034 44.1359 16.5524 44.1981 16.7392C44.2604 16.9882 44.3226 17.1749 44.4471 17.2994C44.5716 17.4862 44.6961 17.6107 44.8206 17.6729C45.0074 17.7974 45.1941 17.7974 45.4431 17.7974C46.3146 17.7974 46.7504 17.1749 46.7504 15.9299C46.7504 15.6809 46.7504 15.4319 46.6881 15.2452C46.6259 14.9962 46.5636 14.8094 46.4391 14.6849C46.3146 14.4982 46.1901 14.3737 46.0656 14.3115C45.9411 14.2492 45.6921 14.187 45.4431 14.187C44.5716 14.187 44.1359 14.8094 44.1359 16.0544Z" fill="#686869"/>
<path d="M52.9117 19.6648H52.4137L52.2892 18.4198H48.6787L48.5542 19.6648H48.0562V17.7973H48.5542C48.6164 17.7351 48.6787 17.6106 48.7409 17.4238C48.8032 17.2371 48.9277 16.9881 48.9899 16.6768C49.0522 16.3656 49.1144 15.9298 49.1767 15.4318C49.2389 14.9338 49.3012 14.3736 49.3012 13.6888H52.2269V17.7973H52.9117V19.6648ZM51.4177 17.7973V14.3736H49.9859C49.9859 14.6226 49.9237 14.9338 49.9237 15.2451C49.8614 15.5563 49.8614 15.8676 49.7992 16.1788C49.7369 16.4901 49.6747 16.8013 49.6124 17.0503C49.5502 17.3616 49.4257 17.5483 49.3012 17.7973H51.4177Z" fill="#686869"/>
<path d="M53.7829 14.0002C54.0319 13.8757 54.2809 13.7512 54.6544 13.689C54.9657 13.6267 55.3392 13.5645 55.6504 13.5645C55.9617 13.5645 56.2729 13.6267 56.4597 13.689C56.6464 13.7512 56.8332 13.8757 56.8954 14.0625C57.0199 14.187 57.0822 14.3737 57.0822 14.5604C57.1444 14.7472 57.1444 14.9339 57.1444 15.0584C57.1444 15.4319 57.1444 15.8054 57.1444 16.1789C57.1444 16.5524 57.1444 16.8637 57.1444 17.2372C57.1444 17.4862 57.1444 17.6729 57.1444 17.9219C57.1444 18.1087 57.2067 18.3577 57.2689 18.4822H56.6464L56.4597 17.7974H56.3974C56.3352 17.8597 56.2729 17.9842 56.2107 18.0464C56.1484 18.1087 56.0239 18.2332 55.8994 18.2954C55.7749 18.3577 55.6504 18.4199 55.4637 18.4822C55.2769 18.5444 55.1524 18.5444 54.9034 18.5444C54.7167 18.5444 54.5299 18.4822 54.3432 18.4199C54.1564 18.3577 54.0319 18.2954 53.9074 18.1709C53.7829 18.0464 53.6584 17.9219 53.5962 17.7352C53.5339 17.5484 53.4717 17.3617 53.4717 17.1749C53.4717 16.8637 53.5339 16.6769 53.6584 16.4902C53.7829 16.3034 53.9074 16.1789 54.1564 16.0544C54.3432 15.9299 54.5922 15.8677 54.9034 15.8054C55.2147 15.7432 55.5259 15.7432 55.8372 15.7432C55.8994 15.7432 56.0239 15.7432 56.0862 15.7432C56.1484 15.7432 56.2729 15.7432 56.3352 15.7432C56.3352 15.5564 56.3352 15.3697 56.3352 15.2452C56.3352 14.8717 56.2729 14.6227 56.1484 14.4982C56.0862 14.3114 55.7749 14.2492 55.4014 14.2492C55.2769 14.2492 55.1524 14.2492 55.0279 14.2492C54.9034 14.2492 54.7789 14.3115 54.6544 14.3115C54.5299 14.3115 54.4054 14.3737 54.2809 14.4359C54.1564 14.4982 54.0319 14.4982 53.9697 14.5604L53.7829 14.0002ZM55.1524 17.8597C55.3392 17.8597 55.4637 17.8597 55.6504 17.7974C55.7749 17.7352 55.8994 17.6729 56.0239 17.6107C56.1484 17.5484 56.2107 17.4862 56.2729 17.3617C56.3352 17.2994 56.3974 17.1749 56.3974 17.1127V16.3034C56.3352 16.3034 56.2107 16.3034 56.1484 16.3034C56.0862 16.3034 55.9617 16.3034 55.8994 16.3034C55.7127 16.3034 55.5259 16.3034 55.3392 16.3657C55.1524 16.3657 54.9657 16.4279 54.8412 16.4902C54.7167 16.5524 54.5922 16.6147 54.4677 16.7392C54.4054 16.8637 54.3432 16.9882 54.3432 17.1127C54.3432 17.3617 54.4054 17.5484 54.5922 17.6729C54.6544 17.7974 54.9034 17.8597 55.1524 17.8597Z" fill="#686869"/>
<path d="M60.1951 16.3033L58.7634 18.4198H57.8919L59.3859 16.2411L59.6971 15.9298L59.1992 15.5563L57.9542 13.6266H58.7634L60.0706 15.6808H60.5686V13.6266H61.3156V15.8053L61.7514 15.6808L63.0586 13.6266H63.8679L62.5606 15.5563L62.1871 15.8676L62.6851 16.2411L64.1169 18.4198H63.1831L61.7514 16.2411H61.2534V18.4198H60.5064V16.1788L60.1951 16.3033Z" fill="#686869"/>
<path d="M64.8632 14.0002C65.1122 13.8757 65.3612 13.7512 65.7347 13.689C66.0459 13.6267 66.4194 13.5645 66.7307 13.5645C67.0419 13.5645 67.3532 13.6267 67.5399 13.689C67.7267 13.7512 67.9134 13.8757 67.9757 14.0625C68.1002 14.187 68.1624 14.3737 68.1624 14.5604C68.1624 14.7472 68.2247 14.9339 68.2247 15.0584C68.2247 15.4319 68.2247 15.8054 68.2247 16.1789C68.2247 16.5524 68.2247 16.8637 68.2247 17.2372C68.2247 17.4862 68.2247 17.6729 68.2247 17.9219C68.2247 18.1087 68.2869 18.3577 68.3492 18.4822H67.7889L67.6022 17.7974H67.5399C67.4777 17.8597 67.4154 17.9842 67.3532 18.0464C67.2909 18.1087 67.1664 18.2332 67.0419 18.2954C66.9174 18.3577 66.7929 18.4199 66.6062 18.4822C66.4194 18.5444 66.2949 18.5444 66.0459 18.5444C65.8592 18.5444 65.6724 18.4822 65.4857 18.4199C65.2989 18.3577 65.1744 18.2954 65.0499 18.1709C64.9254 18.0464 64.8009 17.9219 64.7387 17.7352C64.6764 17.5484 64.6142 17.3617 64.6142 17.1749C64.6142 16.8637 64.6764 16.6769 64.8009 16.4902C64.9254 16.3034 65.0499 16.1789 65.2989 16.0544C65.4857 15.9299 65.7347 15.8677 66.0459 15.8054C66.3572 15.7432 66.6684 15.7432 66.9797 15.7432C67.0419 15.7432 67.1664 15.7432 67.2287 15.7432C67.2909 15.7432 67.4154 15.7432 67.4777 15.7432C67.4777 15.5564 67.4777 15.3697 67.4777 15.2452C67.4777 14.8717 67.4154 14.6227 67.2909 14.4982C67.1664 14.3737 66.9174 14.3115 66.5439 14.3115C66.4194 14.3115 66.2949 14.3115 66.1704 14.3115C66.0459 14.3115 65.9214 14.3737 65.7969 14.3737C65.6724 14.3737 65.5479 14.4359 65.4234 14.4982C65.2989 14.5604 65.1744 14.5604 65.1122 14.6227L64.8632 14.0002ZM66.2327 17.8597C66.4194 17.8597 66.5439 17.8597 66.7307 17.7974C66.9174 17.7352 66.9797 17.6729 67.1042 17.6107C67.2287 17.5484 67.2909 17.4862 67.3532 17.3617C67.4154 17.2994 67.4777 17.1749 67.4777 17.1127V16.3034C67.4154 16.3034 67.2909 16.3034 67.2287 16.3034C67.1664 16.3034 67.0419 16.3034 66.9797 16.3034C66.7929 16.3034 66.6062 16.3034 66.4194 16.3657C66.2327 16.3657 66.0459 16.4279 65.9214 16.4902C65.7969 16.5524 65.6724 16.6147 65.5479 16.7392C65.4857 16.8637 65.4234 16.9882 65.4234 17.1127C65.4234 17.3617 65.4857 17.5484 65.6724 17.6729C65.7347 17.7974 65.9837 17.8597 66.2327 17.8597Z" fill="#686869"/>
<path d="M75.0108 14.3113H72.9565V18.4198H72.2095V13.6266H75.0108V14.3113Z" fill="#686869"/>
<path d="M75.1358 16.0544C75.1358 15.2452 75.3226 14.6227 75.6961 14.187C76.0696 13.7512 76.5676 13.5645 77.2523 13.5645C77.6258 13.5645 77.9371 13.6267 78.1861 13.7512C78.4351 13.8757 78.6841 14.0625 78.8708 14.2492C79.0576 14.4982 79.1821 14.7472 79.2443 15.0584C79.3066 15.3697 79.3688 15.6809 79.3688 16.1167C79.3688 16.9259 79.1821 17.5484 78.8086 17.9842C78.4351 18.4199 77.9371 18.6067 77.2523 18.6067C76.8788 18.6067 76.5676 18.5444 76.3186 18.4199C76.0696 18.2954 75.8206 18.1087 75.6338 17.9219C75.4471 17.6729 75.3226 17.4239 75.2603 17.1127C75.1981 16.8014 75.1358 16.4279 75.1358 16.0544ZM75.9451 16.0544C75.9451 16.3034 75.9451 16.5524 76.0073 16.7392C76.0696 16.9882 76.1318 17.1749 76.2563 17.2994C76.3808 17.4862 76.5053 17.6107 76.6298 17.6729C76.8166 17.7974 77.0033 17.7974 77.2523 17.7974C78.1238 17.7974 78.5596 17.1749 78.5596 15.9299C78.5596 15.6809 78.5596 15.4319 78.4973 15.2452C78.4351 14.9962 78.3728 14.8094 78.2483 14.6849C78.1238 14.4982 77.9993 14.3737 77.8748 14.3115C77.7503 14.2492 77.5013 14.187 77.2523 14.187C76.3808 14.187 75.9451 14.8094 75.9451 16.0544Z" fill="#686869"/>
<path d="M83.2899 14.3113H81.7959V18.4198H81.049V14.3113H79.555V13.6266H83.3522V14.3113H83.2899Z" fill="#686869"/>
<path d="M83.9762 16.0544C83.9762 15.2452 84.163 14.6227 84.5365 14.187C84.91 13.7512 85.408 13.5645 86.0927 13.5645C86.4662 13.5645 86.7775 13.6267 87.0265 13.7512C87.2755 13.8757 87.5245 14.0625 87.7112 14.2492C87.898 14.4982 88.0225 14.7472 88.0847 15.0584C88.147 15.3697 88.2092 15.6809 88.2092 16.1167C88.2092 16.9259 88.0225 17.5484 87.649 17.9842C87.2755 18.4199 86.7775 18.6067 86.0927 18.6067C85.7192 18.6067 85.408 18.5444 85.159 18.4199C84.91 18.2954 84.661 18.1087 84.4742 17.9219C84.2875 17.6729 84.163 17.4239 84.1007 17.1127C84.0385 16.8014 83.9762 16.4279 83.9762 16.0544ZM84.7855 16.0544C84.7855 16.3034 84.7855 16.5524 84.8477 16.7392C84.91 16.9882 84.9722 17.1749 85.0967 17.2994C85.2212 17.4862 85.3457 17.6107 85.4702 17.6729C85.657 17.7974 85.8437 17.7974 86.0927 17.7974C86.9642 17.7974 87.4 17.1749 87.4 15.9299C87.4 15.6809 87.4 15.4319 87.3377 15.2452C87.2755 14.9962 87.2132 14.8094 87.0887 14.6849C86.9642 14.4982 86.8397 14.3737 86.7152 14.3115C86.5285 14.187 86.3417 14.187 86.0927 14.187C85.2212 14.187 84.7855 14.8094 84.7855 16.0544Z" fill="#686869"/>
<path d="M89.3918 13.6888C89.6408 13.6888 89.8275 13.6888 90.0765 13.6266C90.3255 13.6266 90.6367 13.6266 91.0102 13.6266C91.6327 13.6266 92.0685 13.7511 92.3797 13.9378C92.691 14.1246 92.8155 14.4358 92.8155 14.8093C92.8155 15.0583 92.7532 15.2451 92.6287 15.4941C92.5042 15.6808 92.2552 15.8676 92.0062 15.9921V16.0543C92.3797 16.1166 92.6287 16.2411 92.8155 16.4278C93.0022 16.6146 93.0645 16.8636 93.0645 17.1748C93.0645 17.6728 92.8777 18.0463 92.5042 18.2331C92.1307 18.4821 91.6327 18.5443 90.8857 18.5443C90.6367 18.5443 90.3877 18.5443 90.1387 18.5443C89.8898 18.5443 89.703 18.4821 89.454 18.4821V13.6888H89.3918ZM91.0725 15.6808C91.197 15.6808 91.3215 15.6808 91.3837 15.6186C91.5082 15.5563 91.5705 15.5563 91.695 15.4318C91.7572 15.3696 91.8817 15.3073 91.8817 15.1828C91.944 15.1206 91.944 14.9961 91.944 14.8716C91.944 14.6226 91.8817 14.4358 91.695 14.3113C91.5082 14.1868 91.2592 14.1868 90.8857 14.1868C90.699 14.1868 90.5122 14.1868 90.3877 14.1868C90.2632 14.1868 90.1387 14.1868 90.0765 14.1868V15.5563H91.0725V15.6808ZM90.1387 17.7973C90.2632 17.7973 90.3877 17.7973 90.5122 17.7973C90.6367 17.7973 90.7612 17.7973 90.948 17.7973C91.3837 17.7973 91.695 17.7351 91.8817 17.6106C92.0685 17.4861 92.193 17.2993 92.193 16.9881C92.193 16.7391 92.1307 16.5523 91.944 16.4278C91.7572 16.3033 91.446 16.2411 91.0102 16.2411H90.1387V17.7973Z" fill="#686869"/>
<path d="M93.9364 16.0544C93.9364 15.2452 94.1232 14.6227 94.4967 14.187C94.8702 13.7512 95.3682 13.5645 96.0529 13.5645C96.4264 13.5645 96.7376 13.6267 96.9866 13.7512C97.2356 13.8757 97.4846 14.0625 97.6714 14.2492C97.8581 14.4982 97.9826 14.7472 98.0449 15.0584C98.1071 15.3697 98.1694 15.6809 98.1694 16.1167C98.1694 16.9259 97.9826 17.5484 97.6091 17.9842C97.2356 18.4199 96.7376 18.6067 96.0529 18.6067C95.6794 18.6067 95.3682 18.5444 95.1192 18.4199C94.8702 18.2954 94.6212 18.1087 94.4344 17.9219C94.2477 17.6729 94.1232 17.4239 94.0609 17.1127C93.9364 16.8014 93.9364 16.4279 93.9364 16.0544ZM94.6834 16.0544C94.6834 16.3034 94.6834 16.5524 94.7456 16.7392C94.8079 16.9259 94.8702 17.1749 94.9947 17.2994C95.1192 17.4862 95.2436 17.6107 95.3681 17.6729C95.4926 17.7352 95.7416 17.7974 95.9906 17.7974C96.8621 17.7974 97.2979 17.1749 97.2979 15.9299C97.2979 15.6809 97.2979 15.4319 97.2356 15.2452C97.1734 15.0584 97.1111 14.8094 96.9866 14.6849C96.8621 14.4982 96.7376 14.3737 96.6131 14.3115C96.4264 14.187 96.2396 14.187 95.9906 14.187C95.1191 14.187 94.6834 14.8094 94.6834 16.0544Z" fill="#686869"/>
<path d="M102.09 14.3113H100.036V18.4198H99.2892V13.6266H102.09V14.3113Z" fill="#686869"/>
<path d="M102.402 16.0544C102.402 15.2452 102.589 14.6227 102.962 14.187C103.336 13.7512 103.834 13.5645 104.519 13.5645C104.892 13.5645 105.203 13.6267 105.452 13.7512C105.701 13.8757 105.95 14.0625 106.137 14.2492C106.324 14.4982 106.448 14.7472 106.511 15.0584C106.573 15.3697 106.635 15.6809 106.635 16.1167C106.635 16.9259 106.448 17.5484 106.075 17.9842C105.701 18.4199 105.203 18.6067 104.519 18.6067C104.145 18.6067 103.834 18.5444 103.585 18.4199C103.336 18.2954 103.087 18.1087 102.9 17.9219C102.713 17.6729 102.589 17.4239 102.527 17.1127C102.464 16.8014 102.402 16.4279 102.402 16.0544ZM103.211 16.0544C103.211 16.3034 103.211 16.5524 103.274 16.7392C103.336 16.9882 103.398 17.1749 103.523 17.2994C103.647 17.4862 103.772 17.6107 103.896 17.6729C104.083 17.7974 104.27 17.7974 104.519 17.7974C105.39 17.7974 105.826 17.1749 105.826 15.9299C105.826 15.6809 105.826 15.4319 105.764 15.2452C105.701 14.9962 105.639 14.8094 105.515 14.6849C105.39 14.4982 105.266 14.3737 105.141 14.3115C104.954 14.187 104.768 14.187 104.519 14.187C103.647 14.187 103.211 14.8094 103.211 16.0544Z" fill="#686869"/>
<path d="M110.807 14.4982C110.993 14.187 111.242 14.0002 111.491 13.8757C111.74 13.7512 112.052 13.689 112.425 13.689C112.985 13.689 113.483 13.8757 113.795 14.2492C114.106 14.6227 114.293 15.183 114.293 15.93C114.293 16.8015 114.106 17.424 113.732 17.8597C113.359 18.2955 112.861 18.5445 112.176 18.5445C111.491 18.5445 110.931 18.2955 110.62 17.7975C110.246 17.2995 110.122 16.5525 110.122 15.4942C110.122 14.934 110.122 14.4982 110.184 14.0625C110.246 13.689 110.309 13.3155 110.433 13.0665C110.558 12.8175 110.682 12.5685 110.807 12.444C110.931 12.2572 111.118 12.1327 111.305 12.0705C111.491 12.0082 111.678 11.8837 111.927 11.8837C112.176 11.8837 112.363 11.8215 112.674 11.7592C112.985 11.697 113.297 11.697 113.483 11.6347C113.67 11.5725 113.795 11.5102 113.919 11.3857L113.981 12.0705C113.919 12.1327 113.857 12.195 113.795 12.195C113.732 12.2572 113.608 12.2572 113.546 12.3195C113.483 12.3817 113.297 12.3817 113.172 12.3817C113.048 12.3817 112.861 12.444 112.674 12.444C112.425 12.444 112.176 12.5062 111.927 12.5685C111.74 12.6307 111.554 12.693 111.367 12.8175C111.18 12.942 111.118 13.1287 110.993 13.3777C110.869 13.6267 110.807 14.1247 110.807 14.4982ZM110.931 16.0545C110.931 16.3035 110.931 16.5525 110.993 16.7392C111.056 16.9882 111.118 17.175 111.242 17.2995C111.367 17.4862 111.491 17.6107 111.678 17.673C111.865 17.7352 112.052 17.7975 112.238 17.7975C112.674 17.7975 112.985 17.6107 113.234 17.2995C113.421 16.9882 113.546 16.4902 113.546 15.8677C113.546 15.6187 113.546 15.3697 113.483 15.183C113.421 14.9962 113.359 14.8095 113.297 14.6227C113.172 14.4982 113.11 14.3737 112.923 14.2492C112.799 14.187 112.612 14.1247 112.425 14.1247C111.927 14.1247 111.554 14.2492 111.305 14.5605C111.056 15.0585 110.931 15.4942 110.931 16.0545Z" fill="#686869"/>
<path d="M118.524 15.6187V14.9962L118.151 15.6187L115.972 18.4199H115.536V13.6267H116.283V16.5524V17.1127H116.346L116.719 16.4902L118.898 13.5645H119.334V18.3577H118.587V15.6187H118.524Z" fill="#686869"/>
<path d="M121.201 16.3034V15.6809H121.886C122.01 15.6809 122.135 15.6809 122.197 15.6187C122.259 15.5564 122.384 15.5564 122.508 15.4319C122.571 15.3697 122.695 15.3074 122.695 15.1829C122.757 15.1207 122.757 14.9962 122.757 14.8717C122.757 14.6227 122.695 14.4359 122.508 14.3737C122.322 14.3115 122.073 14.2492 121.761 14.2492C121.512 14.2492 121.263 14.3115 121.077 14.3737C120.89 14.4359 120.703 14.4982 120.579 14.5604L120.33 14.0002C120.516 13.8757 120.765 13.8135 121.014 13.689C121.263 13.5645 121.575 13.5645 121.948 13.5645C123.006 13.5645 123.567 13.938 123.567 14.7472C123.567 14.9962 123.504 15.1829 123.38 15.4319C123.255 15.6187 123.006 15.8054 122.757 15.8677V15.9299C123.131 15.9922 123.38 16.1167 123.567 16.3034C123.753 16.4902 123.816 16.7392 123.816 17.1127C123.816 17.2994 123.753 17.4862 123.691 17.6729C123.629 17.8597 123.504 17.9842 123.318 18.1087C123.131 18.2332 122.944 18.3577 122.695 18.4199C122.446 18.4822 122.135 18.5444 121.824 18.5444C121.512 18.5444 121.201 18.5444 121.014 18.4822C120.828 18.4199 120.579 18.3577 120.454 18.2954L120.703 17.6729C120.828 17.7352 121.014 17.7974 121.263 17.8597C121.45 17.9219 121.699 17.9219 121.948 17.9219C122.322 17.9219 122.633 17.8597 122.82 17.7352C123.006 17.6107 123.131 17.4239 123.131 17.1127C123.131 16.8637 123.006 16.6769 122.82 16.5524C122.633 16.4279 122.322 16.3657 121.886 16.3657H121.201V16.3034Z" fill="#686869"/>
<path d="M127.925 16.3034H125.746V18.4199H124.999V13.6267H125.746V15.6187H127.925V13.6267H128.672V18.4199H127.925V16.3034Z" fill="#686869"/>
<path d="M133.652 18.0464C133.465 18.1709 133.216 18.2954 132.905 18.4199C132.593 18.4822 132.282 18.5444 131.971 18.5444C131.597 18.5444 131.286 18.4822 131.037 18.3577C130.788 18.2332 130.539 18.0464 130.352 17.8597C130.166 17.6107 130.041 17.3617 129.979 17.0504C129.917 16.7392 129.854 16.4279 129.854 15.9922C129.854 15.1829 130.041 14.5604 130.415 14.1247C130.788 13.6889 131.286 13.5022 131.971 13.5022C132.158 13.5022 132.407 13.5022 132.593 13.5644C132.78 13.6267 133.029 13.6889 133.154 13.8134C133.34 13.9379 133.465 14.1247 133.589 14.3737C133.714 14.6227 133.776 14.9339 133.776 15.3697C133.776 15.5564 133.776 15.8054 133.714 16.0544H130.664C130.664 16.3657 130.664 16.6147 130.726 16.8014C130.788 16.9882 130.85 17.1749 130.975 17.3617C131.099 17.4862 131.224 17.6107 131.473 17.7352C131.66 17.7974 131.909 17.8597 132.158 17.8597C132.344 17.8597 132.593 17.7974 132.78 17.7352C132.967 17.6729 133.154 17.5484 133.278 17.4862L133.652 18.0464ZM132.033 14.1869C131.66 14.1869 131.348 14.3114 131.099 14.4982C130.85 14.6849 130.726 15.0584 130.664 15.4942H133.029C133.029 14.9962 132.967 14.6849 132.78 14.4982C132.593 14.3114 132.344 14.1869 132.033 14.1869Z" fill="#686869"/>
<path d="M138.195 18.1087C138.008 18.2332 137.759 18.3577 137.51 18.4199C137.261 18.4822 136.95 18.5444 136.701 18.5444C136.327 18.5444 136.016 18.4822 135.767 18.3577C135.518 18.2332 135.331 18.0464 135.145 17.8597C134.958 17.6107 134.833 17.3617 134.771 17.0504C134.709 16.7392 134.647 16.4279 134.647 15.9922C134.647 15.1829 134.833 14.5604 135.207 14.1247C135.58 13.6889 136.078 13.5022 136.763 13.5022C137.074 13.5022 137.323 13.5022 137.572 13.5644C137.821 13.6267 138.008 13.6889 138.133 13.7512L137.884 14.4359C137.759 14.3737 137.572 14.3114 137.386 14.2492C137.199 14.1869 137.012 14.1869 136.825 14.1869C135.892 14.1869 135.456 14.8094 135.456 16.0544C135.456 16.3034 135.456 16.5524 135.518 16.7392C135.58 16.9259 135.643 17.1749 135.767 17.2994C135.892 17.4239 136.016 17.6107 136.203 17.7352C136.39 17.8597 136.639 17.8597 136.888 17.8597C137.137 17.8597 137.323 17.7974 137.51 17.7352C137.697 17.6729 137.821 17.6107 137.946 17.4862L138.195 18.1087Z" fill="#686869"/>
<path d="M139.191 14.0002C139.44 13.8757 139.689 13.7512 140.063 13.689C140.374 13.6267 140.747 13.5645 141.059 13.5645C141.37 13.5645 141.681 13.6267 141.868 13.689C142.055 13.7512 142.241 13.8757 142.304 14.0625C142.428 14.187 142.49 14.3737 142.49 14.5604C142.49 14.7472 142.553 14.9339 142.553 15.0584C142.553 15.4319 142.553 15.8054 142.553 16.1789C142.553 16.5524 142.553 16.8637 142.553 17.2372C142.553 17.4862 142.553 17.6729 142.553 17.9219C142.553 18.1087 142.615 18.3577 142.677 18.4822H142.117L141.93 17.7974H141.868C141.806 17.8597 141.743 17.9842 141.681 18.0464C141.619 18.1087 141.494 18.2332 141.37 18.2954C141.245 18.3577 141.121 18.4199 140.934 18.4822C140.747 18.5444 140.623 18.5444 140.374 18.5444C140.187 18.5444 140 18.4822 139.814 18.4199C139.627 18.3577 139.502 18.2954 139.378 18.1709C139.253 18.0464 139.129 17.9219 139.067 17.7352C139.004 17.5484 138.942 17.3617 138.942 17.1749C138.942 16.8637 139.004 16.6769 139.129 16.4902C139.253 16.3034 139.378 16.1789 139.627 16.0544C139.814 15.9299 140.063 15.8677 140.374 15.8054C140.685 15.7432 140.996 15.7432 141.308 15.7432C141.37 15.7432 141.494 15.7432 141.557 15.7432C141.619 15.7432 141.743 15.7432 141.806 15.7432C141.806 15.5564 141.806 15.3697 141.806 15.2452C141.806 14.8717 141.743 14.6227 141.619 14.4982C141.494 14.3737 141.245 14.3115 140.872 14.3115C140.747 14.3115 140.623 14.3115 140.498 14.3115C140.374 14.3115 140.249 14.3737 140.125 14.3737C140 14.3737 139.876 14.4359 139.751 14.4982C139.627 14.5604 139.502 14.5604 139.44 14.6227L139.191 14.0002ZM140.498 17.8597C140.685 17.8597 140.81 17.8597 140.996 17.7974C141.183 17.7352 141.245 17.6729 141.37 17.6107C141.494 17.5484 141.557 17.4862 141.619 17.3617C141.681 17.2994 141.743 17.1749 141.743 17.1127V16.3034C141.681 16.3034 141.557 16.3034 141.494 16.3034C141.432 16.3034 141.308 16.3034 141.245 16.3034C141.059 16.3034 140.872 16.3034 140.685 16.3657C140.498 16.3657 140.312 16.4279 140.187 16.4902C140.063 16.5524 139.938 16.6147 139.814 16.7392C139.751 16.8637 139.689 16.9882 139.689 17.1127C139.689 17.3617 139.751 17.5484 139.938 17.6729C140.063 17.7974 140.249 17.8597 140.498 17.8597Z" fill="#686869"/>
</g>
<defs>
<clipPath id="clip0">
<rect width="171" height="37.3498" fill="white" transform="translate(0.000854492 0.554199)"/>
</clipPath>
</defs>
</svg>
