<svg width="34" height="34" viewBox="0 0 34 34" fill="none" xmlns="http://www.w3.org/2000/svg">
<path fill-rule="evenodd" clip-rule="evenodd" d="M25.25 9.75H29.5C31.0648 9.75 32.3333 11.0185 32.3333 12.5833V29.5833C32.3333 31.1481 31.0648 32.4167 29.5 32.4167H6.83333C5.26853 32.4167 4 31.1481 4 29.5833V12.5833C4 11.0185 5.26853 9.75 6.83333 9.75H11.0833C11.0833 7.40279 12.9861 5.5 15.3333 5.5H21C23.3472 5.5 25.25 7.40279 25.25 9.75ZM21 8.33333H15.3333C14.5509 8.33333 13.9167 8.9676 13.9167 9.75H22.4167C22.4167 8.9676 21.7824 8.33333 21 8.33333ZM29.5 12.5833H6.83333V15.4167H29.5V12.5833ZM6.83333 29.5833V18.25H11.0833V21.0833H16.75V18.25H19.5833V21.0833H25.25V18.25H29.5V29.5833H6.83333Z" fill="#DC143C"/>
</svg>
