<svg width="34" height="34" viewBox="0 0 34 34" fill="none" xmlns="http://www.w3.org/2000/svg">
<path d="M18.1667 9.93376C22.9724 10.6212 26.6667 14.7542 26.6667 19.75C26.6667 25.2268 22.2268 29.6667 16.75 29.6667C11.2732 29.6667 6.83333 25.2268 6.83333 19.75C6.83333 16.8623 8.06765 14.2628 10.0375 12.4505L8.03265 10.4456C5.5507 12.7719 4 16.0799 4 19.75C4 26.7916 9.70837 32.5 16.75 32.5C23.7916 32.5 29.5 26.7916 29.5 19.75C29.5 12.7084 23.7916 7 16.75 7C16.2712 7 15.7985 7.0264 15.3333 7.07782V15.6211H18.1667V9.93376Z" fill="#DC143C"/>
<path d="M10.6684 15.085C10.1152 15.6383 10.1152 16.5353 10.6684 17.0885L14.6753 21.0954C15.2286 21.6487 16.1256 21.6487 16.6788 21.0954C17.2321 20.5422 17.2321 19.6452 16.6788 19.092L12.6719 15.085C12.1186 14.5318 11.2216 14.5318 10.6684 15.085Z" fill="#DC143C"/>
</svg>
