<svg width="34" height="34" viewBox="0 0 34 34" fill="none" xmlns="http://www.w3.org/2000/svg">
<path d="M12.4658 14C12.4658 14.7824 11.8316 15.4167 11.0492 15.4167C10.2668 15.4167 9.63251 14.7824 9.63251 14C9.63251 13.2176 10.2668 12.5833 11.0492 12.5833C11.8316 12.5833 12.4658 13.2176 12.4658 14Z" fill="#DC143C"/>
<path d="M16.7092 15.4167C17.4916 15.4167 18.1259 14.7824 18.1259 14C18.1259 13.2176 17.4916 12.5833 16.7092 12.5833C15.9268 12.5833 15.2925 13.2176 15.2925 14C15.2925 14.7824 15.9268 15.4167 16.7092 15.4167Z" fill="#DC143C"/>
<path fill-rule="evenodd" clip-rule="evenodd" d="M23.8333 30.9999V15.4167C23.8333 9.93984 19.3935 5.5 13.9167 5.5C8.43984 5.5 4 9.93984 4 15.4167V31L8.00699 31L10.0104 28.9965L12.0139 31L15.8196 31L17.8231 28.9965L19.8265 31L23.8333 30.9999ZM21 15.4167C21 11.5046 17.8287 8.33333 13.9167 8.33333C10.0047 8.33333 6.83333 11.5046 6.83333 15.4167V28.1666L10.0104 24.9895L13.9167 28.8959L17.8231 24.9895L21 28.1665V15.4167Z" fill="#DC143C"/>
</svg>
