<svg width="34" height="34" viewBox="0 0 34 34" fill="none" xmlns="http://www.w3.org/2000/svg">
<path d="M13.9167 18.25C14.6991 18.25 15.3333 17.6157 15.3333 16.8333C15.3333 16.0509 14.6991 15.4167 13.9167 15.4167C13.1343 15.4167 12.5 16.0509 12.5 16.8333C12.5 17.6157 13.1343 18.25 13.9167 18.25Z" fill="#DC143C"/>
<path d="M21 26.75C21 25.1852 19.7315 23.9167 18.1667 23.9167C16.6019 23.9167 15.3333 25.1852 15.3333 26.75H12.5C12.5 23.6204 15.0371 21.0833 18.1667 21.0833C21.2963 21.0833 23.8333 23.6204 23.8333 26.75H21Z" fill="#DC143C"/>
<path d="M23.8333 16.8333C23.8333 17.6157 23.1991 18.25 22.4167 18.25C21.6343 18.25 21 17.6157 21 16.8333C21 16.0509 21.6343 15.4167 22.4167 15.4167C23.1991 15.4167 23.8333 16.0509 23.8333 16.8333Z" fill="#DC143C"/>
<path fill-rule="evenodd" clip-rule="evenodd" d="M32.3333 19.6667C32.3333 27.4907 25.9907 33.8333 18.1667 33.8333C10.3426 33.8333 4 27.4907 4 19.6667C4 11.8426 10.3426 5.5 18.1667 5.5C25.9907 5.5 32.3333 11.8426 32.3333 19.6667ZM29.5 19.6667C29.5 25.9259 24.4259 31 18.1667 31C11.9074 31 6.83333 25.9259 6.83333 19.6667C6.83333 13.4074 11.9074 8.33333 18.1667 8.33333C24.4259 8.33333 29.5 13.4074 29.5 19.6667Z" fill="#DC143C"/>
</svg>
