<svg width="50" height="50" viewBox="0 0 50 50" fill="none" xmlns="http://www.w3.org/2000/svg">
<rect width="50" height="50" rx="8" fill="white"/>
<path d="M26.1667 17.9338C30.9724 18.6212 34.6667 22.7542 34.6667 27.75C34.6667 33.2268 30.2268 37.6667 24.75 37.6667C19.2732 37.6667 14.8333 33.2268 14.8333 27.75C14.8333 24.8623 16.0676 22.2628 18.0375 20.4505L16.0326 18.4456C13.5507 20.7719 12 24.0799 12 27.75C12 34.7916 17.7084 40.5 24.75 40.5C31.7916 40.5 37.5 34.7916 37.5 27.75C37.5 20.7084 31.7916 15 24.75 15C24.2712 15 23.7985 15.0264 23.3333 15.0778V23.6211H26.1667V17.9338Z" fill="#DC143C"/>
<path d="M18.6684 23.085C18.1152 23.6383 18.1152 24.5353 18.6684 25.0885L22.6753 29.0954C23.2286 29.6487 24.1256 29.6487 24.6788 29.0954C25.2321 28.5422 25.2321 27.6452 24.6788 27.092L20.6719 23.085C20.1186 22.5318 19.2216 22.5318 18.6684 23.085Z" fill="#DC143C"/>
</svg>
