<svg width="50" height="50" viewBox="0 0 50 50" fill="none" xmlns="http://www.w3.org/2000/svg">
<rect width="50" height="50" rx="8" fill="white"/>
<path d="M21.9167 26.25C22.6991 26.25 23.3333 25.6157 23.3333 24.8333C23.3333 24.0509 22.6991 23.4167 21.9167 23.4167C21.1343 23.4167 20.5 24.0509 20.5 24.8333C20.5 25.6157 21.1343 26.25 21.9167 26.25Z" fill="#DC143C"/>
<path d="M29 34.75C29 33.1852 27.7315 31.9167 26.1667 31.9167C24.6019 31.9167 23.3333 33.1852 23.3333 34.75H20.5C20.5 31.6204 23.0371 29.0833 26.1667 29.0833C29.2963 29.0833 31.8333 31.6204 31.8333 34.75H29Z" fill="#DC143C"/>
<path d="M31.8333 24.8333C31.8333 25.6157 31.1991 26.25 30.4167 26.25C29.6343 26.25 29 25.6157 29 24.8333C29 24.0509 29.6343 23.4167 30.4167 23.4167C31.1991 23.4167 31.8333 24.0509 31.8333 24.8333Z" fill="#DC143C"/>
<path fill-rule="evenodd" clip-rule="evenodd" d="M40.3333 27.6667C40.3333 35.4907 33.9907 41.8333 26.1667 41.8333C18.3426 41.8333 12 35.4907 12 27.6667C12 19.8426 18.3426 13.5 26.1667 13.5C33.9907 13.5 40.3333 19.8426 40.3333 27.6667ZM37.5 27.6667C37.5 33.9259 32.4259 39 26.1667 39C19.9074 39 14.8333 33.9259 14.8333 27.6667C14.8333 21.4074 19.9074 16.3333 26.1667 16.3333C32.4259 16.3333 37.5 21.4074 37.5 27.6667Z" fill="#DC143C"/>
</svg>
