<svg width="50" height="50" viewBox="0 0 50 50" fill="none" xmlns="http://www.w3.org/2000/svg">
<rect width="50" height="50" rx="8" fill="white"/>
<path d="M20.4658 22C20.4658 22.7824 19.8316 23.4167 19.0492 23.4167C18.2668 23.4167 17.6325 22.7824 17.6325 22C17.6325 21.2176 18.2668 20.5833 19.0492 20.5833C19.8316 20.5833 20.4658 21.2176 20.4658 22Z" fill="#DC143C"/>
<path d="M24.7092 23.4167C25.4916 23.4167 26.1259 22.7824 26.1259 22C26.1259 21.2176 25.4916 20.5833 24.7092 20.5833C23.9268 20.5833 23.2925 21.2176 23.2925 22C23.2925 22.7824 23.9268 23.4167 24.7092 23.4167Z" fill="#DC143C"/>
<path fill-rule="evenodd" clip-rule="evenodd" d="M31.8333 38.9999V23.4167C31.8333 17.9398 27.3935 13.5 21.9167 13.5C16.4398 13.5 12 17.9398 12 23.4167V39L16.007 39L18.0104 36.9965L20.0139 39L23.8196 39L25.8231 36.9965L27.8265 39L31.8333 38.9999ZM29 23.4167C29 19.5046 25.8287 16.3333 21.9167 16.3333C18.0047 16.3333 14.8333 19.5046 14.8333 23.4167V36.1666L18.0104 32.9895L21.9167 36.8959L25.8231 32.9895L29 36.1665V23.4167Z" fill="#DC143C"/>
</svg>
