<svg width="50" height="50" viewBox="0 0 50 50" fill="none" xmlns="http://www.w3.org/2000/svg">
<rect width="50" height="50" rx="8" fill="white"/>
<path fill-rule="evenodd" clip-rule="evenodd" d="M33.25 17.75H37.5C39.0648 17.75 40.3333 19.0185 40.3333 20.5833V37.5833C40.3333 39.1481 39.0648 40.4167 37.5 40.4167H14.8333C13.2685 40.4167 12 39.1481 12 37.5833V20.5833C12 19.0185 13.2685 17.75 14.8333 17.75H19.0833C19.0833 15.4028 20.9861 13.5 23.3333 13.5H29C31.3472 13.5 33.25 15.4028 33.25 17.75ZM29 16.3333H23.3333C22.5509 16.3333 21.9167 16.9676 21.9167 17.75H30.4167C30.4167 16.9676 29.7824 16.3333 29 16.3333ZM37.5 20.5833H14.8333V23.4167H37.5V20.5833ZM14.8333 37.5833V26.25H19.0833V29.0833H24.75V26.25H27.5833V29.0833H33.25V26.25H37.5V37.5833H14.8333Z" fill="#DC143C"/>
</svg>
