<svg width="48" height="48" viewBox="0 0 48 48" fill="none" xmlns="http://www.w3.org/2000/svg">
<g clip-path="url(#clip0)">
<path d="M38.6303 24.7844C37.5491 23.747 35.9795 23.1824 33.9215 23.0907C35.6553 22.8367 36.9733 22.3137 37.8754 21.5218C38.2899 21.1947 38.6264 20.7794 38.8604 20.3058C39.0945 19.8323 39.2202 19.3126 39.2285 18.7844C39.2285 17.5378 38.6602 16.5218 37.5235 15.7363C36.4742 15.0128 34.8332 14.6253 32.6131 14.5709V11.9039H29.9932V14.5933C29.7732 14.5891 29.5532 14.5977 29.3342 14.6189C28.6337 14.651 27.9683 14.6702 27.3221 14.6766V11.8943H24.699V14.6574L24.0592 14.6349C23.1187 14.5859 22.207 14.5624 21.3241 14.5645C21.2697 14.5645 21.2217 14.6349 21.1769 14.779C21.1351 14.9017 21.1135 15.0304 21.113 15.16C21.1158 15.2803 21.1385 15.3993 21.1801 15.5122C21.2249 15.6563 21.2729 15.7363 21.3273 15.7587C22.3936 15.8847 23.091 16.1099 23.4194 16.4343C23.607 16.6536 23.7492 16.9081 23.8376 17.183C23.926 17.4578 23.9589 17.7475 23.9344 18.0352V22.1974C23.7149 22.2015 23.4981 22.246 23.2946 22.3287C22.746 21.6473 22.1368 21.0172 21.4744 20.4461L17.2742 16.8537L15.8571 15.6179L14.8463 14.6798L13.1668 13.0789L12.5494 12.4866C12.4853 12.4251 12.403 12.3859 12.3148 12.375C12.2266 12.364 12.1372 12.3818 12.06 12.4258C12.0233 12.448 11.9926 12.4787 11.9704 12.5154C11.9281 12.5951 11.913 12.6864 11.9275 12.7754C11.9419 12.8645 11.9851 12.9463 12.0504 13.0085L12.6614 13.604L14.296 15.2657L15.2557 16.2262L16.5353 17.5805L20.2557 21.6659C20.7469 22.2074 21.2819 22.7075 21.8551 23.1611H20.4732L18.621 23.302L18.2339 23.3532L16.6345 23.5229L15.9947 23.5517C15.9661 23.5531 15.9377 23.5459 15.9132 23.5311C15.8887 23.5163 15.8692 23.4945 15.8571 23.4685L15.8251 23.3884C15.7599 23.2667 15.6653 23.1633 15.55 23.0875H15.5308C15.382 23.002 15.208 22.9716 15.039 23.0014C14.8701 23.0312 14.7169 23.1195 14.6063 23.2507L14.5743 23.2796C14.1488 23.4888 13.6791 23.592 13.2052 23.5805L12.5366 23.6317L11.8968 23.6125C11.8339 23.6134 11.772 23.6292 11.7164 23.6587C11.6608 23.6882 11.613 23.7306 11.5769 23.7822C11.5238 23.8572 11.4948 23.9465 11.4938 24.0384C11.4955 24.1291 11.5244 24.2173 11.5769 24.2913C11.612 24.3439 11.6596 24.387 11.7154 24.4166C11.7713 24.4463 11.8336 24.4615 11.8968 24.461L12.5366 24.445L13.1764 24.4738C13.6501 24.4612 14.1198 24.5633 14.5456 24.7716L14.5775 24.8068C14.6895 24.9372 14.8436 25.0244 15.0131 25.053C15.1825 25.0817 15.3566 25.0501 15.5052 24.9637H15.5244C15.6395 24.8898 15.7332 24.7872 15.7963 24.6659L15.8443 24.5827C15.8549 24.556 15.8736 24.5334 15.8977 24.5179C15.9218 24.5024 15.9501 24.4948 15.9787 24.4962L16.6185 24.5282L18.2179 24.6979L18.5602 24.7523H18.5794L20.4284 24.8932C21.0906 24.9156 21.7272 24.8932 22.287 24.874C22.4395 25.1681 22.6687 25.4154 22.9503 25.5896C23.2319 25.7638 23.5554 25.8584 23.8864 25.8633V29.9103C23.8864 30.6531 23.719 31.1867 23.3842 31.5112C23.0494 31.8356 22.352 32.0618 21.2921 32.1899C21.2409 32.2091 21.1929 32.2892 21.1482 32.4332C21.1073 32.5465 21.0836 32.6652 21.0778 32.7854C21.0801 32.9154 21.1039 33.0442 21.1482 33.1664C21.1929 33.3105 21.2409 33.381 21.2921 33.381C22.1793 33.381 23.1176 33.3596 24.1072 33.3169C24.3023 33.3169 24.4942 33.2977 24.683 33.2913V36.096H27.3061V33.2497C28.0195 33.2497 28.8 33.2753 29.6701 33.3169H29.9676V36.0896H32.6291V33.3713C35.5252 33.3713 37.5171 32.8623 38.6047 31.8441C39.1297 31.3822 39.5491 30.8125 39.8345 30.1739C40.1199 29.5352 40.2645 28.8425 40.2586 28.143C40.2586 26.9434 39.7158 25.8239 38.6303 24.7844ZM23.8257 24.8772C23.6202 24.8793 23.4195 24.8153 23.2531 24.6947C23.2422 24.6891 23.2324 24.6815 23.2243 24.6723L23.1955 24.6531C23.1641 24.627 23.1342 24.5992 23.1059 24.5698L23.0835 24.5442L23.0547 24.5122L23.0227 24.4706L22.9971 24.4322C22.9695 24.3913 22.945 24.3485 22.9236 24.3041L22.898 24.2433C22.8886 24.2238 22.8811 24.2034 22.8756 24.1824C22.8684 24.1616 22.863 24.1402 22.8596 24.1184C22.8564 24.0972 22.8564 24.0756 22.8596 24.0544C22.8563 24.0118 22.8563 23.9689 22.8596 23.9263V23.8783C22.8591 23.6311 22.9506 23.3926 23.1162 23.2091C23.2817 23.0256 23.5095 22.9104 23.7553 22.8858H23.9408C24.1874 22.91 24.4162 23.0253 24.5826 23.209C24.749 23.3928 24.8411 23.6319 24.8411 23.8799C24.8411 24.1279 24.749 24.367 24.5826 24.5508C24.4162 24.7345 24.1874 24.8497 23.9408 24.874L23.8257 24.8772ZM29.2638 17.1323C29.2638 16.6264 29.379 16.2934 29.6157 16.1301C29.891 15.9572 30.2124 15.8724 30.537 15.8868H30.8569C31.8337 15.8868 32.5385 16.1387 32.9714 16.6424C33.4065 17.1483 33.6112 17.9807 33.6112 19.143C33.6112 20.3052 33.4001 21.2369 32.949 21.7716C32.498 22.3062 31.7558 22.5976 30.7098 22.5976H29.2702L29.2638 17.1323ZM33.5312 31.0565C32.864 31.6746 31.993 32.0256 31.084 32.0426C30.6071 32.076 30.1339 31.9375 29.7501 31.652C29.5779 31.4852 29.4454 31.2817 29.3624 31.0567C29.2793 30.8317 29.2478 30.5909 29.2702 30.3521V23.9071H31.2984C32.4148 23.9071 33.2625 24.2273 33.8287 24.9188C34.3949 25.6104 34.6764 26.5741 34.6764 27.8868C34.6764 29.3596 34.2947 30.4162 33.5312 31.0565Z" fill="white"/>
<path d="M20.5212 46.0086C16.545 46.0199 12.641 44.9462 9.22894 42.9029C12.7691 45.6837 17.0194 47.4118 21.4942 47.8899C25.969 48.3681 30.488 47.5769 34.535 45.6069C38.5819 43.6368 41.9937 40.5672 44.3805 36.7488C46.7674 32.9303 48.0331 28.517 48.0331 24.0128C48.0331 19.5087 46.7674 15.0953 44.3805 11.2769C41.9937 7.45844 38.5819 4.38887 34.535 2.41879C30.488 0.448713 25.969 -0.342442 21.4942 0.135694C17.0194 0.61383 12.7691 2.34198 9.22894 5.12275C12.1358 3.37682 15.4066 2.32712 18.7859 2.05565C22.1651 1.78418 25.5613 2.29827 28.7092 3.55779C31.8571 4.8173 34.6715 6.78813 36.9325 9.31634C39.1935 11.8445 40.8399 14.8617 41.7431 18.1321C42.6464 21.4025 42.782 24.8376 42.1394 28.1692C41.4968 31.5007 40.0934 34.6385 38.0388 37.3374C35.9841 40.0362 33.3339 42.2232 30.2952 43.7274C27.2564 45.2316 23.9113 46.0123 20.5212 46.0086Z" fill="white"/>
<path d="M24.3695 40.38C24.5311 40.3072 24.6675 40.1881 24.7615 40.0377C24.8555 39.8873 24.9027 39.7124 24.8973 39.5351C24.8919 39.3578 24.8341 39.1861 24.7312 39.0417C24.6282 38.8973 24.4848 38.7867 24.319 38.7239C24.1533 38.6612 23.9726 38.649 23.8 38.689C23.6273 38.7291 23.4704 38.8194 23.3491 38.9487C23.2278 39.0781 23.1475 39.2405 23.1185 39.4155C23.0894 39.5904 23.1129 39.7701 23.1859 39.9317C23.2682 40.1182 23.4131 40.2699 23.5954 40.3608V42.3714H22.9939C19.6448 42.3772 16.3584 41.4624 13.4931 39.7268L14.4912 37.9883L13.8226 37.6041L12.8373 39.3266C10.5625 37.8123 8.6498 35.8138 7.23601 33.4739L8.95703 32.4878L8.56996 31.8154L6.84894 32.8079C5.43715 30.2244 4.669 27.338 4.60968 24.3939H6.63781V24.3586C6.66294 24.4129 6.69521 24.4635 6.73377 24.5091C6.84481 24.6455 6.9935 24.7463 7.16133 24.7987C7.32915 24.8511 7.50868 24.853 7.67755 24.804C7.84642 24.755 7.99715 24.6574 8.11096 24.5233C8.22477 24.3892 8.29663 24.2245 8.31758 24.0498C8.33853 23.8751 8.30764 23.698 8.22876 23.5408C8.14989 23.3835 8.02651 23.253 7.87402 23.1654C7.72152 23.0778 7.54665 23.0371 7.37119 23.0483C7.19573 23.0595 7.02745 23.1222 6.88732 23.2284C6.75659 23.3272 6.65402 23.4586 6.58982 23.6094H4.58409C4.64202 20.6147 5.43169 17.6797 6.88412 15.0609L8.56676 16.0214L8.95703 15.3682L7.27759 14.4077C8.69201 12.0875 10.5988 10.107 12.8629 8.60623L13.8226 10.3031L14.5008 9.92534L13.5155 8.19962C16.3761 6.47329 19.6536 5.56214 22.9939 5.56461H23.5922V7.412C23.409 7.49983 23.2612 7.64733 23.1728 7.83031C23.0844 8.01329 23.0608 8.2209 23.1058 8.41909C23.1508 8.61727 23.2617 8.79428 23.4204 8.92107C23.5791 9.04786 23.7762 9.11692 23.9792 9.11692C24.1823 9.11692 24.3793 9.04786 24.538 8.92107C24.6967 8.79428 24.8077 8.61727 24.8527 8.41909C24.8977 8.2209 24.874 8.01329 24.7857 7.83031C24.6973 7.64733 24.5494 7.49983 24.3663 7.412V5.60944C27.2184 5.82114 29.9814 6.69834 32.434 8.1708C29.4735 5.84759 25.9199 4.40441 22.179 4.00602C18.4381 3.60764 14.6607 4.27011 11.278 5.9178C7.89528 7.56549 5.04368 10.132 3.04875 13.3243C1.05383 16.5166 -0.00402832 20.206 -0.00402832 23.9712C-0.00402832 27.7365 1.05383 31.4259 3.04875 34.6182C5.04368 37.8105 7.89528 40.377 11.278 42.0247C14.6607 43.6723 18.4381 44.3348 22.179 43.9364C25.9199 43.538 29.4735 42.0949 32.434 39.7717C29.9821 41.2455 27.2187 42.1228 24.3663 42.333L24.3695 40.38ZM7.21042 23.4814C7.29794 23.4136 7.40355 23.3734 7.51391 23.3657C7.62428 23.358 7.73445 23.3832 7.83051 23.4381C7.92657 23.493 8.00423 23.5752 8.05366 23.6743C8.1031 23.7733 8.1221 23.8848 8.10826 23.9947C8.09443 24.1045 8.04839 24.2078 7.97594 24.2915C7.9035 24.3752 7.80791 24.4355 7.70123 24.4649C7.59456 24.4942 7.48158 24.4913 7.37658 24.4564C7.27157 24.4216 7.17924 24.3563 7.11125 24.269C7.06596 24.2108 7.03259 24.1442 7.01306 24.0731C6.99352 24.002 6.98821 23.9277 6.99742 23.8546C7.00664 23.7814 7.03019 23.7108 7.06674 23.6467C7.10329 23.5827 7.15212 23.5265 7.21042 23.4814ZM24.4974 8.32448C24.4981 8.4353 24.4659 8.54381 24.4049 8.6363C24.3439 8.72879 24.2569 8.8011 24.1548 8.84409C24.0528 8.88708 23.9403 8.89882 23.8316 8.87782C23.7229 8.85683 23.6228 8.80403 23.5441 8.72612C23.4653 8.64822 23.4114 8.54869 23.3892 8.44013C23.367 8.33156 23.3774 8.21885 23.4192 8.11623C23.461 8.0136 23.5323 7.92569 23.624 7.8636C23.7157 7.8015 23.8237 7.76802 23.9344 7.76739C24.0827 7.76738 24.2249 7.82587 24.3303 7.93016C24.4357 8.03446 24.4958 8.17615 24.4974 8.32448ZM23.4834 39.4739C23.4754 39.3633 23.5004 39.2529 23.5552 39.1566C23.61 39.0603 23.692 38.9824 23.791 38.9327C23.8901 38.8831 24.0015 38.864 24.1114 38.8777C24.2213 38.8915 24.3246 38.9376 24.4083 39.0102C24.492 39.0828 24.5523 39.1786 24.5816 39.2854C24.6109 39.3923 24.6079 39.5055 24.5729 39.6107C24.5379 39.7158 24.4726 39.8082 24.3851 39.8762C24.2977 39.9442 24.192 39.9847 24.0816 39.9926C23.9349 40.0041 23.7896 39.957 23.6775 39.8616C23.5654 39.7662 23.4956 39.6303 23.4834 39.4835V39.4739Z" fill="white"/>
</g>
<defs>
<clipPath id="clip0">
<rect width="48" height="48" fill="white"/>
</clipPath>
</defs>
</svg>
