<svg width="48" height="48" viewBox="0 0 48 48" fill="none" xmlns="http://www.w3.org/2000/svg">
<g clip-path="url(#clip0)">
<path d="M38.6303 24.7846C37.5491 23.7473 35.9795 23.1827 33.9215 23.0909C35.6553 22.8369 36.9733 22.314 37.8754 21.5221C38.2899 21.195 38.6264 20.7796 38.8604 20.3061C39.0945 19.8326 39.2202 19.3128 39.2285 18.7846C39.2285 17.5381 38.6602 16.5221 37.5235 15.7366C36.4742 15.013 34.8332 14.6256 32.6131 14.5712V11.9041H29.9932V14.5936C29.7732 14.5894 29.5532 14.5979 29.3342 14.6192C28.6337 14.6512 27.9683 14.6704 27.3221 14.6768V11.8945H24.699V14.6576L24.0592 14.6352C23.1187 14.5861 22.207 14.5626 21.3241 14.5648C21.2697 14.5648 21.2217 14.6352 21.1769 14.7793C21.1351 14.902 21.1135 15.0306 21.113 15.1603C21.1158 15.2806 21.1385 15.3996 21.1801 15.5125C21.2249 15.6565 21.2729 15.7366 21.3273 15.759C22.3936 15.8849 23.091 16.1101 23.4194 16.4346C23.607 16.6539 23.7492 16.9084 23.8376 17.1832C23.926 17.458 23.9589 17.7477 23.9344 18.0354V22.1976C23.7149 22.2018 23.4981 22.2463 23.2946 22.3289C22.746 21.6476 22.1368 21.0174 21.4744 20.4463L17.2742 16.854L15.8571 15.6181L14.8463 14.68L13.1668 13.0792L12.5494 12.4868C12.4853 12.4253 12.403 12.3862 12.3148 12.3752C12.2266 12.3642 12.1372 12.3821 12.06 12.426C12.0233 12.4482 11.9926 12.479 11.9704 12.5157C11.9281 12.5953 11.913 12.6866 11.9275 12.7757C11.9419 12.8647 11.9851 12.9466 12.0504 13.0087L12.6614 13.6042L14.296 15.2659L15.2557 16.2264L16.5353 17.5808L20.2557 21.6661C20.7469 22.2076 21.2819 22.7077 21.8551 23.1613H20.4732L18.621 23.3022L18.2339 23.3534L16.6345 23.5231L15.9947 23.552C15.9661 23.5533 15.9377 23.5462 15.9132 23.5313C15.8887 23.5165 15.8692 23.4947 15.8571 23.4687L15.8251 23.3887C15.7599 23.267 15.6653 23.1635 15.55 23.0877H15.5308C15.382 23.0023 15.208 22.9718 15.039 23.0017C14.8701 23.0315 14.7169 23.1197 14.6063 23.251L14.5743 23.2798C14.1488 23.489 13.6791 23.5923 13.2052 23.5808L12.5366 23.632L11.8968 23.6128C11.8339 23.6136 11.772 23.6295 11.7164 23.659C11.6608 23.6885 11.613 23.7308 11.5769 23.7825C11.5238 23.8574 11.4948 23.9468 11.4938 24.0386C11.4955 24.1294 11.5244 24.2175 11.5769 24.2915C11.612 24.3442 11.6596 24.3873 11.7154 24.4169C11.7713 24.4465 11.8336 24.4618 11.8968 24.4612L12.5366 24.4452L13.1764 24.474C13.6501 24.4614 14.1198 24.5636 14.5456 24.7718L14.5775 24.807C14.6895 24.9375 14.8436 25.0246 15.0131 25.0533C15.1825 25.0819 15.3566 25.0503 15.5052 24.9639H15.5244C15.6395 24.8901 15.7332 24.7874 15.7963 24.6661L15.8443 24.5829C15.8549 24.5563 15.8736 24.5337 15.8977 24.5182C15.9218 24.5027 15.9501 24.4951 15.9787 24.4965L16.6185 24.5285L18.2179 24.6982L18.5602 24.7526H18.5794L20.4284 24.8935C21.0906 24.9159 21.7272 24.8935 22.287 24.8743C22.4395 25.1684 22.6687 25.4156 22.9503 25.5898C23.2319 25.764 23.5554 25.8586 23.8864 25.8636V29.9105C23.8864 30.6533 23.719 31.187 23.3842 31.5114C23.0494 31.8358 22.352 32.0621 21.2921 32.1902C21.2409 32.2094 21.1929 32.2894 21.1482 32.4335C21.1073 32.5467 21.0836 32.6654 21.0778 32.7857C21.0801 32.9157 21.1039 33.0444 21.1482 33.1667C21.1929 33.3108 21.2409 33.3812 21.2921 33.3812C22.1793 33.3812 23.1176 33.3599 24.1072 33.3172C24.3023 33.3172 24.4942 33.298 24.683 33.2915V36.0962H27.3061V33.2499C28.0195 33.2499 28.8 33.2755 29.6701 33.3172H29.9676V36.0898H32.6291V33.3716C35.5252 33.3716 37.5171 32.8625 38.6047 31.8444C39.1297 31.3824 39.5491 30.8128 39.8345 30.1741C40.1199 29.5355 40.2645 28.8428 40.2586 28.1432C40.2586 26.9436 39.7158 25.8241 38.6303 24.7846ZM23.8257 24.8775C23.6202 24.8795 23.4195 24.8156 23.2531 24.695C23.2422 24.6893 23.2324 24.6817 23.2243 24.6725L23.1955 24.6533C23.1641 24.6273 23.1342 24.5995 23.1059 24.5701L23.0835 24.5445L23.0547 24.5125L23.0227 24.4708L22.9971 24.4324C22.9695 24.3916 22.945 24.3488 22.9236 24.3044L22.898 24.2435C22.8886 24.224 22.8811 24.2036 22.8756 24.1827C22.8684 24.1619 22.863 24.1404 22.8596 24.1187C22.8564 24.0974 22.8564 24.0758 22.8596 24.0546C22.8563 24.012 22.8563 23.9692 22.8596 23.9266V23.8785C22.8591 23.6313 22.9506 23.3928 23.1162 23.2093C23.2817 23.0259 23.5095 22.9106 23.7553 22.886H23.9408C24.1874 22.9103 24.4162 23.0255 24.5826 23.2093C24.749 23.393 24.8411 23.6321 24.8411 23.8801C24.8411 24.1281 24.749 24.3673 24.5826 24.551C24.4162 24.7347 24.1874 24.85 23.9408 24.8743L23.8257 24.8775ZM29.2638 17.1325C29.2638 16.6267 29.379 16.2937 29.6157 16.1304C29.891 15.9575 30.2124 15.8726 30.537 15.8871H30.8569C31.8337 15.8871 32.5385 16.1389 32.9714 16.6427C33.4065 17.1485 33.6112 17.981 33.6112 19.1432C33.6112 20.3054 33.4001 21.2371 32.949 21.7718C32.498 22.3065 31.7558 22.5978 30.7098 22.5978H29.2702L29.2638 17.1325ZM33.5312 31.0568C32.864 31.6749 31.993 32.0259 31.084 32.0429C30.6071 32.0763 30.1339 31.9377 29.7501 31.6523C29.5779 31.4854 29.4454 31.282 29.3624 31.057C29.2793 30.832 29.2478 30.5912 29.2702 30.3524V23.9073H31.2984C32.4148 23.9073 33.2625 24.2275 33.8287 24.9191C34.3949 25.6107 34.6764 26.5744 34.6764 27.8871C34.6764 29.3598 34.2947 30.4164 33.5312 31.0568Z" fill="#DC143C"/>
<path d="M20.5211 46.0086C16.5449 46.0199 12.6409 44.9462 9.22882 42.9029C12.769 45.6837 17.0193 47.4118 21.4941 47.8899C25.9689 48.3681 30.4879 47.5769 34.5348 45.6069C38.5818 43.6368 41.9935 40.5672 44.3804 36.7488C46.7672 32.9303 48.033 28.517 48.033 24.0128C48.033 19.5087 46.7672 15.0953 44.3804 11.2769C41.9935 7.45844 38.5818 4.38887 34.5348 2.41879C30.4879 0.448713 25.9689 -0.342442 21.4941 0.135694C17.0193 0.61383 12.769 2.34198 9.22882 5.12275C12.1357 3.37682 15.4065 2.32712 18.7857 2.05565C22.165 1.78418 25.5612 2.29827 28.7091 3.55779C31.857 4.8173 34.6713 6.78813 36.9324 9.31634C39.1933 11.8445 40.8398 14.8617 41.743 18.1321C42.6463 21.4025 42.7819 24.8376 42.1393 28.1692C41.4967 31.5007 40.0933 34.6385 38.0387 37.3374C35.984 40.0362 33.3338 42.2232 30.295 43.7274C27.2563 45.2316 23.9112 46.0123 20.5211 46.0086Z" fill="#DC143C"/>
<path d="M24.3695 40.3797C24.5311 40.307 24.6675 40.1878 24.7615 40.0374C24.8555 39.887 24.9027 39.7121 24.8973 39.5348C24.8919 39.3575 24.8341 39.1858 24.7312 39.0414C24.6282 38.897 24.4848 38.7865 24.319 38.7237C24.1533 38.6609 23.9726 38.6488 23.8 38.6888C23.6273 38.7288 23.4704 38.8192 23.3491 38.9485C23.2278 39.0778 23.1475 39.2402 23.1185 39.4152C23.0894 39.5902 23.1129 39.7699 23.1859 39.9315C23.2682 40.1179 23.4131 40.2697 23.5954 40.3605V42.3712H22.994C19.6448 42.377 16.3584 41.4622 13.4931 39.7266L14.4912 37.9881L13.8226 37.6039L12.8373 39.3264C10.5625 37.812 8.6498 35.8135 7.23601 33.4736L8.95703 32.4875L8.56996 31.8152L6.84894 32.8077C5.43715 30.2241 4.669 27.3378 4.60968 24.3936H6.63781V24.3584C6.66294 24.4126 6.69521 24.4632 6.73377 24.5089C6.84481 24.6453 6.9935 24.746 7.16133 24.7985C7.32915 24.8509 7.50869 24.8527 7.67755 24.8038C7.84642 24.7548 7.99715 24.6572 8.11096 24.523C8.22478 24.3889 8.29663 24.2242 8.31758 24.0495C8.33853 23.8748 8.30764 23.6978 8.22876 23.5405C8.14989 23.3833 8.02651 23.2527 7.87402 23.1651C7.72152 23.0776 7.54665 23.0368 7.37119 23.0481C7.19573 23.0593 7.02745 23.1219 6.88732 23.2282C6.7566 23.327 6.65402 23.4583 6.58982 23.6092H4.58409C4.64202 20.6145 5.43169 17.6795 6.88412 15.0606L8.56676 16.0211L8.95703 15.368L7.27759 14.4075C8.69201 12.0873 10.5988 10.1067 12.8629 8.60599L13.8226 10.3029L14.5008 9.92509L13.5155 8.19937C16.3761 6.47305 19.6536 5.56189 22.994 5.56437H23.5922V7.41175C23.409 7.49958 23.2612 7.64708 23.1728 7.83007C23.0844 8.01305 23.0608 8.22066 23.1058 8.41884C23.1508 8.61703 23.2617 8.79403 23.4204 8.92083C23.5791 9.04762 23.7762 9.11668 23.9792 9.11668C24.1823 9.11668 24.3793 9.04762 24.538 8.92083C24.6967 8.79403 24.8077 8.61703 24.8527 8.41884C24.8977 8.22066 24.874 8.01305 24.7857 7.83007C24.6973 7.64708 24.5494 7.49958 24.3663 7.41175V5.60919C27.2184 5.82089 29.9814 6.6981 32.434 8.17056C29.4735 5.84735 25.9199 4.40416 22.179 4.00578C18.4381 3.60739 14.6607 4.26986 11.278 5.91755C7.89528 7.56525 5.04368 10.1317 3.04875 13.324C1.05383 16.5163 -0.00402832 20.2057 -0.00402832 23.971C-0.00402832 27.7363 1.05383 31.4257 3.04875 34.6179C5.04368 37.8102 7.89528 40.3767 11.278 42.0244C14.6607 43.6721 18.4381 44.3346 22.179 43.9362C25.9199 43.5378 29.4735 42.0946 32.434 39.7714C29.9821 41.2453 27.2187 42.1226 24.3663 42.3328L24.3695 40.3797ZM7.21042 23.4811C7.29794 23.4134 7.40355 23.3731 7.51391 23.3654C7.62428 23.3577 7.73445 23.3829 7.83051 23.4379C7.92658 23.4928 8.00423 23.575 8.05366 23.674C8.1031 23.7731 8.1221 23.8846 8.10827 23.9944C8.09443 24.1043 8.04839 24.2076 7.97594 24.2913C7.9035 24.375 7.80791 24.4353 7.70123 24.4646C7.59456 24.494 7.48158 24.491 7.37658 24.4562C7.27157 24.4213 7.17924 24.3561 7.11125 24.2687C7.06596 24.2106 7.03259 24.144 7.01306 24.0729C6.99352 24.0018 6.98821 23.9275 6.99743 23.8543C7.00664 23.7811 7.0302 23.7105 7.06675 23.6465C7.1033 23.5824 7.15212 23.5262 7.21042 23.4811ZM24.4975 8.32424C24.4981 8.43505 24.4659 8.54357 24.4049 8.63606C24.3439 8.72855 24.2569 8.80086 24.1548 8.84385C24.0528 8.88684 23.9403 8.89858 23.8316 8.87758C23.7229 8.85658 23.6228 8.80379 23.5441 8.72588C23.4653 8.64797 23.4114 8.54844 23.3892 8.43988C23.367 8.33132 23.3774 8.2186 23.4192 8.11598C23.461 8.01336 23.5323 7.92544 23.624 7.86335C23.7157 7.80126 23.8237 7.76778 23.9344 7.76714C24.0827 7.76713 24.2249 7.82562 24.3303 7.92992C24.4357 8.03421 24.4958 8.1759 24.4975 8.32424ZM23.4834 39.4736C23.4754 39.3631 23.5004 39.2527 23.5552 39.1564C23.61 39.06 23.692 38.9821 23.791 38.9325C23.8901 38.8828 24.0015 38.8637 24.1114 38.8775C24.2213 38.8913 24.3246 38.9374 24.4083 39.01C24.492 39.0825 24.5523 39.1783 24.5816 39.2852C24.6109 39.3921 24.6079 39.5052 24.5729 39.6104C24.5379 39.7156 24.4726 39.808 24.3851 39.876C24.2977 39.9439 24.192 39.9844 24.0816 39.9923C23.9349 40.0038 23.7896 39.9567 23.6775 39.8614C23.5654 39.766 23.4956 39.63 23.4834 39.4833V39.4736Z" fill="#DC143C"/>
</g>
<defs>
<clipPath id="clip0">
<rect width="48" height="48" fill="white"/>
</clipPath>
</defs>
</svg>
