<svg width="50" height="50" viewBox="0 0 50 50" fill="none" xmlns="http://www.w3.org/2000/svg">
<g clip-path="url(#clip0)">
<path fill-rule="evenodd" clip-rule="evenodd" d="M25 50C31.6304 50 37.9893 47.3661 42.6777 42.6777C47.3661 37.9893 50 31.6304 50 25C50 18.3696 47.3661 12.0107 42.6777 7.32233C37.9893 2.63392 31.6304 0 25 0C18.3696 0 12.0107 2.63392 7.32233 7.32233C2.63392 12.0107 0 18.3696 0 25C0 31.6304 2.63392 37.9893 7.32233 42.6777C12.0107 47.3661 18.3696 50 25 50ZM36.8125 19.625C37.2265 19.1807 37.4519 18.5931 37.4412 17.9859C37.4305 17.3787 37.1845 16.7993 36.7551 16.3699C36.3257 15.9405 35.7463 15.6945 35.1391 15.6838C34.5319 15.6731 33.9443 15.8985 33.5 16.3125L21.0938 28.7187L16.5 24.125C16.0557 23.711 15.4681 23.4856 14.8609 23.4963C14.2537 23.507 13.6743 23.753 13.2449 24.1824C12.8155 24.6118 12.5695 25.1912 12.5588 25.7984C12.5481 26.4056 12.7735 26.9932 13.1875 27.4375L19.4375 33.6875C19.877 34.1264 20.4727 34.3729 21.0938 34.3729C21.7148 34.3729 22.3105 34.1264 22.75 33.6875L36.8125 19.625Z" fill="#EEEFF1"/>
</g>
<defs>
<clipPath id="clip0">
<rect width="50" height="50" fill="white"/>
</clipPath>
</defs>
</svg>
