<svg width="50" height="50" viewBox="0 0 50 50" fill="none" xmlns="http://www.w3.org/2000/svg">
<rect width="50" height="50" rx="8" fill="white"/>
<path fill-rule="evenodd" clip-rule="evenodd" d="M33.3388 18.6612C38.2204 23.5427 38.2204 31.4573 33.3388 36.3388C28.4573 41.2204 20.5427 41.2204 15.6612 36.3388C10.7796 31.4573 10.7796 23.5427 15.6612 18.6612C20.5427 13.7796 28.4573 13.7796 33.3388 18.6612ZM30.3229 35.2871L16.7129 21.6771C13.8579 25.4852 14.162 30.9113 17.6254 34.3746C21.0887 37.838 26.5148 38.1421 30.3229 35.2871ZM31.3746 20.6254C34.838 24.0887 35.1421 29.5148 32.2871 33.3229L18.6771 19.7129C22.4852 16.8579 27.9113 17.162 31.3746 20.6254Z" fill="#DC143C"/>
</svg>
