<svg width="50" height="50" viewBox="0 0 50 50" fill="none" xmlns="http://www.w3.org/2000/svg">
<rect width="50" height="50" rx="8" fill="white"/>
<path d="M15.125 18.125H21.375V15H12V24.375H15.125V18.125Z" fill="#DC143C"/>
<path d="M21.375 36.875H15.125V30.625H12V40H21.375V36.875Z" fill="#DC143C"/>
<path d="M27.625 18.125H33.875V24.375H37V15H27.625V18.125Z" fill="#DC143C"/>
<path d="M27.625 36.875H33.875V30.625H37V40H27.625V36.875Z" fill="#DC143C"/>
<path d="M24.5 22.0312C21.4797 22.0312 19.0312 24.4797 19.0312 27.5C19.0312 30.5203 21.4797 32.9688 24.5 32.9688C27.5203 32.9688 29.9688 30.5203 29.9688 27.5C29.9688 24.4797 27.5203 22.0312 24.5 22.0312Z" fill="#DC143C"/>
</svg>
