<svg width="50" height="50" viewBox="0 0 50 50" fill="none" xmlns="http://www.w3.org/2000/svg">
<rect width="50" height="50" rx="8" fill="white"/>
<path fill-rule="evenodd" clip-rule="evenodd" d="M22.75 25C25.5114 25 27.75 22.7614 27.75 20C27.75 17.2386 25.5114 15 22.75 15C19.9886 15 17.75 17.2386 17.75 20C17.75 22.7614 19.9886 25 22.75 25ZM22.75 22.5C24.1307 22.5 25.25 21.3807 25.25 20C25.25 18.6193 24.1307 17.5 22.75 17.5C21.3693 17.5 20.25 18.6193 20.25 20C20.25 21.3807 21.3693 22.5 22.75 22.5Z" fill="#DC143C"/>
<path d="M27.75 28.75C28.4404 28.75 29 29.3096 29 30V37.5H31.5V30C31.5 27.9289 29.8211 26.25 27.75 26.25H17.75C15.6789 26.25 14 27.9289 14 30V37.5H16.5V30C16.5 29.3096 17.0596 28.75 17.75 28.75H27.75Z" fill="#DC143C"/>
<path d="M34 20H36.5V22.5H39V25H36.5V27.5H34V25H31.5V22.5H34V20Z" fill="#DC143C"/>
</svg>
