<svg width="50" height="50" viewBox="0 0 50 50" fill="none" xmlns="http://www.w3.org/2000/svg">
<rect width="50" height="50" rx="8" fill="white"/>
<path d="M12 15H15.3191V19.2436C17.294 17.6918 19.7843 16.7663 22.4908 16.7663C28.9066 16.7663 34.1076 21.9673 34.1076 28.3831C34.1076 34.799 28.9066 40 22.4908 40C18.9219 40 15.7289 38.3907 13.598 35.8581L16.2853 33.8919C17.8053 35.6029 20.0221 36.6809 22.4908 36.6809C27.0735 36.6809 30.7885 32.9659 30.7885 28.3831C30.7885 23.8004 27.0735 20.0854 22.4908 20.0854C20.6871 20.0854 19.0178 20.6608 17.6566 21.6382L21.9573 21.6382V24.9573H12V15Z" fill="#DC143C"/>
</svg>
