<svg width="50" height="50" viewBox="0 0 50 50" fill="none" xmlns="http://www.w3.org/2000/svg">
<rect width="50" height="50" rx="8" fill="white"/>
<path d="M17.5556 37.2222H31.4444V34.4444H17.5556V37.2222Z" fill="#DC143C"/>
<path d="M31.4444 31.6667H17.5556V28.8889H31.4444V31.6667Z" fill="#DC143C"/>
<path d="M17.5556 26.1111H23.1111V23.3333H17.5556V26.1111Z" fill="#DC143C"/>
<path fill-rule="evenodd" clip-rule="evenodd" d="M16.1667 15C13.8655 15 12 16.8655 12 19.1667V38.6111C12 40.9123 13.8655 42.7778 16.1667 42.7778H32.8333C35.1345 42.7778 37 40.9123 37 38.6111V24.7222C37 19.3528 32.6472 15 27.2778 15H16.1667ZM16.1667 17.7778H25.8889V24.7222H34.2222V38.6111C34.2222 39.3782 33.6004 40 32.8333 40H16.1667C15.3996 40 14.7778 39.3782 14.7778 38.6111V19.1667C14.7778 18.3996 15.3996 17.7778 16.1667 17.7778ZM28.6667 17.9167C30.9046 18.371 32.7518 19.9015 33.6444 21.9444H28.6667V17.9167Z" fill="#DC143C"/>
</svg>
