<svg width="50" height="50" viewBox="0 0 50 50" fill="none" xmlns="http://www.w3.org/2000/svg">
<rect width="50" height="50" rx="8" fill="white"/>
<path d="M34.5 15H14.5C13.837 15 13.2011 15.2634 12.7322 15.7322C12.2634 16.2011 12 16.837 12 17.5V38.25C12 38.5261 12.2239 38.75 12.5 38.75H13.0429C13.1755 38.75 13.3027 38.6973 13.3964 38.6036L18.1036 33.8964C18.1973 33.8027 18.3245 33.75 18.4571 33.75H34.5C35.163 33.75 35.7989 33.4866 36.2678 33.0178C36.7366 32.5489 37 31.913 37 31.25V17.5C37 16.837 36.7366 16.2011 36.2678 15.7322C35.7989 15.2634 35.163 15 34.5 15ZM34.5 31.25H17.2071C17.0745 31.25 16.9473 31.3027 16.8536 31.3964L15.3536 32.8964C15.0386 33.2114 14.5 32.9883 14.5 32.5429V18C14.5 17.7239 14.7239 17.5 15 17.5H34.5" fill="#DC143C"/>
</svg>
