<svg width="50" height="50" viewBox="0 0 50 50" fill="none" xmlns="http://www.w3.org/2000/svg">
<rect width="50" height="50" rx="8" fill="white"/>
<path fill-rule="evenodd" clip-rule="evenodd" d="M16.1667 15C15.0161 15 14.0833 15.9327 14.0833 17.0833V18.125C14.0833 18.184 14.0858 18.2425 14.0906 18.3003C12.8731 18.7272 12 19.8866 12 21.25V33.75C12 35.4759 13.3991 36.875 15.125 36.875H33.875C35.6009 36.875 37 35.4759 37 33.75V21.25C37 19.5241 35.6009 18.125 33.875 18.125H24.3687C23.9062 16.3279 22.2748 15 20.3333 15H16.1667ZM22.138 18.125C21.7777 17.5023 21.1045 17.0833 20.3333 17.0833H16.1667V18.125H22.138ZM15.125 20.2083C14.5497 20.2083 14.0833 20.6747 14.0833 21.25V33.75C14.0833 34.3253 14.5497 34.7917 15.125 34.7917H33.875C34.4503 34.7917 34.9167 34.3253 34.9167 33.75V21.25C34.9167 20.6747 34.4503 20.2083 33.875 20.2083H15.125Z" fill="#DC143C"/>
</svg>
