<svg width="50" height="50" viewBox="0 0 50 50" fill="none" xmlns="http://www.w3.org/2000/svg">
<rect width="50" height="50" rx="8" fill="white"/>
<path d="M19.9367 25.5823C19.9367 26.3129 19.3445 26.9051 18.614 26.9051C17.8834 26.9051 17.2912 26.3129 17.2912 25.5823C17.2912 24.8517 17.8834 24.2595 18.614 24.2595C19.3445 24.2595 19.9367 24.8517 19.9367 25.5823Z" fill="#DC143C"/>
<path d="M22.5823 26.9051C23.3129 26.9051 23.9051 26.3129 23.9051 25.5823C23.9051 24.8517 23.3129 24.2595 22.5823 24.2595C21.8518 24.2595 21.2595 24.8517 21.2595 25.5823C21.2595 26.3129 21.8518 26.9051 22.5823 26.9051Z" fill="#DC143C"/>
<path d="M26.5507 26.9051C27.2812 26.9051 27.8735 26.3129 27.8735 25.5823C27.8735 24.8517 27.2812 24.2595 26.5507 24.2595C25.8201 24.2595 25.2279 24.8517 25.2279 25.5823C25.2279 26.3129 25.8201 26.9051 26.5507 26.9051Z" fill="#DC143C"/>
<path fill-rule="evenodd" clip-rule="evenodd" d="M30.0651 18.0995C33.8816 21.9159 34.1736 27.9222 30.9411 32.0738C30.9613 32.0917 30.9811 32.1103 31.0005 32.1296L36.6126 37.7417C37.1291 38.2583 37.1291 39.0958 36.6126 39.6124C36.096 40.129 35.2584 40.129 34.7419 39.6124L29.1297 34.0003C29.1104 33.981 29.0918 33.9612 29.0739 33.941C24.9224 37.1736 18.916 36.8816 15.0995 33.0651C10.9668 28.9325 10.9668 22.2321 15.0995 18.0995C19.2321 13.9668 25.9325 13.9668 30.0651 18.0995ZM16.9702 31.1944C20.0697 34.2939 25.0949 34.2939 28.1944 31.1944C31.2939 28.0949 31.2939 23.0697 28.1944 19.9702C25.0949 16.8707 20.0697 16.8707 16.9702 19.9702C13.8707 23.0697 13.8707 28.0949 16.9702 31.1944Z" fill="#DC143C"/>
</svg>
