<svg width="50" height="50" viewBox="0 0 50 50" fill="none" xmlns="http://www.w3.org/2000/svg">
<rect width="50" height="50" rx="8" fill="white"/>
<path d="M18.7662 25.1673L20.7928 23.4668L22.4934 25.4934L26.5466 22.0923L28.2472 24.1189L22.1673 29.2206L18.7662 25.1673Z" fill="#DC143C"/>
<path fill-rule="evenodd" clip-rule="evenodd" d="M30.0651 18.0995C33.8816 21.916 34.1736 27.9223 30.941 32.0738C30.9613 32.0917 30.9811 32.1104 31.0005 32.1298L36.6126 37.7419C37.1291 38.2584 37.1291 39.096 36.6126 39.6126C36.096 40.1291 35.2584 40.1291 34.7419 39.6126L29.1298 34.0005C29.1104 33.9811 29.0918 33.9613 29.0738 33.941C24.9223 37.1736 18.916 36.8816 15.0995 33.0651C10.9668 28.9325 10.9668 22.2321 15.0995 18.0995C19.2321 13.9668 25.9325 13.9668 30.0651 18.0995ZM28.1944 31.1944C31.2939 28.0949 31.2939 23.0697 28.1944 19.9702C25.0949 16.8707 20.0697 16.8707 16.9702 19.9702C13.8707 23.0697 13.8707 28.0949 16.9702 31.1944C20.0697 34.2939 25.0949 34.2939 28.1944 31.1944Z" fill="#DC143C"/>
</svg>
