<svg width="50" height="50" viewBox="0 0 50 50" fill="none" xmlns="http://www.w3.org/2000/svg">
<rect width="50" height="50" rx="8" fill="white"/>
<path fill-rule="evenodd" clip-rule="evenodd" d="M27.6169 33.2099C27.7086 33.2126 27.8007 33.214 27.893 33.214C32.9227 33.214 37 29.1366 37 24.107C37 19.0773 32.9227 15 27.893 15C25.0171 15 22.4525 16.3331 20.7835 18.4151H19.3994C15.3128 18.4151 12 21.728 12 25.8145C12 29.9011 15.3128 33.214 19.3994 33.214H27.368C27.4513 33.214 27.5343 33.2126 27.6169 33.2099ZM29.8405 30.6196C32.5158 29.7444 34.7233 27.1595 34.7233 24.107C34.7233 20.3347 31.6653 17.2767 27.893 17.2767C24.1208 17.2767 21.0628 20.3347 21.0628 24.107H18.786C18.786 22.8993 19.0211 21.7465 19.448 20.6919H19.3994C16.5702 20.6919 14.2767 22.9854 14.2767 25.8145C14.2767 28.6437 16.5702 30.9372 19.3994 30.9372H27.368C27.9938 30.9372 28.9443 30.825 29.8405 30.6196Z" fill="#DC143C"/>
</svg>
