<svg width="50" height="50" viewBox="0 0 50 50" fill="none" xmlns="http://www.w3.org/2000/svg">
<rect width="50" height="50" rx="8" fill="white"/>
<path fill-rule="evenodd" clip-rule="evenodd" d="M30.75 18.75H34.5C35.8807 18.75 37 19.8693 37 21.25V36.25C37 37.6307 35.8807 38.75 34.5 38.75H14.5C13.1193 38.75 12 37.6307 12 36.25V21.25C12 19.8693 13.1193 18.75 14.5 18.75H18.25C18.25 16.6789 19.9289 15 22 15H27C29.0711 15 30.75 16.6789 30.75 18.75ZM27 17.5H22C21.3096 17.5 20.75 18.0596 20.75 18.75H28.25C28.25 18.0596 27.6904 17.5 27 17.5ZM34.5 21.25H14.5V23.75H34.5V21.25ZM14.5 36.25V26.25H18.25V28.75H23.25V26.25H25.75V28.75H30.75V26.25H34.5V36.25H14.5Z" fill="#DC143C"/>
</svg>
