<svg width="50" height="50" viewBox="0 0 50 50" fill="none" xmlns="http://www.w3.org/2000/svg">
<rect width="50" height="50" rx="8" fill="white"/>
<path d="M34.4414 22.2838L30.3064 16.3783L32.2748 15L36.4099 20.9054L34.4414 22.2838Z" fill="#DC143C"/>
<path d="M32.1779 25.3354L30.1104 22.3828L20.268 29.2745L22.3355 32.2271L20.367 33.6055L14.8536 25.7316L16.8221 24.3532L18.8897 27.306L28.7321 20.4143L26.6645 17.4615L28.633 16.0832L34.1463 23.9571L32.1779 25.3354Z" fill="#DC143C"/>
<path d="M35.0315 18.9369L37 17.5585L35.6217 15.5901L33.6532 16.9684L35.0315 18.9369Z" fill="#DC143C"/>
<path d="M18.6936 33.3104L14.5586 27.405L12.5901 28.7833L16.7252 34.6887L18.6936 33.3104Z" fill="#DC143C"/>
<path d="M15.3468 32.7203L13.3783 34.0987L12 32.1302L13.9685 30.7519L15.3468 32.7203Z" fill="#DC143C"/>
</svg>
