<svg width="50" height="50" viewBox="0 0 50 50" fill="none" xmlns="http://www.w3.org/2000/svg">
<rect width="50" height="50" rx="8" fill="white"/>
<path fill-rule="evenodd" clip-rule="evenodd" d="M29.8571 25.7143C31.8296 25.7143 33.4286 27.3133 33.4286 29.2857V36.4286C33.4286 38.401 31.8296 40 29.8571 40H15.5714C13.599 40 12 38.401 12 36.4286V29.2857C12 27.3133 13.599 25.7143 15.5714 25.7143V22.1429C15.5714 18.198 18.7694 15 22.7143 15C26.6592 15 29.8571 18.198 29.8571 22.1429V25.7143ZM22.7143 17.381C25.3442 17.381 27.4762 19.5129 27.4762 22.1429V25.7143H17.9524V22.1429C17.9524 19.5129 20.0844 17.381 22.7143 17.381ZM29.8571 28.0952H15.5714C14.9139 28.0952 14.381 28.6282 14.381 29.2857V36.4286C14.381 37.0861 14.9139 37.619 15.5714 37.619H29.8571C30.5146 37.619 31.0476 37.0861 31.0476 36.4286V29.2857C31.0476 28.6282 30.5146 28.0952 29.8571 28.0952Z" fill="#DC143C"/>
</svg>
