<svg width="34" height="34" viewBox="0 0 34 34" fill="none" xmlns="http://www.w3.org/2000/svg">
<path fill-rule="evenodd" clip-rule="evenodd" d="M24.464 22.3481C28.1271 17.6435 27.7962 10.8372 23.4714 6.51233C18.7883 1.82922 11.1954 1.82922 6.51233 6.51233C1.82922 11.1954 1.82922 18.7883 6.51233 23.4714C10.8372 27.7962 17.6435 28.1271 22.3481 24.464C22.3684 24.4869 22.3895 24.5094 22.4114 24.5313L28.7711 30.891C29.3565 31.4763 30.3056 31.4763 30.891 30.891C31.4763 30.3056 31.4763 29.3565 30.891 28.7711L24.5313 22.4114C24.5094 22.3895 24.4869 22.3684 24.464 22.3481ZM21.3515 8.63221C24.8638 12.1445 24.8638 17.8392 21.3515 21.3515C17.8392 24.8638 12.1445 24.8638 8.63221 21.3515C5.11988 17.8392 5.11988 12.1445 8.63221 8.63221C12.1445 5.11988 17.8392 5.11988 21.3515 8.63221Z" fill="#241F20"/>
</svg>
