<svg width="34" height="34" viewBox="0 0 34 34" fill="none" xmlns="http://www.w3.org/2000/svg">
<path d="M19.7405 16.5895H14.5895V19.165H19.7405V16.5895Z" fill="#241F20"/>
<path fill-rule="evenodd" clip-rule="evenodd" d="M10.7264 8.86318V7.57545C10.7264 6.15309 11.8794 5 13.3018 5H21.0282C22.4506 5 23.6036 6.15309 23.6036 7.57545V8.86318H27.4668C29.6004 8.86318 31.33 10.5928 31.33 12.7264V25.6036C31.33 27.7372 29.6004 29.4668 27.4668 29.4668H6.86318C4.7296 29.4668 3 27.7372 3 25.6036V12.7264C3 10.5928 4.7296 8.86318 6.86318 8.86318H10.7264ZM13.3018 7.57545H21.0282V8.86318H13.3018V7.57545ZM6.86318 11.4386C6.15204 11.4386 5.57545 12.0151 5.57545 12.7264V20.4527H28.7545V12.7264C28.7545 12.0151 28.178 11.4386 27.4668 11.4386H6.86318ZM5.57545 25.6036V23.0282H28.7545V25.6036C28.7545 26.3149 28.178 26.8914 27.4668 26.8914H6.86318C6.15204 26.8914 5.57545 26.3149 5.57545 25.6036Z" fill="#241F20"/>
</svg>
