<svg width="34" height="34" viewBox="0 0 34 34" fill="none" xmlns="http://www.w3.org/2000/svg">
<path fill-rule="evenodd" clip-rule="evenodd" d="M9.72289 30.9995C7.66679 30.9995 6 29.3327 6 27.2766V14.867C6 14.8249 6.00209 14.7834 6.00618 14.7424H6C6 14.0276 6.28393 13.3422 6.78934 12.8368L14.5362 5.08992C15.99 3.63604 18.3472 3.63604 19.8011 5.08992L27.548 12.8368C28.0534 13.3422 28.3373 14.0276 28.3373 14.7424H28.3311C28.3352 14.7834 28.3373 14.8249 28.3373 14.867V27.2766C28.3373 29.3327 26.6705 30.9995 24.6144 30.9995H9.72289ZM18.0461 6.8449L25.8554 14.6541V27.2766C25.8554 27.962 25.2998 28.5176 24.6144 28.5176H20.8915V22.3128C20.8915 20.2567 19.2247 18.5899 17.1687 18.5899C15.1126 18.5899 13.4458 20.2567 13.4458 22.3128V28.5176H9.72289C9.03752 28.5176 8.48192 27.962 8.48192 27.2766V14.6542L16.2912 6.8449C16.7758 6.36028 17.5615 6.36028 18.0461 6.8449Z" fill="#241F20"/>
</svg>
