<svg width="34" height="34" viewBox="0 0 34 34" fill="none" xmlns="http://www.w3.org/2000/svg">
<path d="M12.75 19.8333C13.5324 19.8333 14.1666 19.199 14.1666 18.4166C14.1666 17.6342 13.5324 16.9999 12.75 16.9999C11.9676 16.9999 11.3333 17.6342 11.3333 18.4166C11.3333 19.199 11.9676 19.8333 12.75 19.8333Z" fill="#241F20"/>
<path d="M22.6666 18.4166C22.6666 19.199 22.0324 19.8333 21.25 19.8333C20.4676 19.8333 19.8333 19.199 19.8333 18.4166C19.8333 17.6342 20.4676 16.9999 21.25 16.9999C22.0324 16.9999 22.6666 17.6342 22.6666 18.4166Z" fill="#241F20"/>
<path fill-rule="evenodd" clip-rule="evenodd" d="M17 31.1666C24.824 31.1666 31.1666 24.824 31.1666 16.9999C31.1666 9.17588 24.824 2.83325 17 2.83325C9.17595 2.83325 2.83331 9.17588 2.83331 16.9999C2.83331 24.824 9.17595 31.1666 17 31.1666ZM17 28.3333C23.2592 28.3333 28.3333 23.2591 28.3333 16.9999C28.3333 15.8152 28.1515 14.673 27.8144 13.5995C26.632 13.9195 25.3884 14.0901 24.1049 14.0901C18.8305 14.0901 14.2293 11.2077 11.7906 6.93216C8.15246 8.81847 5.66665 12.6189 5.66665 16.9999C5.66665 23.2591 10.7408 28.3333 17 28.3333Z" fill="#241F20"/>
</svg>
