<svg width="34" height="34" viewBox="0 0 34 34" fill="none" xmlns="http://www.w3.org/2000/svg">
<path fill-rule="evenodd" clip-rule="evenodd" d="M15.5833 26.9166V31.1666H18.4167V26.9166H19.8333C22.9629 26.9166 25.5 24.3795 25.5 21.2499C25.5 18.1203 22.9629 15.5833 19.8333 15.5833H18.4167V9.91659H21.25V12.7499H24.0833V7.08325H18.4167V2.83325H15.5833V7.08325H14.1667C11.0371 7.08325 8.5 9.62031 8.5 12.7499C8.5 15.8795 11.0371 18.4166 14.1667 18.4166H15.5833V24.0833H12.75V21.2499H9.91667V26.9166H15.5833ZM18.4167 24.0833H19.8333C21.3981 24.0833 22.6667 22.8147 22.6667 21.2499C22.6667 19.6851 21.3981 18.4166 19.8333 18.4166H18.4167V24.0833ZM15.5833 15.5833V9.91659H14.1667C12.6019 9.91659 11.3333 11.1851 11.3333 12.7499C11.3333 14.3147 12.6019 15.5833 14.1667 15.5833H15.5833Z" fill="#241F20"/>
</svg>
