<svg width="32" height="32" viewBox="0 0 32 32" fill="none" xmlns="http://www.w3.org/2000/svg">
<path d="M22.3926 12.6784C22.8364 13.1222 22.8364 13.8417 22.3926 14.2855L19.0047 17.6735L22.0449 20.7137C22.4887 21.1575 22.4887 21.877 22.0449 22.3208C21.6011 22.7646 20.8816 22.7646 20.4378 22.3208L17.3976 19.2805L14.3573 22.3208C13.9136 22.7646 13.1941 22.7646 12.7503 22.3208C12.3065 21.877 12.3065 21.1575 12.7503 20.7137L15.7905 17.6735L12.4025 14.2855C11.9588 13.8417 11.9588 13.1222 12.4025 12.6784C12.8463 12.2347 13.5658 12.2347 14.0096 12.6784L17.3976 16.0664L20.7856 12.6784C21.2294 12.2347 21.9489 12.2347 22.3926 12.6784Z" fill="#241F20"/>
<path fill-rule="evenodd" clip-rule="evenodd" d="M8.30668 4.99963C6.42389 4.99963 4.89759 6.52594 4.89759 8.40872V26.5905C4.89759 28.4733 6.42389 29.9996 8.30668 29.9996H26.4885C28.3713 29.9996 29.8976 28.4733 29.8976 26.5905V8.40872C29.8976 6.52594 28.3713 4.99963 26.4885 4.99963H8.30668ZM26.4885 7.27236H8.30668C7.67909 7.27236 7.17032 7.78113 7.17032 8.40872V26.5905C7.17032 27.2181 7.67909 27.7269 8.30668 27.7269H26.4885C27.1161 27.7269 27.6249 27.2181 27.6249 26.5905V8.40872C27.6249 7.78113 27.1161 7.27236 26.4885 7.27236Z" fill="#241F20"/>
</svg>
